<svg viewBox="-72.39760168500057 -72.39760168500057 382.7472370700125 382.7472370700125" xmlns="http://www.w3.org/2000/svg">
<path d="M292.95203,275.31848 L275.31848,251.04797 M268.68152,292.95203 L292.95203,275.31848 M262.8898,285.18414 L262.97928,285.10355 M251.04797,268.68152 L268.68152,292.95203 M275.31848,251.04797 L251.04797,268.68152 M242.81587,262.8898 L262.8898,285.18414 M234.81587,257.1102 L249.58847,270.41153 M258.8536,237.34459 L260.4904,234.50961 M264.44244,243.41713 L254.88979,234.81587 M267.98657,246.01038 L268.95203,244.68152 M249.99902,228.45244 L251.80423,224.39787 M268.95203,244.68152 L244.68152,227.04797 M273.98962,252.01344 L270.83078,249.1692 M273.62817,252.27603 L265.1102,242.81587 L242.81587,262.8898 M254.88979,234.81587 L234.81587,257.1102 M260.4904,234.50961 L234.50961,219.50961 M227.04797,251.31848 L234.89644,257.02072 M244.68152,227.04797 L227.04797,251.31848 M251.80423,224.39787 L224.39787,212.19577 M241.17964,219.6675 L242.90111,214.3694 M232.4065,210.9595 L233.7909,204.44646 M242.90111,214.3694 L214.3694,205.09889 M219.50961,245.49039 L227.80336,250.27878 M212.19577,239.60213 L220.71843,243.39667 M205.09889,233.6306 L213.62155,236.39977 M234.50961,219.50961 L219.50961,245.49039 M224.39787,212.19577 L212.19577,239.60213 M214.3694,205.09889 L205.09889,233.6306 M233.7909,204.44646 L204.44646,198.2091 L198.2091,227.55354 L206.5008,229.316 M223.68196,202.29774 L224.48575,194.6501 L194.6501,191.51425 M191.51425,221.3499 L199.35262,222.17375 M194.6501,191.51425 L191.51425,221.3499 M185,215 L192.18164,215 M215,193.6531 L215,185 M185,185 L185,215 M215,185 L185,185 M206.3469,185 L205.3499,175.51425 M178.6501,208.48575 L185,207.81836 M175.51425,178.6501 L178.6501,208.48575 M205.3499,175.51425 L175.51425,178.6501 M172.44646,201.7909 L177.82625,200.64738 M166.3694,194.90111 L170.684,193.4992 M166.2091,172.44646 L172.44646,201.7909 M157.09889,166.3694 L166.3694,194.90111 M189.0405,167.5935 L185.6306,157.09889 M197.70226,176.31804 L195.55354,166.2091 L166.2091,172.44646 M185.6306,157.09889 L157.09889,166.3694 M160.39787,187.80423 L163.60023,186.37845 M154.50961,180.49039 L156.60333,179.28157 M148.68152,172.95203 L149.72122,172.19664 M142.88979,165.18413 L142.97928,165.10356 M148.19577,160.39787 L160.39787,187.80423 M139.50961,154.50961 L154.50961,180.49039 M180.3325,158.82036 L175.60213,148.19577 L148.19577,160.39787 M131.04797,148.68152 L148.68152,172.95203 M122.81587,142.88979 L142.88979,165.18413 M171.54756,150.00098 L165.49039,139.50961 L139.50961,154.50961 M147.98656,126.010376 L148.95203,124.681526 M114.81587,137.11021 L129.58847,150.41153 M162.65541,141.1464 L155.31848,131.04797 L131.04797,148.68152 M145.11021,122.81587 L122.81587,142.88979 M153.98962,132.01344 L150.8308,129.1692 M153.62819,132.27603 L145.11021,122.81587 M144.44244,123.41712 L134.88979,114.81587 L114.81587,137.11021 M148.95203,124.681526 L124.681526,107.047966 M138.8536,117.34459 L140.49039,114.50962 M129.99902,108.45243 L131.80423,104.397865 M140.49039,114.50962 L114.50962,99.50962 M121.17965,99.667496 L122.9011,94.36941 M112.4065,90.9595 L113.790886,84.446465 M103.68195,82.297745 L104.485756,74.6501 M99.50962,125.49038 L107.80335,130.27878 M92.19577,119.602135 L100.71843,123.39667 M107.047966,131.31848 L114.89644,137.02072 M124.681526,107.047966 L107.047966,131.31848 M131.80423,104.397865 L104.397865,92.19577 M114.50962,99.50962 L99.50962,125.49038 M122.9011,94.36941 L94.36941,85.0989 M104.397865,92.19577 L92.19577,119.602135 M94.36941,85.0989 L85.0989,113.63059 L93.62155,116.39977 M113.790886,84.446465 L84.446465,78.209114 M78.209114,107.553535 L86.50079,109.315994 M84.446465,78.209114 L78.209114,107.553535 M95,65 L65,65 M95,73.65311 L95,65 M104.485756,74.6501 L74.6501,71.514244 M71.514244,101.3499 L79.35262,102.173744 M65,95 L72.18165,95 M58.650097,88.485756 L65,87.81835 M74.6501,71.514244 L71.514244,101.3499 M65,65 L65,95 M55.514244,58.650097 L58.650097,88.485756 M86.34689,65 L85.3499,55.514244 L55.514244,58.650097 M52.44646,81.790886 L57.826252,80.64738 M46.369408,74.9011 L50.68401,73.49921 M46.20911,52.44646 L52.44646,81.790886 M77.702255,56.318043 L75.553535,46.20911 L46.20911,52.44646 M69.0405,47.593502 L65.63059,37.098896 L37.098896,46.369408 M34.50962,60.49038 L36.603336,59.281574 M28.681524,52.952034 L29.721228,52.196644 M37.098896,46.369408 L46.369408,74.9011 M40.39787,67.80423 L43.600227,66.37845 M28.195768,40.39787 L40.39787,67.80423 M19.509619,34.50962 L34.50962,60.49038 M60.3325,38.82035 L55.60213,28.195768 L28.195768,40.39787 M51.54757,30.000977 L45.49038,19.509619 L19.509619,34.50962 M42.65541,21.14639 L35.318478,11.047966 M38.04226,12.36068 L37.39955,13.912319 M35.318478,11.047966 L11.047966,28.681524 M33.98962,12.013436 L30.83079,9.169211 M39.507534,6.2573786 L38.04226,12.36068 M27.986565,6.0103793 L28.952034,4.681524 M33.628185,12.276034 L25.110214,2.8158686 M39.507534,-6.2573786 L40,0 L39.507534,6.2573786 M22.889786,45.18413 L22.979273,45.103558 M15.345864,36.805756 L12.36068,38.04226 M11.047966,28.681524 L28.681524,52.952034 M12.36068,38.04226 L6.2573786,39.507534 M2.8158686,22.889786 L22.889786,45.18413 M6.2573786,39.507534 L0.0000000000000024492936,40 M-5.1841316,17.110214 L9.588473,30.411526 M0.0000000000000024492936,40 L-6.2573786,39.507534 L-12.36068,38.04226 M-12.952034,11.318476 L-5.103558,17.020727 M18.85361,-2.6554105 L20.490381,-5.4903812 M4.681524,-12.952034 L-12.952034,11.318476 M24.44245,3.4171252 L14.889787,-5.1841316 M28.952034,4.681524 L4.681524,-12.952034 M25.110214,2.8158686 L2.8158686,22.889786 M14.889787,-5.1841316 L-5.1841316,17.110214 M20.490381,-5.4903812 L-5.4903812,-20.490381 M9.999023,-11.547569 L11.804232,-15.602132 M1.1796484,-20.3325 L2.9011025,-25.630592 M11.804232,-15.602132 L-15.602132,-27.804232 M2.9011025,-25.630592 L-25.630592,-34.901104 M-7.5935006,-29.040497 L-6.2091107,-35.55354 M38.04226,-12.36068 L39.507534,-6.2573786 M35.640263,-18.15962 L38.04226,-12.36068 M32.36068,-23.51141 L35.640263,-18.15962 M28.284271,-28.284271 L32.36068,-23.51141 M6.2573786,-39.507534 L12.36068,-38.04226 M23.51141,-32.36068 L28.284271,-28.284271 M18.15962,-35.640263 L23.51141,-32.36068 M12.36068,-38.04226 L18.15962,-35.640263 M-12.36068,-38.04226 L-6.2573786,-39.507534 M-0.00000000000000734788,-40 L6.2573786,-39.507534 M-6.2573786,-39.507534 L-0.00000000000000734788,-40 M-5.4903812,-20.490381 L-20.490381,5.4903812 M-15.602132,-27.804232 L-27.804232,-0.39786777 M-34.901104,-6.369407 L-26.378448,-3.600229 M-25.630592,-34.901104 L-34.901104,-6.369407 M-35.55354,-41.79089 L-41.79089,-12.446462 M-48.485756,-18.650099 L-40.64738,-17.826252 M-25,-46.346893 L-25,-55 M-14.245208,-37.261665 L-12.36068,-38.04226 M-16.318045,-37.70226 L-15.514245,-45.349903 L-45.349903,-48.485756 M-6.2091107,-35.55354 L-35.55354,-41.79089 M-20.490381,5.4903812 L-12.196645,10.278772 M-27.804232,-0.39786777 L-19.281572,3.3966641 M-28.284271,28.284271 L-32.36068,23.51141 M-12.36068,38.04226 L-18.15962,35.640263 L-23.51141,32.36068 L-28.284271,28.284271 M-32.36068,23.51141 L-35.640263,18.15962 L-38.04226,12.36068 L-39.507534,6.2573786 M-41.79089,-12.446462 L-33.499203,-10.68401 M-39.507534,-6.2573786 L-38.204674,-11.684187 M-40,0.000000000000004898587 L-39.507534,-6.2573786 M-39.507534,6.2573786 L-40,0.000000000000004898587 M-45.349903,-48.485756 L-48.485756,-18.650099 M-55,-25 L-47.818356,-25 M-25,-55 L-55,-55 L-55,-25" fill="none" stroke="black" vector-effect="non-scaling-stroke"/>
</svg>