<svg viewBox="39.9284235619284 0 220.18796125891896 200" xmlns="http://www.w3.org/2000/svg">
<line stroke="black" x1="207.5629520146761" x2="207.78196250623313" y1="119.84176618364482" y2="120.87212953651562"/>
<line stroke="black" x1="203.89043790736548" x2="203.96373473162956" y1="119.90943073464695" y2="120.60680343403251"/>
<line stroke="black" x1="200" x2="200" y1="120" y2="120.3183322357492"/>
<line stroke="black" x1="217.3205080756888" x2="218.26498488475445" y1="120" y2="121.63588181987225"/>
<line stroke="black" x1="200" x2="217.3205080756888" y1="130" y2="120"/>
<line stroke="black" x1="214.27090915285203" x2="214.94223745166693" y1="119.865267138484" y2="121.3730951849848"/>
<line stroke="black" x1="211.02113032590307" x2="211.44478600801844" y1="119.81966011250105" y2="121.12353823077828"/>
<line stroke="black" x1="196" x2="214.27090915285203" y1="128" y2="119.865267138484"/>
<line stroke="black" x1="192" x2="211.02113032590307" y1="126" y2="119.81966011250105"/>
<line stroke="black" x1="212.269465723032" x2="196" y1="164.54181830570406" y2="128"/>
<line stroke="black" x1="204.3606797749979" x2="192" y1="164.04226065180615" y2="126"/>
<line stroke="black" x1="203.56249890738144" x2="196.31646763271036" y1="161.5857125358547" y2="163.12590402935223"/>
<line stroke="black" x1="195.85904408271196" x2="188.1811385307061" y1="160.97389542324527" y2="161.78087581473093"/>
<line stroke="black" x1="196.31646763271036" x2="188" y1="163.12590402935223" y2="124"/>
<line stroke="black" x1="188.1811385307061" x2="184" y1="161.78087581473093" y2="122"/>
<line stroke="black" x1="188" x2="207.5629520146761" y1="124" y2="119.84176618364482"/>
<line stroke="black" x1="184" x2="203.89043790736548" y1="122" y2="119.90943073464695"/>
<line stroke="black" x1="180" x2="200" y1="120" y2="120"/>
<line stroke="black" x1="180" x2="171.81886146929384" y1="158.64074812360337" y2="157.78087581473093"/>
<line stroke="black" x1="174.66045055090518" x2="174.00962427789145" y1="158.2226005393051" y2="158.01113426437706"/>
<line stroke="black" x1="174.70539909521304" x2="174.66045055090518" y1="158.08426314446876" y2="158.2226005393051"/>
<line stroke="black" x1="171.8678044136461" x2="167.86569063182236" y1="157.31521480470087" y2="156.01484921042118"/>
<line stroke="black" x1="171.9140359034123" x2="163.68353236728962" y1="156.87535156180343" y2="155.12590402935223"/>
<line stroke="black" x1="163.77696427073897" x2="155.6393202250021" y1="154.68634148319848" y2="152.04226065180615"/>
<line stroke="black" x1="166.43175450113523" x2="166.00144342982" y1="155.71005667682792" y2="156.67655116722003"/>
<line stroke="black" x1="166.00144342982" x2="147.730534276968" y1="156.67655116722003" y2="148.54181830570403"/>
<line stroke="black" x1="218.37363394542388" x2="212.269465723032" y1="161.8240675131464" y2="164.54181830570406"/>
<line stroke="black" x1="217.05132427757894" x2="218.4443399783845" y1="163.74239897486896" y2="161.9465339546358"/>
<line stroke="black" x1="212.89686274214114" x2="217.05132427757894" y1="168.45471059286888" y2="163.74239897486896"/>
<line stroke="black" x1="208.45471059286888" x2="212.89686274214114" y1="172.89686274214114" y2="168.45471059286888"/>
<line stroke="black" x1="211.07563843837926" x2="204.3606797749979" y1="161.86043832268376" y2="164.04226065180615"/>
<line stroke="black" x1="127.46667664356953" x2="133.72094804706867" y1="199.21147013144778" y2="199.80267284282715"/>
<line stroke="black" x1="152.53332335643043" x2="158.73813145857247" y1="199.21147013144778" y2="198.22872507286888"/>
<line stroke="black" x1="146.27905195293133" x2="152.53332335643043" y1="199.80267284282715" y2="199.21147013144778"/>
<line stroke="black" x1="140" x2="146.27905195293133" y1="200" y2="199.80267284282715"/>
<line stroke="black" x1="133.72094804706867" x2="140" y1="199.80267284282715" y2="200"/>
<line stroke="black" x1="121.26186854142753" x2="127.46667664356953" y1="198.22872507286888" y2="199.21147013144778"/>
<line stroke="black" x1="115.13101128351447" x2="121.26186854142753" y1="196.8583161128631" y2="198.22872507286888"/>
<line stroke="black" x1="109.09830056250524" x2="115.13101128351447" y1="195.10565162951536" y2="196.8583161128631"/>
<line stroke="black" x1="188.17536741017153" x2="193.58267949789968" y1="187.63066800438637" y2="184.4327925502015"/>
<line stroke="black" x1="182.57792915650728" x2="188.17536741017153" y1="190.48270524660194" y2="187.63066800438637"/>
<line stroke="black" x1="176.8124552684678" x2="182.57792915650728" y1="192.97764858882516" y2="190.48270524660194"/>
<line stroke="black" x1="170.90169943749473" x2="176.8124552684678" y1="195.10565162951536" y2="192.97764858882516"/>
<line stroke="black" x1="164.8689887164855" x2="170.90169943749473" y1="196.85831611286312" y2="195.10565162951536"/>
<line stroke="black" x1="158.73813145857247" x2="164.8689887164855" y1="198.22872507286888" y2="196.85831611286312"/>
<line stroke="black" x1="203.74239897486896" x2="208.45471059286888" y1="177.05132427757894" y2="172.89686274214114"/>
<line stroke="black" x1="198.77852522924732" x2="203.74239897486896" y1="180.90169943749476" y2="177.05132427757894"/>
<line stroke="black" x1="193.58267949789968" x2="198.77852522924732" y1="184.4327925502015" y2="180.90169943749476"/>
<line stroke="black" x1="187.9939609400957" x2="180" y1="160" y2="160"/>
<line stroke="black" x1="180" x2="180" y1="160" y2="120"/>
<line stroke="black" x1="176" x2="195.02872890844506" y1="118" y2="120"/>
<line stroke="black" x1="172" x2="186.70031512387445" y1="116" y2="119.12464843819659"/>
<line stroke="black" x1="171.81886146929384" x2="176" y1="157.78087581473093" y2="118"/>
<line stroke="black" x1="168" x2="178.23266000715245" y1="114" y2="117.32479278117859"/>
<line stroke="black" x1="163.68353236728962" x2="172" y1="155.12590402935223" y2="116"/>
<line stroke="black" x1="155.6393202250021" x2="168" y1="152.04226065180615" y2="114"/>
<line stroke="black" x1="164" x2="169.82102152506766" y1="112" y2="114.59168576075857"/>
<line stroke="black" x1="147.730534276968" x2="164" y1="148.54181830570403" y2="112"/>
<line stroke="black" x1="160" x2="163.89041492645674" y1="110" y2="112.24613210504914"/>
<line stroke="black" x1="156" x2="159.63142741058078" y1="108" y2="110.63838645115132"/>
<line stroke="black" x1="152" x2="155.29654512897795" y1="106" y2="108.9682225663421"/>
<line stroke="black" x1="148" x2="150.90040404429783" y1="104" y2="107.22122502965838"/>
<line stroke="black" x1="144" x2="146.46031742283674" y1="102" y2="105.38633641941271"/>
<line stroke="black" x1="140" x2="141.99551916172243" y1="100" y2="103.4563405755805"/>
<line stroke="black" x1="136" x2="137.5263231753151" y1="98" y2="101.42817798061996"/>
<line stroke="black" x1="131.65681910808138" x2="118.27420698090422" y1="145.6281207639022" y2="130.7652242543543"/>
<line stroke="black" x1="126.24686995663166" x2="123.39502527085156" y1="139.61976353171255" y2="141.69174997919788"/>
<line stroke="black" x1="118.78290257075084" x2="115.35898384862244" y1="135.34370767978453" y2="137.32050807568876"/>
<line stroke="black" x1="123.39502527085156" x2="111.63932022500211" y1="141.69174997919788" y2="125.51141009169892"/>
<line stroke="black" x1="100.1380792356928" x2="93.95773934819385" y1="127.38181010090096" y2="108.36067977499789"/>
<line stroke="black" x1="98.00669553306338" x2="93.03232978700296" y1="120.82208556791474" y2="121.87941964738647"/>
<line stroke="black" x1="91.67790555200585" x2="86.30969345062213" y1="115.50735461041172" y2="116.0715764380716"/>
<line stroke="black" x1="93.03232978700296" x2="88.87409597064777" y1="121.87941964738647" y2="102.31646763271037"/>
<line stroke="black" x1="120" x2="120" y1="90" y2="92.42041694106271"/>
<line stroke="black" x1="116" x2="115.78979152946864" y1="88" y2="90"/>
<line stroke="black" x1="112" x2="111.67158621542926" y1="86" y2="87.54506537925928"/>
<line stroke="black" x1="111.57545029309763" x2="107.59291455581196" y1="130.76723572537807" y2="132.54037487588403"/>
<line stroke="black" x1="115.35898384862244" x2="105.35898384862244" y1="137.32050807568876" y2="120"/>
<line stroke="black" x1="104.64428913538305" x2="100.1380792356928" y1="125.9176537491319" y2="127.38181010090096"/>
<line stroke="black" x1="107.59291455581196" x2="99.45818169429596" y1="132.54037487588403" y2="114.269465723032"/>
<line stroke="black" x1="86.30969345062213" x2="84.21912418526907" y1="116.0715764380716" y2="96.18113853070614"/>
<line stroke="black" x1="93.95773934819385" x2="132" y1="108.36067977499789" y2="96"/>
<line stroke="black" x1="88.87409597064777" x2="128" y1="102.31646763271037" y2="94"/>
<line stroke="black" x1="84.21912418526907" x2="124" y1="96.18113853070614" y2="92"/>
<line stroke="black" x1="85.67154505224153" x2="80" y1="110" y2="110"/>
<line stroke="black" x1="80" x2="80" y1="110" y2="90"/>
<line stroke="black" x1="80" x2="120" y1="90" y2="90"/>
<line stroke="black" x1="76.21912418526907" x2="116" y1="83.81886146929385" y2="88"/>
<line stroke="black" x1="80" x2="74.12855491991598" y1="104.32641312170597" y2="103.70929937665932"/>
<line stroke="black" x1="74.12855491991598" x2="76.21912418526907" y1="103.70929937665932" y2="83.81886146929385"/>
<line stroke="black" x1="108" x2="107.65055019731739" y1="84" y2="85.07549590478543"/>
<line stroke="black" x1="100" x2="99.8993766030119" y1="80" y2="80.17428483601357"/>
<line stroke="black" x1="69.95773934819385" x2="108" y1="71.63932022500211" y2="84"/>
<line stroke="black" x1="72.87409597064777" x2="112" y1="77.68353236728962" y2="86"/>
<line stroke="black" x1="74.67470016180464" x2="68.7158621542926" y1="98.51307450039114" y2="97.24648438196573"/>
<line stroke="black" x1="68.7158621542926" x2="72.87409597064777" y1="97.24648438196573" y2="77.68353236728962"/>
<line stroke="black" x1="103.18754473153214" x2="109.09830056250524" y1="192.9776485888251" y2="195.10565162951536"/>
<line stroke="black" x1="97.42207084349278" x2="103.18754473153214" y1="190.482705246602" y2="192.9776485888251"/>
<line stroke="black" x1="91.82463258982847" x2="97.42207084349278" y1="187.63066800438637" y2="190.482705246602"/>
<line stroke="black" x1="86.41732050210037" x2="91.82463258982847" y1="184.43279255020153" y2="187.63066800438637"/>
<line stroke="black" x1="81.22147477075268" x2="86.41732050210037" y1="180.90169943749473" y2="184.43279255020153"/>
<line stroke="black" x1="76.25760102513104" x2="81.22147477075268" y1="177.05132427757894" y2="180.90169943749473"/>
<line stroke="black" x1="71.54528940713111" x2="76.25760102513104" y1="172.89686274214114" y2="177.05132427757894"/>
<line stroke="black" x1="67.10313725785885" x2="71.54528940713111" y1="168.45471059286888" y2="172.89686274214114"/>
<line stroke="black" x1="62.948675722421044" x2="67.10313725785885" y1="163.74239897486893" y2="168.45471059286888"/>
<line stroke="black" x1="59.098300562505244" x2="62.948675722421044" y1="158.7785252292473" y2="163.74239897486893"/>
<line stroke="black" x1="55.567207449798445" x2="59.098300562505244" y1="153.5826794978996" y2="158.7785252292473"/>
<line stroke="black" x1="52.36933199561362" x2="55.567207449798445" y1="148.1753674101715" y2="153.5826794978996"/>
<line stroke="black" x1="49.517294753398005" x2="52.36933199561362" y1="142.5779291565072" y2="148.1753674101715"/>
<line stroke="black" x1="47.02235141117488" x2="49.517294753398005" y1="136.81245526846783" y2="142.5779291565072"/>
<line stroke="black" x1="44.894348370484636" x2="47.02235141117488" y1="130.90169943749473" y2="136.81245526846783"/>
<line stroke="black" x1="43.14168388713689" x2="44.894348370484636" y1="124.86898871648549" y2="130.90169943749473"/>
<line stroke="black" x1="41.77127492713113" x2="43.14168388713689" y1="118.73813145857243" y2="124.86898871648549"/>
<line stroke="black" x1="40.78852986855222" x2="40.19732715717285" y1="87.46667664356954" y2="93.72094804706867"/>
<line stroke="black" x1="41.77127492713113" x2="40.78852986855222" y1="81.26186854142753" y2="87.46667664356954"/>
<line stroke="black" x1="43.14168388713691" x2="41.77127492713113" y1="75.13101128351447" y2="81.26186854142753"/>
<line stroke="black" x1="40.78852986855222" x2="41.77127492713113" y1="112.53332335643043" y2="118.73813145857243"/>
<line stroke="black" x1="40.19732715717285" x2="40.78852986855222" y1="106.27905195293128" y2="112.53332335643043"/>
<line stroke="black" x1="40" x2="40.19732715717285" y1="99.99999999999999" y2="106.27905195293128"/>
<line stroke="black" x1="40.19732715717285" x2="40" y1="93.72094804706867" y2="99.99999999999999"/>
<line stroke="black" x1="67.45818169429597" x2="104" y1="65.73053427696799" y2="82"/>
<line stroke="black" x1="65.35898384862246" x2="100" y1="60" y2="80"/>
<line stroke="black" x1="69.70629474274068" x2="63.77739946069491" y1="92.58686540494419" y2="90.66045055090517"/>
<line stroke="black" x1="63.77739946069491" x2="69.95773934819385" y1="90.66045055090517" y2="71.63932022500211"/>
<line stroke="black" x1="65.1047048953142" x2="59.32344883277996" y1="86.57542446597412" y2="84.00144342982"/>
<line stroke="black" x1="104" x2="103.72760285006653" y1="82" y2="82.61181401585728"/>
<line stroke="black" x1="53.659503847760504" x2="52.97886967409693" y1="71.95918843854645" y2="72.18033988749895"/>
<line stroke="black" x1="53.586555375977554" x2="48.89159485372707" y1="68.32503369724658" y2="64.09767225519354"/>
<line stroke="black" x1="52.97886967409693" x2="52.674480818072695" y1="72.18033988749895" y2="71.24352731641356"/>
<line stroke="black" x1="52.301084714364826" x2="50.95686521013649" y1="70.09433227518646" y2="65.95725003667303"/>
<line stroke="black" x1="149.93336088382318" x2="148.6689297958" y1="150.37604473161056" y2="152.11638482084737"/>
<line stroke="black" x1="141.85005753139515" x2="140.09767225519354" y1="147.16218412772102" y2="149.10840514627293"/>
<line stroke="black" x1="133.9446219865247" x2="131.65681910808138" y1="143.56817379959557" y2="145.6281207639022"/>
<line stroke="black" x1="148.6689297958" x2="132.48858990830107" y1="152.11638482084737" y2="140.3606797749979"/>
<line stroke="black" x1="158.16076144008713" x2="157.32050807568876" y1="153.18565463300894" y2="154.64101615137756"/>
<line stroke="black" x1="157.32050807568876" x2="140" y1="154.64101615137756" y2="144.64101615137753"/>
<line stroke="black" x1="140.09767225519354" x2="125.23477574564566" y1="149.10840514627293" y2="135.72579301909576"/>
<line stroke="black" x1="140" x2="160" y1="144.64101615137753" y2="110"/>
<line stroke="black" x1="132.48858990830107" x2="156" y1="140.3606797749979" y2="108"/>
<line stroke="black" x1="125.23477574564566" x2="152" y1="135.72579301909576" y2="106"/>
<line stroke="black" x1="118.27420698090422" x2="148" y1="130.7652242543543" y2="104"/>
<line stroke="black" x1="111.63932022500211" x2="144" y1="125.51141009169892" y2="102"/>
<line stroke="black" x1="105.35898384862244" x2="140" y1="120" y2="100"/>
<line stroke="black" x1="99.45818169429596" x2="136" y1="114.269465723032" y2="98"/>
<line stroke="black" x1="260.1163848208474" x2="248.3606797749979" y1="145.3310702042" y2="161.51141009169893"/>
<line stroke="black" x1="245.0321778465547" x2="241.72579301909576" y1="159.09311188613708" y2="162.76522425435434"/>
<line stroke="black" x1="227.75570504584948" x2="260.1163848208474" y1="121.81966011250105" y2="145.3310702042"/>
<line stroke="black" x1="238.77891848246296" x2="234.7652242543543" y1="160.11184650353184" y2="163.72579301909576"/>
<line stroke="black" x1="232.24212869875942" x2="227.5114100916989" y1="160.92361151894215" y2="164.3606797749979"/>
<line stroke="black" x1="225.4351898791627" x2="220" y1="161.50300781154624" y2="164.64101615137756"/>
<line stroke="black" x1="248.3606797749979" x2="216" y1="161.51141009169893" y2="138"/>
<line stroke="black" x1="241.72579301909576" x2="212" y1="162.76522425435434" y2="136"/>
<line stroke="black" x1="234.7652242543543" x2="208" y1="163.72579301909576" y2="134"/>
<line stroke="black" x1="227.5114100916989" x2="204" y1="164.3606797749979" y2="132"/>
<line stroke="black" x1="220" x2="200" y1="164.64101615137756" y2="130"/>
<line stroke="black" x1="216" x2="227.75570504584948" y1="138" y2="121.81966011250105"/>
<line stroke="black" x1="212" x2="225.38261212717717" y1="136" y2="121.13710349045212"/>
<line stroke="black" x1="208" x2="222.8628965095479" y1="134" y2="120.61738787282285"/>
<line stroke="black" x1="220.18033988749895" x2="221.40508292148283" y1="120.24429495415055" y2="121.93000912334898"/>
<line stroke="black" x1="204" x2="220.18033988749895" y1="132" y2="120.24429495415055"/>
<line stroke="black" x1="225.38261212717717" x2="227.11700388468623" y1="121.13710349045212" y2="122.69875684331011"/>
<line stroke="black" x1="236.003320361904" x2="236.85831611286312" y1="127.81190339424305" y2="124.86898871648549"/>
<line stroke="black" x1="236.85831611286312" x2="238.22872507286885" y1="124.86898871648549" y2="118.73813145857247"/>
<line stroke="black" x1="222.8628965095479" x2="224.35673134036162" y1="120.61738787282285" y2="122.27645953101229"/>
<line stroke="black" x1="238.22872507286885" x2="239.21147013144778" y1="118.73813145857247" y2="112.53332335643043"/>
<line stroke="black" x1="239.21147013144778" x2="239.80267284282715" y1="112.53332335643043" y2="106.27905195293135"/>
<line stroke="black" x1="239.80267284282715" x2="240" y1="106.27905195293135" y2="100"/>
<line stroke="black" x1="240" x2="239.80267284282715" y1="100" y2="93.72094804706866"/>
<line stroke="black" x1="239.80267284282715" x2="239.21147013144778" y1="93.72094804706866" y2="87.46667664356957"/>
<line stroke="black" x1="239.21147013144778" x2="238.22872507286885" y1="87.46667664356957" y2="81.26186854142752"/>
<line stroke="black" x1="238.22872507286885" x2="236.85831611286312" y1="81.26186854142752" y2="75.13101128351454"/>
<line stroke="black" x1="236.85831611286312" x2="235.10565162951536" y1="75.13101128351454" y2="69.09830056250527"/>
<line stroke="black" x1="235.10565162951536" x2="232.97764858882513" y1="69.09830056250527" y2="63.1875447315322"/>
<line stroke="black" x1="232.97764858882513" x2="230.48270524660194" y1="63.1875447315322" y2="57.422070843492726"/>
<line stroke="black" x1="132" x2="133.0732355796729" y1="96" y2="99.30307947507004"/>
<line stroke="black" x1="128" x2="128.6560584768809" y1="94" y2="97.08651246391246"/>
<line stroke="black" x1="124" x2="124.29302450816894" y1="92" y2="94.78794196473865"/>
<line stroke="black" x1="212.89686274214114" x2="208.45471059286888" y1="31.545289407131122" y2="27.10313725785886"/>
<line stroke="black" x1="217.05132427757894" x2="212.89686274214114" y1="36.25760102513104" y2="31.545289407131122"/>
<line stroke="black" x1="220.90169943749476" x2="217.05132427757894" y1="41.2214747707527" y2="36.25760102513104"/>
<line stroke="black" x1="230.48270524660194" x2="227.63066800438634" y1="57.422070843492726" y2="51.82463258982846"/>
<line stroke="black" x1="227.63066800438634" x2="224.4327925502015" y1="51.82463258982846" y2="46.417320502100324"/>
<line stroke="black" x1="224.4327925502015" x2="220.90169943749476" y1="46.417320502100324" y2="41.2214747707527"/>
<line stroke="black" x1="193.5826794978997" x2="188.17536741017156" y1="15.567207449798516" y2="12.36933199561365"/>
<line stroke="black" x1="208.45471059286888" x2="203.742398974869" y1="27.10313725785886" y2="22.948675722421086"/>
<line stroke="black" x1="203.742398974869" x2="198.77852522924732" y1="22.948675722421086" y2="19.098300562505273"/>
<line stroke="black" x1="198.77852522924732" x2="193.5826794978997" y1="19.098300562505273" y2="15.567207449798516"/>
<line stroke="black" x1="170.90169943749476" x2="164.8689887164855" y1="4.89434837048465" y2="3.1416838871368924"/>
<line stroke="black" x1="188.17536741017156" x2="182.57792915650728" y1="12.36933199561365" y2="9.517294753398062"/>
<line stroke="black" x1="182.57792915650728" x2="176.81245526846783" y1="9.517294753398062" y2="7.022351411174867"/>
<line stroke="black" x1="176.81245526846783" x2="170.90169943749476" y1="7.022351411174867" y2="4.89434837048465"/>
<line stroke="black" x1="164.8689887164855" x2="158.7381314585725" y1="3.1416838871368924" y2="1.7712749271311452"/>
<line stroke="black" x1="158.7381314585725" x2="152.53332335643046" y1="1.7712749271311452" y2="0.7885298685522173"/>
<line stroke="black" x1="152.53332335643046" x2="146.27905195293135" y1="0.7885298685522173" y2="0.19732715717285032"/>
<line stroke="black" x1="146.27905195293135" x2="140" y1="0.19732715717285032" y2="0"/>
<line stroke="black" x1="140" x2="133.72094804706867" y1="0" y2="0.19732715717285032"/>
<line stroke="black" x1="133.72094804706867" x2="127.46667664356957" y1="0.19732715717285032" y2="0.7885298685522173"/>
<line stroke="black" x1="127.46667664356957" x2="121.26186854142753" y1="0.7885298685522173" y2="1.7712749271311452"/>
<line stroke="black" x1="121.26186854142753" x2="115.1310112835145" y1="1.7712749271311452" y2="3.1416838871368924"/>
<line stroke="black" x1="115.1310112835145" x2="109.09830056250523" y1="3.1416838871368924" y2="4.894348370484664"/>
<line stroke="black" x1="109.09830056250523" x2="103.18754473153217" y1="4.894348370484664" y2="7.022351411174881"/>
<line stroke="black" x1="103.18754473153217" x2="97.42207084349278" y1="7.022351411174881" y2="9.517294753398033"/>
<line stroke="black" x1="49.965222586443296" x2="49.325867605544914" y1="62.90528785897121" y2="60.937555559849244"/>
<line stroke="black" x1="51.46302282912714" x2="48.437047985323886" y1="67.51504300785639" y2="68.15823381635519"/>
<line stroke="black" x1="47.832557213362186" x2="47.776246929449336" y1="56.34161874993575" y2="56.16831351616351"/>
<line stroke="black" x1="44.89434837048465" x2="43.14168388713691" y1="69.09830056250524" y2="75.13101128351447"/>
<line stroke="black" x1="48.437047985323886" x2="45.10784744359306" y1="68.15823381635519" y2="52.49557670723635"/>
<line stroke="black" x1="46.79901092280994" x2="44.89434837048465" y1="63.80789680277131" y2="69.09830056250524"/>
<line stroke="black" x1="47.4967670212997" x2="44.10956209263453" y1="63.734559681637585" y2="64.09056926535307"/>
<line stroke="black" x1="50.53142215610656" x2="46.37187923609779" y1="62.27645953101229" y2="57.65681910808139"/>
<line stroke="black" x1="43.67962593819833" x2="40" y1="60" y2="60"/>
<line stroke="black" x1="59.32344883277996" x2="67.45818169429597" y1="84.00144342982" y2="65.73053427696799"/>
<line stroke="black" x1="60.87904512946137" x2="55.35898384862246" y1="80.50751694212434" y2="77.32050807568876"/>
<line stroke="black" x1="56.995228038233414" x2="56.92697106302479" y1="74.48645000569323" y2="74.33314232929919"/>
<line stroke="black" x1="55.35898384862246" x2="65.35898384862246" y1="77.32050807568876" y2="60"/>
<line stroke="black" x1="57.0374131688816" x2="51.88361517915264" y1="74.41338321608664" y2="70.66892979580001"/>
<line stroke="black" x1="51.88361517915264" x2="63.63932022500211" y1="70.66892979580001" y2="54.488589908301066"/>
<line stroke="black" x1="63.63932022500211" x2="93.92615864110859" y1="54.488589908301066" y2="76.49326605642896"/>
<line stroke="black" x1="62.27420698090424" x2="86.78797763101849" y1="49.23477574564566" y2="71.30707397999824"/>
<line stroke="black" x1="61.23477574564568" x2="80.38081998721132" y1="44.27420698090423" y2="65.53804332506044"/>
<line stroke="black" x1="60.48858990830107" x2="74.80989004954539" y1="39.6393202250021" y2="59.35089881705204"/>
<line stroke="black" x1="60" x2="70.1438449944549" y1="35.35898384862245" y2="52.928638763121555"/>
<line stroke="black" x1="59.730534276967994" x2="66.411794186886" y1="31.458181694295966" y2="46.46453714798378"/>
<line stroke="black" x1="44.798247089938144" x2="44.12198384745791" y1="51.03902156152626" y2="47.857453149020245"/>
<line stroke="black" x1="45.61588784742008" x2="42.67949192431123" y1="50.44497077858511" y2="45.35898384862245"/>
<line stroke="black" x1="44.30825002080212" x2="60.48858990830107" y1="51.39502527085156" y2="39.6393202250021"/>
<line stroke="black" x1="48.89159485372707" x2="62.27420698090424" y1="64.09767225519354" y2="49.23477574564566"/>
<line stroke="black" x1="46.37187923609779" x2="61.23477574564568" y1="57.65681910808139" y2="44.27420698090423"/>
<line stroke="black" x1="47.87463441277417" x2="44.30825002080212" y1="56.303732269412464" y2="51.39502527085156"/>
<line stroke="black" x1="42.67949192431123" x2="60" y1="45.35898384862245" y2="35.35898384862245"/>
<line stroke="black" x1="43.49129381044372" x2="43.19267888181017" y1="44.89028981113522" y2="43.48541702674602"/>
<line stroke="black" x1="44.10956209263453" x2="41.55797118404911" y1="64.09056926535307" y2="39.81380342299038"/>
<line stroke="black" x1="43.751326410379775" x2="41.45962512411597" y1="44.74015991956405" y2="39.59291455581197"/>
<line stroke="black" x1="40.95009386843646" x2="40.72235716396936" y1="34.0302370987972" y2="31.86346709289363"/>
<line stroke="black" x1="41.53139626774081" x2="41.125547263408635" y1="39.56095998389279" y2="35.69956464329309"/>
<line stroke="black" x1="42.27291929653368" x2="40.618189899099036" y1="39.23081266065734" y2="34.138079235692814"/>
<line stroke="black" x1="41.1678773861164" x2="40.120580352613516" y1="33.9594749443881" y2="29.032329787002958"/>
<line stroke="black" x1="40" x2="40" y1="60" y2="24.990697768770453"/>
<line stroke="black" x1="40.618189899099036" x2="59.6393202250021" y1="34.138079235692814" y2="27.95773934819386"/>
<line stroke="black" x1="41.45962512411597" x2="59.730534276967994" y1="39.59291455581197" y2="31.458181694295966"/>
<line stroke="black" x1="40.120580352613516" x2="59.68353236728963" y1="29.032329787002958" y2="24.874095970647772"/>
<line stroke="black" x1="40.41814487408128" x2="39.9284235619284" y1="28.969080495444786" y2="24.309693450622134"/>
<line stroke="black" x1="59.6393202250021" x2="63.60202696136664" y1="27.95773934819386" y2="40.15369663335648"/>
<line stroke="black" x1="62.94867572242106" x2="62.516951222830265" y1="36.25760102513104" y2="36.81417689627479"/>
<line stroke="black" x1="59.68353236728963" x2="61.6625244342815" y1="24.874095970647772" y2="34.18452163543675"/>
<line stroke="black" x1="59.818861469293864" x2="60.5032329787003" y1="22.219124185269067" y2="28.730484147848305"/>
<line stroke="black" x1="67.10313725785886" x2="62.94867572242106" y1="31.545289407131108" y2="36.25760102513104"/>
<line stroke="black" x1="39.9284235619284" x2="59.818861469293864" y1="24.309693450622134" y2="22.219124185269067"/>
<line stroke="black" x1="60" x2="60" y1="20" y2="23.94254218310963"/>
<line stroke="black" x1="40" x2="40" y1="24.30217046383558" y2="20"/>
<line stroke="black" x1="40" x2="60" y1="20" y2="20"/>
<line stroke="black" x1="71.54528940713112" x2="67.10313725785886" y1="27.103137257858847" y2="31.545289407131108"/>
<line stroke="black" x1="76.25760102513104" x2="71.54528940713112" y1="22.948675722421072" y2="27.103137257858847"/>
<line stroke="black" x1="81.2214747707527" x2="76.25760102513104" y1="19.09830056250526" y2="22.948675722421072"/>
<line stroke="black" x1="97.42207084349278" x2="91.8246325898285" y1="9.517294753398033" y2="12.369331995613635"/>
<line stroke="black" x1="91.8246325898285" x2="86.41732050210035" y1="12.369331995613635" y2="15.567207449798488"/>
<line stroke="black" x1="86.41732050210035" x2="81.2214747707527" y1="15.567207449798488" y2="19.09830056250526"/>
</svg>