<svg viewBox="-93.96926207859084 0 187.9385241571817 168.40402866513375" xmlns="http://www.w3.org/2000/svg">
<line stroke="black" x1="0" x2="0" y1="100" y2="100"/>
<line stroke="black" x1="0" x2="0" y1="100" y2="100"/>
<line stroke="black" x1="0" x2="0" y1="100" y2="100"/>
<line stroke="black" x1="0" x2="0" y1="100" y2="100"/>
<line stroke="black" x1="0" x2="0" y1="100" y2="100"/>
<line stroke="black" x1="0" x2="0" y1="100" y2="100"/>
<line stroke="black" x1="0" x2="0" y1="68.40402866513374" y2="68.40402866513374"/>
<line stroke="black" x1="0" x2="0" y1="68.40402866513374" y2="68.40402866513374"/>
<line stroke="black" x1="0" x2="0" y1="68.40402866513374" y2="68.40402866513374"/>
<line stroke="black" x1="0" x2="0" y1="68.40402866513374" y2="68.40402866513374"/>
<line stroke="black" x1="0" x2="0" y1="68.40402866513374" y2="68.40402866513374"/>
<line stroke="black" x1="0" x2="0" y1="68.40402866513374" y2="68.40402866513374"/>
<line stroke="black" x1="0" x2="0" y1="168.40402866513375" y2="68.40402866513374"/>
<line stroke="black" x1="0" x2="0" y1="168.40402866513375" y2="168.40402866513375"/>
<line stroke="black" x1="0" x2="0" y1="168.40402866513375" y2="168.40402866513375"/>
<line stroke="black" x1="0" x2="0" y1="168.40402866513375" y2="168.40402866513375"/>
<line stroke="black" x1="0" x2="0" y1="168.40402866513375" y2="168.40402866513375"/>
<line stroke="black" x1="93.96926207859084" x2="93.96926207859084" y1="134.20201433256688" y2="134.20201433256688"/>
<line stroke="black" x1="93.96926207859084" x2="93.96926207859084" y1="134.20201433256688" y2="134.20201433256688"/>
<line stroke="black" x1="93.96926207859084" x2="0" y1="34.20201433256687" y2="68.40402866513374"/>
<line stroke="black" x1="93.96926207859084" x2="93.96926207859084" y1="34.20201433256687" y2="134.20201433256688"/>
<line stroke="black" x1="93.96926207859084" x2="0" y1="134.20201433256688" y2="168.40402866513375"/>
<line stroke="black" x1="93.96926207859084" x2="93.96926207859084" y1="134.20201433256688" y2="134.20201433256688"/>
<line stroke="black" x1="93.96926207859084" x2="93.96926207859084" y1="134.20201433256688" y2="134.20201433256688"/>
<line stroke="black" x1="93.96926207859084" x2="93.96926207859084" y1="134.20201433256688" y2="134.20201433256688"/>
<line stroke="black" x1="93.96926207859084" x2="93.96926207859084" y1="134.20201433256688" y2="134.20201433256688"/>
<line stroke="black" x1="-93.96926207859084" x2="-93.96926207859084" y1="134.20201433256688" y2="134.20201433256688"/>
<line stroke="black" x1="-93.96926207859084" x2="-93.96926207859084" y1="134.20201433256688" y2="134.20201433256688"/>
<line stroke="black" x1="0" x2="-93.96926207859084" y1="68.40402866513374" y2="34.20201433256687"/>
<line stroke="black" x1="-93.96926207859084" x2="-93.96926207859084" y1="34.20201433256687" y2="134.20201433256688"/>
<line stroke="black" x1="-93.96926207859084" x2="-93.96926207859084" y1="134.20201433256688" y2="134.20201433256688"/>
<line stroke="black" x1="-93.96926207859084" x2="-93.96926207859084" y1="134.20201433256688" y2="134.20201433256688"/>
<line stroke="black" x1="-93.96926207859084" x2="-93.96926207859084" y1="134.20201433256688" y2="134.20201433256688"/>
<line stroke="black" x1="0" x2="0" y1="168.40402866513375" y2="168.40402866513375"/>
<line stroke="black" x1="-93.96926207859084" x2="-93.96926207859084" y1="134.20201433256688" y2="134.20201433256688"/>
<line stroke="black" x1="-93.96926207859084" x2="0" y1="134.20201433256688" y2="168.40402866513375"/>
<line stroke="black" x1="93.96926207859084" x2="93.96926207859084" y1="34.20201433256687" y2="34.20201433256687"/>
<line stroke="black" x1="93.96926207859084" x2="93.96926207859084" y1="34.20201433256687" y2="34.20201433256687"/>
<line stroke="black" x1="93.96926207859084" x2="93.96926207859084" y1="34.20201433256687" y2="34.20201433256687"/>
<line stroke="black" x1="93.96926207859084" x2="93.96926207859084" y1="34.202014332566876" y2="34.20201433256687"/>
<line stroke="black" x1="93.96926207859084" x2="93.96926207859084" y1="34.20201433256687" y2="34.20201433256687"/>
<line stroke="black" x1="-93.96926207859084" x2="-93.96926207859084" y1="34.20201433256687" y2="34.20201433256687"/>
<line stroke="black" x1="-93.96926207859084" x2="-93.96926207859084" y1="34.20201433256687" y2="34.20201433256687"/>
<line stroke="black" x1="-93.96926207859084" x2="-93.96926207859084" y1="34.20201433256687" y2="34.20201433256687"/>
<line stroke="black" x1="-93.96926207859084" x2="-93.96926207859084" y1="34.202014332566876" y2="34.20201433256687"/>
<line stroke="black" x1="-93.96926207859084" x2="-93.96926207859084" y1="34.20201433256687" y2="34.20201433256687"/>
<line stroke="black" x1="-93.96926207859084" x2="-93.96926207859084" y1="34.20201433256687" y2="34.20201433256687"/>
<line stroke="black" x1="0" x2="93.96926207859084" y1="0" y2="34.20201433256687"/>
<line stroke="black" x1="0" x2="0" y1="0" y2="0"/>
<line stroke="black" x1="0" x2="0" y1="0" y2="0"/>
<line stroke="black" x1="0" x2="0" y1="0" y2="0"/>
<line stroke="black" x1="0" x2="0" y1="0" y2="0"/>
<line stroke="black" x1="0" x2="0" y1="0" y2="0"/>
<line stroke="black" x1="-93.96926207859084" x2="0" y1="34.20201433256687" y2="0"/>
</svg>