<svg xmlns="http://www.w3.org/2000/svg">
<line id="1494" stroke="black" x1="219.21147013144778" x2="219.80267284282715" y1="132.53332335643043" y2="126.27905195293135"/>
<line id="1485" stroke="black" x1="203.57201508252837" x2="203.63223501580242" y1="159.63080242132366" y2="160.20375681390198"/>
<line id="695" stroke="black" x1="95.67857366753361" x2="79.40910794450161" y1="168.58041018786855" y2="132.0385918821645"/>
<line id="494" stroke="black" x1="31.22058483700708" x2="47.490050560039094" y1="104.12242135734199" y2="67.58060305163795"/>
<line id="216" stroke="black" x1="4.228979942347266" x2="2.074637075092989" y1="48.17019260355197" y2="27.672989405139894"/>
<line id="97" stroke="black" x1="95.13101128351447" x2="101.26186854142753" y1="216.8583161128631" y2="218.22872507286888"/>
<line id="1505" stroke="black" x1="216.12219198925985" x2="216.9956168888007" y1="160.36707431207395" y2="161.56924055269133"/>
<line id="184" stroke="black" x1="0.961869436992373" x2="0.047841411641130094" y1="17.08571254338617" y2="8.389316788821034"/>
<line id="851" stroke="black" x1="67.5535112416802" x2="60" y1="139.80099502487562" y2="139.80099502487562"/>
<line id="80" stroke="black" x1="23.141683887136892" x2="24.894348370484636" y1="144.8689887164855" y2="150.90169943749473"/>
<line id="0" stroke="black" x1="113.72094804706867" x2="120" y1="219.80267284282715" y2="220"/>
<line id="38" stroke="black" x1="192.89686274214114" x2="188.45471059286888" y1="51.54528940713112" y2="47.10313725785886"/>
<line id="262" stroke="black" x1="3.220584837007081" x2="39.76240314271112" y1="35.67857366753363" y2="19.409107944501613"/>
<line id="1489" stroke="black" x1="139.8640770742503" x2="156.74151422352546" y1="139.76457458668813" y2="149.50876746805312"/>
<line id="1527" stroke="black" x1="197.2141279005042" x2="192.0385918821645" y1="210.08758998316165" y2="212.391887080374"/>
<line id="32" stroke="black" x1="212.97764858882513" x2="210.48270524660194" y1="83.1875447315322" y2="77.42207084349272"/>
<line id="1531" stroke="black" x1="228.12219198925982" x2="195.76151221426193" y1="219.43392071280167" y2="195.92251062110273"/>
<line id="516" stroke="black" x1="7.071619272081264" x2="3.220584837007081" y1="44.328138626281685" y2="35.67857366753363"/>
<line id="519" stroke="black" x1="37.62293753445667" x2="49.983617309454566" y1="113.51819385970175" y2="75.47593320789561"/>
<line id="1514" stroke="black" x1="195.9423135976497" x2="191.75997259384712" y1="195.6736588658116" y2="191.9078621113551"/>
<line id="1451" stroke="black" x1="155.81194095202977" x2="193.96317003373431" y1="155.7911392677974" y2="159.80099502487562"/>
<line id="305" stroke="black" x1="5.395404286809963" x2="40.036420438187506" y1="45.29590179924776" y2="25.295901799247765"/>
<line id="1499" stroke="black" x1="216.85831611286312" x2="218.22872507286885" y1="144.8689887164855" y2="138.73813145857247"/>
<line id="1360" stroke="black" x1="183.76151221426193" x2="216.12219198925985" y1="183.8784844037729" y2="160.36707431207395"/>
<line id="1331" stroke="black" x1="136.041149046181" x2="127.58060305163795" y1="184.07782223497935" y2="180.31094446483652"/>
<line id="846" stroke="black" x1="107.97713790148418" x2="109.02855796099223" y1="107.78248166253218" y2="112.72902413220339"/>
<line id="447" stroke="black" x1="25.16152086457881" x2="24.89434837048465" y1="88.35620041173173" y2="89.09830056250524"/>
<line id="696" stroke="black" x1="79.40910794450161" x2="115.95092625020565" y1="132.0385918821645" y2="115.7691261591325"/>
<line id="672" stroke="black" x1="92.01851336234344" x2="91.2765645180261" y1="91.82385712339143" y2="95.31445199605949"/>
<line id="1491" stroke="black" x1="217.42009934575668" x2="214.52519684820146" y1="215.01234401596966" y2="217.61892593261632"/>
<line id="275" stroke="black" x1="113.72094804706867" x2="107.46667664356957" y1="20.19732715717285" y2="20.788529868552217"/>
<line id="580" stroke="black" x1="80.0364204381875" x2="79.02272262997263" y1="79.8640770742503" y2="81.61985318159967"/>
<line id="1413" stroke="black" x1="214.52519684820146" x2="187.75997259384712" y1="217.61892593261632" y2="187.89313291352053"/>
<line id="35" stroke="black" x1="204.4327925502015" x2="200.90169943749476" y1="66.41732050210032" y2="61.2214747707527"/>
<line id="438" stroke="black" x1="56.25760102513104" x2="52.26201726368276" y1="42.94867572242107" y2="46.47125665385831"/>
<line id="330" stroke="black" x1="4.399208484900022" x2="4.19850610672962" y1="35.1538166103087" y2="34.209586158924296"/>
<line id="345" stroke="black" x1="8.892609332991213" x2="8.825850528532666" y1="56.293605534194555" y2="55.979530052666085"/>
<line id="392" stroke="black" x1="20" x2="20.19732715717285" y1="119.99999999999999" y2="126.27905195293128"/>
<line id="778" stroke="black" x1="124.9472933466136" x2="98.1820690922593" y1="184.25098986729722" y2="154.52519684820146"/>
<line id="45" stroke="black" x1="156.81245526846783" x2="150.90169943749476" y1="27.022351411174867" y2="24.89434837048465"/>
<line id="90" stroke="black" x1="56.25760102513104" x2="61.22147477075268" y1="197.05132427757894" y2="200.90169943749473"/>
<line id="361" stroke="black" x1="20.19732715717285" x2="20.788529868552217" y1="126.27905195293128" y2="132.53332335643043"/>
<line id="445" stroke="black" x1="23.141683887136907" x2="21.77127492713113" y1="95.13101128351447" y2="101.26186854142753"/>
<line id="815" stroke="black" x1="134.85370167826198" x2="113.04722681286002" y1="188.25098986729722" y2="168.6163517066101"/>
<line id="1495" stroke="black" x1="144.0007596205354" x2="135.4759332078956" y1="188.58726172385425" y2="185.81737771542106"/>
<line id="1249" stroke="black" x1="27.827269074913794" x2="20.167392943916852" y1="90.29297985549428" y2="84.72775408707184"/>
<line id="1507" stroke="black" x1="212.97764858882513" x2="215.10565162951536" y1="156.8124552684678" y2="150.90169943749476"/>
<line id="1032" stroke="black" x1="151.63080242132364" x2="155.81194095202977" y1="195.57201508252837" y2="155.7911392677974"/>
<line id="380" stroke="black" x1="95.1310112835145" x2="89.09830056250523" y1="23.141683887136892" y2="24.894348370484664"/>
<line id="1525" stroke="black" x1="156.8124552684678" x2="162.57792915650728" y1="212.97764858882516" y2="210.48270524660194"/>
<line id="1509" stroke="black" x1="138.73813145857247" x2="144.8689887164855" y1="218.22872507286888" y2="216.85831611286312"/>
<line id="1508" stroke="black" x1="159.80099502487562" x2="151.63080242132364" y1="196.43073692809799" y2="195.57201508252837"/>
<line id="670" stroke="black" x1="73.92212139017596" x2="111.9643820419821" y1="124.1357968386128" y2="111.77511706361491"/>
<line id="749" stroke="black" x1="115.07324093780376" x2="91.56183084610484" y1="179.63360208095878" y2="147.27292230596086"/>
<line id="1414" stroke="black" x1="187.75997259384712" x2="217.4857656129429" y1="187.89313291352053" y2="161.12790865916622"/>
<line id="669" stroke="black" x1="86.28280116517385" x2="73.92212139017596" y1="162.17805749041895" y2="124.1357968386128"/>
<line id="309" stroke="black" x1="6.4282275904272215" x2="5.689372688588771" y1="44.69960098687901" y2="41.22356196915409"/>
<line id="1486" stroke="black" x1="204.16655104271825" x2="199.7645745866881" y1="211.96361093377246" y2="214.50509322562786"/>
<line id="979" stroke="black" x1="115.95092625020565" x2="118.18114184327595" y1="115.7691261591325" y2="120.77827239490298"/>
<line id="217" stroke="black" x1="1.9184311668179466" x2="1.3562145607979792" y1="26.186789463908276" y2="20.83765577201823"/>
<line id="555" stroke="black" x1="39.82871722637206" x2="40.91796619025985" y1="4.2081782581148985" y2="14.571689881927593"/>
<line id="41" stroke="black" x1="178.77852522924732" x2="173.5826794978997" y1="39.09830056250527" y2="35.56720744979852"/>
<line id="450" stroke="black" x1="20.167392943916852" x2="43.678803035615786" y1="84.72775408707184" y2="52.36707431207395"/>
<line id="95" stroke="black" x1="83.18754473153214" x2="89.09830056250524" y1="212.9776485888251" y2="215.10565162951536"/>
<line id="1500" stroke="black" x1="206.9083856918844" x2="207.09005851691705" y1="159.50738949068108" y2="160.36209293340372"/>
<line id="722" stroke="black" x1="105.29590179924776" x2="85.29590179924776" y1="174.40559073806565" y2="139.7645745866881"/>
<line id="1484" stroke="black" x1="216.85831611286312" x2="215.10565162951536" y1="95.13101128351454" y2="89.09830056250527"/>
<line id="989" stroke="black" x1="143.50738949068105" x2="151.82385712339143" y1="190.9083856918844" y2="151.78248166253218"/>
<line id="847" stroke="black" x1="52.787050242862804" x2="44.576141700280836" y1="124.37857600803152" y2="122.63329352003328"/>
<line id="39" stroke="black" x1="188.45471059286888" x2="183.742398974869" y1="47.10313725785886" y2="42.948675722421086"/>
<line id="351" stroke="black" x1="8.167392943916852" x2="40.52807271891475" y1="55.07324093780376" y2="31.561830846104833"/>
<line id="442" stroke="black" x1="20.788529868552217" x2="20.19732715717285" y1="107.46667664356954" y2="113.72094804706867"/>
<line id="81" stroke="black" x1="24.894348370484636" x2="27.02235141117488" y1="150.90169943749473" y2="156.81245526846783"/>
<line id="1523" stroke="black" x1="151.82385712339143" x2="185.22930514294796" y1="151.78248166253218" y2="158.88302883461577"/>
<line id="1526" stroke="black" x1="162.57792915650728" x2="168.17536741017153" y1="210.48270524660194" y2="207.63066800438637"/>
<line id="117" stroke="black" x1="0" x2="40" y1="0" y2="0"/>
<line id="1307" stroke="black" x1="179.76457458668813" x2="214.40559073806565" y1="179.8640770742503" y2="159.8640770742503"/>
<line id="37" stroke="black" x1="197.05132427757894" x2="192.89686274214114" y1="56.25760102513104" y2="51.54528940713112"/>
<line id="1529" stroke="black" x1="219.2729223059609" x2="251.63360208095878" y1="163.56183084610484" y2="187.07324093780377"/>
<line id="1524" stroke="black" x1="217.4857656129429" x2="218.48006638922007" y1="161.12790865916622" y2="162.23219154480404"/>
<line id="1532" stroke="black" x1="195.76151221426193" x2="219.2729223059609" y1="195.92251062110273" y2="163.56183084610484"/>
<line id="1287" stroke="black" x1="41.27579817667416" x2="68.04102243102848" y1="38.18206909225931" y2="67.90786211135509"/>
<line id="872" stroke="black" x1="83.58066449982105" x2="77.16770150484231" y1="153.861735960265" y2="155.22485332459476"/>
<line id="1480" stroke="black" x1="199.80099502487562" x2="199.80099502487562" y1="159.80099502487562" y2="160.02715260065477"/>
<line id="393" stroke="black" x1="66.41732050210035" x2="61.2214747707527" y1="35.56720744979849" y2="39.09830056250526"/>
<line id="1528" stroke="black" x1="212.31094446483652" x2="212.83967771661287" y1="159.58060305163798" y2="160.7681573787136"/>
<line id="524" stroke="black" x1="72.04102243102848" x2="71.45299368399772" y1="71.89313291352053" y2="72.54620499905222"/>
<line id="401" stroke="black" x1="71.8246325898285" x2="66.41732050210035" y1="32.369331995613635" y2="35.56720744979849"/>
<line id="1154" stroke="black" x1="128.09424689655984" x2="119.86407707425029" y1="179.1572815004524" y2="174.40559073806565"/>
<line id="44" stroke="black" x1="162.57792915650728" x2="156.81245526846783" y1="29.517294753398062" y2="27.022351411174867"/>
<line id="1488" stroke="black" x1="215.10565162951536" x2="212.97764858882513" y1="89.09830056250527" y2="83.1875447315322"/>
<line id="82" stroke="black" x1="27.02235141117488" x2="29.517294753398005" y1="156.81245526846783" y2="162.5779291565072"/>
<line id="1477" stroke="black" x1="144.8689887164855" x2="150.90169943749473" y1="216.85831611286312" y2="215.10565162951536"/>
<line id="1504" stroke="black" x1="167.57374127405893" x2="159.80099502487562" y1="199.80099502487562" y2="199.80099502487562"/>
<line id="1482" stroke="black" x1="173.58267949789968" x2="175.3138743159126" y1="204.4327925502015" y2="203.25627376678997"/>
<line id="91" stroke="black" x1="61.22147477075268" x2="66.41732050210037" y1="200.90169943749473" y2="204.43279255020153"/>
<line id="1510" stroke="black" x1="45.939259064610596" x2="37.62293753445667" y1="116.22033052505455" y2="113.51819385970175"/>
<line id="1118" stroke="black" x1="163.7911392677974" x2="203.57201508252837" y1="163.81194095202977" y2="159.63080242132366"/>
<line id="1479" stroke="black" x1="150.90169943749473" x2="156.8124552684678" y1="215.10565162951536" y2="212.97764858882516"/>
<line id="444" stroke="black" x1="13.589206009543709" x2="13.250957794640849" y1="63.11118865236846" y2="62.07016768988301"/>
<line id="92" stroke="black" x1="66.41732050210037" x2="71.82463258982847" y1="204.43279255020153" y2="207.63066800438637"/>
<line id="46" stroke="black" x1="150.90169943749476" x2="144.8689887164855" y1="24.89434837048465" y2="23.141683887136892"/>
<line id="472" stroke="black" x1="45.39540428680996" x2="80.0364204381875" y1="59.864077074250304" y2="79.8640770742503"/>
<line id="844" stroke="black" x1="60" x2="52.04784141164112" y1="132.2474837831954" y2="131.41167823605457"/>
<line id="471" stroke="black" x1="25.395404286809963" x2="45.39540428680996" y1="94.50509322562785" y2="59.864077074250304"/>
<line id="1074" stroke="black" x1="159.80099502487562" x2="159.80099502487562" y1="199.80099502487562" y2="159.80099502487562"/>
<line id="569" stroke="black" x1="56.228979942347266" x2="96.0098557570782" y1="91.63080242132364" y2="95.81194095202979"/>
<line id="34" stroke="black" x1="207.63066800438634" x2="204.4327925502015" y1="71.82463258982847" y2="66.41732050210032"/>
<line id="1493" stroke="black" x1="33.435711023222915" x2="25.395404286809963" y1="99.14716648426302" y2="94.50509322562785"/>
<line id="40" stroke="black" x1="183.742398974869" x2="178.77852522924732" y1="42.948675722421086" y2="39.09830056250527"/>
<line id="1099" stroke="black" x1="145.0209182918018" x2="144.72775408707184" y1="191.2300961698392" y2="191.63360208095878"/>
<line id="1162" stroke="black" x1="167.78248166253218" x2="206.9083856918844" y1="167.82385712339143" y2="159.50738949068108"/>
<line id="47" stroke="black" x1="144.8689887164855" x2="138.7381314585725" y1="23.141683887136892" y2="21.771274927131145"/>
<line id="99" stroke="black" x1="107.46667664356953" x2="113.72094804706867" y1="219.21147013144778" y2="219.80267284282715"/>
<line id="143" stroke="black" x1="0.047841411641130094" x2="39.82871722637206" y1="8.389316788821034" y2="4.2081782581148985"/>
<line id="1474" stroke="black" x1="175.2234140417197" x2="167.97227779850354" y1="202.83069163711028" y2="203.59281676676073"/>
<line id="1195" stroke="black" x1="123.92251062110273" x2="127.25479002582338" y1="123.76151221426194" y2="128.34800134087791"/>
<line id="984" stroke="black" x1="135.71398871489103" x2="131.6169378240983" y1="185.08471820060734" y2="182.10803648904417"/>
<line id="1520" stroke="black" x1="220" x2="219.80267284282715" y1="120" y2="113.72094804706866"/>
<line id="1359" stroke="black" x1="207.27292230596086" x2="183.76151221426193" y1="216.23916417877078" y2="183.8784844037729"/>
<line id="1530" stroke="black" x1="251.63360208095878" x2="228.12219198925982" y1="187.07324093780377" y2="219.43392071280167"/>
<line id="625" stroke="black" x1="84.03186886574312" x2="82.9860277488715" y1="83.85006877466996" y2="86.19906638282467"/>
<line id="562" stroke="black" x1="10.191360826055442" x2="5.395404286809963" y1="53.602742196113134" y2="45.29590179924776"/>
<line id="87" stroke="black" x1="42.948675722421044" x2="47.10313725785885" y1="183.74239897486893" y2="188.45471059286888"/>
<line id="946" stroke="black" x1="144.72775408707184" x2="143.8214649722095" y1="191.63360208095878" y2="190.97514449634295"/>
<line id="116" stroke="black" x1="0" x2="0" y1="40" y2="0"/>
<line id="421" stroke="black" x1="15.550005157578383" x2="42.31522941193272" y1="74.85370167826197" y2="45.12790865916621"/>
<line id="1498" stroke="black" x1="120" x2="126.27905195293134" y1="220" y2="219.80267284282715"/>
<line id="1503" stroke="black" x1="131.89313291352053" x2="138.25458826765617" y1="131.75997259384712" y2="137.48785272233098"/>
<line id="1255" stroke="black" x1="192.0385918821645" x2="175.7691261591325" y1="212.391887080374" y2="175.85006877466998"/>
<line id="327" stroke="black" x1="101.26186854142753" x2="95.1310112835145" y1="21.771274927131145" y2="23.141683887136892"/>
<line id="1256" stroke="black" x1="175.7691261591325" x2="212.31094446483652" y1="175.85006877466998" y2="159.58060305163798"/>
<line id="1052" stroke="black" x1="40.52807271891475" x2="62.31314230254465" y1="31.561830846104833" y2="61.5464067572195"/>
<line id="432" stroke="black" x1="20.19732715717285" x2="20" y1="113.72094804706867" y2="119.99999999999999"/>
<line id="607" stroke="black" x1="39.70204572963307" x2="42.888562535972206" y1="8.851233872131957" y2="23.84261678359419"/>
<line id="96" stroke="black" x1="89.09830056250524" x2="95.13101128351447" y1="215.10565162951536" y2="216.8583161128631"/>
<line id="1063" stroke="black" x1="136.68980637250715" x2="134.85370167826198" y1="186.21178901533193" y2="188.25098986729722"/>
<line id="83" stroke="black" x1="29.517294753398005" x2="32.36933199561362" y1="162.5779291565072" y2="168.1753674101715"/>
<line id="346" stroke="black" x1="8.570898855036441" x2="7.230629480241472" y1="54.78007673307383" y2="48.47460507760155"/>
<line id="753" stroke="black" x1="39.76240314271112" x2="50.29222755682241" y1="19.409107944501613" y2="43.05948080135"/>
<line id="1475" stroke="black" x1="42.31522941193272" x2="72.04102243102848" y1="45.12790865916621" y2="71.89313291352053"/>
<line id="440" stroke="black" x1="24.89434837048465" x2="23.141683887136907" y1="89.09830056250524" y2="95.13101128351447"/>
<line id="1522" stroke="black" x1="182.72635648680733" x2="176.09894929524253" y1="205.54106226731747" y2="206.94976115274366"/>
<line id="551" stroke="black" x1="76.03948281061368" x2="75.18063446684204" y1="75.87848440377289" y2="77.06058773656679"/>
<line id="1476" stroke="black" x1="210.90609694725057" x2="207.27292230596086" y1="213.59950829020318" y2="216.23916417877078"/>
<line id="1483" stroke="black" x1="132.53332335643043" x2="138.73813145857247" y1="219.21147013144778" y2="218.22872507286888"/>
<line id="85" stroke="black" x1="35.567207449798445" x2="39.098300562505244" y1="173.5826794978996" y2="178.7785252292473"/>
<line id="875" stroke="black" x1="119.86407707425029" x2="139.8640770742503" y1="174.40559073806565" y2="139.76457458668813"/>
<line id="1518" stroke="black" x1="214.40559073806565" x2="215.1174535032979" y1="159.8640770742503" y2="161.097059551649"/>
<line id="33" stroke="black" x1="210.48270524660194" x2="207.63066800438634" y1="77.42207084349272" y2="71.82463258982847"/>
<line id="280" stroke="black" x1="107.46667664356957" x2="101.26186854142753" y1="20.788529868552217" y2="21.771274927131145"/>
<line id="816" stroke="black" x1="112.41901259126516" x2="105.12790865916621" y1="168.05070508080067" y2="161.48576561294288"/>
<line id="1335" stroke="black" x1="127.90786211135509" x2="131.70130560103348" y1="127.75997259384714" y2="131.9730184077813"/>
<line id="93" stroke="black" x1="71.82463258982847" x2="77.42207084349278" y1="207.63066800438637" y2="210.482705246602"/>
<line id="1521" stroke="black" x1="218.22872507286885" x2="219.21147013144778" y1="138.73813145857247" y2="132.53332335643043"/>
<line id="897" stroke="black" x1="100.65382854061258" x2="95.67857366753361" y1="166.3652840016527" y2="168.58041018786855"/>
<line id="1478" stroke="black" x1="219.21147013144778" x2="218.22872507286885" y1="107.46667664356957" y2="101.26186854142752"/>
<line id="1161" stroke="black" x1="176.09894929524253" x2="167.78248166253218" y1="206.94976115274366" y2="167.82385712339143"/>
<line id="667" stroke="black" x1="88.0258779612607" x2="87.07197089267223" y1="87.83661298289351" y2="90.77243706388337"/>
<line id="1206" stroke="black" x1="184.1357968386128" x2="171.7751170636149" y1="209.87887363469966" y2="171.8366129828935"/>
<line id="244" stroke="black" x1="120.00000000000001" x2="113.72094804706867" y1="20" y2="20.19732715717285"/>
<line id="1242" stroke="black" x1="159.80099502487562" x2="199.80099502487562" y1="159.80099502487562" y2="159.80099502487562"/>
<line id="1487" stroke="black" x1="43.678803035615786" x2="76.03948281061368" y1="52.36707431207395" y2="75.87848440377289"/>
<line id="644" stroke="black" x1="68.85123387213196" x2="107.97713790148418" y1="116.09894929524255" y2="107.78248166253218"/>
<line id="862" stroke="black" x1="92.00086680838731" x2="86.28280116517385" y1="160.3201453385862" y2="162.17805749041895"/>
<line id="968" stroke="black" x1="120.20431528990285" x2="112.36707431207395" y1="173.81628086187885" y2="168.12219198925982"/>
<line id="723" stroke="black" x1="85.29590179924776" x2="119.93691795062531" y1="139.7645745866881" y2="119.76457458668811"/>
<line id="1511" stroke="black" x1="215.10565162951536" x2="216.85831611286312" y1="150.90169943749476" y2="144.8689887164855"/>
<line id="662" stroke="black" x1="39.66519818626281" x2="46.00041270307793" y1="13.922121390175967" y2="33.41990681305154"/>
<line id="881" stroke="black" x1="40.036420438187506" x2="55.75111446755387" y1="25.295901799247765" y2="52.51455028350959"/>
<line id="939" stroke="black" x1="109.50801516938131" x2="105.29590179924776" y1="171.97372594996182" y2="174.40559073806565"/>
<line id="43" stroke="black" x1="168.17536741017156" x2="162.57792915650728" y1="32.36933199561365" y2="29.517294753398062"/>
<line id="176" stroke="black" x1="0.5761417002808429" x2="39.70204572963307" y1="17.167701504842327" y2="8.851233872131957"/>
<line id="634" stroke="black" x1="13.841958022146652" x2="8.167392943916852" y1="62.883609718016345" y2="55.07324093780376"/>
<line id="643" stroke="black" x1="77.16770150484231" x2="68.85123387213196" y1="155.22485332459476" y2="116.09894929524255"/>
<line id="1472" stroke="black" x1="209.81737771542106" x2="210.16222800194257" y1="159.47593320789562" y2="160.53727325751305"/>
<line id="1513" stroke="black" x1="221.48576561294288" x2="198.12917850917458" y1="218.67308636570942" y2="197.64272087648166"/>
<line id="517" stroke="black" x1="40" x2="40" y1="0" y2="5.837824991141193"/>
<line id="1502" stroke="black" x1="151.93274222984908" x2="143.50738949068105" y1="192.69924970097907" y2="190.9083856918844"/>
<line id="495" stroke="black" x1="47.490050560039094" x2="84.03186886574312" y1="67.58060305163795" y2="83.85006877466996"/>
<line id="88" stroke="black" x1="47.10313725785885" x2="51.54528940713111" y1="188.45471059286888" y2="192.89686274214114"/>
<line id="506" stroke="black" x1="68.04102243102848" x2="67.82797661709432" y1="67.90786211135509" y2="68.09968942384212"/>
<line id="568" stroke="black" x1="52.04784141164112" x2="56.228979942347266" y1="131.41167823605457" y2="91.63080242132364"/>
<line id="840" stroke="black" x1="112.36707431207395" x2="135.8784844037729" y1="168.12219198925982" y2="135.76151221426193"/>
<line id="593" stroke="black" x1="60" x2="100" y1="99.80099502487562" y2="99.80099502487562"/>
<line id="358" stroke="black" x1="83.18754473153217" x2="77.42207084349278" y1="27.02235141117488" y2="29.517294753398033"/>
<line id="1512" stroke="black" x1="143.85006877466998" x2="166.38108821182405" y1="143.7691261591325" y2="153.80058232179766"/>
<line id="42" stroke="black" x1="173.5826794978997" x2="168.17536741017156" y1="35.56720744979852" y2="32.36933199561365"/>
<line id="1517" stroke="black" x1="218.22872507286885" x2="216.85831611286312" y1="101.26186854142752" y2="95.13101128351454"/>
<line id="1496" stroke="black" x1="147.8366129828935" x2="175.95837824128154" y1="147.7751170636149" y2="156.91243248890345"/>
<line id="1506" stroke="black" x1="218.52519684820146" x2="223.33653996397064" y1="162.18206909225933" y2="166.51422189220247"/>
<line id="944" stroke="black" x1="135.4759332078956" x2="147.8366129828935" y1="185.81737771542106" y2="147.7751170636149"/>
<line id="86" stroke="black" x1="39.098300562505244" x2="42.948675722421044" y1="178.7785252292473" y2="183.74239897486893"/>
<line id="960" stroke="black" x1="127.96258675330814" x2="125.47098601276437" y1="179.4529950238532" y2="177.6427411230385"/>
<line id="94" stroke="black" x1="77.42207084349278" x2="83.18754473153214" y1="210.482705246602" y2="212.9776485888251"/>
<line id="842" stroke="black" x1="75.42241901684407" x2="68.38931678882103" y1="147.0139447820128" y2="147.75315361323447"/>
<line id="376" stroke="black" x1="3.370258096777647" x2="0" y1="40" y2="40"/>
<line id="1207" stroke="black" x1="171.7751170636149" x2="209.81737771542106" y1="171.8366129828935" y2="159.47593320789562"/>
<line id="1519" stroke="black" x1="211.6529993277502" x2="212.97764858882513" y1="159.87353910002807" y2="156.8124552684678"/>
<line id="1501" stroke="black" x1="219.80267284282715" x2="220" y1="126.27905195293135" y2="120"/>
<line id="89" stroke="black" x1="51.54528940713111" x2="56.25760102513104" y1="192.89686274214114" y2="197.05132427757894"/>
<line id="1017" stroke="black" x1="127.67927248277941" x2="124.9472933466136" y1="181.79110480415622" y2="184.25098986729722"/>
<line id="36" stroke="black" x1="200.90169943749476" x2="197.05132427757894" y1="61.2214747707527" y2="56.25760102513104"/>
<line id="543" stroke="black" x1="44.576141700280836" x2="52.89260933299121" y1="122.63329352003328" y2="83.50738949068105"/>
<line id="84" stroke="black" x1="32.36933199561362" x2="35.567207449798445" y1="168.1753674101715" y2="173.5826794978996"/>
<line id="779" stroke="black" x1="98.1820690922593" x2="127.90786211135509" y1="154.52519684820146" y2="127.75997259384714"/>
<line id="1492" stroke="black" x1="135.8784844037729" x2="147.28644474136613" y1="135.76151221426193" y2="144.0498805573218"/>
<line id="446" stroke="black" x1="4.491896586560193" x2="1.6229375344566677" y1="35.1125492086628" y2="26.282801165173865"/>
<line id="617" stroke="black" x1="68.38931678882103" x2="64.2081782581149" y1="147.75315361323447" y2="107.97227779850354"/>
<line id="220" stroke="black" x1="1.6229375344566677" x2="39.66519818626281" y1="26.282801165173865" y2="13.922121390175967"/>
<line id="592" stroke="black" x1="60" x2="60" y1="139.80099502487562" y2="99.80099502487562"/>
<line id="1473" stroke="black" x1="190.06236736431217" x2="184.1357968386128" y1="207.95321413978652" y2="209.87887363469966"/>
<line id="520" stroke="black" x1="49.983617309454566" x2="88.0258779612607" y1="75.47593320789561" y2="87.83661298289351"/>
<line id="322" stroke="black" x1="20.788529868552217" x2="21.77127492713113" y1="132.53332335643043" y2="138.7381314585724"/>
<line id="400" stroke="black" x1="9.03244474671978" x2="8.892609332991213" y1="56.26388259945271" y2="56.293605534194555"/>
<line id="424" stroke="black" x1="21.77127492713113" x2="20.788529868552217" y1="101.26186854142753" y2="107.46667664356954"/>
<line id="448" stroke="black" x1="61.2214747707527" x2="56.25760102513104" y1="39.09830056250526" y2="42.94867572242107"/>
<line id="1094" stroke="black" x1="119.93691795062531" x2="122.74040728830883" y1="119.76457458668811" y2="124.62036055803358"/>
<line id="711" stroke="black" x1="96.0098557570782" x2="95.59058927931831" y1="95.81194095202979" y2="99.80099502487562"/>
<line id="389" stroke="black" x1="11.55000515757839" x2="41.27579817667416" y1="64.94729334661363" y2="38.18206909225931"/>
<line id="1515" stroke="black" x1="219.80267284282715" x2="219.21147013144778" y1="113.72094804706866" y2="107.46667664356957"/>
<line id="79" stroke="black" x1="21.77127492713113" x2="23.141683887136892" y1="138.7381314585724" y2="144.8689887164855"/>
<line id="783" stroke="black" x1="103.98905407284583" x2="104.48654302881613" y1="103.79113926779742" y2="108.52443050684951"/>
<line id="151" stroke="black" x1="132.53332335643046" x2="126.27905195293135" y1="20.788529868552217" y2="20.19732715717285"/>
<line id="759" stroke="black" x1="100" x2="100" y1="99.80099502487562" y2="104.21040574555731"/>
<line id="1497" stroke="black" x1="126.27905195293134" x2="132.53332335643043" y1="219.80267284282715" y2="219.21147013144778"/>
<line id="970" stroke="black" x1="22.67818572828788" x2="15.550005157578383" y1="81.27194429261408" y2="74.85370167826197"/>
<line id="201" stroke="black" x1="126.27905195293135" x2="120.00000000000001" y1="20.19732715717285" y2="20"/>
<line id="908" stroke="black" x1="127.58060305163795" x2="143.85006877466998" y1="180.31094446483652" y2="143.7691261591325"/>
<line id="618" stroke="black" x1="64.2081782581149" x2="103.98905407284583" y1="107.97227779850354" y2="103.79113926779742"/>
<line id="1490" stroke="black" x1="223.69614609504583" x2="221.48576561294288" y1="216.2182101397517" y2="218.67308636570942"/>
<line id="1306" stroke="black" x1="199.7645745866881" x2="179.76457458668813" y1="214.50509322562786" y2="179.8640770742503"/>
<line id="1117" stroke="black" x1="167.97227779850354" x2="163.7911392677974" y1="203.59281676676073" y2="163.81194095202977"/>
<line id="331" stroke="black" x1="2.4560762093402486" x2="0.5761417002808429" y1="26.012098000010806" y2="17.167701504842327"/>
<line id="924" stroke="black" x1="111.9643820419821" x2="113.60192864205095" y1="111.77511706361491" y2="116.81496727600411"/>
<line id="367" stroke="black" x1="6.893206378319121" x2="4.228979942347266" y1="47.89017112142455" y2="48.17019260355197"/>
<line id="953" stroke="black" x1="118.52905073226151" x2="115.07324093780376" y1="177.12280929658775" y2="179.63360208095878"/>
<line id="1516" stroke="black" x1="168.17536741017153" x2="173.58267949789968" y1="207.63066800438637" y2="204.4327925502015"/>
<line id="98" stroke="black" x1="101.26186854142753" x2="107.46667664356953" y1="218.22872507286888" y2="219.21147013144778"/>
<line id="417" stroke="black" x1="77.42207084349278" x2="71.8246325898285" y1="29.517294753398033" y2="32.369331995613635"/>
<line id="702" stroke="black" x1="18.009890220719377" x2="11.55000515757839" y1="72.12172254209618" y2="64.94729334661363"/>
<line id="750" stroke="black" x1="91.56183084610484" x2="123.92251062110273" y1="147.27292230596086" y2="123.76151221426194"/>
<line id="808" stroke="black" x1="105.12790865916621" x2="131.89313291352053" y1="161.48576561294288" y2="131.75997259384712"/>
<line id="1148" stroke="black" x1="151.91082390345105" x2="151.32638994727404" y1="192.9077886465565" y2="192.57036554463414"/>
<line id="373" stroke="black" x1="89.09830056250523" x2="83.18754473153217" y1="24.894348370484664" y2="27.02235141117488"/>
<line id="130" stroke="black" x1="138.7381314585725" x2="132.53332335643046" y1="21.771274927131145" y2="20.788529868552217"/>
<line id="1471" stroke="black" x1="191.75997259384712" x2="218.52519684820146" y1="191.9078621113551" y2="162.18206909225933"/>
<line id="544" stroke="black" x1="52.89260933299121" x2="92.01851336234344" y1="83.50738949068105" y2="91.82385712339143"/>
<line id="1481" stroke="black" x1="39.48084968628941" x2="31.22058483700708" y1="107.80012821648828" y2="104.12242135734199"/>
<line id="947" stroke="black" x1="143.5371124254229" x2="137.73082733499263" y1="190.76855027815586" y2="186.55003723023478"/>
</svg>