<svg viewBox="-15.784631172216358 -24.141744759076623 267.96485170422665 236.32196529108694" xmlns="http://www.w3.org/2000/svg">
<path d="M51.961525,74.641014 L23.349365,58.121777 M54.543262,68.946014 L24.756708,55.68419 M56.702713,62.58328 L26.688133,52.83095 M28.038475,45.358982 L53.198524,30.832823 M23.94757,50.906437 L45.299656,35.393234 M20.646086,56.422043 L38.5738,40.279858 M60,40 L38.958992,40 M18.126371,61.823463 L33.029003,45.272415 M57.399605,67.94302 L59.490173,48.05258 M55.785,67.77332 L57.399605,67.94302 M54.214153,75.16356 L58.372387,55.600605 M60,60 L60,40 M59.490173,48.05258 L33.03001,45.271507 M58.372387,55.600605 L29.294569,49.419926 M58.23445,60 L60,60 M52.718433,74.845634 L54.214153,75.16356 M50.522373,81.60441 L56.702713,62.58328 M49.111485,81.14599 L50.522373,81.60441 M45.823463,83.87363 L21.529427,61.99918 M49.02961,79.62779 L22.320469,60.22247 M42.422043,87.35391 L20.989689,63.550873 M38.906437,90.05243 L20.576298,64.82316 M35.358982,91.961525 L20.322199,65.917046 M31.862381,93.08219 L20.143011,66.760056 M28.498758,93.42407 L20.05508,67.437096 M26.231112,99.26159 L27.559147,100.73653 M31.110613,97.53877 L32.440853,98.73653 M35.946167,94.843475 L37.273903,95.808136 M27.559147,100.73653 L42.422043,87.35391 M16.787128,99.79413 L18.038475,101.961525 L35.358982,91.961525 M32.440853,98.73653 L45.823463,83.87363 M22.726095,101.808136 L38.906437,90.05243 M21.419361,100.00957 L22.726095,101.808136 M37.273903,95.808136 L49.02961,79.62779 M40.628002,91.19161 L41.961525,91.961525 M46.408527,87.21693 L54.543262,68.946014 M45.050026,86.61208 L46.408527,87.21693 M41.961525,91.961525 L51.961525,74.641014 M25.348797,93.005325 L20.008434,67.88089 M22.490831,91.852455 L20,68.15377 M17.947416,87.49017 L20.109835,66.91614 M16.372206,67.02961 L28.63075,50.15717 M16.399395,84.37239 L20.513874,65.01528 M15.416719,80.70271 L21.397827,62.294754 M15.358984,71.961525 L25.30457,54.735264 M15.053983,76.54326 L22.94031,58.830284 M5.0466485,93.68591 L5.7858453,97.16356 M12.444356,98.640465 L13.591471,101.21693 L31.862381,93.08219 M9.477629,99.60441 L28.498758,93.42407 M8.497285,96.58723 L9.477629,99.60441 M5.7858453,97.16356 L25.348797,93.005325 M2.1859658,90 L2.600394,93.94302 L22.490831,91.852455 M76.2576,22.948675 L76.6927,22.611174 M71.54529,27.103138 L76.2576,22.948675 M67.103134,31.54529 L71.54529,27.103138 M62.948677,36.257603 L67.103134,31.54529 M52.14755,24.490831 L91.92842,20.309694 L91.895874,20 M60,20 L100,20 L100,19.257168 M139.06734,-5.747867 L130.72609,-11.808135 L118.97039,4.3722053 M127.05527,-6.7556763 L118.038475,-11.961524 L108.038475,5.358984 M115.15122,-6.9606514 L105.59147,-11.216926 M133.99855,23.323448 L135.05275,20.955685 M125.33955,21.7774 L125.995026,19.760048 M116.75352,20.715862 L117.09713,19.099276 M108.038475,5.358984 L142.67949,25.358984 M97.45674,7.053983 L133.99855,23.323448 M108.2907,20.128555 L108.41525,18.94351 M87.29729,9.416719 L125.33955,21.7774 M77.62761,12.399395 L116.75352,20.715862 M68.50983,15.947416 L108.2907,20.128555 M81.78584,-7.1635575 L77.62761,12.399395 M60,0.0000000000000071054274 L60,20 M70.18597,0.0000000000000052960362 L60,0.0000000000000071054274 M80.871826,-2.86345 L70.600395,-3.9430215 L68.50983,15.947416 M105.59147,-11.216926 L97.45674,7.053983 M103.43331,-6.369614 L93.47763,-9.60441 L87.29729,9.416719 M91.98047,-4.9966235 L81.78584,-7.1635575 M60,3.5553403 L50.05698,4.6003942 M50.38859,7.7554736 L40.83644,9.785846 M60,40.05901 L62.948677,36.257603 M32.91781,39.86238 L62.218906,26.81669 M38.575928,34.49876 L72.26682,23.551924 M44.994675,29.348797 L83.20854,21.22619 M50.05698,4.6003942 L52.14755,24.490831 M32.395588,15.477629 L38.575928,34.49876 M41.422813,12.544506 L32.395588,15.477629 M40.83644,9.785846 L44.994675,29.348797 M121.26187,198.22873 L115.13101,196.85832 L109.0983,195.10565 L103.187546,192.97765 L97.42207,190.48271 M71.54529,172.89687 L67.103134,168.45471 M76.2576,177.05133 L71.54529,172.89687 M81.22147,180.9017 L76.2576,177.05133 M97.42207,190.48271 L91.82463,187.63066 L86.41732,184.43279 L81.22147,180.9017 M55.567207,153.58267 L52.36933,148.17537 M67.103134,168.45471 L62.948677,163.7424 L59.0983,158.77852 L55.567207,153.58267 M44.89435,130.9017 L43.141685,124.86899 M52.36933,148.17537 L49.517296,142.57793 L47.02235,136.81245 L44.89435,130.9017 M43.141685,124.86899 L41.771275,118.73813 L40.78853,112.533325 L40.197327,106.27905 M40.197327,93.72095 L40.407764,91.49474 M40.197327,106.27905 L40,100 L40.197327,93.72095 M203.7424,22.948675 L208.45471,27.103138 M198.77852,19.0983 L203.7424,22.948675 M193.58267,15.567207 L198.77852,19.0983 M232.97765,63.187546 L235.10565,69.0983 M230.48271,57.42207 L232.97765,63.187546 M227.63066,51.82463 L230.48271,57.42207 M224.43279,46.41732 L227.63066,51.82463 M208.45471,27.103138 L212.89687,31.54529 M220.9017,41.221474 L224.43279,46.41732 M217.05133,36.257603 L220.9017,41.221474 M212.89687,31.54529 L217.05133,36.257603 M188.17537,12.369332 L193.58267,15.567207 M182.57793,9.517295 L188.17537,12.369332 M179.4136,8.147971 L182.57793,9.517295 M176.60498,38.30825 L192.78531,26.552546 M239.21147,87.466675 L239.80267,93.72095 M240,100 L239.80267,106.27905 M239.80267,93.72095 L240,100 M239.80267,106.27905 L239.21147,112.533325 L238.22873,118.73813 M238.22873,81.26187 L239.21147,87.466675 M236.85832,75.13101 L238.22873,81.26187 M235.10565,69.0983 L236.85832,75.13101 M238.22873,118.73813 L236.85832,124.86899 L235.10565,130.9017 L232.97765,136.81245 L230.48271,142.57793 M212.89687,168.45471 L208.45471,172.89687 M217.05133,163.7424 L212.89687,168.45471 M220.9017,158.77852 L217.05133,163.7424 M230.48271,142.57793 L227.63066,148.17537 L224.43279,153.58267 L220.9017,158.77852 M193.58267,184.43279 L188.17537,187.63066 M208.45471,172.89687 L203.7424,177.05133 L198.77852,180.9017 L193.58267,184.43279 M170.9017,195.10565 L164.86899,196.85832 M188.17537,187.63066 L182.57793,190.48271 L176.81245,192.97765 L170.9017,195.10565 M164.86899,196.85832 L158.73813,198.22873 L152.53333,199.21147 L146.27905,199.80267 L140,200 L133.72095,199.80267 L127.466675,199.21147 L121.26187,198.22873 M192.78531,26.552546 L169.27391,-5.808135 M168.34319,34.37188 L171.60875,31.431543 M153.09357,5.9475703 L176.60498,38.30825 M169.27391,-5.808135 L153.09357,5.9475703 M159.90233,30.891594 L162.55592,27.944479 M151.33107,27.883615 L153.39961,25.036518 M142.67949,25.358984 L144.20927,22.709326 M163.10994,-1.3297533 L156.44086,-8.736526 L141.57796,4.646086 M151.11061,-3.9371557 L143.55914,-10.736526 L130.17653,4.1263704 M141.57796,4.646086 L168.34319,34.37188 M130.17653,4.1263704 L159.90233,30.891594 M118.97039,4.3722053 L151.33107,27.883615 M25.687311,23.62242 L18.038475,28.038475 M25.66176,23.565035 L25.526491,23.71527 M25.12569,23.94667 L23.703276,22.913225 L21.382118,26.108023 M30.430672,19.076998 L30.028698,18.71506 L29.21577,19.617907 M33.168964,17.857832 L24.783073,21.59147 M13.24401,36.174248 L7.263474,41.559147 M13.067239,35.930943 L12.583295,36.769157 M18.038475,27.320509 L14.897998,32.759975 M13.05254,31.86671 L9.723297,39.34431 M14.930889,32.703007 L13.05254,31.86671 M10.715144,37.11659 L8.756269,36.48011 M24.783073,21.59147 L32.91781,39.86238 M18.038475,28.038475 L28.038475,45.358982 M19.030836,29.757294 L12.191865,34.726097 M18.897968,29.52716 L18.395285,30.219048 M18.660254,27.679491 L18.038475,27.320509 M12.191865,34.726097 L23.94757,50.906437 M8.249582,42.65433 L8.030378,43.14667 M8.361632,42.778774 L3.263474,48.440853 M8.756269,36.48011 L5.7770295,45.649265 M5.15291,41.08825 L3.6909888,47.96605 M7.1229362,41.506992 L5.15291,41.08825 M4.1472754,45.81939 L2.238117,45.61873 M1.777627,50 L0,50 M3.5376017,48.68768 L2.9423294,51.488216 M4.407782,49.47119 L0.1918652,55.273903 M2.238117,45.61873 L1.3977674,53.614124 M1.1501408,55.97013 L1.0728078,56.705906 M0,50 L0.0000000000000015212835,58.564064 M-1.2030705,57.755474 L-2.5306222,58.037655 M-1.973504,64.36145 L-2.6779945,64.67511 M-1.6595154,62.13589 L-1.2603252,64.01393 M-0.6834401,62.699425 L-0.68184155,62.714634 M-1.852632,61.22735 L-2.8830512,61.56215 M-1.5807445,54.162148 L-0.94588894,60.202393 M0,53.996002 L-1.5807445,54.162148 M1.394927,56.14798 L-1.9615242,61.961525 M-2.5306222,58.037655 L-1.7678723,61.62611 M-3.6044106,74.52237 L15.416719,80.70271 M-1.8199887,69.03049 L-3.6044106,74.52237 M-3.216926,68.40853 L15.053983,76.54326 M20,90 L20,67.96114 M0.0000000000000071054274,90 L20,90 M0.00000000000000632451,85.60383 L0.0000000000000071054274,90 M-1.9430215,85.399605 L17.947416,87.49017 M-1.4365901,80.58123 L-1.9430215,85.399605 M-3.1635575,80.21416 L16.399395,84.37239 M-2.060369,75.02406 L-3.1635575,80.21416 M-2.6779945,64.67511 L-2.1163473,65.93659 M-0.6767815,62.70327 L-3.216926,68.40853 M-2.8830512,61.56215 L-1.7378963,65.08657 M7.263474,41.559147 L20.646086,56.422043 M-1.9615242,61.961525 L15.358984,71.961525 M0.1918652,55.273903 L16.372206,67.02961 M3.263474,48.440853 L18.126371,61.823463" fill="none" stroke="black" vector-effect="non-scaling-stroke"/>
</svg>