<svg viewBox="-40.6330892530271 -20.6330892530271 453.9279635665962 259.1013530354598" xmlns="http://www.w3.org/2000/svg" xmlns:inkscape="http://www.inkscape.org/namespaces/inkscape">
<g inkscape:groupmode="layer" inkscape:label="0">
<path d="M322.57095,216.49345 L326.70172,212.6144 M314.3478,215.04718 L317.7803,211.39194 M306.3443,213.48232 L309.11493,210.1332 M392.66177,166.84126 L367.16483,136.02072 M361.30127,140.87148 L353.50656,132.57094 M348.44583,137.32327 L339.95282,129.3478 M335.6662,133.9126 L326.5177,126.3443 M295.18906,187.3347 L322.57095,216.49345 M305.52377,187.01465 L331.02072,217.83517 L392.66177,166.84126 M367.16483,136.02072 L305.52377,187.01465 M285.3857,121.608086 L274.22595,116.356705 M276.3567,205.77403 L277.02795,204.34755 M269.317,203.4241 L269.6383,202.6126 M262.43784,200.88306 L262.49042,200.72127 M273.04834,118.85926 L261.5759,114.31699 M297.8213,124.48654 L287.05667,118.56865 M322.96613,130.63739 L313.2147,123.55254 M353.50656,132.57094 L295.18906,187.3347 M339.95282,129.3478 L285.18906,187.6653 M326.5177,126.3443 L275.52377,187.98535 M260.9104,115.997826 L258.8833,115.61113 M275.52377,187.98535 L306.3443,213.48232 M285.18906,187.6653 L314.3478,215.04718 M298.55255,211.78531 L300.70755,208.8192 M290.96384,209.94315 L292.55847,207.43037 M257.1907,188.51007 L290.96384,209.94315 M266.19186,188.27391 L298.55255,211.78531 M310.3497,127.495865 L300.05685,120.96384 M313.2147,123.55254 L266.19186,188.27391 M300.05685,120.96384 L257.1907,188.51007 M287.05667,118.56865 L248.51637,188.67319 M274.22595,116.356705 L240.16362,188.74286 M261.5759,114.31699 L232.12593,188.69911 M260.815,116.238785 L249.11694,112.43785 L224.39558,188.52237 M283.56863,207.94333 L284.66635,205.94662 M248.51637,188.67319 L283.56863,207.94333 M240.16362,188.74286 L276.3567,205.77403 M232.12593,188.69911 L269.317,203.4241 M224.39558,188.52237 L262.43784,200.88306 M216.96362,188.1936 L247.56686,196.05118 M236.85881,110.70695 L216.96362,188.1936 M209.81989,187.69435 L230.0477,191.55302 M224.8104,109.111374 L209.81989,187.69435 M202.95313,187.00688 L212.61366,188.2273 M212.97978,107.63771 L202.95313,187.00688 M196.35097,186.11417 L203.01295,186.53331 M201.3742,106.27203 L196.35097,186.11417 M190,185 L196.42107,185 M190,105 L190,185 M236.68678,111.37692 L224.8104,109.111374 M224.8065,109.131775 L212.97978,107.63771 M241.14352,111.19562 L241.29527,108.78365 L201.3742,106.27203 M230,108.07301 L230,105 L190,105 M219.01674,105 L218.78366,101.29527 L178.86258,103.8069 M208.1939,101.961525 L207.65105,97.66437 L167.96645,102.6777 M146.27905,199.80267 L140,200 L133.72095,199.80267 L127.466675,199.21147 L121.26187,198.22873 M183.88583,183.64903 L190,183.26436 M177.99312,182.04688 L183.73936,181.32095 M172.30565,180.18011 L177.629,179.16463 M192.62358,185 L188.17537,187.63066 M170.9017,195.10565 L164.86899,196.85832 M188.17537,187.63066 L182.57793,190.48271 L176.81245,192.97765 L170.9017,195.10565 M164.86899,196.85832 L158.73813,198.22873 L152.53333,199.21147 L146.27905,199.80267 M166.8064,178.03638 L171.65903,176.79044 M141.48993,162.80928 L143.57825,161.484 M161.47763,175.60442 L165.81973,174.19357 M146.32681,166.48363 L148.99039,165.0193 M156.30089,172.87407 L160.10155,171.36928 M151.25714,169.83638 L154.49495,168.31279 M178.86258,103.8069 L183.88583,183.64903 M167.96645,102.6777 L177.99312,182.04688 M157.31514,101.59714 L172.30565,180.18011 M197.5301,98.94294 L196.60663,94.10188 L157.31514,101.59714 M187.02254,95.930145 L185.65454,90.602135 L146.91121,100.54973 L166.8064,178.03638 M136.75627,99.51989 L161.47763,175.60442 M126.85092,98.49194 L156.30089,172.87407 M117.19479,97.45022 L151.25714,169.83638 M176.66699,92.909744 L174.79852,87.15921 L136.75627,99.51989 M164.04198,83.76696 L126.85092,98.49194 M153.38788,80.419044 L117.19479,97.45022 M121.26187,198.22873 L115.13101,196.85832 L109.0983,195.10565 L103.187546,192.97765 L97.42207,190.48271 M71.54529,172.89687 L67.103134,168.45471 M76.2576,177.05133 L71.54529,172.89687 M81.22147,180.9017 L76.2576,177.05133 M97.42207,190.48271 L91.82463,187.63066 L86.41732,184.43279 L81.22147,180.9017 M55.567207,153.58267 L52.36933,148.17537 M67.103134,168.45471 L62.948677,163.7424 L59.0983,158.77852 L55.567207,153.58267 M44.89435,130.9017 L43.141685,124.86899 M52.36933,148.17537 L49.517296,142.57793 L47.02235,136.81245 L44.89435,130.9017 M43.141685,124.86899 L41.771275,118.73813 L40.78853,112.533325 L40.197327,106.27905 M40.197327,93.72095 L40.779617,87.56094 M40.197327,106.27905 L40,100 L40.197327,93.72095 M136.72609,158.80814 L138.24869,157.7019 M132.01465,154.47623 L132.9916,153.66803 M107.78652,96.37909 L146.32681,166.48363 M98.62379,95.26305 L141.48993,162.80928 M89.70328,94.08678 L136.72609,158.80814 M142.83879,77.10894 L107.78652,96.37909 M136.64035,80.51656 L132.39691,73.82998 L98.62379,95.26305 M127.33471,149.81094 L127.79646,149.37733 M81.02073,92.835175 L132.01465,154.47623 M72.57094,91.493454 L127.33471,149.81094 M64.3478,90.04717 L122.446144,144.60515 M56.344296,88.482315 L109.577156,132.52037 M48.552544,86.78532 L95.697624,121.03822 M40.963833,84.94314 L80.9031,110.28937 M33.568645,82.94333 L65.30526,100.39068 M252.55037,113.55344 L252.66437,112.65104 M248.71606,113.67163 L247.50778,113.44113 M248.69215,113.74523 L236.85881,110.70695 M252.66437,112.65104 L225.1346,109.173225 M238.22873,81.26187 L239.21147,87.466675 M236.85832,75.13101 L238.22873,81.26187 M235.10565,69.0983 L236.85832,75.13101 M239.80267,106.27905 L239.57614,108.6755 M240,100 L239.80267,106.27905 M239.80267,93.72095 L240,100 M239.21147,87.466675 L239.80267,93.72095 M232.97765,63.187546 L235.10565,69.0983 M230.48271,57.42207 L232.97765,63.187546 M227.63066,51.82463 L230.48271,57.42207 M224.43279,46.41732 L227.63066,51.82463 M220.9017,41.221474 L224.43279,46.41732 M217.05133,36.257603 L220.9017,41.221474 M212.89687,31.54529 L217.05133,36.257603 M208.45471,27.103138 L212.89687,31.54529 M203.7424,22.948675 L208.45471,27.103138 M198.77852,19.0983 L203.7424,22.948675 M193.58267,15.567207 L198.77852,19.0983 M188.17537,12.369332 L193.58267,15.567207 M182.57793,9.517295 L188.17537,12.369332 M152.53333,0.7885299 L158.73813,1.7712749 M176.81245,7.0223513 L182.57793,9.517295 M170.9017,4.894348 L176.81245,7.0223513 M164.86899,3.1416838 L170.9017,4.894348 M158.73813,1.7712749 L164.86899,3.1416838 M166.45802,89.8692 L164.04198,83.76696 M156.38908,86.79695 L153.38788,80.419044 M146.45265,83.68252 L142.83879,77.10894 M126.94317,77.29102 L122.06396,70.57536 M115.13101,3.1416838 L121.26187,1.7712749 L127.466675,0.7885299 L133.72095,0.19732715 M146.27905,0.19732715 L152.53333,0.7885299 M140,0 L146.27905,0.19732715 M133.72095,0.19732715 L140,0 M117.35161,73.999084 L111.841255,67.33822 M108.000725,70.51538 L107.59088,70.35311 M107.85583,70.63525 L101.72968,64.11157 M99.786804,65.93606 L100.88305,62.56215 M98.79264,66.86964 L97.5934,66.39483 M98.44583,67.19531 L91.72968,60.88843 M122.06396,70.57536 L89.70328,94.08678 M111.841255,67.33822 L81.02073,92.835175 M101.72968,64.11157 L72.57094,91.493454 M91.72968,60.88843 L64.3478,90.04717 M81.841255,57.661785 L56.344296,88.482315 M72.06396,54.424633 L48.552544,86.78532 M62.396904,51.17002 L40.963833,84.94314 M52.838795,47.89106 L33.568645,82.94333 M26.3567,80.77404 L49.03004,91.4433 M43.387875,44.580956 L26.3567,80.77404 M80.285645,59.5422 L77.69701,58.51729 M79.84342,60.076748 L72.06396,54.424633 M43.248096,44.878 L34.04198,41.23304 M91.777664,59.60363 L93.14119,54.293056 M100.88305,62.56215 L24.79853,37.84079 M93.14119,54.293056 L15.654539,34.397865 M89.549545,63.21004 L87.62858,62.449474 M12.43785,75.88305 L19.4243,78.15308 M5.7069435,73.14119 L12.741846,74.94745 M89.11164,63.67637 L81.841255,57.661785 M19.316998,78.424095 L32.215473,83.53097 M34.04198,41.23304 L19.316998,78.424095 M24.79853,37.84079 L12.43785,75.88305 M15.654539,34.397865 L5.7069435,73.14119 M85.189606,45.888622 L6.606629,30.898119 M-0.8886239,70.189606 L6.121436,71.52685 M6.606629,30.898119 L-0.8886239,70.189606 M-7.362288,67.02022 L-0.45059246,67.893364 M-2.3489587,27.335629 L-7.362288,67.02022 M52.484756,48.53505 L48.10923,46.802658 M52.34212,48.794502 L43.387875,44.580956 M-13.727965,63.625793 L-6.987049,64.0499 M71.01314,55.870956 L67.799385,54.59854 M70.63169,56.395977 L62.396904,51.17002 M61.74288,52.2006 L57.936504,50.69355 M61.467407,52.63468 L52.838795,47.89106 M77.02022,37.36229 L-2.3489587,27.335629 M68.53887,30.109556 L71.54529,27.103138 M60,28.185276 L60,20 M68.62579,28.727966 L-11.216345,23.704723 L-13.727965,63.625793 M-20,60 L-13.49985,60 M-20,20 L-20,60 M60,20 L-20,20 M109.0983,4.894348 L115.13101,3.1416838 M103.187546,7.0223513 L109.0983,4.894348 M97.42207,9.517295 L103.187546,7.0223513 M91.82463,12.369332 L97.42207,9.517295 M84.03251,51.954346 L85.189606,45.888622 M76.160675,44.166264 L77.02022,37.36229 M68.153046,36.242104 L68.62579,28.727966 M71.54529,27.103138 L76.2576,22.948675 M86.41732,15.567207 L91.82463,12.369332 M81.22147,19.0983 L86.41732,15.567207 M76.2576,22.948675 L81.22147,19.0983" fill="none" stroke="black" vector-effect="non-scaling-stroke"/>
</g>
</svg>