<svg height="218mm" viewBox="0 0 300 218" width="300mm" xmlns="http://www.w3.org/2000/svg" xmlns:inkscape="http://www.inkscape.org/namespaces/inkscape">
<g inkscape:groupmode="layer" inkscape:label="0">
<path d="M20.747047,53.246174 L72.98687,56.532825 L72.67755,61.44924 M72.92999,57.436783 L74.897064,55.46972 L77.98027,52.7515 L81.22808,50.232243 L84.62766,47.92189 L88.16561,45.829556 L91.82795,43.963497 L95.600235,42.331085 L99.467575,40.938755 L103.41471,39.792007 L107.42606,38.895363 L111.4858,38.252365 L115.5779,37.865547 L119.68621,37.73644 L123.794525,37.865547 L127.88663,38.252365 L131.94637,38.895363 L135.95772,39.792007 L139.90485,40.938755 L143.77219,42.331085 L147.54448,43.963497 L151.20682,45.829556 L154.74477,47.92189 L158.14435,50.232243 L161.39215,52.7515 L164.47537,55.46972 L167.38182,58.376167 L170.10004,61.45938 L172.6193,64.70719 L174.92964,68.10677 L177.02199,71.644714 L178.88803,75.30706 L180.52045,79.079346 L181.91278,82.946686 L183.05952,86.89382 L183.95618,90.905174 L184.59917,94.96491 L184.986,99.05701 L185.1151,103.16532 L184.986,107.273636 L184.83777,108.841606 M185.96259,108.91237 L159.84267,107.26904 L156.55602,159.50887 L160.91489,159.7831 M160.87575,160.09296 L167.19653,160.89146 M165.36859,160.54276 L178.60342,163.06744 M179.96318,161.20016 L204.29688,170.83455 L204.5071,170.3036 M199.83032,169.06612 L199.79593,169.17198 L174.9053,161.08452 L191.08022,111.30327 L198.73413,113.79018 M198.79655,113.63252 L197.47023,113.37951 M199.23196,112.532776 L179.96318,161.20016 M185.22215,161.22879 L208.90288,172.3721 L209.34207,171.43877 M213.62158,173.79144 L190.68727,161.1832 L215.90375,115.31458 L222.94691,119.18659 M224.40964,116.88172 L196.3628,161.07648 L218.46016,175.09988 L219.50352,173.45581 M223.42537,176.3052 L202.25214,160.92195 L233.01865,118.57549 L239.39891,123.21102 M241.72266,120.4021 L247.70842,125.35396 M250.51312,122.36726 L214.6818,160.52374 L233.76004,178.4394 L236.00587,176.04782 M239.14034,179.38568 L241.84306,176.84766 M239.14034,179.38568 L221.22469,160.30745 L259.38116,124.47613 L264.48117,129.90707 M268.31763,126.733284 L285,146.8988 L244.66895,180.26357 L227.98657,160.09804 L268.31763,126.733284 M256.07,127.58552 L250.51312,122.36726 M241.72266,120.4021 L208.3579,160.73315 L228.52344,177.41553 L230.33623,175.22424 M224.83537,174.3645 L223.42537,176.3052 M214.33978,172.48502 L213.62158,173.79144 M190.06601,166.01053 L170.04265,160.86942 L183.05984,110.17075 L190.80228,112.158676 M190.81793,112.11052 L190.02736,111.95971 M193.32666,112.03319 L193.40126,111.44276 L175.38884,109.16726 M175.17671,109.12679 L165.36859,160.54276 M160.87575,160.09296 L167.43607,108.16259 L175.17416,109.14014 M175.17671,109.12679 L182.9473,110.609116 M185.8633,110.49049 L185.96259,108.91237 M178.5722,108.44741 L178.5722,106.43677 L152.40065,106.43677 L152.40065,158.77988 L156.60188,158.77988 M154.11723,158.77988 L151.20682,160.50108 L147.54448,162.36714 L143.77219,163.99956 L139.90485,165.39189 L135.95772,166.53864 L131.94637,167.43529 L127.88663,168.07828 L123.794525,168.4651 L119.68621,168.59421 L115.5779,168.4651 L111.4858,168.07828 L107.42606,167.43529 L103.41471,166.53864 L99.467575,165.39189 L95.600235,163.99956 L91.82795,162.36714 L88.16561,160.50108 L84.62766,158.40875 L81.22808,156.0984 L77.98027,153.57915 L74.897064,150.86093 L71.99061,147.95447 L69.27239,144.87126 L66.753136,141.62346 L64.44278,138.22388 L62.350445,134.68593 L60.48439,131.02359 L58.85198,127.2513 L57.45965,123.38396 L56.3129,119.43682 L55.416256,115.425476 L54.77326,111.36574 L54.38644,107.273636 L54.25733,103.16532 L54.38644,99.05701 L54.767426,95.02659 M54.887955,93.31379 L81.019775,109.897545 M86.777626,99.296364 L117.544136,141.64282 L118.54035,140.91904 M120.66106,144.26074 L92.61422,100.06599 L114.71159,86.04257 L117.48803,90.41753 M121.5436,88.18796 L123.90811,92.488976 M121.5436,88.18796 L98.6093,100.796196 L123.82578,146.66481 L125.56853,145.70673 M127.05163,148.85849 L104.76502,101.497025 L128.44576,90.35372 L130.40941,94.52672 M135.41661,92.54423 L136.9974,96.53686 M135.41661,92.54423 L111.08292,102.17862 L130.3517,150.84601 L132.83844,149.86143 M133.73878,152.63245 L136.57977,151.70935 M137.22534,154.22366 L124.208145,103.525 L149.55746,97.0164 L150.45253,100.502464 M156.7233,99.30625 L131.01532,104.21031 L140.82344,155.62628 L144.30644,154.96185 M144.54468,156.84767 L148.30438,156.37271 M148.40022,157.89595 L145.11357,105.656136 L171.23347,104.01281 L171.38599,106.43677 M164.30472,104.44873 L163.94954,101.637146 L137.98436,104.91731 L144.54468,156.84767 M148.40022,157.89595 L152.40065,157.64427 M140.40036,153.40845 L137.22534,154.22366 M133.73878,152.63245 L117.56388,102.85119 L142.4545,94.76373 L143.67702,98.526245 M156.7233,99.30625 L157.32753,102.4737 M199.23196,112.532776 L206.73827,115.50472 M207.50876,113.86733 L185.22215,161.22879 M207.50876,113.86733 L214.81047,117.30325 M224.40964,116.88172 L231.14412,121.15556 M129.17009,147.86162 L127.05163,148.85849 M122.02743,143.39362 L120.66106,144.26074 M115.10069,138.27972 L114.46149,138.80852 L81.09673,98.477455 L101.26226,81.79508 L104.86762,86.15321 M107.95086,83.91311 L86.777626,99.296364 M75.56813,97.59959 L94.64638,79.68392 L98.65464,83.95229 M98.74944,83.87386 L98.48129,83.76769 M93.37517,80.87766 L94.09243,78.67016 L44.311176,62.495247 L36.223724,87.38587 L40.79488,88.87113 M40.724674,89.04845 L49.164,92.38982 M50.049366,92.00533 L62.657608,69.07102 L68.303215,72.17472 M68.48345,71.89071 L65.99298,70.90466 M68.91138,71.216415 L54.887955,93.31379 M50.049366,92.00533 L70.81428,103.42094 M70.18783,96.6533 L108.20092,132.34998 M111.39945,135.75607 L75.56813,97.59959 M70.18783,96.6533 L88.103485,77.57506 L92.49779,81.701584 M92.7247,81.488495 L91.94005,81.17783 M86.67705,79.09406 L85.42017,78.59643 M86.390526,79.39918 L81.6336,75.4639 L64.95122,95.62943 L99.78088,124.44303 M90.69967,116.9304 L59.853165,94.519104 L75.23642,73.34587 L80.32644,77.04398 M80.615776,76.69424 L78.92206,76.02364 M74.54888,74.29218 L72.44616,73.459656 M74.2993,74.6357 L68.91138,71.216415 M62.42597,69.49238 L59.56311,68.358894 M62.33264,69.66214 L56.473976,66.90526 L45.330673,90.58599 L60.165585,97.56677 M40.724674,89.04845 L50.359062,64.71475 L56.382523,67.09961 M67.34311,56.17775 L67.34311,50.822216 L15,50.822216 L15,76.99377 L19.252975,76.99377 M19.103722,79.36608 L20.747047,53.246174 M26.54888,55.621834 L23.268713,81.58702 L27.790958,82.15831 M27.50436,83.66071 L32.090965,84.53566 M31.819767,85.5919 L38.328365,60.242577 L89.027016,73.25978 L88.13488,76.73443 M83.067314,71.72958 L83.82439,67.76085 L32.40842,57.952732 L27.50436,83.66071 M31.819767,85.5919 L36.422623,86.77372 M23.514229,79.64357 L19.103722,79.36608 M26.54888,55.621834 L78.47925,62.182167 L77.916855,66.633934 M107.95086,83.91311 L111.14327,88.30709 M111.70158,135.47235 L111.39945,135.75607" fill="none" stroke="black" vector-effect="non-scaling-stroke"/>
</g>
</svg>