<svg viewBox="-40.6330892530271 -20.6330892530271 453.9279635665962 259.1013530354598" xmlns="http://www.w3.org/2000/svg" xmlns:inkscape="http://www.inkscape.org/namespaces/inkscape">
<g inkscape:groupmode="layer" inkscape:label="0">
<path d="M-11.216345,23.704723 L68.62579,28.727966 L68.153046,36.242104 M68.53887,30.109556 L71.54529,27.103138 L76.2576,22.948675 L81.22147,19.0983 L86.41732,15.567207 L91.82463,12.369332 L97.42207,9.517295 L103.187546,7.0223513 L109.0983,4.894348 L115.13101,3.1416838 L121.26187,1.7712749 L127.466675,0.7885299 L133.72095,0.19732715 L140,0 L146.27905,0.19732715 L152.53333,0.7885299 L158.73813,1.7712749 L164.86899,3.1416838 L170.9017,4.894348 L176.81245,7.0223513 L182.57793,9.517295 L188.17537,12.369332 L193.58267,15.567207 L198.77852,19.0983 L203.7424,22.948675 L208.45471,27.103138 L212.89687,31.54529 L217.05133,36.257603 L220.9017,41.221474 L224.43279,46.41732 L227.63066,51.82463 L230.48271,57.42207 L232.97765,63.187546 L235.10565,69.0983 L236.85832,75.13101 L238.22873,81.26187 L239.21147,87.466675 L239.80267,93.72095 L240,100 L239.80267,106.27905 L239.57614,108.6755 M241.29527,108.78365 L201.3742,106.27203 L196.35097,186.11417 L203.01295,186.53331 M202.95313,187.00688 L212.61366,188.2273 M209.81989,187.69435 L230.0477,191.55302 M232.12593,188.69911 L269.317,203.4241 L269.6383,202.6126 M262.49042,200.72127 L262.43784,200.88306 L224.39558,188.52237 L249.11694,112.43785 L260.815,116.238785 M260.9104,115.997826 L258.8833,115.61113 M261.5759,114.31699 L232.12593,188.69911 M240.16362,188.74286 L276.3567,205.77403 L277.02795,204.34755 M283.56863,207.94333 L248.51637,188.67319 L287.05667,118.56865 L297.8213,124.48654 M300.05685,120.96384 L257.1907,188.51007 L290.96384,209.94315 L292.55847,207.43037 M298.55255,211.78531 L266.19186,188.27391 L313.2147,123.55254 L322.96613,130.63739 M326.5177,126.3443 L335.6662,133.9126 M339.95282,129.3478 L285.18906,187.6653 L314.3478,215.04718 L317.7803,211.39194 M322.57095,216.49345 L326.70172,212.6144 M322.57095,216.49345 L295.18906,187.3347 L353.50656,132.57094 L361.30127,140.87148 M367.16483,136.02072 L392.66177,166.84126 L331.02072,217.83517 L305.52377,187.01465 L367.16483,136.02072 M348.44583,137.32327 L339.95282,129.3478 M326.5177,126.3443 L275.52377,187.98535 L306.3443,213.48232 L309.11493,210.1332 M300.70755,208.8192 L298.55255,211.78531 M284.66635,205.94662 L283.56863,207.94333 M247.56686,196.05118 L216.96362,188.1936 L236.85881,110.70695 L248.69215,113.74523 M248.71606,113.67163 L247.50778,113.44113 M252.55037,113.55344 L252.66437,112.65104 L225.1346,109.173225 M224.8104,109.111374 L209.81989,187.69435 M202.95313,187.00688 L212.97978,107.63771 L224.8065,109.131775 M224.8104,109.111374 L236.68678,111.37692 M241.14352,111.19562 L241.29527,108.78365 M230,108.07301 L230,105 L190,105 L190,185 L196.42107,185 M192.62358,185 L188.17537,187.63066 L182.57793,190.48271 L176.81245,192.97765 L170.9017,195.10565 L164.86899,196.85832 L158.73813,198.22873 L152.53333,199.21147 L146.27905,199.80267 L140,200 L133.72095,199.80267 L127.466675,199.21147 L121.26187,198.22873 L115.13101,196.85832 L109.0983,195.10565 L103.187546,192.97765 L97.42207,190.48271 L91.82463,187.63066 L86.41732,184.43279 L81.22147,180.9017 L76.2576,177.05133 L71.54529,172.89687 L67.103134,168.45471 L62.948677,163.7424 L59.0983,158.77852 L55.567207,153.58267 L52.36933,148.17537 L49.517296,142.57793 L47.02235,136.81245 L44.89435,130.9017 L43.141685,124.86899 L41.771275,118.73813 L40.78853,112.533325 L40.197327,106.27905 L40,100 L40.197327,93.72095 L40.779617,87.56094 M40.963833,84.94314 L80.9031,110.28937 M89.70328,94.08678 L136.72609,158.80814 L138.24869,157.7019 M141.48993,162.80928 L98.62379,95.26305 L132.39691,73.82998 L136.64035,80.51656 M142.83879,77.10894 L146.45265,83.68252 M142.83879,77.10894 L107.78652,96.37909 L146.32681,166.48363 L148.99039,165.0193 M151.25714,169.83638 L117.19479,97.45022 L153.38788,80.419044 L156.38908,86.79695 M164.04198,83.76696 L166.45802,89.8692 M164.04198,83.76696 L126.85092,98.49194 L156.30089,172.87407 L160.10155,171.36928 M161.47763,175.60442 L165.81973,174.19357 M166.8064,178.03638 L146.91121,100.54973 L185.65454,90.602135 L187.02254,95.930145 M196.60663,94.10188 L157.31514,101.59714 L172.30565,180.18011 L177.629,179.16463 M177.99312,182.04688 L183.73936,181.32095 M183.88583,183.64903 L178.86258,103.8069 L218.78366,101.29527 L219.01674,105 M208.1939,101.961525 L207.65105,97.66437 L167.96645,102.6777 L177.99312,182.04688 M183.88583,183.64903 L190,183.26436 M171.65903,176.79044 L166.8064,178.03638 M161.47763,175.60442 L136.75627,99.51989 L174.79852,87.15921 L176.66699,92.909744 M196.60663,94.10188 L197.5301,98.94294 M261.5759,114.31699 L273.04834,118.85926 M274.22595,116.356705 L240.16362,188.74286 M274.22595,116.356705 L285.3857,121.608086 M300.05685,120.96384 L310.3497,127.495865 M154.49495,168.31279 L151.25714,169.83638 M143.57825,161.484 L141.48993,162.80928 M132.9916,153.66803 L132.01465,154.47623 L81.02073,92.835175 L111.841255,67.33822 L117.35161,73.999084 M122.06396,70.57536 L89.70328,94.08678 M72.57094,91.493454 L101.72968,64.11157 L107.85583,70.63525 M108.000725,70.51538 L107.59088,70.35311 M99.786804,65.93606 L100.88305,62.56215 L24.79853,37.84079 L12.43785,75.88305 L19.4243,78.15308 M19.316998,78.424095 L32.215473,83.53097 M33.568645,82.94333 L52.838795,47.89106 L61.467407,52.63468 M61.74288,52.2006 L57.936504,50.69355 M62.396904,51.17002 L40.963833,84.94314 M33.568645,82.94333 L65.30526,100.39068 M64.3478,90.04717 L122.446144,144.60515 M127.33471,149.81094 L72.57094,91.493454 M64.3478,90.04717 L91.72968,60.88843 L98.44583,67.19531 M98.79264,66.86964 L97.5934,66.39483 M89.549545,63.21004 L87.62858,62.449474 M89.11164,63.67637 L81.841255,57.661785 L56.344296,88.482315 L109.577156,132.52037 M95.697624,121.03822 L48.552544,86.78532 L72.06396,54.424633 L79.84342,60.076748 M80.285645,59.5422 L77.69701,58.51729 M71.01314,55.870956 L67.799385,54.59854 M70.63169,56.395977 L62.396904,51.17002 M52.484756,48.53505 L48.10923,46.802658 M52.34212,48.794502 L43.387875,44.580956 L26.3567,80.77404 L49.03004,91.4433 M19.316998,78.424095 L34.04198,41.23304 L43.248096,44.878 M60,28.185276 L60,20 L-20,20 L-20,60 L-13.49985,60 M-13.727965,63.625793 L-11.216345,23.704723 M-2.3489587,27.335629 L-7.362288,67.02022 L-0.45059246,67.893364 M-0.8886239,70.189606 L6.121436,71.52685 M5.7069435,73.14119 L15.654539,34.397865 L93.14119,54.293056 L91.777664,59.60363 M84.03251,51.954346 L85.189606,45.888622 L6.606629,30.898119 L-0.8886239,70.189606 M5.7069435,73.14119 L12.741846,74.94745 M-6.987049,64.0499 L-13.727965,63.625793 M-2.3489587,27.335629 L77.02022,37.36229 L76.160675,44.166264 M122.06396,70.57536 L126.94317,77.29102 M127.79646,149.37733 L127.33471,149.81094" fill="none" stroke="black" vector-effect="non-scaling-stroke"/>
</g>
</svg>