<svg viewBox="9 -11 242 222" xmlns="http://www.w3.org/2000/svg">
<path d="M237.1806,167.15259 L238.76523,165.7258 M236.01225,162.6683 L237.7258,160.76523 M234.59299,157.94443 L236.36069,155.51141 M239.51141,170.36069 L216,138 M232.9075,153.00253 L234.64102,150 M238.76523,165.7258 L225.19011,150.6491 M223.33107,182.11638 L239.51141,170.36069 M237.7258,160.76523 L222.7298,147.26277 M216,138 L199.81966,149.7557 L223.33107,182.11638 M213.17558,168.13857 L212.89687,168.45471 L208.45471,172.89687 M230.9414,147.86403 L232.54182,144.26947 M228.68091,142.55048 L230.04227,138.36069 M236.36069,155.51141 L220.18336,143.7579 M234.64102,150 L217.54887,140.13185 M197.1371,149.38261 L209.62585,163.25278 M212,136 L197.1371,149.38261 M232.54182,144.26947 L196,128 M226.11256,137.08385 L227.1259,132.31647 M211.11061,136.80081 L208,134 M207.6334,134.40715 L206.07384,133.50673 M194.61739,148.8629 L205.45764,158.6235 M208,134 L194.61739,148.8629 M192.2443,148.18034 L200.60834,154.25717 M204,132 L192.2443,148.18034 M207.50676,134.5478 L204,132 M203.84163,132.21797 L200,130 M230.04227,138.36069 L192,126 M227.1259,132.31647 L188,124 M190,147.32051 L195.1661,150.30316 M187.86526,146.2709 L190.04555,147.24162 M185.81966,145.02113 L188.09285,145.75974 M183.84177,143.56296 L186.13507,144.05042 M230.48271,142.57793 L230.16093,143.20943 M232.97765,136.81245 L230.48271,142.57793 M235.10565,130.9017 L232.97765,136.81245 M236.85832,124.86899 L235.10565,130.9017 M223.22322,131.48692 L223.78087,126.18114 M220,125.78375 L220,120 M216.43054,120 L215.78087,113.81886 M212.50323,114.16335 L211.1259,107.68353 M238.22873,118.73813 L236.85832,124.86899 M239.21147,87.466675 L239.80267,93.72095 M240,100 L239.80267,106.27905 M239.80267,93.72095 L240,100 M239.80267,106.27905 L239.21147,112.533325 L238.22873,118.73813 M238.22873,81.26187 L239.21147,87.466675 M236.85832,75.13101 L238.22873,81.26187 M235.10565,69.0983 L236.85832,75.13101 M200,130 L190,147.32051 M196,128 L187.86526,146.2709 M192,126 L185.81966,145.02113 M223.78087,126.18114 L184,122 M188,124 L183.84177,143.56296 M181.90942,141.89044 L184.14728,142.12564 M180,140 L182.10812,140 M214.67053,138.96591 L212,136 M215.05084,138.6896 L213.74062,137.93315 M211.37189,136.56557 L209.91548,135.7247 M184,122 L181.90942,141.89044 M180,120 L180,140 M220,120 L180,120 M178.09058,137.89044 L180,137.68974 M176.15823,135.56296 L177.80907,135.21205 M174.18034,133.02113 L175.52509,132.5842 M172.13474,130.2709 L173.14114,129.82283 M170,127.32051 L170.65321,126.943375 M167.7557,124.18034 L168.05957,123.95957 M176,118 L178.09058,137.89044 M172,116 L176.15823,135.56296 M168,114 L174.18034,133.02113 M164,112 L172.13474,130.2709 M183.68243,81.407845 L183.69176,81.39503 L183.63142,81.351204 M181.27594,79.63983 L178.41939,77.56443 M176.85858,76.15907 L177.32051,75.358986 M181.00014,79.88815 L174.76523,74.27421 M169.88458,71.06585 L170.54037,69.59291 M177.32051,75.358986 L167.8893,69.91387 M174.4194,74.65827 L167.51141,69.63932 M167.48256,69.67904 L160,65.358986 M160,110 L170,127.32051 M156,108 L167.7557,124.18034 M152,106 L165.19011,120.6491 M148,104 L159.61919,114.46196 M215.78087,113.81886 L176,118 M211.1259,107.68353 L172,116 M208.20769,108.30382 L206.04227,101.63932 L168,114 M203.53525,102.453896 L200.54182,95.73054 M198.47963,96.64868 L194.64102,90 M200.54182,95.73054 L164,112 M194.64102,90 L160,110 M188.36069,84.48859 L156,108 M181.7258,79.23478 L152,106 M174.76523,74.27421 L148,104 M144,102 L153.21202,108.692924 M167.51141,69.63932 L144,102 M170.54037,69.59291 L152.26947,61.458183 M162.73813,66.11913 L163.3818,64.13808 L144.36069,57.95774 M155.34894,61.52804 L155.87943,59.03233 L136.31647,54.874096 M147.75667,57.305786 L148.07158,54.309692 M140,100 L146.07384,103.50674 M136,98 L140.10062,99.825714 M132,96 L136.2724,97.38818 M160,65.358986 L140,100 M152.26947,61.458183 L136,98 M144.36069,57.95774 L132,96 M193.58267,184.43279 L188.17537,187.63066 M208.45471,172.89687 L203.7424,177.05133 L198.77852,180.9017 L193.58267,184.43279 M170.9017,195.10565 L164.86899,196.85832 M188.17537,187.63066 L182.57793,190.48271 L176.81245,192.97765 L170.9017,195.10565 M164.86899,196.85832 L158.73813,198.22873 L152.53333,199.21147 L146.27905,199.80267 L140,200 L133.72095,199.80267 L127.466675,199.21147 L121.26187,198.22873 L115.13101,196.85832 L109.0983,195.10565 L103.187546,192.97765 L97.42207,190.48271 M71.54529,172.89687 L67.103134,168.45471 M76.2576,177.05133 L71.54529,172.89687 M81.22147,180.9017 L76.2576,177.05133 M97.42207,190.48271 L91.82463,187.63066 L86.41732,184.43279 L81.22147,180.9017 M55.567207,153.58267 L52.36933,148.17537 M67.103134,168.45471 L62.948677,163.7424 L59.0983,158.77852 L55.567207,153.58267 M116,88 L120,87.57958 M100,80 L102.47368,78.57182 M96,78 L98.00448,76.54366 M92,76 L93.53968,74.61366 M88,74 L89.099594,72.77878 M84,72 L84.70345,71.03178 M80,70 L80.368576,69.36161 M76,68 L76.10959,67.75387 M44.89435,130.9017 L43.141685,124.86899 M52.36933,148.17537 L49.517296,142.57793 L47.02235,136.81245 L44.89435,130.9017 M47.02235,63.187546 L48.252487,60.34487 M44.89435,69.0983 L47.02235,63.187546 M43.141685,75.13101 L44.89435,69.0983 M41.771275,81.26187 L43.141685,75.13101 M43.141685,124.86899 L41.771275,118.73813 L40.78853,112.533325 L40.197327,106.27905 M40.78853,87.466675 L41.771275,81.26187 M40.197327,93.72095 L40.78853,87.466675 M40.197327,106.27905 L40,100 L40.197327,93.72095 M140,53.461338 L140,50 M148.07158,54.309692 L128.18114,52.219124 M128,94 L132.34946,94.92451 M136.31647,54.874096 L128,94 M124,92 L128.32841,92.45493 M128.18114,52.219124 L124,92 M120,90 L124.210205,90 M120,50 L120,90 M111.81886,48.219124 L116,88 M208.45471,27.103138 L212.89687,31.54529 M203.7424,22.948675 L208.45471,27.103138 M198.77852,19.0983 L203.7424,22.948675 M232.97765,63.187546 L235.10565,69.0983 M230.48271,57.42207 L232.97765,63.187546 M227.63066,51.82463 L230.48271,57.42207 M224.43279,46.41732 L227.63066,51.82463 M220.9017,41.221474 L224.43279,46.41732 M217.05133,36.257603 L220.9017,41.221474 M212.89687,31.54529 L217.05133,36.257603 M193.03755,90.92576 L188.36069,84.48859 M187.20946,85.325005 L181.7258,79.23478 M188.17537,12.369332 L193.58267,15.567207 M182.57793,9.517295 L188.17537,12.369332 M193.58267,15.567207 L198.77852,19.0983 M176.81245,7.0223513 L182.57793,9.517295 M170.9017,4.894348 L176.81245,7.0223513 M164.86899,3.1416838 L170.9017,4.894348 M158.73813,1.7712749 L164.86899,3.1416838 M140,50 L120,50 M132.11621,50 L131.7093,46.128555 L111.81886,48.219124 M124.14095,46.92402 L123.24648,42.715862 M127.466675,0.7885299 L133.72095,0.19732715 M121.26187,1.7712749 L127.466675,0.7885299 M115.13101,3.1416838 L121.26187,1.7712749 M152.53333,0.7885299 L158.73813,1.7712749 M146.27905,0.19732715 L152.53333,0.7885299 M140,0 L146.27905,0.19732715 M133.72095,0.19732715 L140,0 M33.03233,36.12058 L28.874096,55.683533 M33.95774,53.63932 L70.17898,65.40832 M28.874096,55.683533 L61.76734,62.67521 M24.219124,57.818863 L53.299686,60.87535 M39.222412,37.43632 L33.03233,36.12058 M32.509552,38.580055 L26.309694,37.928425 L24.219124,57.818863 M40.13808,34.61819 L33.95774,53.63932 M20,60 L44.97127,60 M20,40 L20,60 M26.091963,40 L20,40 M112,86 L115.70698,85.21206 M103.68353,46.874096 L112,86 M108,84 L111.34394,82.91349 M104,82 L106.926765,80.69692 M95.63932,45.95774 L108,84 M87.73054,45.458183 L104,82 M51.63932,48.48859 L84,72 M45.358982,50 L80,70 M39.458183,51.730534 L76,68 M80,45.358982 L100,80 M72.48859,45.63932 L96,78 M65.23478,46.274208 L92,76 M58.274208,47.234776 L88,74 M123.24648,42.715862 L103.68353,46.874096 M116.10821,44.23315 L114.66045,39.7774 L95.63932,45.95774 M108.05026,41.92518 L106.00144,37.32345 L87.73054,45.458183 M99.99792,39.99639 L97.32051,35.358982 L80,45.358982 M91.98073,38.44191 L88.66893,33.883614 L72.48859,45.63932 M53.412605,36.05072 L47.592915,33.459625 M55.358982,32.679493 L45.358982,50 M46.20013,36.58787 L40.13808,34.61819 M47.592915,33.459625 L39.458183,51.730534 M68.42415,35.962124 L63.395027,32.30825 M71.65682,32.37188 L58.274208,47.234776 M60.830265,35.838337 L55.358982,32.679493 M63.395027,32.30825 L51.63932,48.48859 M84.027336,37.255928 L80.09767,32.891594 M76.16585,36.431828 L71.65682,32.37188 M65.24532,33.65257 L67.103134,31.54529 M80.09767,32.891594 L65.23478,46.274208 M67.103134,31.54529 L71.54529,27.103138 M86.41732,15.567207 L91.82463,12.369332 M81.22147,19.0983 L86.41732,15.567207 M76.2576,22.948675 L81.22147,19.0983 M71.54529,27.103138 L76.2576,22.948675 M109.0983,4.894348 L115.13101,3.1416838 M103.187546,7.0223513 L109.0983,4.894348 M97.42207,9.517295 L103.187546,7.0223513 M91.82463,12.369332 L97.42207,9.517295" fill="none" stroke="black" vector-effect="non-scaling-stroke"/>
</svg>