<svg viewBox="-1197.767327075313 -1211.767327075313 2152.086187917722 2515.014938532997" xmlns="http://www.w3.org/2000/svg">
<path d="M840,820 L840,780 M760,820 L840,820 M840,780 L760,780 L760,820 M753.68506,905.3119 L757.8662,865.531 L678.30444,857.1687 M674.1233,896.9496 L753.68506,905.3119 M678.30444,857.1687 L674.1233,896.9496 M659.1564,980.72687 L667.47284,941.60095 L589.22107,924.968 M580.9046,964.09393 L659.1564,980.72687 M589.22107,924.968 L580.9046,964.09393 M557.4935,1045.4407 L569.85425,1007.3984 L493.76968,982.677 M481.40903,1020.71924 L557.4935,1045.4407 M493.76968,982.677 L481.40903,1020.71924 M449.85413,1098.7661 L466.1236,1062.2242 L393.03998,1029.6853 M376.7705,1066.2272 L449.85413,1098.7661 M393.03998,1029.6853 L376.7705,1066.2272 M337.46133,1140.1409 L357.46133,1105.4998 L288.17932,1065.4998 M268.17932,1100.1409 L337.46133,1140.1409 M288.17932,1065.4998 L268.17932,1100.1409 M221.59036,1169.1335 L245.10178,1136.7728 L180.38042,1089.75 M156.869,1122.1107 L221.59036,1169.1335 M180.38042,1089.75 L156.869,1122.1107 M103.55456,1185.4485 L130.31978,1155.7227 L70.868195,1102.1923 M44.10297,1131.918 L103.55456,1185.4485 M70.868195,1102.1923 L44.10297,1131.918 M-15.309048,1188.9287 L14.416745,1162.1636 L-39.113705,1102.7119 M-68.83949,1129.4772 L-15.309048,1188.9287 M-39.113705,1102.7119 L-68.83949,1129.4772 M-133.65433,1179.5582 L-101.29364,1156.0468 L-148.31647,1091.3254 M-180.67714,1114.8368 L-133.65433,1179.5582 M-148.31647,1091.3254 L-180.67714,1114.8368 M-250.14084,1157.4613 L-215.49982,1137.4613 L-255.49982,1068.1793 M-290.14084,1088.1793 L-250.14084,1157.4613 M-255.49982,1068.1793 L-290.14084,1088.1793 M-326.90668,1106.6328 L-359.44562,1033.5491 M-363.4485,1122.9022 L-326.90668,1106.6328 M-395.98743,1049.8186 L-363.4485,1122.9022 M-359.44562,1033.5491 L-395.98743,1049.8186 M-434.24982,1063.9208 L-458.97116,987.8362 M-472.29205,1076.2814 L-434.24982,1063.9208 M-497.01343,1000.1969 L-472.29205,1076.2814 M-458.97116,987.8362 L-497.01343,1000.1969 M-536.3093,1009.8151 L-552.94226,931.5633 M-575.43524,1018.1316 L-536.3093,1009.8151 M-592.0682,939.87976 L-575.43524,1018.1316 M-552.94226,931.5633 L-592.0682,939.87976 M-53.59037,-1085.1335 L-77.101776,-1052.7728 M-12.380419,-1005.75006 L11.130991,-1038.1107 L-53.59037,-1085.1335 M-77.101776,-1052.7728 L-12.380419,-1005.75006 M-128.1793,-985.4998 L-108.179306,-1020.1408 L-177.46133,-1060.1409 M-197.46133,-1025.4998 L-128.1793,-985.4998 M-177.46133,-1060.1409 L-197.46133,-1025.4998 M-241.03996,-953.6853 L-224.77051,-990.2271 L-297.85413,-1022.76605 M-314.1236,-986.22424 L-241.03996,-953.6853 M-297.85413,-1022.76605 L-314.1236,-986.22424 M-349.76968,-910.677 L-337.40903,-948.71924 L-413.49353,-973.4406 M-425.85422,-935.3984 L-349.76968,-910.677 M-413.49353,-973.4406 L-425.85422,-935.3984 M-453.22107,-856.968 L-444.9046,-896.09393 L-523.1564,-912.72687 M-531.47284,-873.60095 L-453.22107,-856.968 M-523.1564,-912.72687 L-531.47284,-873.60095 M-550.30444,-793.1687 L-546.1233,-832.9496 L-625.68506,-841.3119 M-629.8662,-801.531 L-550.30444,-793.1687 M-625.68506,-841.3119 L-629.8662,-801.531 M-640,-720 L-640,-760 M-720,-720 L-640,-720 M-720,-760 L-720,-720 M-640,-760 L-720,-760 M-721.36884,-638.28546 L-725.55,-678.06635 M-800.9306,-629.92316 L-721.36884,-638.28546 M-805.11176,-669.70404 L-800.9306,-629.92316 M-725.55,-678.06635 L-805.11176,-669.70404 M-871.8151,-532.3093 L-793.5633,-548.94226 M-880.1316,-571.43524 L-871.8151,-532.3093 M-793.5633,-548.94226 L-801.87976,-588.0682 L-880.1316,-571.43524 M-1050.1409,357.46133 L-1015.4998,377.46133 L-975.4998,308.17932 L-1010.1408,288.17932 L-1050.1409,357.46133 M-1073.1335,239.59036 L-1040.7728,263.10178 L-993.75006,198.38042 L-1026.1107,174.869 L-1073.1335,239.59036 M-1083.4485,119.55456 L-1053.7227,146.31978 L-1000.1922,86.868195 L-1029.918,60.10297 L-1083.4485,119.55456 M-1080.9287,-1.3090476 L-1054.1636,28.416746 L-994.7119,-25.113703 L-1021.4772,-54.839497 L-1080.9287,-1.3090476 M-631.92316,944.9306 L-640.28546,865.36884 M-671.70404,949.11176 L-631.92316,944.9306 M-680.06635,869.55 L-671.70404,949.11176 M-640.28546,865.36884 L-680.06635,869.55 M-720,870 L-720,790 M-760,870 L-720,870 M-760,790 L-760,870 M-720,790 L-760,790 M-799.531,785.8662 L-791.1687,706.30444 L-830.9496,702.1233 M-839.3119,781.68506 L-799.531,785.8662 M-830.9496,702.1233 L-839.3119,781.68506 M-869.60095,693.47284 L-852.968,615.22107 L-892.09393,606.9046 M-908.72687,685.1564 L-869.60095,693.47284 M-892.09393,606.9046 L-908.72687,685.1564 M-929.3984,593.85425 L-904.677,517.7697 L-942.71924,505.40903 M-967.4406,581.4935 L-929.3984,593.85425 M-942.71924,505.40903 L-967.4406,581.4935 M-1014.76605,471.85413 L-978.22424,488.1236 L-945.6853,415.03998 L-982.2271,398.7705 L-1014.76605,471.85413 M-931.9207,-428.24982 L-855.8362,-452.97116 M-944.28143,-466.29205 L-931.9207,-428.24982 M-855.8362,-452.97116 L-868.1969,-491.01343 L-944.28143,-466.29205 M-980.63275,-318.90668 L-907.54913,-351.44562 M-996.9022,-355.4485 L-980.63275,-318.90668 M-907.54913,-351.44562 L-923.8186,-387.98743 L-996.9022,-355.4485 M-1037.4613,-240.14084 L-1017.46136,-205.49982 L-948.1793,-245.49982 L-968.1793,-280.14084 L-1037.4613,-240.14084 M-1065.5582,-121.65432 L-1042.0468,-89.29364 L-977.32544,-136.31647 L-1000.83685,-168.67714 L-1065.5582,-121.65432 M193.58267,184.43279 L188.17537,187.63066 M198.77852,180.9017 L193.58267,184.43279 M170.9017,195.10565 L164.86899,196.85832 M188.17537,187.63066 L182.57793,190.48271 L176.81245,192.97765 L170.9017,195.10565 M164.86899,196.85832 L158.73813,198.22873 L152.53333,199.21147 L146.27905,199.80267 L140,200 L133.72095,199.80267 L127.466675,199.21147 L121.26187,198.22873 M230.48271,142.57793 L227.63066,148.17537 L224.43279,153.58267 L220.9017,158.77852 L217.05133,163.7424 M239.21147,87.466675 L239.80267,93.72095 M240,100 L239.80267,106.27905 M239.80267,93.72095 L240,100 M239.80267,106.27905 L239.21147,112.533325 L238.22873,118.73813 M238.22873,81.26187 L239.21147,87.466675 M236.85832,75.13101 L238.22873,81.26187 M235.10565,69.0983 L236.85832,75.13101 M238.22873,118.73813 L236.85832,124.86899 L235.10565,130.9017 L232.97765,136.81245 L230.48271,142.57793 M203.7424,177.05133 L198.77852,180.9017 M217.05133,163.7424 L212.89687,168.45471 L208.45471,172.89687 L203.7424,177.05133 M232.97765,63.187546 L235.10565,69.0983 M230.48271,57.42207 L232.97765,63.187546 M227.63066,51.82463 L230.48271,57.42207 M224.43279,46.41732 L227.63066,51.82463 M208.45471,27.103138 L212.89687,31.54529 M203.7424,22.948675 L208.45471,27.103138 M198.77852,19.0983 L203.7424,22.948675 M193.58267,15.567207 L198.77852,19.0983 M188.17537,12.369332 L193.58267,15.567207 M182.57793,9.517295 L188.17537,12.369332 M220.9017,41.221474 L224.43279,46.41732 M217.05133,36.257603 L220.9017,41.221474 M212.89687,31.54529 L217.05133,36.257603 M176.81245,7.0223513 L182.57793,9.517295 M170.9017,4.894348 L176.81245,7.0223513 M164.86899,3.1416838 L170.9017,4.894348 M158.73813,1.7712749 L164.86899,3.1416838 M152.53333,0.7885299 L158.73813,1.7712749 M146.27905,0.19732715 L152.53333,0.7885299 M140,0 L146.27905,0.19732715 M133.72095,0.19732715 L140,0 M127.466675,0.7885299 L133.72095,0.19732715 M121.26187,1.7712749 L127.466675,0.7885299 M115.13101,3.1416838 L121.26187,1.7712749 M121.26187,198.22873 L115.13101,196.85832 L109.0983,195.10565 L103.187546,192.97765 L97.42207,190.48271 M71.54529,172.89687 L67.103134,168.45471 M76.2576,177.05133 L71.54529,172.89687 M81.22147,180.9017 L76.2576,177.05133 M97.42207,190.48271 L91.82463,187.63066 L86.41732,184.43279 L81.22147,180.9017 M55.567207,153.58267 L52.36933,148.17537 M67.103134,168.45471 L62.948677,163.7424 L59.0983,158.77852 L55.567207,153.58267 M325.65433,-1083.5582 L293.29364,-1060.0468 M340.31647,-995.32544 L372.67715,-1018.83685 L325.65433,-1083.5582 M293.29364,-1060.0468 L340.31647,-995.32544 M223.11371,-1010.7119 L252.8395,-1037.4772 L199.30905,-1096.9287 M169.58325,-1070.1636 L223.11371,-1010.7119 M199.30905,-1096.9287 L169.58325,-1070.1636 M103.187546,7.0223513 L109.0983,4.894348 L115.13101,3.1416838 M97.42207,9.517295 L103.187546,7.0223513 M91.82463,12.369332 L97.42207,9.517295 M105.131805,-1014.1922 L131.89703,-1043.918 L72.44544,-1097.4485 M45.680218,-1067.7227 L105.131805,-1014.1922 M72.44544,-1097.4485 L45.680218,-1067.7227 M86.41732,15.567207 L91.82463,12.369332 M81.22147,19.0983 L86.41732,15.567207 M76.2576,22.948675 L81.22147,19.0983 M71.54529,27.103138 L76.2576,22.948675 M67.103134,31.54529 L71.54529,27.103138 M62.948677,36.257603 L67.103134,31.54529 M59.0983,41.221474 L62.948677,36.257603 M55.567207,46.41732 L59.0983,41.221474 M52.36933,51.82463 L55.567207,46.41732 M49.517296,57.42207 L52.36933,51.82463 M44.89435,130.9017 L43.141685,124.86899 M52.36933,148.17537 L49.517296,142.57793 L47.02235,136.81245 L44.89435,130.9017 M47.02235,63.187546 L49.517296,57.42207 M44.89435,69.0983 L47.02235,63.187546 M43.141685,75.13101 L44.89435,69.0983 M41.771275,81.26187 L43.141685,75.13101 M43.141685,124.86899 L41.771275,118.73813 L40.78853,112.533325 L40.197327,106.27905 M40.78853,87.466675 L41.771275,81.26187 M40.197327,93.72095 L40.78853,87.466675 M40.197327,106.27905 L40,100 L40.197327,93.72095" fill="none" stroke="black" vector-effect="non-scaling-stroke"/>
</svg>