<svg viewBox="20 0 220 200" xmlns="http://www.w3.org/2000/svg">
<line stroke="black" vector-effect="non-scaling-stroke" x1="237.18060008857975" x2="238.76522425435434" y1="167.15259502665128" y2="165.72579301909576"/>
<line stroke="black" vector-effect="non-scaling-stroke" x1="236.01225054782967" x2="237.72579301909576" y1="162.66830596763376" y2="160.7652242543543"/>
<line stroke="black" vector-effect="non-scaling-stroke" x1="234.5929858683142" x2="236.3606797749979" y1="157.9444320257854" y2="155.5114100916989"/>
<line stroke="black" vector-effect="non-scaling-stroke" x1="239.51141009169893" x2="216" y1="170.3606797749979" y2="138"/>
<line stroke="black" vector-effect="non-scaling-stroke" x1="232.90750403548324" x2="234.64101615137756" y1="153.00253106026517" y2="150"/>
<line stroke="black" vector-effect="non-scaling-stroke" x1="238.76522425435434" x2="225.1901099504546" y1="165.72579301909576" y2="150.64910118294793"/>
<line stroke="black" vector-effect="non-scaling-stroke" x1="223.3310702042" x2="239.51141009169893" y1="182.11638482084737" y2="170.3606797749979"/>
<line stroke="black" vector-effect="non-scaling-stroke" x1="237.72579301909576" x2="222.72979252761786" y1="160.7652242543543" y2="147.26276476353522"/>
<line stroke="black" vector-effect="non-scaling-stroke" x1="216" x2="199.81966011250105" y1="138" y2="149.75570504584948"/>
<line stroke="black" vector-effect="non-scaling-stroke" x1="199.81966011250105" x2="223.3310702042" y1="149.75570504584948" y2="182.11638482084737"/>
<line stroke="black" vector-effect="non-scaling-stroke" x1="213.17558645653864" x2="212.89686274214114" y1="168.13856059692745" y2="168.45471059286888"/>
<line stroke="black" vector-effect="non-scaling-stroke" x1="212.89686274214114" x2="208.45471059286888" y1="168.45471059286888" y2="172.89686274214114"/>
<line stroke="black" vector-effect="non-scaling-stroke" x1="230.94141362624688" x2="232.54181830570406" y1="147.8640334862212" y2="144.269465723032"/>
<line stroke="black" vector-effect="non-scaling-stroke" x1="228.68091217728897" x2="230.04226065180615" y1="142.55047956337808" y2="138.3606797749979"/>
<line stroke="black" vector-effect="non-scaling-stroke" x1="236.3606797749979" x2="220.183357253473" y1="155.5114100916989" y2="143.75789729055217"/>
<line stroke="black" vector-effect="non-scaling-stroke" x1="234.64101615137756" x2="217.54888020399324" y1="150" y2="140.131850709752"/>
<line stroke="black" vector-effect="non-scaling-stroke" x1="197.13710349045212" x2="209.625860458315" y1="149.38261212717717" y2="163.25278191034596"/>
<line stroke="black" vector-effect="non-scaling-stroke" x1="212" x2="197.13710349045212" y1="136" y2="149.38261212717717"/>
<line stroke="black" vector-effect="non-scaling-stroke" x1="232.54181830570406" x2="196" y1="144.269465723032" y2="128"/>
<line stroke="black" vector-effect="non-scaling-stroke" x1="226.11256672655318" x2="227.12590402935223" y1="137.0838448185164" y2="132.31646763271036"/>
<line stroke="black" vector-effect="non-scaling-stroke" x1="211.1106125148292" x2="208" y1="136.8008080885957" y2="134"/>
<line stroke="black" vector-effect="non-scaling-stroke" x1="207.6334029639897" x2="206.0738413588914" y1="134.40714725609232" y2="133.50673394357102"/>
<line stroke="black" vector-effect="non-scaling-stroke" x1="194.61738787282286" x2="205.4576364858324" y1="148.8628965095479" y2="158.62350020189572"/>
<line stroke="black" vector-effect="non-scaling-stroke" x1="208" x2="194.61738787282286" y1="134" y2="148.8628965095479"/>
<line stroke="black" vector-effect="non-scaling-stroke" x1="192.24429495415055" x2="200.60834164158342" y1="148.18033988749895" y2="154.2571755121413"/>
<line stroke="black" vector-effect="non-scaling-stroke" x1="204" x2="192.24429495415055" y1="132" y2="148.18033988749895"/>
<line stroke="black" vector-effect="non-scaling-stroke" x1="207.50675359950932" x2="204" y1="134.5478056252794" y2="132"/>
<line stroke="black" vector-effect="non-scaling-stroke" x1="203.84163588111213" x2="200" y1="132.2179695100886" y2="130"/>
<line stroke="black" vector-effect="non-scaling-stroke" x1="230.04226065180615" x2="192" y1="138.3606797749979" y2="126"/>
<line stroke="black" vector-effect="non-scaling-stroke" x1="227.12590402935223" x2="188" y1="132.31646763271036" y2="124"/>
<line stroke="black" vector-effect="non-scaling-stroke" x1="190" x2="195.16611199459072" y1="147.3205080756888" y2="150.3031642264295"/>
<line stroke="black" vector-effect="non-scaling-stroke" x1="187.865267138484" x2="190.04554060135294" y1="146.27090915285203" y2="147.24162944033824"/>
<line stroke="black" vector-effect="non-scaling-stroke" x1="185.81966011250105" x2="188.09285590564173" y1="145.02113032590307" y2="145.75973641248825"/>
<line stroke="black" vector-effect="non-scaling-stroke" x1="183.84176618364484" x2="186.1350668752858" y1="143.5629520146761" y2="144.0504081245668"/>
<line stroke="black" vector-effect="non-scaling-stroke" x1="230.48270524660194" x2="230.160939420514" y1="142.57792915650728" y2="143.2094301471"/>
<line stroke="black" vector-effect="non-scaling-stroke" x1="232.97764858882516" x2="230.48270524660194" y1="136.8124552684678" y2="142.57792915650728"/>
<line stroke="black" vector-effect="non-scaling-stroke" x1="235.10565162951536" x2="232.97764858882516" y1="130.90169943749473" y2="136.8124552684678"/>
<line stroke="black" vector-effect="non-scaling-stroke" x1="236.85831611286312" x2="235.10565162951536" y1="124.86898871648548" y2="130.90169943749473"/>
<line stroke="black" vector-effect="non-scaling-stroke" x1="223.22321513288182" x2="223.78087581473093" y1="131.48692549960884" y2="126.18113853070612"/>
<line stroke="black" vector-effect="non-scaling-stroke" x1="220" x2="220" y1="125.78375246956433" y2="120"/>
<line stroke="black" vector-effect="non-scaling-stroke" x1="216.430539653072" x2="215.78087581473093" y1="120" y2="113.81886146929385"/>
<line stroke="black" vector-effect="non-scaling-stroke" x1="212.5032329787003" x2="211.12590402935223" y1="114.16335561304888" y2="107.68353236728962"/>
<line stroke="black" vector-effect="non-scaling-stroke" x1="238.22872507286888" x2="236.85831611286312" y1="118.73813145857247" y2="124.86898871648548"/>
<line stroke="black" vector-effect="non-scaling-stroke" x1="239.21147013144778" x2="239.80267284282715" y1="87.46667664356953" y2="93.72094804706867"/>
<line stroke="black" vector-effect="non-scaling-stroke" x1="240" x2="239.80267284282715" y1="100" y2="106.27905195293134"/>
<line stroke="black" vector-effect="non-scaling-stroke" x1="239.80267284282715" x2="240" y1="93.72094804706867" y2="100"/>
<line stroke="black" vector-effect="non-scaling-stroke" x1="239.80267284282715" x2="239.21147013144778" y1="106.27905195293134" y2="112.53332335643043"/>
<line stroke="black" vector-effect="non-scaling-stroke" x1="239.21147013144778" x2="238.22872507286888" y1="112.53332335643043" y2="118.73813145857247"/>
<line stroke="black" vector-effect="non-scaling-stroke" x1="238.22872507286888" x2="239.21147013144778" y1="81.26186854142753" y2="87.46667664356953"/>
<line stroke="black" vector-effect="non-scaling-stroke" x1="236.8583161128631" x2="238.22872507286888" y1="75.13101128351447" y2="81.26186854142753"/>
<line stroke="black" vector-effect="non-scaling-stroke" x1="235.10565162951536" x2="236.8583161128631" y1="69.09830056250524" y2="75.13101128351447"/>
<line stroke="black" vector-effect="non-scaling-stroke" x1="200" x2="190" y1="130" y2="147.3205080756888"/>
<line stroke="black" vector-effect="non-scaling-stroke" x1="196" x2="187.865267138484" y1="128" y2="146.27090915285203"/>
<line stroke="black" vector-effect="non-scaling-stroke" x1="192" x2="185.81966011250105" y1="126" y2="145.02113032590307"/>
<line stroke="black" vector-effect="non-scaling-stroke" x1="223.78087581473093" x2="184" y1="126.18113853070612" y2="122"/>
<line stroke="black" vector-effect="non-scaling-stroke" x1="188" x2="183.84176618364484" y1="124" y2="143.5629520146761"/>
<line stroke="black" vector-effect="non-scaling-stroke" x1="181.90943073464695" x2="184.14727525386462" y1="141.89043790736548" y2="142.12564484420133"/>
<line stroke="black" vector-effect="non-scaling-stroke" x1="180" x2="182.10812376521784" y1="140" y2="140"/>
<line stroke="black" vector-effect="non-scaling-stroke" x1="214.6705258933681" x2="212" y1="138.96591947835003" y2="136"/>
<line stroke="black" vector-effect="non-scaling-stroke" x1="215.05083891122305" x2="213.7406130620822" y1="138.68960589692432" y2="137.93314665022365"/>
<line stroke="black" vector-effect="non-scaling-stroke" x1="211.3718825776357" x2="209.9154772400035" y1="136.56555946739078" y2="135.72470345365963"/>
<line stroke="black" vector-effect="non-scaling-stroke" x1="184" x2="181.90943073464695" y1="122" y2="141.89043790736548"/>
<line stroke="black" vector-effect="non-scaling-stroke" x1="180" x2="180" y1="120" y2="140"/>
<line stroke="black" vector-effect="non-scaling-stroke" x1="220" x2="180" y1="120" y2="120"/>
<line stroke="black" vector-effect="non-scaling-stroke" x1="178.09056926535308" x2="180" y1="137.89043790736548" y2="137.68974865020763"/>
<line stroke="black" vector-effect="non-scaling-stroke" x1="176.1582338163552" x2="177.8090601971446" y1="135.5629520146761" y2="135.21205803526135"/>
<line stroke="black" vector-effect="non-scaling-stroke" x1="174.18033988749895" x2="175.52508005382523" y1="133.02113032590307" y2="132.58419775954815"/>
<line stroke="black" vector-effect="non-scaling-stroke" x1="172.134732861516" x2="173.14114734772394" y1="130.27090915285203" y2="129.8228245542822"/>
<line stroke="black" vector-effect="non-scaling-stroke" x1="170" x2="170.65321806897666" y1="127.32050807568876" y2="126.94337244772557"/>
<line stroke="black" vector-effect="non-scaling-stroke" x1="167.75570504584948" x2="168.05956363391275" y1="124.18033988749895" y2="123.95957370077132"/>
<line stroke="black" vector-effect="non-scaling-stroke" x1="176" x2="178.09056926535308" y1="118" y2="137.89043790736548"/>
<line stroke="black" vector-effect="non-scaling-stroke" x1="172" x2="176.1582338163552" y1="116" y2="135.5629520146761"/>
<line stroke="black" vector-effect="non-scaling-stroke" x1="168" x2="174.18033988749895" y1="114" y2="133.02113032590307"/>
<line stroke="black" vector-effect="non-scaling-stroke" x1="164" x2="172.134732861516" y1="112" y2="130.27090915285203"/>
<line stroke="black" vector-effect="non-scaling-stroke" x1="183.6824347680457" x2="183.69174997919788" y1="81.40784655906677" y2="81.39502527085156"/>
<line stroke="black" vector-effect="non-scaling-stroke" x1="183.69174997919788" x2="183.63143056061833" y1="81.39502527085156" y2="81.35120064798896"/>
<line stroke="black" vector-effect="non-scaling-stroke" x1="181.27593301882087" x2="178.41938382377765" y1="79.63983150926101" y2="77.56442703572264"/>
<line stroke="black" vector-effect="non-scaling-stroke" x1="176.85857763897954" x2="177.32050807568876" y1="76.15907083456534" y2="75.35898384862244"/>
<line stroke="black" vector-effect="non-scaling-stroke" x1="181.00014351212135" x2="174.7652242543543" y1="79.88815349646816" y2="74.27420698090422"/>
<line stroke="black" vector-effect="non-scaling-stroke" x1="169.88458183847857" x2="170.54037487588403" y1="71.06584983389494" y2="69.59291455581196"/>
<line stroke="black" vector-effect="non-scaling-stroke" x1="177.32050807568876" x2="167.88930008749287" y1="75.35898384862244" y2="69.9138733778542"/>
<line stroke="black" vector-effect="non-scaling-stroke" x1="174.41940819163682" x2="167.5114100916989" y1="74.65827462798723" y2="69.63932022500211"/>
<line stroke="black" vector-effect="non-scaling-stroke" x1="167.48255339252862" x2="160" y1="69.67903806402458" y2="65.35898384862244"/>
<line stroke="black" vector-effect="non-scaling-stroke" x1="160" x2="170" y1="110" y2="127.32050807568876"/>
<line stroke="black" vector-effect="non-scaling-stroke" x1="156" x2="167.75570504584948" y1="108" y2="124.18033988749895"/>
<line stroke="black" vector-effect="non-scaling-stroke" x1="152" x2="165.19010995045466" y1="106" y2="120.649101182948"/>
<line stroke="black" vector-effect="non-scaling-stroke" x1="148" x2="159.61918001278858" y1="104" y2="114.46195667493943"/>
<line stroke="black" vector-effect="non-scaling-stroke" x1="215.78087581473093" x2="176" y1="113.81886146929385" y2="118"/>
<line stroke="black" vector-effect="non-scaling-stroke" x1="211.12590402935223" x2="172" y1="107.68353236728962" y2="116"/>
<line stroke="black" vector-effect="non-scaling-stroke" x1="208.20768739433345" x2="206.04226065180615" y1="108.30381846143746" y2="101.63932022500211"/>
<line stroke="black" vector-effect="non-scaling-stroke" x1="206.04226065180615" x2="168" y1="101.63932022500211" y2="114"/>
<line stroke="black" vector-effect="non-scaling-stroke" x1="203.5352521089087" x2="200.54181830570403" y1="102.45389667921364" y2="95.73053427696799"/>
<line stroke="black" vector-effect="non-scaling-stroke" x1="198.47963250253753" x2="194.64101615137753" y1="96.64867855097374" y2="89.99999999999999"/>
<line stroke="black" vector-effect="non-scaling-stroke" x1="200.54181830570403" x2="164" y1="95.73053427696799" y2="112"/>
<line stroke="black" vector-effect="non-scaling-stroke" x1="194.64101615137753" x2="160" y1="89.99999999999999" y2="110"/>
<line stroke="black" vector-effect="non-scaling-stroke" x1="188.3606797749979" x2="156" y1="84.48858990830107" y2="108"/>
<line stroke="black" vector-effect="non-scaling-stroke" x1="181.72579301909576" x2="152" y1="79.23477574564566" y2="106"/>
<line stroke="black" vector-effect="non-scaling-stroke" x1="174.7652242543543" x2="148" y1="74.27420698090422" y2="104"/>
<line stroke="black" vector-effect="non-scaling-stroke" x1="144" x2="153.21202236898154" y1="102" y2="108.69292602000178"/>
<line stroke="black" vector-effect="non-scaling-stroke" x1="167.5114100916989" x2="144" y1="69.63932022500211" y2="102"/>
<line stroke="black" vector-effect="non-scaling-stroke" x1="170.54037487588403" x2="152.269465723032" y1="69.59291455581196" y2="61.45818169429596"/>
<line stroke="black" vector-effect="non-scaling-stroke" x1="162.7381276037371" x2="163.38181010090096" y1="66.11913026038188" y2="64.1380792356928"/>
<line stroke="black" vector-effect="non-scaling-stroke" x1="163.38181010090096" x2="144.3606797749979" y1="64.1380792356928" y2="57.957739348193854"/>
<line stroke="black" vector-effect="non-scaling-stroke" x1="155.34893975861323" x2="155.87941964738647" y1="61.52804144419835" y2="59.03232978700296"/>
<line stroke="black" vector-effect="non-scaling-stroke" x1="155.87941964738647" x2="136.31646763271038" y1="59.03232978700296" y2="54.87409597064777"/>
<line stroke="black" vector-effect="non-scaling-stroke" x1="147.75667432004826" x2="148.0715764380716" y1="57.3057869689027" y2="54.309693450622134"/>
<line stroke="black" vector-effect="non-scaling-stroke" x1="140" x2="146.0738413588914" y1="100" y2="103.50673394357102"/>
<line stroke="black" vector-effect="non-scaling-stroke" x1="136" x2="140.1006233969881" y1="98" y2="99.82571516398643"/>
<line stroke="black" vector-effect="non-scaling-stroke" x1="132" x2="136.27239714993348" y1="96" y2="97.38818598414272"/>
<line stroke="black" vector-effect="non-scaling-stroke" x1="160" x2="140" y1="65.35898384862244" y2="100"/>
<line stroke="black" vector-effect="non-scaling-stroke" x1="152.269465723032" x2="136" y1="61.45818169429596" y2="98"/>
<line stroke="black" vector-effect="non-scaling-stroke" x1="144.3606797749979" x2="132" y1="57.957739348193854" y2="96"/>
<line stroke="black" vector-effect="non-scaling-stroke" x1="193.58267949789968" x2="188.17536741017153" y1="184.4327925502015" y2="187.63066800438637"/>
<line stroke="black" vector-effect="non-scaling-stroke" x1="208.45471059286888" x2="203.74239897486896" y1="172.89686274214114" y2="177.05132427757894"/>
<line stroke="black" vector-effect="non-scaling-stroke" x1="203.74239897486896" x2="198.77852522924732" y1="177.05132427757894" y2="180.90169943749473"/>
<line stroke="black" vector-effect="non-scaling-stroke" x1="198.77852522924732" x2="193.58267949789968" y1="180.90169943749473" y2="184.4327925502015"/>
<line stroke="black" vector-effect="non-scaling-stroke" x1="170.90169943749476" x2="164.8689887164855" y1="195.10565162951536" y2="196.85831611286312"/>
<line stroke="black" vector-effect="non-scaling-stroke" x1="188.17536741017153" x2="182.57792915650725" y1="187.63066800438637" y2="190.48270524660194"/>
<line stroke="black" vector-effect="non-scaling-stroke" x1="182.57792915650725" x2="176.8124552684678" y1="190.48270524660194" y2="192.97764858882513"/>
<line stroke="black" vector-effect="non-scaling-stroke" x1="176.8124552684678" x2="170.90169943749476" y1="192.97764858882513" y2="195.10565162951536"/>
<line stroke="black" vector-effect="non-scaling-stroke" x1="164.8689887164855" x2="158.73813145857247" y1="196.85831611286312" y2="198.22872507286885"/>
<line stroke="black" vector-effect="non-scaling-stroke" x1="158.73813145857247" x2="152.53332335643043" y1="198.22872507286885" y2="199.21147013144778"/>
<line stroke="black" vector-effect="non-scaling-stroke" x1="152.53332335643043" x2="146.27905195293135" y1="199.21147013144778" y2="199.80267284282715"/>
<line stroke="black" vector-effect="non-scaling-stroke" x1="146.27905195293135" x2="140" y1="199.80267284282715" y2="200"/>
<line stroke="black" vector-effect="non-scaling-stroke" x1="140" x2="133.72094804706865" y1="200" y2="199.80267284282715"/>
<line stroke="black" vector-effect="non-scaling-stroke" x1="133.72094804706865" x2="127.46667664356957" y1="199.80267284282715" y2="199.21147013144778"/>
<line stroke="black" vector-effect="non-scaling-stroke" x1="127.46667664356957" x2="121.26186854142752" y1="199.21147013144778" y2="198.22872507286885"/>
<line stroke="black" vector-effect="non-scaling-stroke" x1="121.26186854142752" x2="115.13101128351454" y1="198.22872507286885" y2="196.85831611286312"/>
<line stroke="black" vector-effect="non-scaling-stroke" x1="115.13101128351454" x2="109.09830056250527" y1="196.85831611286312" y2="195.10565162951536"/>
<line stroke="black" vector-effect="non-scaling-stroke" x1="109.09830056250527" x2="103.1875447315322" y1="195.10565162951536" y2="192.97764858882513"/>
<line stroke="black" vector-effect="non-scaling-stroke" x1="103.1875447315322" x2="97.42207084349272" y1="192.97764858882513" y2="190.48270524660194"/>
<line stroke="black" vector-effect="non-scaling-stroke" x1="71.54528940713112" x2="67.10313725785886" y1="172.89686274214114" y2="168.45471059286888"/>
<line stroke="black" vector-effect="non-scaling-stroke" x1="76.25760102513104" x2="71.54528940713112" y1="177.05132427757894" y2="172.89686274214114"/>
<line stroke="black" vector-effect="non-scaling-stroke" x1="81.2214747707527" x2="76.25760102513104" y1="180.90169943749476" y2="177.05132427757894"/>
<line stroke="black" vector-effect="non-scaling-stroke" x1="97.42207084349272" x2="91.82463258982847" y1="190.48270524660194" y2="187.63066800438634"/>
<line stroke="black" vector-effect="non-scaling-stroke" x1="91.82463258982847" x2="86.41732050210032" y1="187.63066800438634" y2="184.4327925502015"/>
<line stroke="black" vector-effect="non-scaling-stroke" x1="86.41732050210032" x2="81.2214747707527" y1="184.4327925502015" y2="180.90169943749476"/>
<line stroke="black" vector-effect="non-scaling-stroke" x1="55.56720744979852" x2="52.36933199561365" y1="153.5826794978997" y2="148.17536741017156"/>
<line stroke="black" vector-effect="non-scaling-stroke" x1="67.10313725785886" x2="62.948675722421086" y1="168.45471059286888" y2="163.742398974869"/>
<line stroke="black" vector-effect="non-scaling-stroke" x1="62.948675722421086" x2="59.09830056250527" y1="163.742398974869" y2="158.77852522924732"/>
<line stroke="black" vector-effect="non-scaling-stroke" x1="59.09830056250527" x2="55.56720744979852" y1="158.77852522924732" y2="153.5826794978997"/>
<line stroke="black" vector-effect="non-scaling-stroke" x1="116" x2="120" y1="88" y2="87.57958305893729"/>
<line stroke="black" vector-effect="non-scaling-stroke" x1="100" x2="102.4736768246849" y1="80" y2="78.57182201938004"/>
<line stroke="black" vector-effect="non-scaling-stroke" x1="96" x2="98.00448083827757" y1="78" y2="76.5436594244195"/>
<line stroke="black" vector-effect="non-scaling-stroke" x1="92" x2="93.53968257716326" y1="76" y2="74.61366358058729"/>
<line stroke="black" vector-effect="non-scaling-stroke" x1="88" x2="89.09959595570216" y1="74" y2="72.77877497034162"/>
<line stroke="black" vector-effect="non-scaling-stroke" x1="84" x2="84.70345487102203" y1="72" y2="71.0317774336579"/>
<line stroke="black" vector-effect="non-scaling-stroke" x1="80" x2="80.36857258941923" y1="70" y2="69.36161354884868"/>
<line stroke="black" vector-effect="non-scaling-stroke" x1="76" x2="76.10958507354326" y1="68" y2="67.75386789495086"/>
<line stroke="black" vector-effect="non-scaling-stroke" x1="44.89434837048465" x2="43.14168388713689" y1="130.90169943749476" y2="124.86898871648548"/>
<line stroke="black" vector-effect="non-scaling-stroke" x1="52.36933199561365" x2="49.51729475339806" y1="148.17536741017156" y2="142.57792915650728"/>
<line stroke="black" vector-effect="non-scaling-stroke" x1="49.51729475339806" x2="47.02235141117487" y1="142.57792915650728" y2="136.81245526846783"/>
<line stroke="black" vector-effect="non-scaling-stroke" x1="47.02235141117487" x2="44.89434837048465" y1="136.81245526846783" y2="130.90169943749476"/>
<line stroke="black" vector-effect="non-scaling-stroke" x1="47.02235141117488" x2="48.25248676041497" y1="63.187544731532164" y2="60.3448696636173"/>
<line stroke="black" vector-effect="non-scaling-stroke" x1="44.894348370484664" x2="47.02235141117488" y1="69.09830056250523" y2="63.187544731532164"/>
<line stroke="black" vector-effect="non-scaling-stroke" x1="43.14168388713689" x2="44.894348370484664" y1="75.1310112835145" y2="69.09830056250523"/>
<line stroke="black" vector-effect="non-scaling-stroke" x1="41.771274927131145" x2="43.14168388713689" y1="81.26186854142753" y2="75.1310112835145"/>
<line stroke="black" vector-effect="non-scaling-stroke" x1="43.14168388713689" x2="41.771274927131145" y1="124.86898871648548" y2="118.7381314585725"/>
<line stroke="black" vector-effect="non-scaling-stroke" x1="41.771274927131145" x2="40.78852986855222" y1="118.7381314585725" y2="112.53332335643046"/>
<line stroke="black" vector-effect="non-scaling-stroke" x1="40.78852986855222" x2="40.19732715717285" y1="112.53332335643046" y2="106.27905195293135"/>
<line stroke="black" vector-effect="non-scaling-stroke" x1="40.78852986855222" x2="41.771274927131145" y1="87.46667664356957" y2="81.26186854142753"/>
<line stroke="black" vector-effect="non-scaling-stroke" x1="40.19732715717285" x2="40.78852986855222" y1="93.72094804706867" y2="87.46667664356957"/>
<line stroke="black" vector-effect="non-scaling-stroke" x1="40.19732715717285" x2="40" y1="106.27905195293135" y2="100.00000000000001"/>
<line stroke="black" vector-effect="non-scaling-stroke" x1="40" x2="40.19732715717285" y1="100.00000000000001" y2="93.72094804706867"/>
<line stroke="black" vector-effect="non-scaling-stroke" x1="140" x2="140" y1="53.46133658171017" y2="50"/>
<line stroke="black" vector-effect="non-scaling-stroke" x1="148.0715764380716" x2="128.18113853070614" y1="54.309693450622134" y2="52.21912418526907"/>
<line stroke="black" vector-effect="non-scaling-stroke" x1="128" x2="132.3494498026826" y1="94" y2="94.92450409521457"/>
<line stroke="black" vector-effect="non-scaling-stroke" x1="136.31646763271038" x2="128" y1="54.87409597064777" y2="94"/>
<line stroke="black" vector-effect="non-scaling-stroke" x1="124" x2="128.32841378457076" y1="92" y2="92.45493462074072"/>
<line stroke="black" vector-effect="non-scaling-stroke" x1="128.18113853070614" x2="124" y1="52.21912418526907" y2="92"/>
<line stroke="black" vector-effect="non-scaling-stroke" x1="120" x2="124.21020847053136" y1="90" y2="90"/>
<line stroke="black" vector-effect="non-scaling-stroke" x1="120" x2="120" y1="50" y2="90"/>
<line stroke="black" vector-effect="non-scaling-stroke" x1="111.81886146929385" x2="116" y1="48.21912418526907" y2="88"/>
<line stroke="black" vector-effect="non-scaling-stroke" x1="208.45471059286888" x2="212.89686274214114" y1="27.103137257858847" y2="31.545289407131108"/>
<line stroke="black" vector-effect="non-scaling-stroke" x1="203.74239897486893" x2="208.45471059286888" y1="22.948675722421044" y2="27.103137257858847"/>
<line stroke="black" vector-effect="non-scaling-stroke" x1="198.7785252292473" x2="203.74239897486893" y1="19.098300562505244" y2="22.948675722421044"/>
<line stroke="black" vector-effect="non-scaling-stroke" x1="232.9776485888251" x2="235.10565162951536" y1="63.187544731532135" y2="69.09830056250524"/>
<line stroke="black" vector-effect="non-scaling-stroke" x1="230.482705246602" x2="232.9776485888251" y1="57.422070843492776" y2="63.187544731532135"/>
<line stroke="black" vector-effect="non-scaling-stroke" x1="227.63066800438637" x2="230.482705246602" y1="51.82463258982847" y2="57.422070843492776"/>
<line stroke="black" vector-effect="non-scaling-stroke" x1="224.43279255020153" x2="227.63066800438637" y1="46.41732050210037" y2="51.82463258982847"/>
<line stroke="black" vector-effect="non-scaling-stroke" x1="220.90169943749473" x2="224.43279255020153" y1="41.22147477075268" y2="46.41732050210037"/>
<line stroke="black" vector-effect="non-scaling-stroke" x1="217.05132427757894" x2="220.90169943749473" y1="36.25760102513104" y2="41.22147477075268"/>
<line stroke="black" vector-effect="non-scaling-stroke" x1="212.89686274214114" x2="217.05132427757894" y1="31.545289407131108" y2="36.25760102513104"/>
<line stroke="black" vector-effect="non-scaling-stroke" x1="193.0375561849574" x2="188.3606797749979" y1="90.92575804324744" y2="84.48858990830107"/>
<line stroke="black" vector-effect="non-scaling-stroke" x1="187.2094573394321" x2="181.72579301909576" y1="85.32500196693353" y2="79.23477574564566"/>
<line stroke="black" vector-effect="non-scaling-stroke" x1="188.1753674101715" x2="193.5826794978996" y1="12.36933199561362" y2="15.567207449798445"/>
<line stroke="black" vector-effect="non-scaling-stroke" x1="182.5779291565072" x2="188.1753674101715" y1="9.517294753398005" y2="12.36933199561362"/>
<line stroke="black" vector-effect="non-scaling-stroke" x1="193.5826794978996" x2="198.7785252292473" y1="15.567207449798445" y2="19.098300562505244"/>
<line stroke="black" vector-effect="non-scaling-stroke" x1="176.81245526846783" x2="182.5779291565072" y1="7.022351411174881" y2="9.517294753398005"/>
<line stroke="black" vector-effect="non-scaling-stroke" x1="170.90169943749473" x2="176.81245526846783" y1="4.894348370484636" y2="7.022351411174881"/>
<line stroke="black" vector-effect="non-scaling-stroke" x1="164.8689887164855" x2="170.90169943749473" y1="3.1416838871368924" y2="4.894348370484636"/>
<line stroke="black" vector-effect="non-scaling-stroke" x1="158.7381314585724" x2="164.8689887164855" y1="1.771274927131131" y2="3.1416838871368924"/>
<line stroke="black" vector-effect="non-scaling-stroke" x1="140" x2="120" y1="50" y2="50"/>
<line stroke="black" vector-effect="non-scaling-stroke" x1="132.11620465117463" x2="131.70929937665932" y1="50" y2="46.12855491991599"/>
<line stroke="black" vector-effect="non-scaling-stroke" x1="131.70929937665932" x2="111.81886146929385" y1="46.12855491991599" y2="48.21912418526907"/>
<line stroke="black" vector-effect="non-scaling-stroke" x1="124.14095591728801" x2="123.24648438196573" y1="46.9240198714412" y2="42.715862154292594"/>
<line stroke="black" vector-effect="non-scaling-stroke" x1="127.46667664356954" x2="133.72094804706867" y1="0.7885298685522173" y2="0.19732715717285032"/>
<line stroke="black" vector-effect="non-scaling-stroke" x1="121.26186854142753" x2="127.46667664356954" y1="1.771274927131131" y2="0.7885298685522173"/>
<line stroke="black" vector-effect="non-scaling-stroke" x1="115.13101128351447" x2="121.26186854142753" y1="3.1416838871369066" y2="1.771274927131131"/>
<line stroke="black" vector-effect="non-scaling-stroke" x1="152.53332335643043" x2="158.7381314585724" y1="0.7885298685522173" y2="1.771274927131131"/>
<line stroke="black" vector-effect="non-scaling-stroke" x1="146.2790519529313" x2="152.53332335643043" y1="0.19732715717285032" y2="0.7885298685522173"/>
<line stroke="black" vector-effect="non-scaling-stroke" x1="139.99999999999997" x2="146.2790519529313" y1="0" y2="0.19732715717285032"/>
<line stroke="black" vector-effect="non-scaling-stroke" x1="133.72094804706867" x2="139.99999999999997" y1="0.19732715717285032" y2="0"/>
<line stroke="black" vector-effect="non-scaling-stroke" x1="33.03232978700296" x2="28.874095970647772" y1="36.120580352613516" y2="55.68353236728963"/>
<line stroke="black" vector-effect="non-scaling-stroke" x1="33.95773934819386" x2="70.17897847493231" y1="53.6393202250021" y2="65.40831423924142"/>
<line stroke="black" vector-effect="non-scaling-stroke" x1="28.874095970647772" x2="61.76733999284759" y1="55.68353236728963" y2="62.67520721882143"/>
<line stroke="black" vector-effect="non-scaling-stroke" x1="24.219124185269067" x2="53.29968487612557" y1="57.818861469293864" y2="60.87535156180343"/>
<line stroke="black" vector-effect="non-scaling-stroke" x1="39.222412283158256" x2="33.03232978700296" y1="37.436323004450074" y2="36.120580352613516"/>
<line stroke="black" vector-effect="non-scaling-stroke" x1="32.50955231527688" x2="26.309693450622134" y1="38.58005498665306" y2="37.9284235619284"/>
<line stroke="black" vector-effect="non-scaling-stroke" x1="26.309693450622134" x2="24.219124185269067" y1="37.9284235619284" y2="57.818861469293864"/>
<line stroke="black" vector-effect="non-scaling-stroke" x1="40.138079235692814" x2="33.95773934819386" y1="34.618189899099036" y2="53.6393202250021"/>
<line stroke="black" vector-effect="non-scaling-stroke" x1="20" x2="44.97127109155481" y1="60" y2="60"/>
<line stroke="black" vector-effect="non-scaling-stroke" x1="20" x2="20" y1="40" y2="60"/>
<line stroke="black" vector-effect="non-scaling-stroke" x1="26.091961993304224" x2="20" y1="40" y2="40"/>
<line stroke="black" vector-effect="non-scaling-stroke" x1="112" x2="115.70697549183106" y1="86" y2="85.21205803526135"/>
<line stroke="black" vector-effect="non-scaling-stroke" x1="103.68353236728962" x2="112" y1="46.87409597064778" y2="86"/>
<line stroke="black" vector-effect="non-scaling-stroke" x1="108" x2="111.3439415231191" y1="84" y2="82.91348753608754"/>
<line stroke="black" vector-effect="non-scaling-stroke" x1="104" x2="106.9267644203271" y1="82" y2="80.69692052492996"/>
<line stroke="black" vector-effect="non-scaling-stroke" x1="95.63932022500211" x2="108" y1="45.95773934819386" y2="84"/>
<line stroke="black" vector-effect="non-scaling-stroke" x1="87.73053427696799" x2="104" y1="45.458181694295966" y2="82"/>
<line stroke="black" vector-effect="non-scaling-stroke" x1="51.6393202250021" x2="84" y1="48.48858990830107" y2="72"/>
<line stroke="black" vector-effect="non-scaling-stroke" x1="45.35898384862245" x2="80" y1="50" y2="70"/>
<line stroke="black" vector-effect="non-scaling-stroke" x1="39.458181694295966" x2="76" y1="51.730534276967994" y2="68"/>
<line stroke="black" vector-effect="non-scaling-stroke" x1="80" x2="100" y1="45.35898384862246" y2="80"/>
<line stroke="black" vector-effect="non-scaling-stroke" x1="72.48858990830107" x2="96" y1="45.63932022500211" y2="78"/>
<line stroke="black" vector-effect="non-scaling-stroke" x1="65.23477574564566" x2="92" y1="46.27420698090424" y2="76"/>
<line stroke="black" vector-effect="non-scaling-stroke" x1="58.27420698090423" x2="88" y1="47.23477574564568" y2="74"/>
<line stroke="black" vector-effect="non-scaling-stroke" x1="123.24648438196573" x2="103.68353236728962" y1="42.715862154292594" y2="46.87409597064778"/>
<line stroke="black" vector-effect="non-scaling-stroke" x1="116.10821131607916" x2="114.66045055090517" y1="44.233148933439175" y2="39.77739946069491"/>
<line stroke="black" vector-effect="non-scaling-stroke" x1="114.66045055090517" x2="95.63932022500211" y1="39.77739946069491" y2="45.95773934819386"/>
<line stroke="black" vector-effect="non-scaling-stroke" x1="108.05026559097296" x2="106.00144342982" y1="41.92517874991941" y2="37.32344883277996"/>
<line stroke="black" vector-effect="non-scaling-stroke" x1="106.00144342982" x2="87.73053427696799" y1="37.32344883277996" y2="45.458181694295966"/>
<line stroke="black" vector-effect="non-scaling-stroke" x1="99.99791648292165" x2="97.32050807568876" y1="39.996391242561884" y2="35.35898384862246"/>
<line stroke="black" vector-effect="non-scaling-stroke" x1="97.32050807568876" x2="80" y1="35.35898384862246" y2="45.35898384862246"/>
<line stroke="black" vector-effect="non-scaling-stroke" x1="91.98072439718909" x2="88.66892979580001" y1="38.441909392818616" y2="33.88361517915264"/>
<line stroke="black" vector-effect="non-scaling-stroke" x1="88.66892979580001" x2="72.48858990830107" y1="33.88361517915264" y2="45.63932022500211"/>
<line stroke="black" vector-effect="non-scaling-stroke" x1="53.412605335932184" x2="47.59291455581197" y1="36.05071839905111" y2="33.45962512411597"/>
<line stroke="black" vector-effect="non-scaling-stroke" x1="55.35898384862245" x2="45.35898384862245" y1="32.67949192431123" y2="50"/>
<line stroke="black" vector-effect="non-scaling-stroke" x1="46.20013033552078" x2="40.138079235692814" y1="36.5878697010035" y2="34.618189899099036"/>
<line stroke="black" vector-effect="non-scaling-stroke" x1="47.59291455581197" x2="39.458181694295966" y1="33.45962512411597" y2="51.730534276967994"/>
<line stroke="black" vector-effect="non-scaling-stroke" x1="68.42414944950907" x2="63.39502527085156" y1="35.96212261521683" y2="32.30825002080212"/>
<line stroke="black" vector-effect="non-scaling-stroke" x1="71.6568191080814" x2="58.27420698090423" y1="32.37187923609779" y2="47.23477574564568"/>
<line stroke="black" vector-effect="non-scaling-stroke" x1="60.830266084116744" x2="55.35898384862245" y1="35.83833819578628" y2="32.67949192431123"/>
<line stroke="black" vector-effect="non-scaling-stroke" x1="63.39502527085156" x2="51.6393202250021" y1="32.30825002080212" y2="48.48858990830107"/>
<line stroke="black" vector-effect="non-scaling-stroke" x1="84.02733702427257" x2="80.09767225519354" y1="37.2559297253496" y2="32.89159485372707"/>
<line stroke="black" vector-effect="non-scaling-stroke" x1="76.16584701618311" x2="71.6568191080814" y1="36.4318262004044" y2="32.37187923609779"/>
<line stroke="black" vector-effect="non-scaling-stroke" x1="65.2453208656956" x2="67.10313725785885" y1="33.65256845983729" y2="31.545289407131122"/>
<line stroke="black" vector-effect="non-scaling-stroke" x1="80.09767225519354" x2="65.23477574564566" y1="32.89159485372707" y2="46.27420698090424"/>
<line stroke="black" vector-effect="non-scaling-stroke" x1="67.10313725785885" x2="71.54528940713111" y1="31.545289407131122" y2="27.10313725785886"/>
<line stroke="black" vector-effect="non-scaling-stroke" x1="86.41732050210037" x2="91.82463258982847" y1="15.567207449798474" y2="12.369331995613635"/>
<line stroke="black" vector-effect="non-scaling-stroke" x1="81.22147477075268" x2="86.41732050210037" y1="19.098300562505273" y2="15.567207449798474"/>
<line stroke="black" vector-effect="non-scaling-stroke" x1="76.25760102513104" x2="81.22147477075268" y1="22.948675722421058" y2="19.098300562505273"/>
<line stroke="black" vector-effect="non-scaling-stroke" x1="71.54528940713111" x2="76.25760102513104" y1="27.10313725785886" y2="22.948675722421058"/>
<line stroke="black" vector-effect="non-scaling-stroke" x1="109.09830056250524" x2="115.13101128351447" y1="4.89434837048465" y2="3.1416838871369066"/>
<line stroke="black" vector-effect="non-scaling-stroke" x1="103.18754473153214" x2="109.09830056250524" y1="7.022351411174881" y2="4.89434837048465"/>
<line stroke="black" vector-effect="non-scaling-stroke" x1="97.42207084349278" x2="103.18754473153214" y1="9.51729475339802" y2="7.022351411174881"/>
<line stroke="black" vector-effect="non-scaling-stroke" x1="91.82463258982847" x2="97.42207084349278" y1="12.369331995613635" y2="9.51729475339802"/>
</svg>