<svg height="218mm" viewBox="0 0 300 218" width="300mm" xmlns="http://www.w3.org/2000/svg" xmlns:inkscape="http://www.inkscape.org/namespaces/inkscape">
<g inkscape:groupmode="layer" inkscape:label="0">
<path d="M96.83358,178.29457 L96.834236,182.17639 L97.25796,186.60756 L98.11166,190.76295 L99.39214,194.57321 L101.0863,197.97368 L103.171585,200.90593 L105.616745,203.31921 L108.3828,205.17169 L111.42416,206.43146 L114.68994,207.07747 L118.12538,207.1 L121.67331,206.5011 L125.27576,205.29456 L128.87547,203.50574 L132.41742,201.17108 L135.85034,198.3374 L138.57066,195.618 M139.04805,195.6936 L144.5132,196.2102 L150,196.38264 L155.4868,196.2102 L160.95195,195.6936 L166.37387,194.83485 L171.73119,193.63736 L177.00272,192.10583 L182.1677,190.24632 L187.20572,188.06618 L192.09691,185.57399 L196.82196,182.7796 L201.36223,179.69405 L205.6998,176.32948 L209.81754,172.6992 L213.6992,168.81754 L217.32948,164.6998 L220.69405,160.36223 L223.7796,155.82196 L226.57399,151.09691 L229.06618,146.20572 L231.24632,141.1677 L233.10583,136.00272 L234.63736,130.73119 L235.83485,125.37387 L236.6936,119.95195 L237.2102,114.4868 L237.38264,109 L237.2102,103.5132 L236.6936,98.04805 L235.83485,92.62613 L234.63736,87.26882 L233.10583,81.99728 L231.24632,76.832306 L229.06618,71.79428 L226.57399,66.90309 L223.7796,62.17804 L220.69405,57.63777 L217.32948,53.30021 L213.6992,49.182465 L209.81754,45.300797 L205.6998,41.670517 L201.36223,38.305958 L196.82196,35.220398 L192.09691,32.42601 L187.20572,29.933823 L182.1677,27.753675 L177.00272,25.89417 L171.73119,24.362646 L166.37387,23.165146 L160.95195,22.306398 L155.4868,21.78979 L150,21.61736 L144.5132,21.78979 L139.04805,22.306398 L133.62613,23.165146 L128.26881,24.362646 L122.99728,25.89417 L117.832306,27.753675 L112.79428,29.933823 L107.90309,32.42601 L103.17804,35.220398 L98.63777,38.305958 L94.30021,41.670517 L90.182465,45.300797 L86.3008,49.182465 L82.67052,53.30021 L79.30596,57.63777 L76.2204,62.17804 L73.42601,66.90309 L70.93382,71.79428 L68.75368,76.832306 L66.89417,81.99728 L65.36265,87.26882 L64.165146,92.62613 L63.306396,98.04805 L62.78979,103.5132 L62.61736,109 L62.78979,114.4868 L63.306396,119.95195 L64.165146,125.37387 L65.36265,130.73119 L66.89417,136.00272 L68.75368,141.1677 L70.93382,146.20572 L73.42601,151.09691 L76.2204,155.82196 L79.30596,160.36223 L82.67052,164.6998 L86.3008,168.81754 L90.182465,172.6992 L94.30021,176.32948 L98.63777,179.69405 L103.17804,182.7796 L107.90309,185.57399 L112.79428,188.06618 L117.832306,190.24632 L122.99728,192.10583 L128.26881,193.63736 L133.62613,194.83485 L139.04805,195.6936 M219.29457,162.16641 L223.17639,162.16577 L227.60756,161.74203 L231.76295,160.88835 L235.57321,159.60785 L238.97368,157.9137 L241.90593,155.82841 L244.31921,153.38326 L246.17169,150.6172 L247.43146,147.57585 L248.07747,144.31006 L248.1,140.87462 L247.5011,137.32669 L246.29456,133.72424 L244.50574,130.12453 L242.17108,126.58257 L239.3374,123.14965 L236.618,120.42933 M203.16641,39.705433 L203.16577,35.8236 L202.74203,31.392445 L201.88835,27.237053 L200.60785,23.426788 L198.9137,20.02632 L196.82841,17.094063 L194.38326,14.680779 L191.6172,12.828312 L188.57585,11.56854 L185.31006,10.922538 L181.87462,10.9 L178.32669,11.498901 L174.72424,12.705444 L171.12453,14.494266 L167.58258,16.828917 L164.14966,19.6626 L161.42934,22.382008 M80.70544,55.83358 L76.8236,55.834232 L72.39244,56.25796 L68.23705,57.111656 L64.42679,58.392143 L61.026318,60.086304 L58.094063,62.171585 L55.68078,64.616745 L53.828312,67.3828 L52.56854,70.42416 L51.92254,73.68994 L51.9,77.12538 L52.4989,80.67331 L53.705444,84.27576 L55.494267,87.875465 L57.82892,91.41743 L60.662598,94.85035 L63.382008,97.57067" fill="none" stroke="black" vector-effect="non-scaling-stroke"/>
</g>
</svg>