<svg viewBox="-0.9022287856041704 0.005959519243576655 1.8044575712083406 1.513061562024855" xmlns="http://www.w3.org/2000/svg" xmlns:inkscape="http://www.inkscape.org/namespaces/inkscape">
<g inkscape:groupmode="layer" inkscape:label="0">
<path d="M0.31776917,1.1794121 L0.31776917,1.1794121 L0.31776917,1.1794121 L0.31776917,1.1794121 L0.31776917,1.1794121 M0.3753677,0.79463506 L0.3753677,0.79463506 L0.3753677,0.79463506 L0.3753677,0.79463506 L0.3753677,0.79463506 L0.3753677,0.79463506 M0.5447472,0.7862748 L0.32992512,0.95241183 L0.32992512,0.95241183 L0.32992512,0.95241183 L0.32992512,0.95241183 L0.32992512,0.95241183 M0.23932284,1.022481 L0.23932284,1.022481 L0.23932284,1.022481 L0.23932284,1.022481 L0.23932284,1.022481 L0.23932284,1.022481 M0.23551944,1.1192803 L0.31776917,1.1794121 M0.5253894,1.0111123 L0.31776917,1.1794121 M0.5253894,1.0111123 L0.31776917,1.1794121 L0.32992512,0.95241183 M0.5253894,1.0111123 L0.5253894,1.0111123 L0.5253894,1.0111123 L0.5253894,1.0111123 L0.5253894,1.0111123 L0.5253894,1.0111123 L0.5253894,1.0111123 M0.6043638,0.9470946 L0.6043638,0.9470946 M0.53488374,0.90083665 L0.6043638,0.9470946 M0.5447472,0.7862748 L0.5447472,0.7862748 L0.5447472,0.7862748 L0.5253894,1.0111123 M0.2445048,0.89306647 L0.2445048,0.89306647 M0.2959601,0.8543632 L0.2959601,0.8543632 L0.2959601,0.8543632 L0.2959601,0.8543632 L0.2959601,0.8543632 M0.20853761,0.79463506 L0.20853761,0.79463506 L0.20853761,0.79463506 L0.20853761,0.79463506 M0.2880523,0.7365027 L0.2880523,0.7365027 M-0.00000000000000008810586,0.85123855 L-0.00000000000000008990732,0.7231981 M-0.00000000000000016653345,0.85123855 L-0.00000000000000016653345,0.85123855 M-0.00000000000000018519408,0.85123855 L-0.00000000000000018519408,0.85123855 L-0.00000000000000018519408,0.85123855 M-0.00000000000000008675721,0.9470946 L-0.00000000000000008675721,0.9470946 L-0.00000000000000008675721,0.9470946 L-0.00000000000000008675721,0.9470946 M-0.00000000000000018041124,0.9470946 L-0.00000000000000018041124,0.9470946 M-0.00000000000000017851827,1.0769763 L-0.00000000000000017851827,1.0769763 L-0.00000000000000017851827,1.0769763 L-0.00000000000000017851827,1.0769763 M-0.00000000000000008326673,0.9470946 L-0.00000000000000008326673,0.9470946 L-0.00000000000000008326673,0.9470946 M-0.00000000000000018519408,0.85123855 L-0.00000000000000018519408,0.85123855 M-0.00000000000000019428903,0.85123855 L-0.00000000000000019428903,0.85123855 M-0.0000000000000002220446,0.85123855 L-0.00000000000000018519408,0.85123855 M-0.0875649,1.0111123 L-0.0875649,1.0111123 L-0.0875649,1.0111123 M-0.00000000000000019238859,1.4370003 L-0.00000000000000019238859,1.4370003 M0.23037319,1.2502565 L0.23037319,1.2502565 L0.23037319,1.2502565 M0.23037319,1.2502565 L0.23037319,1.2502565 L-0.00000000000000019238859,1.4370003 M0.23932284,1.022481 L-0.0000000000000002001647,1.2075663 M0.23932284,1.022481 L0.23037319,1.2502565 M0.0875649,1.0111123 L0.0875649,1.0111123 L0.0875649,1.0111123 L0.0875649,1.0111123 M-0.00000000000000018519408,0.85123855 L0.23932284,1.022481 M-0.00000000000000008810586,0.85123855 L-0.00000000000000008810586,0.85123855 M0.09079119,0.7862748 L0.088945754,0.91488177 M0.32992512,0.95241183 L0.09079119,0.7862748 M0.089421615,0.8817194 L0.066262186,0.89865106 M-0.00000000000000019238859,1.4370003 L-0.0000000000000002001647,1.2075663 M-0.00000000000000019238859,1.4370003 L-0.00000000000000019238859,1.4370003 M-0.00000000000000019428903,1.4370003 L-0.00000000000000019428903,1.4370003 L-0.00000000000000019238859,1.4370003 M-0.23037319,1.2502565 L-0.00000000000000019428903,1.4370003 M-0.23037319,1.2502565 L-0.23037319,1.2502565 M-0.0000000000000002001647,1.2075663 L-0.23932284,1.022481 M-0.0000000000000002001647,1.2075663 L-0.0000000000000002001647,1.2075663 L-0.0000000000000002001647,1.2075663 L-0.0000000000000002001647,1.2075663 L-0.0000000000000002001647,1.2075663 M-0.09079119,0.7862748 L-0.088945754,0.91488177 M-0.089421615,0.8817194 L-0.066262186,0.89865106 M-0.0875649,1.0111123 L-0.0875649,1.0111123 L-0.0875649,1.0111123 L-0.0875649,1.0111123 L-0.0875649,1.0111123 M-0.23037319,1.2502565 L-0.23037319,1.2502565 L-0.23037319,1.2502565 L-0.23037319,1.2502565 M-0.23932284,1.022481 L-0.23932284,1.022481 L-0.23932284,1.022481 L-0.23037319,1.2502565 L-0.23037319,1.2502565 M-0.23551944,1.1192803 L-0.31776917,1.1794121 M-0.23932284,1.022481 L-0.00000000000000018519408,0.85123855 M-0.23932284,1.022481 L-0.23932284,1.022481 L-0.23932284,1.022481 M-0.2445048,0.89306647 L-0.2445048,0.89306647 M-0.09079119,0.7862748 L-0.32992512,0.95241183 M0.09079119,0.7862748 L0.30647713,0.6319452 M0.21584421,0.5732415 L-0.00000000000000008990732,0.7231981 M-0.000000000000000083820375,0.4334373 L0.21584421,0.5732415 M0.29800537,0.5161604 L0.082300656,0.38013044 M-0.00000000000000008161029,0.32822913 L-0.00000000000000008161029,0.32822913 L-0.00000000000000008161029,0.32822913 M-0.000000000000000018566764,0.2986953 L-0.000000000000000018566764,0.2986953 M0.082300656,0.38013044 L0.27874255,0.2528933 M0.19656073,0.2042719 L0.19360873,0.30803522 M0.19656073,0.2042719 L0.19656073,0.2042719 M-0.000000000000000019140857,0.087980315 L0.19656073,0.2042719 L-0.00000000000000008161029,0.32822913 M-0.000000000000000080344873,0.4334373 L-0.00000000000000008161029,0.32822913 M-0.082300656,0.38013044 L-0.082300656,0.38013044 M-0.000000000000000083820375,0.4334373 L-0.000000000000000083820375,0.4334373 M-0.00000000000000008161029,0.32822913 L-0.00000000000000008161029,0.32822913 L-0.00000000000000008161029,0.32822913 M-0.02350544,0.31340587 L-0.02350544,0.31340587 M-0.000000000000000018566764,0.2986953 L-0.000000000000000018566764,0.2986953 L-0.000000000000000018566764,0.2986953 M-0.27874255,0.2528933 L-0.27874255,0.2528933 L-0.27874255,0.2528933 L-0.27874255,0.2528933 M-0.19656073,0.2042719 L-0.19656073,0.2042719 L-0.19656073,0.2042719 L-0.19360873,0.30803522 M-0.00000000000000008161029,0.32822913 L-0.19656073,0.2042719 M-0.27874255,0.2528933 L-0.082300656,0.38013044 M-0.19656073,0.2042719 L-0.19656073,0.2042719 L-0.19656073,0.2042719 L-0.000000000000000019140857,0.087980315 L-0.000000000000000019140857,0.087980315 L-0.000000000000000019140857,0.087980315 M-0.20853761,0.79463506 L-0.20853761,0.79463506 L-0.20853761,0.79463506 L-0.20853761,0.79463506 M-0.09079119,0.7862748 L-0.09079119,0.7862748 L-0.09079119,0.7862748 L-0.09079119,0.7862748 L-0.09079119,0.7862748 M-0.20853761,0.79463506 L-0.20853761,0.79463506 L-0.20853761,0.79463506 M-0.2880523,0.7365027 L-0.2880523,0.7365027 L-0.2880523,0.7365027 L-0.2880523,0.7365027 L-0.2880523,0.7365027 M-0.00000000000000008990732,0.7231981 L-0.00000000000000008990732,0.7231981 L-0.00000000000000008990732,0.7231981 L-0.00000000000000008990732,0.7231981 L-0.00000000000000008990732,0.7231981 M-0.00000000000000007900634,0.54472506 L-0.00000000000000007900634,0.54472506 L-0.00000000000000007900634,0.54472506 M-0.00000000000000008326673,0.54472506 L-0.00000000000000008326673,0.54472506 M-0.00000000000000008326673,0.4334373 L-0.00000000000000008326673,0.4334373 L-0.00000000000000008326673,0.4334373 M-0.000000000000000083820375,0.4334373 L-0.000000000000000083820375,0.4334373 L-0.000000000000000083820375,0.4334373 M-0.00000000000000008326673,0.4334373 L-0.000000000000000083820375,0.4334373 M-0.21212445,0.68595195 L-0.2219017,0.6924614 M-0.30647713,0.6319452 L-0.30647713,0.6319452 L-0.30647713,0.6319452 L-0.30647713,0.6319452 M-0.07964073,0.5977478 L-0.07964073,0.5977478 L-0.07964073,0.5977478 L-0.07964073,0.5977478 M-0.21584421,0.5732415 L-0.21584421,0.5732415 L-0.21584421,0.5732415 L-0.21584421,0.5732415 L-0.21584421,0.5732415 L-0.21584421,0.5732415 M-0.30647713,0.6319452 L-0.30647713,0.6319452 L-0.09079119,0.7862748 M-0.21584421,0.5732415 L-0.21166795,0.6997839 M0.09079119,0.7862748 L0.09079119,0.7862748 L0.09079119,0.7862748 L0.09079119,0.7862748 L0.09079119,0.7862748 L0.09079119,0.7862748 M0.07964073,0.5977478 L0.07964073,0.5977478 L0.07964073,0.5977478 L0.07964073,0.5977478 M0.19048297,0.41790652 L0.19048297,0.41790652 L0.19048297,0.41790652 M0.082300656,0.38013044 L0.082300656,0.38013044 L0.082300656,0.38013044 M0.19048297,0.41790652 L0.19048297,0.41790652 L0.19048297,0.41790652 L0.19048297,0.41790652 L0.19048297,0.41790652 M-0.000000000000000080344873,0.4334373 L-0.000000000000000080344873,0.4334373 M0.082300656,0.38013044 L0.08100776,0.48590672 M0.082300656,0.38013044 L0.082300656,0.38013044 M0.082300656,0.38013044 L0.082300656,0.38013044 L0.082300656,0.38013044 M0.05155361,0.6873815 L0.05155361,0.6873815 M-0.000000000000000081075856,0.6521594 L-0.000000000000000081075856,0.6521594 L-0.000000000000000081075856,0.6521594 L-0.000000000000000081075856,0.6521594 L-0.000000000000000081075856,0.6521594 M-0.27001578,0.46768105 L-0.27001578,0.46768105 L-0.27001578,0.46768105 L-0.27001578,0.46768105 L-0.27001578,0.46768105 M-0.2923176,0.6420768 L-0.29800537,0.5161604 M-0.00000000000000008990732,0.7231981 L-0.21584421,0.5732415 L-0.000000000000000083820375,0.4334373 M-0.24655157,0.4837121 L-0.24655157,0.4837121 M-0.19048297,0.41790652 L-0.19048297,0.41790652 L-0.19048297,0.41790652 L-0.19048297,0.41790652 M-0.082300656,0.38013044 L-0.082300656,0.38013044 L-0.082300656,0.38013044 L-0.082300656,0.38013044 M-0.082300656,0.38013044 L-0.082300656,0.38013044 M-0.19048297,0.41790652 L-0.19048297,0.41790652 M-0.082300656,0.38013044 L-0.08100776,0.48590672 M-0.082300656,0.38013044 L-0.29800537,0.5161604 M0.6263079,0.7231981 L0.6263079,0.7231981 L0.6263079,0.7231981 L0.6263079,0.7231981 L0.6263079,0.7231981 M0.58390534,0.4334373 L0.820208,0.5732415 L0.820208,0.5732415 L0.820208,0.5732415 L0.820208,0.5732415 L0.820208,0.5732415 L0.820208,0.5732415 L0.6263079,0.7231981 M0.7924429,0.79463506 L0.7924429,0.79463506 L0.7924429,0.79463506 L0.7924429,0.79463506 M0.820208,0.5732415 L0.7924429,0.79463506 M0.6043638,0.9470946 L0.6043638,0.9470946 L0.6043638,0.9470946 L0.6043638,0.9470946 L0.6263079,0.7231981 M0.7924429,0.79463506 L0.6043638,0.9470946 M0.7924429,0.79463506 L0.7924429,0.79463506 L0.7924429,0.79463506 L0.7924429,0.79463506 M0.6495614,0.70521456 L0.6495614,0.70521456 M0.5647866,0.6521594 L0.5647866,0.6521594 L0.5647866,0.6521594 M0.5414706,0.66969705 L0.5414706,0.66969705 M0.4778444,0.5977478 L0.4778444,0.5977478 L0.4778444,0.5977478 L0.4778444,0.5977478 L0.4778444,0.5977478 M0.5447472,0.7862748 L0.5447472,0.7862748 L0.5447472,0.7862748 M0.4778444,0.5977478 L0.4778444,0.5977478 M0.6263079,0.7231981 L0.3885196,0.5732415 M0.30647713,0.6319452 L0.5447472,0.7862748 M0.58390534,0.4334373 L0.58390534,0.4334373 L0.58390534,0.4334373 L0.58390534,0.4334373 M0.5647866,0.6521594 L0.5647866,0.6521594 M0.58390534,0.4334373 L0.58390534,0.4334373 M0.3885196,0.5732415 L0.3885196,0.5732415 L0.58390534,0.4334373 M0.49380392,0.38013044 L0.49380392,0.38013044 L0.49380392,0.38013044 L0.49380392,0.38013044 M0.49380392,0.38013044 L0.49380392,0.38013044 M0.3885196,0.5732415 L0.3821217,0.68094087 M0.38294214,0.66712976 L0.37253997,0.6747347 M0.3885196,0.5732415 L0.3885196,0.5732415 L0.3885196,0.5732415 L0.3885196,0.5732415 L0.3885196,0.5732415 M0.49380392,0.38013044 L0.48468807,0.5044301 M0.49380392,0.38013044 L0.29800537,0.5161604 L0.29800537,0.5161604 L0.29800537,0.5161604 L0.29800537,0.5161604 L0.29800537,0.5161604 M0.2880523,0.7365027 L0.2880523,0.7365027 L0.2880523,0.7365027 L0.2880523,0.7365027 L0.2880523,0.7365027 M0.30647713,0.6319452 L0.30647713,0.6319452 L0.30647713,0.6319452 M0.2923176,0.6420768 L0.29800537,0.5161604 M0.30647713,0.6319452 L0.30647713,0.6319452 L0.30647713,0.6319452 L0.30647713,0.6319452 M0.27874255,0.2528933 L0.49380392,0.38013044 L0.49380392,0.38013044 M0.27874255,0.2528933 L0.27874255,0.2528933 L0.27874255,0.2528933 L0.27874255,0.2528933 L0.27874255,0.2528933 M0.21584421,0.5732415 L0.21584421,0.5732415 L0.21584421,0.5732415 L0.21584421,0.5732415 L0.21166795,0.6997839 M0.21212445,0.68595195 L0.2219017,0.6924614 M0.21584421,0.5732415 L0.21584421,0.5732415 M0.20853761,0.79463506 L0.20853761,0.79463506 L0.20853761,0.79463506 M0.21584421,0.5732415 L0.21584421,0.5732415 M0.27001578,0.46768105 L0.27001578,0.46768105 M0.24655157,0.4837121 L0.24655157,0.4837121 M0.27001578,0.46768105 L0.27001578,0.46768105 L0.27001578,0.46768105 L0.27001578,0.46768105 M0.19656073,0.2042719 L0.19656073,0.2042719 L0.19656073,0.2042719 L0.19656073,0.2042719 L0.19656073,0.2042719 M-0.38130784,0.91267395 L-0.38130784,0.91267395 M-0.3753677,0.79463506 L-0.3753677,0.79463506 L-0.3753677,0.79463506 L-0.3753677,0.79463506 L-0.3753677,0.79463506 M-0.2959601,0.8543632 L-0.2959601,0.8543632 L-0.2959601,0.8543632 L-0.2959601,0.8543632 L-0.2959601,0.8543632 M-0.3753677,0.79463506 L-0.3753677,0.79463506 L-0.3753677,0.79463506 M-0.31776917,1.1794121 L-0.32992512,0.95241183 M-0.31776917,1.1794121 L-0.31776917,1.1794121 L-0.31776917,1.1794121 L-0.31776917,1.1794121 L-0.31776917,1.1794121 M-0.5253894,1.0111123 L-0.31776917,1.1794121 M-0.32992512,0.95241183 L-0.32992512,0.95241183 L-0.32992512,0.95241183 L-0.32992512,0.95241183 L-0.32992512,0.95241183 M-0.5253894,1.0111123 L-0.5253894,1.0111123 L-0.5253894,1.0111123 L-0.5253894,1.0111123 L-0.5253894,1.0111123 M-0.5447472,0.7862748 L-0.5253894,1.0111123 M-0.6043638,0.9470946 L-0.6043638,0.9470946 L-0.6043638,0.9470946 M-0.53488374,0.90083665 L-0.6043638,0.9470946 L-0.6043638,0.9470946 L-0.6043638,0.9470946 M-0.4778444,0.5977478 L-0.4778444,0.5977478 L-0.4778444,0.5977478 M-0.3885196,0.5732415 L-0.3885196,0.5732415 L-0.3885196,0.5732415 M-0.3214515,0.49987137 L-0.3214515,0.49987137 M-0.29800537,0.5161604 L-0.29800537,0.5161604 L-0.29800537,0.5161604 L-0.29800537,0.5161604 L-0.29800537,0.5161604 M-0.3885196,0.5732415 L-0.3885196,0.5732415 M-0.27874255,0.2528933 L-0.27874255,0.2528933 L-0.27874255,0.2528933 M-0.29800537,0.5161604 L-0.49380392,0.38013044 L-0.27874255,0.2528933 M-0.5447472,0.7862748 L-0.5447472,0.7862748 L-0.5447472,0.7862748 L-0.5447472,0.7862748 M-0.5414706,0.66969705 L-0.5414706,0.66969705 M-0.5447472,0.7862748 L-0.5447472,0.7862748 L-0.5447472,0.7862748 M-0.5647866,0.6521594 L-0.5647866,0.6521594 L-0.5647866,0.6521594 L-0.5647866,0.6521594 L-0.5647866,0.6521594 M-0.6263079,0.7231981 L-0.6263079,0.7231981 L-0.6263079,0.7231981 L-0.6263079,0.7231981 L-0.6263079,0.7231981 M-0.32992512,0.95241183 L-0.5447472,0.7862748 M-0.6043638,0.9470946 L-0.6043638,0.9470946 L-0.6263079,0.7231981 M-0.7924429,0.79463506 L-0.6043638,0.9470946 M-0.820208,0.5732415 L-0.7924429,0.79463506 L-0.7924429,0.79463506 L-0.7924429,0.79463506 L-0.7924429,0.79463506 L-0.7924429,0.79463506 M-0.5447472,0.7862748 L-0.30647713,0.6319452 M-0.3885196,0.5732415 L-0.3821217,0.68094087 M-0.38294214,0.66712976 L-0.37253997,0.6747347 M-0.6495614,0.70521456 L-0.6495614,0.70521456 M-0.3885196,0.5732415 L-0.6263079,0.7231981 L-0.820208,0.5732415 M-0.49380392,0.38013044 L-0.49380392,0.38013044 L-0.49380392,0.38013044 L-0.49380392,0.38013044 L-0.49380392,0.38013044 M-0.58390534,0.4334373 L-0.3885196,0.5732415 M-0.49380392,0.38013044 L-0.48468807,0.5044301 M-0.4778444,0.5977478 L-0.4778444,0.5977478 L-0.4778444,0.5977478 M-0.820208,0.5732415 L-0.820208,0.5732415 L-0.820208,0.5732415 L-0.820208,0.5732415 L-0.820208,0.5732415 L-0.820208,0.5732415 L-0.58390534,0.4334373 L-0.58390534,0.4334373 L-0.58390534,0.4334373 L-0.58390534,0.4334373" fill="none" stroke="black" vector-effect="non-scaling-stroke"/>
</g>
</svg>