<svg viewBox="-34.57548111402571 -39.674495049578205 84.51784272317396 83.44054183044597" xmlns="http://www.w3.org/2000/svg" xmlns:inkscape="http://www.inkscape.org/namespaces/inkscape">
<g inkscape:groupmode="layer" inkscape:label="0">
<path d="M7.68344,39.924328 L7.68344,39.924328 L7.68344,39.924328 M33.85319,13.0301 L33.85319,13.0301 L7.68344,39.924328 M33.85319,13.0301 L33.85319,13.0301 L33.85319,13.0301 L33.85319,13.0301 L33.85319,13.0301 L33.85319,13.0301 M9.724682,-5.6145477 L9.724682,-5.6145477 L9.724682,-5.6145477 M7.68344,39.924328 L9.724682,-5.6145477 M-22.568794,13.0301 L7.68344,39.924328 M-22.568794,13.0301 L-22.568794,13.0301 L-22.568794,13.0301 M46.100643,-26.616219 L46.100643,-26.616219 L46.100643,-26.616219 L46.100643,-26.616219 L46.100643,-26.616219 M46.100643,-26.616219 L46.100643,-26.616219 L9.724682,-5.6145477 M46.100643,-26.616219 L33.85319,13.0301 M9.724682,-5.6145477 L9.724682,-5.6145477 L9.724682,-5.6145477 M3.9946434,-8.588967 L3.9946434,-8.588967 M3.6009574,-2.0790136 L3.6009574,-2.0790136 L3.6009574,-2.0790136 M3.6009574,-2.0790136 L3.6009574,-2.0790136 M-22.568794,13.0301 L-22.568794,13.0301 L-22.568794,13.0301 M5.6421986,-35.832775 L46.100643,-26.616219 M-30.73376,-26.616219 L5.6421986,-35.832775 L5.6421986,-35.832775 L5.6421986,-35.832775 M9.724682,-5.6145477 L-30.73376,-26.616219 L-30.73376,-26.616219 L-22.568794,13.0301 M-30.73376,-26.616219 L-30.73376,-26.616219 L-30.73376,-26.616219 L-30.73376,-26.616219" fill="none" stroke="black" vector-effect="non-scaling-stroke"/>
</g>
</svg>