<svg viewBox="-0.8202079869128822 0.08798031793486487 1.6404159738257642 1.3490199646422787" xmlns="http://www.w3.org/2000/svg">
<line stroke="black" vector-effect="non-scaling-stroke" x1="0.7924429302638529" x2="0.7924429302638529" y1="0.7946350310775419" y2="0.7946350310775419"/>
<line stroke="black" vector-effect="non-scaling-stroke" x1="0.7924429302638529" x2="0.7924429302638529" y1="0.7946350310775419" y2="0.7946350310775419"/>
<line stroke="black" vector-effect="non-scaling-stroke" x1="0.7924429302638529" x2="0.7924429302638529" y1="0.7946350310775419" y2="0.7946350310775419"/>
<line stroke="black" vector-effect="non-scaling-stroke" x1="0.7924429302638529" x2="0.7924429302638529" y1="0.7946350310775419" y2="0.7946350310775419"/>
<line stroke="black" vector-effect="non-scaling-stroke" x1="0.7924429302638529" x2="0.7924429302638529" y1="0.7946350310775419" y2="0.7946350310775419"/>
<line stroke="black" vector-effect="non-scaling-stroke" x1="0.7924429302638529" x2="0.7924429302638529" y1="0.7946350310775419" y2="0.7946350310775419"/>
<line stroke="black" vector-effect="non-scaling-stroke" x1="0.820207986912882" x2="0.7924429302638529" y1="0.5732414708852408" y2="0.7946350310775419"/>
<line stroke="black" vector-effect="non-scaling-stroke" x1="0.6263079149528181" x2="0.6263079149528181" y1="0.7231980865872057" y2="0.7231980865872057"/>
<line stroke="black" vector-effect="non-scaling-stroke" x1="0.6263079149528181" x2="0.6263079149528181" y1="0.7231980865872057" y2="0.7231980865872057"/>
<line stroke="black" vector-effect="non-scaling-stroke" x1="0.6263079149528181" x2="0.6263079149528181" y1="0.7231980865872057" y2="0.7231980865872057"/>
<line stroke="black" vector-effect="non-scaling-stroke" x1="0.6263079149528181" x2="0.6263079149528181" y1="0.7231980865872057" y2="0.7231980865872057"/>
<line stroke="black" vector-effect="non-scaling-stroke" x1="0.6043637798305447" x2="0.6043637798305447" y1="0.9470946040712672" y2="0.9470946040712672"/>
<line stroke="black" vector-effect="non-scaling-stroke" x1="0.6043637798305447" x2="0.6043637798305447" y1="0.9470946040712672" y2="0.9470946040712672"/>
<line stroke="black" vector-effect="non-scaling-stroke" x1="0.6043637798305447" x2="0.6043637798305447" y1="0.9470946040712672" y2="0.9470946040712672"/>
<line stroke="black" vector-effect="non-scaling-stroke" x1="0.6043637798305447" x2="0.6043637798305447" y1="0.9470946040712672" y2="0.9470946040712672"/>
<line stroke="black" vector-effect="non-scaling-stroke" x1="0.6495613806389315" x2="0.6495613806389315" y1="0.70521453979229" y2="0.70521453979229"/>
<line stroke="black" vector-effect="non-scaling-stroke" x1="0.820207986912882" x2="0.6263079149528181" y1="0.5732414708852408" y2="0.7231980865872057"/>
<line stroke="black" vector-effect="non-scaling-stroke" x1="0.7924429302638529" x2="0.6043637798305447" y1="0.7946350310775419" y2="0.9470946040712672"/>
<line stroke="black" vector-effect="non-scaling-stroke" x1="0.6043637798305447" x2="0.6263079149528181" y1="0.9470946040712672" y2="0.7231980865872057"/>
<line stroke="black" vector-effect="non-scaling-stroke" x1="0.5839053170365232" x2="0.820207986912882" y1="0.4334372896786593" y2="0.5732414708852408"/>
<line stroke="black" vector-effect="non-scaling-stroke" x1="0.820207986912882" x2="0.820207986912882" y1="0.5732414708852408" y2="0.5732414708852408"/>
<line stroke="black" vector-effect="non-scaling-stroke" x1="0.820207986912882" x2="0.820207986912882" y1="0.5732414708852408" y2="0.5732414708852408"/>
<line stroke="black" vector-effect="non-scaling-stroke" x1="0.820207986912882" x2="0.820207986912882" y1="0.5732414708852408" y2="0.5732414708852408"/>
<line stroke="black" vector-effect="non-scaling-stroke" x1="0.820207986912882" x2="0.820207986912882" y1="0.5732414708852408" y2="0.5732414708852408"/>
<line stroke="black" vector-effect="non-scaling-stroke" x1="0.820207986912882" x2="0.820207986912882" y1="0.5732414708852408" y2="0.5732414708852408"/>
<line stroke="black" vector-effect="non-scaling-stroke" x1="0.5447471501723209" x2="0.5447471501723209" y1="0.7862747844806777" y2="0.7862747844806777"/>
<line stroke="black" vector-effect="non-scaling-stroke" x1="0.5447471501723209" x2="0.5447471501723209" y1="0.7862747844806777" y2="0.7862747844806777"/>
<line stroke="black" vector-effect="non-scaling-stroke" x1="0.5447471501723209" x2="0.5447471501723209" y1="0.7862747844806777" y2="0.7862747844806777"/>
<line stroke="black" vector-effect="non-scaling-stroke" x1="0.5447471501723209" x2="0.5447471501723209" y1="0.7862747844806777" y2="0.7862747844806777"/>
<line stroke="black" vector-effect="non-scaling-stroke" x1="0.5447471501723209" x2="0.525389386144114" y1="0.7862747844806777" y2="1.0111123450655886"/>
<line stroke="black" vector-effect="non-scaling-stroke" x1="0.5348837573923745" x2="0.6043637798305447" y1="0.9008366299759809" y2="0.9470946040712672"/>
<line stroke="black" vector-effect="non-scaling-stroke" x1="0.6263079149528181" x2="0.3885195727482072" y1="0.7231980865872057" y2="0.5732414708852408"/>
<line stroke="black" vector-effect="non-scaling-stroke" x1="0.5414705630010149" x2="0.5414705630010149" y1="0.6696970525757823" y2="0.6696970525757823"/>
<line stroke="black" vector-effect="non-scaling-stroke" x1="0.38851957274820725" x2="0.3885195727482072" y1="0.5732414708852408" y2="0.5732414708852408"/>
<line stroke="black" vector-effect="non-scaling-stroke" x1="0.3885195727482072" x2="0.3885195727482072" y1="0.5732414708852408" y2="0.5732414708852408"/>
<line stroke="black" vector-effect="non-scaling-stroke" x1="0.3885195727482072" x2="0.3885195727482072" y1="0.5732414708852408" y2="0.5732414708852408"/>
<line stroke="black" vector-effect="non-scaling-stroke" x1="0.3885195727482072" x2="0.3885195727482072" y1="0.5732414708852408" y2="0.5732414708852408"/>
<line stroke="black" vector-effect="non-scaling-stroke" x1="0.2980053691140027" x2="0.2980053691140027" y1="0.51616044023377" y2="0.51616044023377"/>
<line stroke="black" vector-effect="non-scaling-stroke" x1="0.2980053691140027" x2="0.2980053691140027" y1="0.51616044023377" y2="0.51616044023377"/>
<line stroke="black" vector-effect="non-scaling-stroke" x1="0.2980053691140027" x2="0.2980053691140027" y1="0.51616044023377" y2="0.51616044023377"/>
<line stroke="black" vector-effect="non-scaling-stroke" x1="0.2980053691140027" x2="0.2980053691140027" y1="0.51616044023377" y2="0.51616044023377"/>
<line stroke="black" vector-effect="non-scaling-stroke" x1="0.5839053170365232" x2="0.5839053170365232" y1="0.4334372896786593" y2="0.4334372896786593"/>
<line stroke="black" vector-effect="non-scaling-stroke" x1="0.5839053170365232" x2="0.5839053170365232" y1="0.4334372896786593" y2="0.4334372896786593"/>
<line stroke="black" vector-effect="non-scaling-stroke" x1="0.5839053170365232" x2="0.5839053170365232" y1="0.4334372896786593" y2="0.4334372896786593"/>
<line stroke="black" vector-effect="non-scaling-stroke" x1="0.5839053170365232" x2="0.5839053170365232" y1="0.4334372896786593" y2="0.4334372896786593"/>
<line stroke="black" vector-effect="non-scaling-stroke" x1="0.5647865911191412" x2="0.5647865911191412" y1="0.6521593808346547" y2="0.6521593808346547"/>
<line stroke="black" vector-effect="non-scaling-stroke" x1="0.5647865911191412" x2="0.5647865911191412" y1="0.6521593808346547" y2="0.6521593808346547"/>
<line stroke="black" vector-effect="non-scaling-stroke" x1="0.3064771419173998" x2="0.3064771419173998" y1="0.6319452156659929" y2="0.6319452156659929"/>
<line stroke="black" vector-effect="non-scaling-stroke" x1="0.3064771419173998" x2="0.3064771419173998" y1="0.6319452156659929" y2="0.6319452156659929"/>
<line stroke="black" vector-effect="non-scaling-stroke" x1="0.5647865911191412" x2="0.5647865911191412" y1="0.6521593808346547" y2="0.6521593808346547"/>
<line stroke="black" vector-effect="non-scaling-stroke" x1="0.49380392190074734" x2="0.49380392190074734" y1="0.3801304363150527" y2="0.3801304363150527"/>
<line stroke="black" vector-effect="non-scaling-stroke" x1="0.49380392190074734" x2="0.49380392190074734" y1="0.3801304363150527" y2="0.3801304363150527"/>
<line stroke="black" vector-effect="non-scaling-stroke" x1="0.49380392190074734" x2="0.49380392190074734" y1="0.3801304363150527" y2="0.3801304363150527"/>
<line stroke="black" vector-effect="non-scaling-stroke" x1="0.49380392190074734" x2="0.49380392190074734" y1="0.3801304363150527" y2="0.3801304363150527"/>
<line stroke="black" vector-effect="non-scaling-stroke" x1="0.3885195727482072" x2="0.3885195727482072" y1="0.5732414708852408" y2="0.5732414708852408"/>
<line stroke="black" vector-effect="non-scaling-stroke" x1="0.49380392190074734" x2="0.4846880877131817" y1="0.3801304363150527" y2="0.504430102166898"/>
<line stroke="black" vector-effect="non-scaling-stroke" x1="0.3885195727482072" x2="0.5839053170365232" y1="0.5732414708852408" y2="0.4334372896786593"/>
<line stroke="black" vector-effect="non-scaling-stroke" x1="0.49380392190074734" x2="0.2980053691140027" y1="0.3801304363150527" y2="0.51616044023377"/>
<line stroke="black" vector-effect="non-scaling-stroke" x1="-0.08756489769068579" x2="-0.08756489769068579" y1="1.0111123450655886" y2="1.0111123450655886"/>
<line stroke="black" vector-effect="non-scaling-stroke" x1="-0.08756489769068579" x2="-0.08756489769068579" y1="1.0111123450655886" y2="1.0111123450655886"/>
<line stroke="black" vector-effect="non-scaling-stroke" x1="-0.08756489769068579" x2="-0.08756489769068579" y1="1.0111123450655886" y2="1.0111123450655886"/>
<line stroke="black" vector-effect="non-scaling-stroke" x1="-0.08756489769068579" x2="-0.08756489769068579" y1="1.0111123450655886" y2="1.0111123450655886"/>
<line stroke="black" vector-effect="non-scaling-stroke" x1="0.08942161397517731" x2="0.06626218619231533" y1="0.8817194380660652" y2="0.8986510429497612"/>
<line stroke="black" vector-effect="non-scaling-stroke" x1="0.08756489769068553" x2="0.08756489769068553" y1="1.0111123450655886" y2="1.0111123450655886"/>
<line stroke="black" vector-effect="non-scaling-stroke" x1="0.08756489769068553" x2="0.08756489769068553" y1="1.0111123450655886" y2="1.0111123450655886"/>
<line stroke="black" vector-effect="non-scaling-stroke" x1="0.08756489769068553" x2="0.08756489769068553" y1="1.0111123450655886" y2="1.0111123450655886"/>
<line stroke="black" vector-effect="non-scaling-stroke" x1="-0.09079119169538694" x2="-0.08894575259888064" y1="0.7862747844806777" y2="0.9148817942764053"/>
<line stroke="black" vector-effect="non-scaling-stroke" x1="-0.08756489769068579" x2="-0.08756489769068579" y1="1.0111123450655886" y2="1.0111123450655886"/>
<line stroke="black" vector-effect="non-scaling-stroke" x1="-0.08756489769068579" x2="-0.08756489769068579" y1="1.0111123450655886" y2="1.0111123450655886"/>
<line stroke="black" vector-effect="non-scaling-stroke" x1="-0.08942161397517759" x2="-0.06626218619231558" y1="0.8817194380660651" y2="0.8986510429497611"/>
<line stroke="black" vector-effect="non-scaling-stroke" x1="-0.09079119169538694" x2="-0.3299251318610695" y1="0.7862747844806777" y2="0.952411818462056"/>
<line stroke="black" vector-effect="non-scaling-stroke" x1="-0.2445047948253031" x2="-0.24450479482530305" y1="0.8930664932983448" y2="0.8930664932983448"/>
<line stroke="black" vector-effect="non-scaling-stroke" x1="-0.2959601050259837" x2="-0.2959601050259837" y1="0.8543632315307078" y2="0.8543632315307078"/>
<line stroke="black" vector-effect="non-scaling-stroke" x1="-0.2959601050259837" x2="-0.2959601050259837" y1="0.8543632315307078" y2="0.8543632315307078"/>
<line stroke="black" vector-effect="non-scaling-stroke" x1="-0.2959601050259837" x2="-0.2959601050259837" y1="0.8543632315307078" y2="0.8543632315307078"/>
<line stroke="black" vector-effect="non-scaling-stroke" x1="-0.2959601050259837" x2="-0.2959601050259837" y1="0.8543632315307078" y2="0.8543632315307078"/>
<line stroke="black" vector-effect="non-scaling-stroke" x1="-0.00000000000000018041124150158794" x2="-0.00000000000000018041124150158794" y1="0.9470946040712671" y2="0.9470946040712671"/>
<line stroke="black" vector-effect="non-scaling-stroke" x1="-0.0000000000000000867572126183826" x2="-0.0000000000000000867572126183826" y1="0.9470946040712672" y2="0.9470946040712672"/>
<line stroke="black" vector-effect="non-scaling-stroke" x1="-0.0000000000000000867572126183826" x2="-0.0000000000000000867572126183826" y1="0.9470946040712672" y2="0.9470946040712672"/>
<line stroke="black" vector-effect="non-scaling-stroke" x1="-0.08230065365012464" x2="-0.08100775785547229" y1="0.3801304363150526" y2="0.48590672312537253"/>
<line stroke="black" vector-effect="non-scaling-stroke" x1="-0.08230065365012464" x2="-0.08230065365012464" y1="0.3801304363150526" y2="0.3801304363150526"/>
<line stroke="black" vector-effect="non-scaling-stroke" x1="-0.08230065365012464" x2="-0.08230065365012464" y1="0.3801304363150526" y2="0.3801304363150526"/>
<line stroke="black" vector-effect="non-scaling-stroke" x1="-0.08230065365012464" x2="-0.08230065365012464" y1="0.3801304363150526" y2="0.3801304363150526"/>
<line stroke="black" vector-effect="non-scaling-stroke" x1="-0.08230065365012464" x2="-0.08230065365012464" y1="0.3801304363150526" y2="0.3801304363150526"/>
<line stroke="black" vector-effect="non-scaling-stroke" x1="-0.19048297591156158" x2="-0.19048297591156158" y1="0.41790651019060804" y2="0.41790651019060804"/>
<line stroke="black" vector-effect="non-scaling-stroke" x1="-0.19048297591156158" x2="-0.19048297591156158" y1="0.41790651019060804" y2="0.41790651019060804"/>
<line stroke="black" vector-effect="non-scaling-stroke" x1="-0.08230065365012464" x2="-0.2980053691140029" y1="0.3801304363150526" y2="0.51616044023377"/>
<line stroke="black" vector-effect="non-scaling-stroke" x1="-0.08230065365012465" x2="-0.08230065365012464" y1="0.3801304363150526" y2="0.3801304363150526"/>
<line stroke="black" vector-effect="non-scaling-stroke" x1="-0.2787425648378908" x2="-0.2787425648378908" y1="0.25289329189734183" y2="0.25289329189734183"/>
<line stroke="black" vector-effect="non-scaling-stroke" x1="-0.2787425648378908" x2="-0.2787425648378908" y1="0.25289329189734183" y2="0.25289329189734183"/>
<line stroke="black" vector-effect="non-scaling-stroke" x1="-0.2787425648378908" x2="-0.2787425648378908" y1="0.25289329189734183" y2="0.25289329189734183"/>
<line stroke="black" vector-effect="non-scaling-stroke" x1="-0.2787425648378908" x2="-0.2787425648378908" y1="0.25289329189734183" y2="0.25289329189734183"/>
<line stroke="black" vector-effect="non-scaling-stroke" x1="-0.2787425648378908" x2="-0.2787425648378908" y1="0.25289329189734183" y2="0.25289329189734183"/>
<line stroke="black" vector-effect="non-scaling-stroke" x1="-0.2787425648378908" x2="-0.08230065365012464" y1="0.25289329189734183" y2="0.3801304363150526"/>
<line stroke="black" vector-effect="non-scaling-stroke" x1="-0.00000000000000008990732197315465" x2="-0.00000000000000008990732197315465" y1="0.7231980865872057" y2="0.7231980865872057"/>
<line stroke="black" vector-effect="non-scaling-stroke" x1="-0.00000000000000008990732197315465" x2="-0.00000000000000008990732197315465" y1="0.7231980865872057" y2="0.7231980865872057"/>
<line stroke="black" vector-effect="non-scaling-stroke" x1="-0.00000000000000008990732197315465" x2="-0.00000000000000008990732197315465" y1="0.7231980865872057" y2="0.7231980865872057"/>
<line stroke="black" vector-effect="non-scaling-stroke" x1="-0.00000000000000008990732197315465" x2="-0.00000000000000008990732197315465" y1="0.7231980865872057" y2="0.7231980865872057"/>
<line stroke="black" vector-effect="non-scaling-stroke" x1="-0.00000000000000008810585860937904" x2="-0.00000000000000008990732197315465" y1="0.8512385220449356" y2="0.7231980865872057"/>
<line stroke="black" vector-effect="non-scaling-stroke" x1="-0.00000000000000018519408481507514" x2="-0.00000000000000018519408481507514" y1="0.8512385220449354" y2="0.8512385220449354"/>
<line stroke="black" vector-effect="non-scaling-stroke" x1="-0.00000000000000018519408481507514" x2="-0.00000000000000018519408481507514" y1="0.8512385220449354" y2="0.8512385220449354"/>
<line stroke="black" vector-effect="non-scaling-stroke" x1="-0.09079119169538694" x2="-0.09079119169538694" y1="0.7862747844806777" y2="0.7862747844806777"/>
<line stroke="black" vector-effect="non-scaling-stroke" x1="-0.09079119169538694" x2="-0.09079119169538694" y1="0.7862747844806777" y2="0.7862747844806777"/>
<line stroke="black" vector-effect="non-scaling-stroke" x1="-0.09079119169538694" x2="-0.09079119169538694" y1="0.7862747844806777" y2="0.7862747844806777"/>
<line stroke="black" vector-effect="non-scaling-stroke" x1="-0.09079119169538694" x2="-0.09079119169538694" y1="0.7862747844806777" y2="0.7862747844806777"/>
<line stroke="black" vector-effect="non-scaling-stroke" x1="-0.00000000000000008107585531262907" x2="-0.00000000000000008107585531262907" y1="0.6521593808346547" y2="0.6521593808346547"/>
<line stroke="black" vector-effect="non-scaling-stroke" x1="-0.00000000000000008107585531262907" x2="-0.00000000000000008107585531262907" y1="0.6521593808346547" y2="0.6521593808346547"/>
<line stroke="black" vector-effect="non-scaling-stroke" x1="-0.07964073281082602" x2="-0.07964073281082602" y1="0.5977477808482625" y2="0.5977477808482625"/>
<line stroke="black" vector-effect="non-scaling-stroke" x1="-0.07964073281082602" x2="-0.07964073281082602" y1="0.5977477808482625" y2="0.5977477808482625"/>
<line stroke="black" vector-effect="non-scaling-stroke" x1="-0.07964073281082602" x2="-0.07964073281082602" y1="0.5977477808482625" y2="0.5977477808482625"/>
<line stroke="black" vector-effect="non-scaling-stroke" x1="-0.30647714191740005" x2="-0.30647714191740005" y1="0.6319452156659929" y2="0.6319452156659929"/>
<line stroke="black" vector-effect="non-scaling-stroke" x1="-0.30647714191740005" x2="-0.30647714191740005" y1="0.6319452156659929" y2="0.6319452156659929"/>
<line stroke="black" vector-effect="non-scaling-stroke" x1="-0.30647714191740005" x2="-0.30647714191740005" y1="0.6319452156659929" y2="0.6319452156659929"/>
<line stroke="black" vector-effect="non-scaling-stroke" x1="-0.30647714191740005" x2="-0.30647714191740005" y1="0.6319452156659929" y2="0.6319452156659929"/>
<line stroke="black" vector-effect="non-scaling-stroke" x1="-0.2980053691140029" x2="-0.2980053691140029" y1="0.51616044023377" y2="0.51616044023377"/>
<line stroke="black" vector-effect="non-scaling-stroke" x1="-0.2980053691140029" x2="-0.2980053691140029" y1="0.51616044023377" y2="0.51616044023377"/>
<line stroke="black" vector-effect="non-scaling-stroke" x1="-0.2980053691140029" x2="-0.2980053691140029" y1="0.51616044023377" y2="0.51616044023377"/>
<line stroke="black" vector-effect="non-scaling-stroke" x1="-0.2980053691140029" x2="-0.2980053691140029" y1="0.51616044023377" y2="0.51616044023377"/>
<line stroke="black" vector-effect="non-scaling-stroke" x1="-0.30647714191740005" x2="-0.09079119169538694" y1="0.6319452156659929" y2="0.7862747844806777"/>
<line stroke="black" vector-effect="non-scaling-stroke" x1="-0.2158442070823375" x2="-0.21166795892438828" y1="0.5732414708852407" y2="0.6997839428335388"/>
<line stroke="black" vector-effect="non-scaling-stroke" x1="-0.29231760209944246" x2="-0.2980053691140029" y1="0.6420767781181156" y2="0.5161604402337701"/>
<line stroke="black" vector-effect="non-scaling-stroke" x1="-0.3214514775392159" x2="-0.3214514775392159" y1="0.49987138101669737" y2="0.49987138101669737"/>
<line stroke="black" vector-effect="non-scaling-stroke" x1="-0.23037318274088575" x2="-0.23037318274088575" y1="1.2502565792534988" y2="1.2502565792534988"/>
<line stroke="black" vector-effect="non-scaling-stroke" x1="-0.23037318274088575" x2="-0.23037318274088575" y1="1.2502565792534988" y2="1.2502565792534988"/>
<line stroke="black" vector-effect="non-scaling-stroke" x1="-0.23037318274088575" x2="-0.23037318274088575" y1="1.2502565792534988" y2="1.2502565792534988"/>
<line stroke="black" vector-effect="non-scaling-stroke" x1="-0.23037318274088575" x2="-0.23037318274088575" y1="1.2502565792534988" y2="1.2502565792534988"/>
<line stroke="black" vector-effect="non-scaling-stroke" x1="-0.23037318274088575" x2="-0.23037318274088575" y1="1.2502565792534988" y2="1.2502565792534988"/>
<line stroke="black" vector-effect="non-scaling-stroke" x1="-0.317769170933854" x2="-0.317769170933854" y1="1.1794121767210162" y2="1.1794121767210162"/>
<line stroke="black" vector-effect="non-scaling-stroke" x1="-0.317769170933854" x2="-0.317769170933854" y1="1.1794121767210162" y2="1.1794121767210162"/>
<line stroke="black" vector-effect="non-scaling-stroke" x1="-0.23551944216588852" x2="-0.317769170933854" y1="1.1192802977148824" y2="1.1794121767210162"/>
<line stroke="black" vector-effect="non-scaling-stroke" x1="-0.317769170933854" x2="-0.317769170933854" y1="1.1794121767210162" y2="1.1794121767210162"/>
<line stroke="black" vector-effect="non-scaling-stroke" x1="-0.317769170933854" x2="-0.317769170933854" y1="1.1794121767210162" y2="1.1794121767210162"/>
<line stroke="black" vector-effect="non-scaling-stroke" x1="-0.2393228365302354" x2="-0.2393228365302354" y1="1.0224809702952753" y2="1.0224809702952753"/>
<line stroke="black" vector-effect="non-scaling-stroke" x1="-0.2393228365302354" x2="-0.2393228365302354" y1="1.0224809702952753" y2="1.0224809702952753"/>
<line stroke="black" vector-effect="non-scaling-stroke" x1="-0.2393228365302354" x2="-0.23037318274088575" y1="1.0224809702952753" y2="1.2502565792534988"/>
<line stroke="black" vector-effect="non-scaling-stroke" x1="-0.00000000000000019238859818338925" x2="-0.00000000000000019238859818338925" y1="1.4370002825771435" y2="1.4370002825771435"/>
<line stroke="black" vector-effect="non-scaling-stroke" x1="-0.00000000000000019238859818338925" x2="-0.00000000000000019238859818338925" y1="1.4370002825771435" y2="1.4370002825771435"/>
<line stroke="black" vector-effect="non-scaling-stroke" x1="-0.0000000000000001942890293094024" x2="-0.0000000000000001942890293094024" y1="1.4370002825771435" y2="1.4370002825771435"/>
<line stroke="black" vector-effect="non-scaling-stroke" x1="-0.0000000000000001785182628551114" x2="-0.0000000000000001785182628551114" y1="1.0769762402352292" y2="1.0769762402352292"/>
<line stroke="black" vector-effect="non-scaling-stroke" x1="-0.0000000000000001785182628551114" x2="-0.0000000000000001785182628551114" y1="1.0769762402352292" y2="1.0769762402352292"/>
<line stroke="black" vector-effect="non-scaling-stroke" x1="-0.0000000000000001785182628551114" x2="-0.0000000000000001785182628551114" y1="1.0769762402352292" y2="1.0769762402352292"/>
<line stroke="black" vector-effect="non-scaling-stroke" x1="-0.0000000000000001785182628551114" x2="-0.0000000000000001785182628551114" y1="1.0769762402352292" y2="1.0769762402352292"/>
<line stroke="black" vector-effect="non-scaling-stroke" x1="-0.00000000000000020016469747560351" x2="-0.00000000000000020016469747560351" y1="1.207566216852895" y2="1.207566216852895"/>
<line stroke="black" vector-effect="non-scaling-stroke" x1="-0.00000000000000020016469747560351" x2="-0.00000000000000020016469747560351" y1="1.207566216852895" y2="1.207566216852895"/>
<line stroke="black" vector-effect="non-scaling-stroke" x1="-0.00000000000000019238859818338925" x2="-0.00000000000000020016469747560351" y1="1.4370002825771435" y2="1.207566216852895"/>
<line stroke="black" vector-effect="non-scaling-stroke" x1="-0.00000000000000020016469747560351" x2="-0.00000000000000020016469747560351" y1="1.207566216852895" y2="1.207566216852895"/>
<line stroke="black" vector-effect="non-scaling-stroke" x1="-0.00000000000000020016469747560351" x2="-0.00000000000000020016469747560351" y1="1.207566216852895" y2="1.207566216852895"/>
<line stroke="black" vector-effect="non-scaling-stroke" x1="-0.00000000000000007900634091217615" x2="-0.00000000000000007900634091217615" y1="0.5447250726507917" y2="0.5447250726507917"/>
<line stroke="black" vector-effect="non-scaling-stroke" x1="-0.00000000000000007900634091217615" x2="-0.00000000000000007900634091217615" y1="0.5447250726507917" y2="0.5447250726507917"/>
<line stroke="black" vector-effect="non-scaling-stroke" x1="-0.00000000000000008326672684688674" x2="-0.00000000000000008326672684688674" y1="0.5447250726507917" y2="0.5447250726507917"/>
<line stroke="black" vector-effect="non-scaling-stroke" x1="-0.2393228365302354" x2="-0.2393228365302354" y1="1.0224809702952753" y2="1.0224809702952753"/>
<line stroke="black" vector-effect="non-scaling-stroke" x1="-0.2393228365302354" x2="-0.2393228365302354" y1="1.0224809702952753" y2="1.0224809702952753"/>
<line stroke="black" vector-effect="non-scaling-stroke" x1="-0.20853761322732983" x2="-0.20853761322732983" y1="0.7946350310775419" y2="0.7946350310775419"/>
<line stroke="black" vector-effect="non-scaling-stroke" x1="-0.20853761322732983" x2="-0.20853761322732983" y1="0.7946350310775419" y2="0.7946350310775419"/>
<line stroke="black" vector-effect="non-scaling-stroke" x1="-0.20853761322732983" x2="-0.20853761322732983" y1="0.7946350310775419" y2="0.7946350310775419"/>
<line stroke="black" vector-effect="non-scaling-stroke" x1="-0.20853761322732983" x2="-0.20853761322732983" y1="0.7946350310775419" y2="0.7946350310775419"/>
<line stroke="black" vector-effect="non-scaling-stroke" x1="-0.20853761322732983" x2="-0.20853761322732983" y1="0.7946350310775419" y2="0.7946350310775419"/>
<line stroke="black" vector-effect="non-scaling-stroke" x1="-0.28805228777543607" x2="-0.28805228777543607" y1="0.7365027203604143" y2="0.7365027203604143"/>
<line stroke="black" vector-effect="non-scaling-stroke" x1="-0.28805228777543607" x2="-0.28805228777543607" y1="0.7365027203604143" y2="0.7365027203604143"/>
<line stroke="black" vector-effect="non-scaling-stroke" x1="-0.28805228777543607" x2="-0.28805228777543607" y1="0.7365027203604143" y2="0.7365027203604143"/>
<line stroke="black" vector-effect="non-scaling-stroke" x1="-0.28805228777543607" x2="-0.28805228777543607" y1="0.7365027203604143" y2="0.7365027203604143"/>
<line stroke="black" vector-effect="non-scaling-stroke" x1="-0.00000000000000008161028603115298" x2="-0.00000000000000008161028603115298" y1="0.32822912199068305" y2="0.32822912199068305"/>
<line stroke="black" vector-effect="non-scaling-stroke" x1="-0.00000000000000008161028603115298" x2="-0.00000000000000008161028603115298" y1="0.32822912199068305" y2="0.32822912199068305"/>
<line stroke="black" vector-effect="non-scaling-stroke" x1="-0.00000000000000008161028603115298" x2="-0.00000000000000008161028603115298" y1="0.32822912199068305" y2="0.32822912199068305"/>
<line stroke="black" vector-effect="non-scaling-stroke" x1="-0.00000000000000008161028603115298" x2="-0.00000000000000008161028603115298" y1="0.32822912199068305" y2="0.32822912199068305"/>
<line stroke="black" vector-effect="non-scaling-stroke" x1="-0.00000000000000008326672684688674" x2="-0.00000000000000008382037347331694" y1="0.43343728967865924" y2="0.43343728967865924"/>
<line stroke="black" vector-effect="non-scaling-stroke" x1="-0.00000000000000008034487532073418" x2="-0.00000000000000008161028603115298" y1="0.43343728967865924" y2="0.32822912199068305"/>
<line stroke="black" vector-effect="non-scaling-stroke" x1="-0.00000000000000008382037347331694" x2="-0.00000000000000008382037347331694" y1="0.43343728967865924" y2="0.43343728967865924"/>
<line stroke="black" vector-effect="non-scaling-stroke" x1="-0.00000000000000008382037347331694" x2="-0.00000000000000008382037347331694" y1="0.43343728967865924" y2="0.43343728967865924"/>
<line stroke="black" vector-effect="non-scaling-stroke" x1="-0.023505440324227855" x2="-0.023505440324227845" y1="0.3134058709897038" y2="0.3134058709897038"/>
<line stroke="black" vector-effect="non-scaling-stroke" x1="-0.1965607295807957" x2="-0.19360873657493333" y1="0.20427190224404693" y2="0.3080352172432662"/>
<line stroke="black" vector-effect="non-scaling-stroke" x1="-0.00000000000000008161028603115298" x2="-0.1965607295807957" y1="0.32822912199068305" y2="0.20427190224404693"/>
<line stroke="black" vector-effect="non-scaling-stroke" x1="-0.1965607295807957" x2="-0.1965607295807957" y1="0.20427190224404693" y2="0.20427190224404693"/>
<line stroke="black" vector-effect="non-scaling-stroke" x1="-0.1965607295807957" x2="-0.1965607295807957" y1="0.20427190224404693" y2="0.20427190224404693"/>
<line stroke="black" vector-effect="non-scaling-stroke" x1="-0.1965607295807957" x2="-0.1965607295807957" y1="0.20427190224404693" y2="0.20427190224404693"/>
<line stroke="black" vector-effect="non-scaling-stroke" x1="-0.1965607295807957" x2="-0.1965607295807957" y1="0.20427190224404693" y2="0.20427190224404693"/>
<line stroke="black" vector-effect="non-scaling-stroke" x1="-0.00000000000000020016469747560351" x2="-0.2393228365302354" y1="1.207566216852895" y2="1.0224809702952753"/>
<line stroke="black" vector-effect="non-scaling-stroke" x1="-0.2393228365302354" x2="-0.00000000000000018519408481507514" y1="1.0224809702952753" y2="0.8512385220449354"/>
<line stroke="black" vector-effect="non-scaling-stroke" x1="-0.23037318274088575" x2="-0.0000000000000001942890293094024" y1="1.2502565792534988" y2="1.4370002825771435"/>
<line stroke="black" vector-effect="non-scaling-stroke" x1="-0.2158442070823375" x2="-0.00000000000000008382037347331694" y1="0.5732414708852407" y2="0.43343728967865924"/>
<line stroke="black" vector-effect="non-scaling-stroke" x1="-0.00000000000000008990732197315465" x2="-0.2158442070823375" y1="0.7231980865872057" y2="0.5732414708852407"/>
<line stroke="black" vector-effect="non-scaling-stroke" x1="-0.1965607295807957" x2="-0.000000000000000019140856575128703" y1="0.20427190224404693" y2="0.08798031793486487"/>
<line stroke="black" vector-effect="non-scaling-stroke" x1="-0.000000000000000019140856575128703" x2="-0.000000000000000019140856575128703" y1="0.08798031793486487" y2="0.08798031793486487"/>
<line stroke="black" vector-effect="non-scaling-stroke" x1="-0.000000000000000019140856575128703" x2="-0.000000000000000019140856575128703" y1="0.08798031793486487" y2="0.08798031793486487"/>
<line stroke="black" vector-effect="non-scaling-stroke" x1="-0.21212445218852993" x2="-0.22190170514907967" y1="0.6859519616179888" y2="0.6924613998464327"/>
<line stroke="black" vector-effect="non-scaling-stroke" x1="-0.2158442070823375" x2="-0.2158442070823375" y1="0.5732414708852407" y2="0.5732414708852407"/>
<line stroke="black" vector-effect="non-scaling-stroke" x1="-0.2158442070823375" x2="-0.2158442070823375" y1="0.5732414708852407" y2="0.5732414708852407"/>
<line stroke="black" vector-effect="non-scaling-stroke" x1="-0.27001577407090793" x2="-0.27001577407090793" y1="0.4676810395358516" y2="0.4676810395358516"/>
<line stroke="black" vector-effect="non-scaling-stroke" x1="-0.27001577407090793" x2="-0.27001577407090793" y1="0.4676810395358516" y2="0.4676810395358516"/>
<line stroke="black" vector-effect="non-scaling-stroke" x1="-0.24655156681337936" x2="-0.24655156681337936" y1="0.48371209568305096" y2="0.48371209568305096"/>
<line stroke="black" vector-effect="non-scaling-stroke" x1="-0.27001577407090793" x2="-0.27001577407090793" y1="0.4676810395358516" y2="0.4676810395358516"/>
<line stroke="black" vector-effect="non-scaling-stroke" x1="-0.27001577407090793" x2="-0.27001577407090793" y1="0.4676810395358516" y2="0.4676810395358516"/>
<line stroke="black" vector-effect="non-scaling-stroke" x1="-0.2158442070823375" x2="-0.2158442070823375" y1="0.5732414708852407" y2="0.5732414708852407"/>
<line stroke="black" vector-effect="non-scaling-stroke" x1="-0.2158442070823375" x2="-0.2158442070823375" y1="0.5732414708852407" y2="0.5732414708852407"/>
<line stroke="black" vector-effect="non-scaling-stroke" x1="-0.2158442070823375" x2="-0.2158442070823375" y1="0.5732414708852407" y2="0.5732414708852407"/>
<line stroke="black" vector-effect="non-scaling-stroke" x1="-0.19048297591156158" x2="-0.19048297591156158" y1="0.41790651019060804" y2="0.41790651019060804"/>
<line stroke="black" vector-effect="non-scaling-stroke" x1="-0.19048297591156158" x2="-0.19048297591156158" y1="0.41790651019060804" y2="0.41790651019060804"/>
<line stroke="black" vector-effect="non-scaling-stroke" x1="0.525389386144114" x2="0.525389386144114" y1="1.0111123450655886" y2="1.0111123450655886"/>
<line stroke="black" vector-effect="non-scaling-stroke" x1="0.525389386144114" x2="0.525389386144114" y1="1.0111123450655886" y2="1.0111123450655886"/>
<line stroke="black" vector-effect="non-scaling-stroke" x1="0.525389386144114" x2="0.525389386144114" y1="1.0111123450655886" y2="1.0111123450655886"/>
<line stroke="black" vector-effect="non-scaling-stroke" x1="0.525389386144114" x2="0.525389386144114" y1="1.0111123450655886" y2="1.0111123450655886"/>
<line stroke="black" vector-effect="non-scaling-stroke" x1="0.525389386144114" x2="0.525389386144114" y1="1.0111123450655886" y2="1.0111123450655886"/>
<line stroke="black" vector-effect="non-scaling-stroke" x1="0.31776917093385376" x2="0.3299251318610692" y1="1.1794121767210164" y2="0.952411818462056"/>
<line stroke="black" vector-effect="non-scaling-stroke" x1="0.525389386144114" x2="0.525389386144114" y1="1.0111123450655886" y2="1.0111123450655886"/>
<line stroke="black" vector-effect="non-scaling-stroke" x1="0.525389386144114" x2="0.3177691709338538" y1="1.0111123450655886" y2="1.1794121767210164"/>
<line stroke="black" vector-effect="non-scaling-stroke" x1="0.525389386144114" x2="0.31776917093385376" y1="1.0111123450655886" y2="1.1794121767210164"/>
<line stroke="black" vector-effect="non-scaling-stroke" x1="0.31776917093385376" x2="0.31776917093385376" y1="1.1794121767210164" y2="1.1794121767210164"/>
<line stroke="black" vector-effect="non-scaling-stroke" x1="0.31776917093385376" x2="0.31776917093385376" y1="1.1794121767210164" y2="1.1794121767210164"/>
<line stroke="black" vector-effect="non-scaling-stroke" x1="0.31776917093385376" x2="0.31776917093385376" y1="1.1794121767210164" y2="1.1794121767210164"/>
<line stroke="black" vector-effect="non-scaling-stroke" x1="0.5447471501723209" x2="0.3299251318610692" y1="0.7862747844806777" y2="0.952411818462056"/>
<line stroke="black" vector-effect="non-scaling-stroke" x1="0.3299251318610692" x2="0.3299251318610692" y1="0.952411818462056" y2="0.952411818462056"/>
<line stroke="black" vector-effect="non-scaling-stroke" x1="0.2959601050259834" x2="0.2959601050259834" y1="0.8543632315307078" y2="0.8543632315307078"/>
<line stroke="black" vector-effect="non-scaling-stroke" x1="0.2959601050259834" x2="0.2959601050259834" y1="0.8543632315307078" y2="0.8543632315307078"/>
<line stroke="black" vector-effect="non-scaling-stroke" x1="0.2959601050259834" x2="0.2959601050259834" y1="0.8543632315307078" y2="0.8543632315307078"/>
<line stroke="black" vector-effect="non-scaling-stroke" x1="0.2959601050259834" x2="0.2959601050259834" y1="0.8543632315307078" y2="0.8543632315307078"/>
<line stroke="black" vector-effect="non-scaling-stroke" x1="0.3064771419173998" x2="0.5447471501723209" y1="0.6319452156659929" y2="0.7862747844806777"/>
<line stroke="black" vector-effect="non-scaling-stroke" x1="0.47784439686495556" x2="0.47784439686495556" y1="0.5977477808482625" y2="0.5977477808482625"/>
<line stroke="black" vector-effect="non-scaling-stroke" x1="0.47784439686495556" x2="0.47784439686495556" y1="0.5977477808482625" y2="0.5977477808482625"/>
<line stroke="black" vector-effect="non-scaling-stroke" x1="0.47784439686495556" x2="0.47784439686495556" y1="0.5977477808482625" y2="0.5977477808482625"/>
<line stroke="black" vector-effect="non-scaling-stroke" x1="0.47784439686495556" x2="0.47784439686495556" y1="0.5977477808482625" y2="0.5977477808482625"/>
<line stroke="black" vector-effect="non-scaling-stroke" x1="0.47784439686495556" x2="0.47784439686495556" y1="0.5977477808482625" y2="0.5977477808482625"/>
<line stroke="black" vector-effect="non-scaling-stroke" x1="0.3299251318610692" x2="0.3299251318610692" y1="0.952411818462056" y2="0.952411818462056"/>
<line stroke="black" vector-effect="non-scaling-stroke" x1="0.3299251318610692" x2="0.3299251318610692" y1="0.952411818462056" y2="0.952411818462056"/>
<line stroke="black" vector-effect="non-scaling-stroke" x1="0.3299251318610692" x2="0.3299251318610692" y1="0.952411818462056" y2="0.952411818462056"/>
<line stroke="black" vector-effect="non-scaling-stroke" x1="-0.00000000000000018519408481507514" x2="0.239322836530235" y1="0.8512385220449354" y2="1.0224809702952753"/>
<line stroke="black" vector-effect="non-scaling-stroke" x1="0.09079119169538666" x2="0.08894575259888036" y1="0.7862747844806777" y2="0.9148817942764054"/>
<line stroke="black" vector-effect="non-scaling-stroke" x1="0.3299251318610692" x2="0.09079119169538666" y1="0.952411818462056" y2="0.7862747844806777"/>
<line stroke="black" vector-effect="non-scaling-stroke" x1="0.37536770380919343" x2="0.37536770380919343" y1="0.7946350310775419" y2="0.7946350310775419"/>
<line stroke="black" vector-effect="non-scaling-stroke" x1="0.2880522877754359" x2="0.2880522877754359" y1="0.7365027203604143" y2="0.7365027203604143"/>
<line stroke="black" vector-effect="non-scaling-stroke" x1="0.2880522877754359" x2="0.2880522877754359" y1="0.7365027203604143" y2="0.7365027203604143"/>
<line stroke="black" vector-effect="non-scaling-stroke" x1="0.24450479482530274" x2="0.2445047948253028" y1="0.8930664932983448" y2="0.8930664932983448"/>
<line stroke="black" vector-effect="non-scaling-stroke" x1="0.2880522877754359" x2="0.2880522877754359" y1="0.7365027203604143" y2="0.7365027203604143"/>
<line stroke="black" vector-effect="non-scaling-stroke" x1="0.2880522877754359" x2="0.2880522877754359" y1="0.7365027203604143" y2="0.7365027203604143"/>
<line stroke="black" vector-effect="non-scaling-stroke" x1="0.2880522877754359" x2="0.2880522877754359" y1="0.7365027203604143" y2="0.7365027203604143"/>
<line stroke="black" vector-effect="non-scaling-stroke" x1="0.2303731827408854" x2="0.2303731827408854" y1="1.2502565792534988" y2="1.2502565792534988"/>
<line stroke="black" vector-effect="non-scaling-stroke" x1="0.2303731827408854" x2="0.2303731827408854" y1="1.2502565792534988" y2="1.2502565792534988"/>
<line stroke="black" vector-effect="non-scaling-stroke" x1="0.23551944216588816" x2="0.31776917093385376" y1="1.1192802977148824" y2="1.1794121767210164"/>
<line stroke="black" vector-effect="non-scaling-stroke" x1="0.239322836530235" x2="0.239322836530235" y1="1.0224809702952753" y2="1.0224809702952753"/>
<line stroke="black" vector-effect="non-scaling-stroke" x1="0.239322836530235" x2="0.239322836530235" y1="1.0224809702952753" y2="1.0224809702952753"/>
<line stroke="black" vector-effect="non-scaling-stroke" x1="0.239322836530235" x2="0.239322836530235" y1="1.0224809702952753" y2="1.0224809702952753"/>
<line stroke="black" vector-effect="non-scaling-stroke" x1="0.239322836530235" x2="0.239322836530235" y1="1.0224809702952753" y2="1.0224809702952753"/>
<line stroke="black" vector-effect="non-scaling-stroke" x1="0.239322836530235" x2="-0.00000000000000020016469747560351" y1="1.0224809702952753" y2="1.207566216852895"/>
<line stroke="black" vector-effect="non-scaling-stroke" x1="0.239322836530235" x2="0.239322836530235" y1="1.0224809702952753" y2="1.0224809702952753"/>
<line stroke="black" vector-effect="non-scaling-stroke" x1="0.239322836530235" x2="0.2303731827408854" y1="1.0224809702952753" y2="1.2502565792534988"/>
<line stroke="black" vector-effect="non-scaling-stroke" x1="0.2303731827408854" x2="-0.00000000000000019238859818338925" y1="1.2502565792534988" y2="1.4370002825771435"/>
<line stroke="black" vector-effect="non-scaling-stroke" x1="0.37536770380919343" x2="0.37536770380919343" y1="0.7946350310775419" y2="0.7946350310775419"/>
<line stroke="black" vector-effect="non-scaling-stroke" x1="0.37536770380919343" x2="0.37536770380919343" y1="0.7946350310775419" y2="0.7946350310775419"/>
<line stroke="black" vector-effect="non-scaling-stroke" x1="0.37536770380919343" x2="0.37536770380919343" y1="0.7946350310775419" y2="0.7946350310775419"/>
<line stroke="black" vector-effect="non-scaling-stroke" x1="0.37536770380919343" x2="0.37536770380919343" y1="0.7946350310775419" y2="0.7946350310775419"/>
<line stroke="black" vector-effect="non-scaling-stroke" x1="0.20853761322732967" x2="0.20853761322732967" y1="0.7946350310775419" y2="0.7946350310775419"/>
<line stroke="black" vector-effect="non-scaling-stroke" x1="0.20853761322732967" x2="0.20853761322732967" y1="0.7946350310775419" y2="0.7946350310775419"/>
<line stroke="black" vector-effect="non-scaling-stroke" x1="0.20853761322732967" x2="0.20853761322732967" y1="0.7946350310775419" y2="0.7946350310775419"/>
<line stroke="black" vector-effect="non-scaling-stroke" x1="0.20853761322732967" x2="0.20853761322732967" y1="0.7946350310775419" y2="0.7946350310775419"/>
<line stroke="black" vector-effect="non-scaling-stroke" x1="0.09079119169538666" x2="0.09079119169538666" y1="0.7862747844806777" y2="0.7862747844806777"/>
<line stroke="black" vector-effect="non-scaling-stroke" x1="0.09079119169538666" x2="0.09079119169538666" y1="0.7862747844806777" y2="0.7862747844806777"/>
<line stroke="black" vector-effect="non-scaling-stroke" x1="0.09079119169538666" x2="0.09079119169538666" y1="0.7862747844806777" y2="0.7862747844806777"/>
<line stroke="black" vector-effect="non-scaling-stroke" x1="0.09079119169538666" x2="0.09079119169538666" y1="0.7862747844806777" y2="0.7862747844806777"/>
<line stroke="black" vector-effect="non-scaling-stroke" x1="0.09079119169538666" x2="0.09079119169538666" y1="0.7862747844806777" y2="0.7862747844806777"/>
<line stroke="black" vector-effect="non-scaling-stroke" x1="0.20853761322732967" x2="0.20853761322732967" y1="0.7946350310775419" y2="0.7946350310775419"/>
<line stroke="black" vector-effect="non-scaling-stroke" x1="0.0515536116659511" x2="0.051553611665951134" y1="0.6873814888793491" y2="0.6873814888793491"/>
<line stroke="black" vector-effect="non-scaling-stroke" x1="0.07964073281082586" x2="0.07964073281082586" y1="0.5977477808482625" y2="0.5977477808482625"/>
<line stroke="black" vector-effect="non-scaling-stroke" x1="0.07964073281082586" x2="0.07964073281082586" y1="0.5977477808482625" y2="0.5977477808482625"/>
<line stroke="black" vector-effect="non-scaling-stroke" x1="0.3064771419173998" x2="0.3064771419173998" y1="0.6319452156659929" y2="0.6319452156659929"/>
<line stroke="black" vector-effect="non-scaling-stroke" x1="0.3885195727482072" x2="0.3821216982827084" y1="0.5732414708852408" y2="0.6809408565883963"/>
<line stroke="black" vector-effect="non-scaling-stroke" x1="0.3829421442026019" x2="0.37253997772583747" y1="0.6671297819804634" y2="0.6747346923595244"/>
<line stroke="black" vector-effect="non-scaling-stroke" x1="0.3064771419173998" x2="0.3064771419173998" y1="0.6319452156659929" y2="0.6319452156659929"/>
<line stroke="black" vector-effect="non-scaling-stroke" x1="0.3064771419173998" x2="0.3064771419173998" y1="0.6319452156659929" y2="0.6319452156659929"/>
<line stroke="black" vector-effect="non-scaling-stroke" x1="0.2158442070823373" x2="0.21584420708233734" y1="0.5732414708852408" y2="0.5732414708852408"/>
<line stroke="black" vector-effect="non-scaling-stroke" x1="0.21584420708233734" x2="0.21584420708233734" y1="0.5732414708852408" y2="0.5732414708852408"/>
<line stroke="black" vector-effect="non-scaling-stroke" x1="0.09079119169538666" x2="0.3064771419173998" y1="0.7862747844806777" y2="0.6319452156659929"/>
<line stroke="black" vector-effect="non-scaling-stroke" x1="0.21584420708233734" x2="0.21166795892438814" y1="0.5732414708852408" y2="0.6997839428335388"/>
<line stroke="black" vector-effect="non-scaling-stroke" x1="0.21212445218852977" x2="0.22190170514907942" y1="0.6859519616179888" y2="0.6924613998464327"/>
<line stroke="black" vector-effect="non-scaling-stroke" x1="0.07964073281082586" x2="0.07964073281082586" y1="0.5977477808482625" y2="0.5977477808482625"/>
<line stroke="black" vector-effect="non-scaling-stroke" x1="0.21584420708233734" x2="-0.00000000000000008990732197315465" y1="0.5732414708852408" y2="0.7231980865872057"/>
<line stroke="black" vector-effect="non-scaling-stroke" x1="0.2923176020994423" x2="0.2980053691140027" y1="0.6420767781181156" y2="0.51616044023377"/>
<line stroke="black" vector-effect="non-scaling-stroke" x1="0.24655156681337925" x2="0.24655156681337928" y1="0.483712095683051" y2="0.483712095683051"/>
<line stroke="black" vector-effect="non-scaling-stroke" x1="0.1904829759115615" x2="0.1904829759115615" y1="0.41790651019060804" y2="0.41790651019060804"/>
<line stroke="black" vector-effect="non-scaling-stroke" x1="0.1904829759115615" x2="0.1904829759115615" y1="0.41790651019060804" y2="0.41790651019060804"/>
<line stroke="black" vector-effect="non-scaling-stroke" x1="0.21584420708233734" x2="0.21584420708233734" y1="0.5732414708852408" y2="0.5732414708852408"/>
<line stroke="black" vector-effect="non-scaling-stroke" x1="0.21584420708233734" x2="0.21584420708233734" y1="0.5732414708852408" y2="0.5732414708852408"/>
<line stroke="black" vector-effect="non-scaling-stroke" x1="0.21584420708233734" x2="0.21584420708233734" y1="0.5732414708852408" y2="0.5732414708852408"/>
<line stroke="black" vector-effect="non-scaling-stroke" x1="-0.00000000000000008107585531262907" x2="-0.00000000000000008107585531262907" y1="0.6521593808346547" y2="0.6521593808346547"/>
<line stroke="black" vector-effect="non-scaling-stroke" x1="-0.00000000000000008107585531262907" x2="-0.00000000000000008107585531262907" y1="0.6521593808346547" y2="0.6521593808346547"/>
<line stroke="black" vector-effect="non-scaling-stroke" x1="0.1904829759115615" x2="0.1904829759115615" y1="0.41790651019060804" y2="0.41790651019060804"/>
<line stroke="black" vector-effect="non-scaling-stroke" x1="0.1904829759115615" x2="0.1904829759115615" y1="0.41790651019060804" y2="0.41790651019060804"/>
<line stroke="black" vector-effect="non-scaling-stroke" x1="0.1904829759115615" x2="0.1904829759115615" y1="0.41790651019060804" y2="0.41790651019060804"/>
<line stroke="black" vector-effect="non-scaling-stroke" x1="0.1904829759115615" x2="0.1904829759115615" y1="0.41790651019060804" y2="0.41790651019060804"/>
<line stroke="black" vector-effect="non-scaling-stroke" x1="0.2980053691140027" x2="0.08230065365012447" y1="0.51616044023377" y2="0.3801304363150526"/>
<line stroke="black" vector-effect="non-scaling-stroke" x1="0.08230065365012447" x2="0.08100775785547212" y1="0.3801304363150526" y2="0.4859067231253726"/>
<line stroke="black" vector-effect="non-scaling-stroke" x1="-0.00000000000000008382037347331694" x2="0.21584420708233734" y1="0.43343728967865924" y2="0.5732414708852408"/>
<line stroke="black" vector-effect="non-scaling-stroke" x1="0.4938039219007473" x2="0.49380392190074734" y1="0.3801304363150527" y2="0.3801304363150527"/>
<line stroke="black" vector-effect="non-scaling-stroke" x1="0.2787425648378907" x2="0.49380392190074734" y1="0.2528932918973419" y2="0.3801304363150527"/>
<line stroke="black" vector-effect="non-scaling-stroke" x1="0.2787425648378907" x2="0.2787425648378907" y1="0.2528932918973419" y2="0.2528932918973419"/>
<line stroke="black" vector-effect="non-scaling-stroke" x1="0.2787425648378907" x2="0.2787425648378907" y1="0.2528932918973419" y2="0.2528932918973419"/>
<line stroke="black" vector-effect="non-scaling-stroke" x1="0.2787425648378907" x2="0.2787425648378907" y1="0.2528932918973419" y2="0.2528932918973419"/>
<line stroke="black" vector-effect="non-scaling-stroke" x1="0.2787425648378907" x2="0.2787425648378907" y1="0.2528932918973419" y2="0.2528932918973419"/>
<line stroke="black" vector-effect="non-scaling-stroke" x1="0.2700157740709079" x2="0.2700157740709079" y1="0.46768103953585166" y2="0.46768103953585166"/>
<line stroke="black" vector-effect="non-scaling-stroke" x1="0.2700157740709079" x2="0.2700157740709079" y1="0.46768103953585166" y2="0.46768103953585166"/>
<line stroke="black" vector-effect="non-scaling-stroke" x1="0.2700157740709079" x2="0.2700157740709079" y1="0.46768103953585166" y2="0.46768103953585166"/>
<line stroke="black" vector-effect="non-scaling-stroke" x1="0.2700157740709079" x2="0.2700157740709079" y1="0.46768103953585166" y2="0.46768103953585166"/>
<line stroke="black" vector-effect="non-scaling-stroke" x1="0.08230065365012447" x2="0.08230065365012447" y1="0.3801304363150526" y2="0.3801304363150526"/>
<line stroke="black" vector-effect="non-scaling-stroke" x1="0.08230065365012447" x2="0.08230065365012447" y1="0.3801304363150526" y2="0.3801304363150526"/>
<line stroke="black" vector-effect="non-scaling-stroke" x1="0.08230065365012447" x2="0.08230065365012447" y1="0.3801304363150526" y2="0.3801304363150526"/>
<line stroke="black" vector-effect="non-scaling-stroke" x1="0.08230065365012447" x2="0.08230065365012447" y1="0.3801304363150526" y2="0.3801304363150526"/>
<line stroke="black" vector-effect="non-scaling-stroke" x1="-0.000000000000000018566763197523656" x2="-0.000000000000000018566763197523656" y1="0.29869530809906997" y2="0.29869530809906997"/>
<line stroke="black" vector-effect="non-scaling-stroke" x1="-0.000000000000000018566763197523656" x2="-0.000000000000000018566763197523656" y1="0.29869530809906997" y2="0.29869530809906997"/>
<line stroke="black" vector-effect="non-scaling-stroke" x1="-0.000000000000000018566763197523656" x2="-0.000000000000000018566763197523656" y1="0.29869530809906997" y2="0.29869530809906997"/>
<line stroke="black" vector-effect="non-scaling-stroke" x1="-0.000000000000000018566763197523656" x2="-0.000000000000000018566763197523656" y1="0.29869530809906997" y2="0.29869530809906997"/>
<line stroke="black" vector-effect="non-scaling-stroke" x1="0.08230065365012447" x2="0.2787425648378907" y1="0.3801304363150526" y2="0.2528932918973419"/>
<line stroke="black" vector-effect="non-scaling-stroke" x1="0.1965607295807956" x2="0.19360873657493322" y1="0.20427190224404695" y2="0.30803521724326627"/>
<line stroke="black" vector-effect="non-scaling-stroke" x1="0.1965607295807956" x2="-0.00000000000000008161028603115298" y1="0.20427190224404695" y2="0.32822912199068305"/>
<line stroke="black" vector-effect="non-scaling-stroke" x1="0.19656072958079557" x2="0.1965607295807956" y1="0.20427190224404695" y2="0.20427190224404695"/>
<line stroke="black" vector-effect="non-scaling-stroke" x1="-0.000000000000000019140856575128703" x2="0.1965607295807956" y1="0.08798031793486487" y2="0.20427190224404695"/>
<line stroke="black" vector-effect="non-scaling-stroke" x1="0.1965607295807956" x2="0.1965607295807956" y1="0.20427190224404695" y2="0.20427190224404695"/>
<line stroke="black" vector-effect="non-scaling-stroke" x1="0.1965607295807956" x2="0.1965607295807956" y1="0.20427190224404695" y2="0.20427190224404695"/>
<line stroke="black" vector-effect="non-scaling-stroke" x1="0.1965607295807956" x2="0.1965607295807956" y1="0.20427190224404695" y2="0.20427190224404695"/>
<line stroke="black" vector-effect="non-scaling-stroke" x1="0.1965607295807956" x2="0.1965607295807956" y1="0.20427190224404695" y2="0.20427190224404695"/>
<line stroke="black" vector-effect="non-scaling-stroke" x1="-0.3753677038091936" x2="-0.3753677038091936" y1="0.7946350310775419" y2="0.7946350310775419"/>
<line stroke="black" vector-effect="non-scaling-stroke" x1="-0.3753677038091936" x2="-0.3753677038091936" y1="0.7946350310775419" y2="0.7946350310775419"/>
<line stroke="black" vector-effect="non-scaling-stroke" x1="-0.3753677038091936" x2="-0.3753677038091936" y1="0.7946350310775419" y2="0.7946350310775419"/>
<line stroke="black" vector-effect="non-scaling-stroke" x1="-0.3829421442026021" x2="-0.3725399777258376" y1="0.6671297819804631" y2="0.6747346923595243"/>
<line stroke="black" vector-effect="non-scaling-stroke" x1="-0.3885195727482074" x2="-0.3821216982827086" y1="0.5732414708852407" y2="0.6809408565883962"/>
<line stroke="black" vector-effect="non-scaling-stroke" x1="-0.3299251318610695" x2="-0.5447471501723211" y1="0.952411818462056" y2="0.7862747844806777"/>
<line stroke="black" vector-effect="non-scaling-stroke" x1="-0.5447471501723211" x2="-0.30647714191740005" y1="0.7862747844806777" y2="0.6319452156659929"/>
<line stroke="black" vector-effect="non-scaling-stroke" x1="-0.3885195727482074" x2="-0.3885195727482074" y1="0.5732414708852407" y2="0.5732414708852407"/>
<line stroke="black" vector-effect="non-scaling-stroke" x1="-0.3885195727482074" x2="-0.3885195727482074" y1="0.5732414708852407" y2="0.5732414708852407"/>
<line stroke="black" vector-effect="non-scaling-stroke" x1="-0.3885195727482074" x2="-0.3885195727482074" y1="0.5732414708852407" y2="0.5732414708852407"/>
<line stroke="black" vector-effect="non-scaling-stroke" x1="-0.4778443968649556" x2="-0.4778443968649556" y1="0.5977477808482624" y2="0.5977477808482624"/>
<line stroke="black" vector-effect="non-scaling-stroke" x1="-0.4778443968649556" x2="-0.4778443968649556" y1="0.5977477808482624" y2="0.5977477808482624"/>
<line stroke="black" vector-effect="non-scaling-stroke" x1="-0.4778443968649556" x2="-0.4778443968649556" y1="0.5977477808482624" y2="0.5977477808482624"/>
<line stroke="black" vector-effect="non-scaling-stroke" x1="-0.4778443968649556" x2="-0.4778443968649556" y1="0.5977477808482624" y2="0.5977477808482624"/>
<line stroke="black" vector-effect="non-scaling-stroke" x1="-0.3299251318610695" x2="-0.3299251318610695" y1="0.952411818462056" y2="0.952411818462056"/>
<line stroke="black" vector-effect="non-scaling-stroke" x1="-0.317769170933854" x2="-0.3299251318610695" y1="1.1794121767210162" y2="0.952411818462056"/>
<line stroke="black" vector-effect="non-scaling-stroke" x1="-0.3299251318610695" x2="-0.3299251318610695" y1="0.952411818462056" y2="0.952411818462056"/>
<line stroke="black" vector-effect="non-scaling-stroke" x1="-0.5253893861441143" x2="-0.317769170933854" y1="1.0111123450655886" y2="1.1794121767210162"/>
<line stroke="black" vector-effect="non-scaling-stroke" x1="-0.3299251318610695" x2="-0.3299251318610695" y1="0.952411818462056" y2="0.952411818462056"/>
<line stroke="black" vector-effect="non-scaling-stroke" x1="-0.3299251318610695" x2="-0.3299251318610695" y1="0.952411818462056" y2="0.952411818462056"/>
<line stroke="black" vector-effect="non-scaling-stroke" x1="-0.3753677038091936" x2="-0.3753677038091936" y1="0.7946350310775419" y2="0.7946350310775419"/>
<line stroke="black" vector-effect="non-scaling-stroke" x1="-0.3753677038091936" x2="-0.3753677038091936" y1="0.7946350310775419" y2="0.7946350310775419"/>
<line stroke="black" vector-effect="non-scaling-stroke" x1="-0.3813078480450087" x2="-0.38130784804500867" y1="0.9126739362290619" y2="0.9126739362290619"/>
<line stroke="black" vector-effect="non-scaling-stroke" x1="-0.3753677038091936" x2="-0.3753677038091936" y1="0.7946350310775419" y2="0.7946350310775419"/>
<line stroke="black" vector-effect="non-scaling-stroke" x1="-0.5447471501723211" x2="-0.5447471501723211" y1="0.7862747844806777" y2="0.7862747844806777"/>
<line stroke="black" vector-effect="non-scaling-stroke" x1="-0.5447471501723211" x2="-0.5447471501723211" y1="0.7862747844806777" y2="0.7862747844806777"/>
<line stroke="black" vector-effect="non-scaling-stroke" x1="-0.5447471501723211" x2="-0.5447471501723211" y1="0.7862747844806777" y2="0.7862747844806777"/>
<line stroke="black" vector-effect="non-scaling-stroke" x1="-0.5447471501723211" x2="-0.5447471501723211" y1="0.7862747844806777" y2="0.7862747844806777"/>
<line stroke="black" vector-effect="non-scaling-stroke" x1="-0.6043637798305449" x2="-0.6043637798305449" y1="0.9470946040712672" y2="0.9470946040712672"/>
<line stroke="black" vector-effect="non-scaling-stroke" x1="-0.6043637798305449" x2="-0.6043637798305449" y1="0.9470946040712672" y2="0.9470946040712672"/>
<line stroke="black" vector-effect="non-scaling-stroke" x1="-0.6043637798305449" x2="-0.6043637798305449" y1="0.9470946040712672" y2="0.9470946040712672"/>
<line stroke="black" vector-effect="non-scaling-stroke" x1="-0.5253893861441143" x2="-0.5253893861441143" y1="1.0111123450655886" y2="1.0111123450655886"/>
<line stroke="black" vector-effect="non-scaling-stroke" x1="-0.5253893861441143" x2="-0.5253893861441143" y1="1.0111123450655886" y2="1.0111123450655886"/>
<line stroke="black" vector-effect="non-scaling-stroke" x1="-0.5253893861441143" x2="-0.5253893861441143" y1="1.0111123450655886" y2="1.0111123450655886"/>
<line stroke="black" vector-effect="non-scaling-stroke" x1="-0.5253893861441143" x2="-0.5253893861441143" y1="1.0111123450655886" y2="1.0111123450655886"/>
<line stroke="black" vector-effect="non-scaling-stroke" x1="-0.5447471501723211" x2="-0.5447471501723211" y1="0.7862747844806777" y2="0.7862747844806777"/>
<line stroke="black" vector-effect="non-scaling-stroke" x1="-0.5447471501723211" x2="-0.5253893861441143" y1="0.7862747844806777" y2="1.0111123450655886"/>
<line stroke="black" vector-effect="non-scaling-stroke" x1="-0.5348837573923748" x2="-0.6043637798305449" y1="0.9008366299759809" y2="0.9470946040712672"/>
<line stroke="black" vector-effect="non-scaling-stroke" x1="-0.6043637798305449" x2="-0.6043637798305449" y1="0.9470946040712672" y2="0.9470946040712672"/>
<line stroke="black" vector-effect="non-scaling-stroke" x1="-0.6043637798305449" x2="-0.6043637798305449" y1="0.9470946040712672" y2="0.9470946040712672"/>
<line stroke="black" vector-effect="non-scaling-stroke" x1="-0.6263079149528183" x2="-0.6263079149528183" y1="0.7231980865872057" y2="0.7231980865872057"/>
<line stroke="black" vector-effect="non-scaling-stroke" x1="-0.6043637798305449" x2="-0.6263079149528183" y1="0.9470946040712672" y2="0.7231980865872057"/>
<line stroke="black" vector-effect="non-scaling-stroke" x1="-0.49380392190074734" x2="-0.2787425648378908" y1="0.38013043631505256" y2="0.25289329189734183"/>
<line stroke="black" vector-effect="non-scaling-stroke" x1="-0.49380392190074734" x2="-0.49380392190074734" y1="0.38013043631505256" y2="0.38013043631505256"/>
<line stroke="black" vector-effect="non-scaling-stroke" x1="-0.49380392190074734" x2="-0.49380392190074734" y1="0.38013043631505256" y2="0.38013043631505256"/>
<line stroke="black" vector-effect="non-scaling-stroke" x1="-0.49380392190074734" x2="-0.49380392190074734" y1="0.38013043631505256" y2="0.38013043631505256"/>
<line stroke="black" vector-effect="non-scaling-stroke" x1="-0.49380392190074734" x2="-0.49380392190074734" y1="0.38013043631505256" y2="0.38013043631505256"/>
<line stroke="black" vector-effect="non-scaling-stroke" x1="-0.5647865911191413" x2="-0.5647865911191413" y1="0.6521593808346547" y2="0.6521593808346547"/>
<line stroke="black" vector-effect="non-scaling-stroke" x1="-0.5647865911191413" x2="-0.5647865911191413" y1="0.6521593808346547" y2="0.6521593808346547"/>
<line stroke="black" vector-effect="non-scaling-stroke" x1="-0.5647865911191413" x2="-0.5647865911191413" y1="0.6521593808346547" y2="0.6521593808346547"/>
<line stroke="black" vector-effect="non-scaling-stroke" x1="-0.5647865911191413" x2="-0.5647865911191413" y1="0.6521593808346547" y2="0.6521593808346547"/>
<line stroke="black" vector-effect="non-scaling-stroke" x1="-0.49380392190074734" x2="-0.4846880877131817" y1="0.38013043631505256" y2="0.5044301021668981"/>
<line stroke="black" vector-effect="non-scaling-stroke" x1="-0.2980053691140029" x2="-0.49380392190074734" y1="0.51616044023377" y2="0.38013043631505256"/>
<line stroke="black" vector-effect="non-scaling-stroke" x1="-0.541470563001015" x2="-0.541470563001015" y1="0.6696970525757822" y2="0.6696970525757822"/>
<line stroke="black" vector-effect="non-scaling-stroke" x1="-0.5839053170365234" x2="-0.3885195727482074" y1="0.43343728967865924" y2="0.5732414708852407"/>
<line stroke="black" vector-effect="non-scaling-stroke" x1="-0.3885195727482074" x2="-0.6263079149528183" y1="0.5732414708852407" y2="0.7231980865872057"/>
<line stroke="black" vector-effect="non-scaling-stroke" x1="-0.792442930263853" x2="-0.6043637798305449" y1="0.7946350310775419" y2="0.9470946040712672"/>
<line stroke="black" vector-effect="non-scaling-stroke" x1="-0.792442930263853" x2="-0.792442930263853" y1="0.7946350310775419" y2="0.7946350310775419"/>
<line stroke="black" vector-effect="non-scaling-stroke" x1="-0.792442930263853" x2="-0.792442930263853" y1="0.7946350310775419" y2="0.7946350310775419"/>
<line stroke="black" vector-effect="non-scaling-stroke" x1="-0.792442930263853" x2="-0.792442930263853" y1="0.7946350310775419" y2="0.7946350310775419"/>
<line stroke="black" vector-effect="non-scaling-stroke" x1="-0.792442930263853" x2="-0.792442930263853" y1="0.7946350310775419" y2="0.7946350310775419"/>
<line stroke="black" vector-effect="non-scaling-stroke" x1="-0.6263079149528183" x2="-0.8202079869128822" y1="0.7231980865872057" y2="0.5732414708852407"/>
<line stroke="black" vector-effect="non-scaling-stroke" x1="-0.6263079149528183" x2="-0.6263079149528183" y1="0.7231980865872057" y2="0.7231980865872057"/>
<line stroke="black" vector-effect="non-scaling-stroke" x1="-0.6263079149528183" x2="-0.6263079149528183" y1="0.7231980865872057" y2="0.7231980865872057"/>
<line stroke="black" vector-effect="non-scaling-stroke" x1="-0.6263079149528183" x2="-0.6263079149528183" y1="0.7231980865872057" y2="0.7231980865872057"/>
<line stroke="black" vector-effect="non-scaling-stroke" x1="-0.8202079869128822" x2="-0.792442930263853" y1="0.5732414708852407" y2="0.7946350310775419"/>
<line stroke="black" vector-effect="non-scaling-stroke" x1="-0.6495613806389317" x2="-0.6495613806389317" y1="0.7052145397922901" y2="0.7052145397922901"/>
<line stroke="black" vector-effect="non-scaling-stroke" x1="-0.8202079869128822" x2="-0.8202079869128822" y1="0.5732414708852407" y2="0.5732414708852407"/>
<line stroke="black" vector-effect="non-scaling-stroke" x1="-0.8202079869128822" x2="-0.8202079869128822" y1="0.5732414708852407" y2="0.5732414708852407"/>
<line stroke="black" vector-effect="non-scaling-stroke" x1="-0.8202079869128822" x2="-0.8202079869128822" y1="0.5732414708852407" y2="0.5732414708852407"/>
<line stroke="black" vector-effect="non-scaling-stroke" x1="-0.8202079869128822" x2="-0.5839053170365234" y1="0.5732414708852407" y2="0.43343728967865924"/>
<line stroke="black" vector-effect="non-scaling-stroke" x1="-0.5839053170365234" x2="-0.5839053170365234" y1="0.43343728967865924" y2="0.43343728967865924"/>
<line stroke="black" vector-effect="non-scaling-stroke" x1="-0.5839053170365234" x2="-0.5839053170365234" y1="0.43343728967865924" y2="0.43343728967865924"/>
<line stroke="black" vector-effect="non-scaling-stroke" x1="-0.5839053170365234" x2="-0.5839053170365234" y1="0.43343728967865924" y2="0.43343728967865924"/>
<line stroke="black" vector-effect="non-scaling-stroke" x1="-0.8202079869128822" x2="-0.8202079869128822" y1="0.5732414708852407" y2="0.5732414708852407"/>
<line stroke="black" vector-effect="non-scaling-stroke" x1="-0.8202079869128822" x2="-0.8202079869128822" y1="0.5732414708852407" y2="0.5732414708852407"/>
</svg>