<svg viewBox="-4.106942000345515 -56.90745766669599 9.38729600078975 50.440701113662364" xmlns="http://www.w3.org/2000/svg">
<line stroke="black" vector-effect="non-scaling-stroke" x1="2.2401501820066456" x2="2.2401501820066456" y1="-6.466756553033627" y2="-6.466756553033627"/>
<line stroke="black" vector-effect="non-scaling-stroke" x1="2.2401501820066456" x2="2.2401501820066456" y1="-6.466756553033627" y2="-6.466756553033627"/>
<line stroke="black" vector-effect="non-scaling-stroke" x1="2.2401501820066456" x2="2.2401501820066456" y1="-6.466756553033627" y2="-6.466756553033627"/>
<line stroke="black" vector-effect="non-scaling-stroke" x1="2.2401501820066456" x2="2.2401501820066456" y1="-6.466756553033627" y2="-6.466756553033627"/>
<line stroke="black" vector-effect="non-scaling-stroke" x1="2.2401501820066456" x2="4.106942000345517" y1="-6.466756553033627" y2="-7.113432208336992"/>
<line stroke="black" vector-effect="non-scaling-stroke" x1="4.106942000345517" x2="4.106942000345517" y1="-7.113432208336992" y2="-7.113432208336992"/>
<line stroke="black" vector-effect="non-scaling-stroke" x1="4.106942000345517" x2="4.106942000345517" y1="-7.113432208336992" y2="-7.113432208336992"/>
<line stroke="black" vector-effect="non-scaling-stroke" x1="4.106942000345517" x2="4.106942000345517" y1="-7.113432208336992" y2="-7.113432208336992"/>
<line stroke="black" vector-effect="non-scaling-stroke" x1="4.106942000345517" x2="4.106942000345517" y1="-7.113432208336992" y2="-7.113432208336992"/>
<line stroke="black" vector-effect="non-scaling-stroke" x1="1.3689806667818394" x2="2.2401501820066456" y1="-7.113432208336992" y2="-6.466756553033627"/>
<line stroke="black" vector-effect="non-scaling-stroke" x1="1.3689806667818394" x2="1.3689806667818394" y1="-7.113432208336992" y2="-7.113432208336992"/>
<line stroke="black" vector-effect="non-scaling-stroke" x1="1.3689806667818394" x2="1.3689806667818394" y1="-7.113432208336992" y2="-7.113432208336992"/>
<line stroke="black" vector-effect="non-scaling-stroke" x1="1.3689806667818394" x2="1.3689806667818394" y1="-7.113432208336992" y2="-7.113432208336992"/>
<line stroke="black" vector-effect="non-scaling-stroke" x1="1.3689806667818394" x2="1.3689806667818394" y1="-7.113432208336992" y2="-7.113432208336992"/>
<line stroke="black" vector-effect="non-scaling-stroke" x1="4.106942000345517" x2="5.280354000444236" y1="-7.113432208336992" y2="-11.178250613100987"/>
<line stroke="black" vector-effect="non-scaling-stroke" x1="4.106942000345517" x2="3.5202360002961566" y1="-7.113432208336992" y2="-8.12963680952799"/>
<line stroke="black" vector-effect="non-scaling-stroke" x1="3.5202360002961566" x2="3.5202360002961566" y1="-8.12963680952799" y2="-8.12963680952799"/>
<line stroke="black" vector-effect="non-scaling-stroke" x1="2.7379613335636774" x2="2.7379613335636774" y1="-9.484576277782654" y2="-9.484576277782654"/>
<line stroke="black" vector-effect="non-scaling-stroke" x1="2.7379613335636774" x2="2.7379613335636774" y1="-9.484576277782654" y2="-9.484576277782654"/>
<line stroke="black" vector-effect="non-scaling-stroke" x1="2.7379613335636774" x2="2.7379613335636774" y1="-9.484576277782654" y2="-9.484576277782654"/>
<line stroke="black" vector-effect="non-scaling-stroke" x1="5.280354000444236" x2="2.7379613335636774" y1="-11.178250613100987" y2="-9.484576277782654"/>
<line stroke="black" vector-effect="non-scaling-stroke" x1="5.280354000444236" x2="5.280354000444236" y1="-11.178250613100987" y2="-11.178250613100987"/>
<line stroke="black" vector-effect="non-scaling-stroke" x1="5.280354000444236" x2="5.280354000444236" y1="-11.178250613100987" y2="-11.178250613100987"/>
<line stroke="black" vector-effect="non-scaling-stroke" x1="5.280354000444236" x2="5.280354000444236" y1="-11.178250613100987" y2="-11.178250613100987"/>
<line stroke="black" vector-effect="non-scaling-stroke" x1="5.280354000444236" x2="5.280354000444236" y1="-11.178250613100987" y2="-11.178250613100987"/>
<line stroke="black" vector-effect="non-scaling-stroke" x1="5.280354000444236" x2="5.280354000444236" y1="-11.178250613100987" y2="-11.178250613100987"/>
<line stroke="black" vector-effect="non-scaling-stroke" x1="1.7601180001480792" x2="1.7601180001480792" y1="-11.178250613100987" y2="-11.178250613100987"/>
<line stroke="black" vector-effect="non-scaling-stroke" x1="3.5202360002961566" x2="1.3689806667818394" y1="-8.12963680952799" y2="-7.113432208336992"/>
<line stroke="black" vector-effect="non-scaling-stroke" x1="1.7601180001480792" x2="2.7379613335636774" y1="-11.178250613100987" y2="-9.484576277782654"/>
<line stroke="black" vector-effect="non-scaling-stroke" x1="0.0000000000000007074682875970728" x2="1.5795930770559685" y1="-8.129636809527991" y2="-9.302180580132989"/>
<line stroke="black" vector-effect="non-scaling-stroke" x1="0.0000000000000007074682875970728" x2="1.5795930770559685" y1="-8.129636809527991" y2="-9.302180580132989"/>
<line stroke="black" vector-effect="non-scaling-stroke" x1="2.7379613335636774" x2="2.429458648091714" y1="-9.484576277782654" y2="-7.614378138501568"/>
<line stroke="black" vector-effect="non-scaling-stroke" x1="1.3689806667818394" x2="1.7601180001480792" y1="-7.113432208336992" y2="-11.178250613100987"/>
<line stroke="black" vector-effect="non-scaling-stroke" x1="1.7601180001480792" x2="1.7601180001480792" y1="-11.178250613100987" y2="-11.178250613100987"/>
<line stroke="black" vector-effect="non-scaling-stroke" x1="1.7601180001480792" x2="1.7601180001480792" y1="-11.178250613100987" y2="-11.178250613100987"/>
<line stroke="black" vector-effect="non-scaling-stroke" x1="1.7601180001480792" x2="1.7601180001480792" y1="-11.178250613100987" y2="-11.178250613100987"/>
<line stroke="black" vector-effect="non-scaling-stroke" x1="1.7601180001480792" x2="1.7601180001480792" y1="-11.178250613100987" y2="-11.178250613100987"/>
<line stroke="black" vector-effect="non-scaling-stroke" x1="4.92833040041462" x2="4.92833040041462" y1="-14.226864416673981" y2="-14.226864416673981"/>
<line stroke="black" vector-effect="non-scaling-stroke" x1="4.92833040041462" x2="4.92833040041462" y1="-14.226864416673981" y2="-14.226864416673981"/>
<line stroke="black" vector-effect="non-scaling-stroke" x1="4.92833040041462" x2="4.92833040041462" y1="-14.226864416673981" y2="-14.226864416673981"/>
<line stroke="black" vector-effect="non-scaling-stroke" x1="4.92833040041462" x2="4.92833040041462" y1="-14.226864416673981" y2="-14.226864416673981"/>
<line stroke="black" vector-effect="non-scaling-stroke" x1="2.4641652002073107" x2="2.4641652002073107" y1="-9.958805091671788" y2="-9.958805091671788"/>
<line stroke="black" vector-effect="non-scaling-stroke" x1="2.4641652002073107" x2="2.4641652002073107" y1="-9.958805091671788" y2="-9.958805091671788"/>
<line stroke="black" vector-effect="non-scaling-stroke" x1="5.280354000444236" x2="4.92833040041462" y1="-11.178250613100987" y2="-14.226864416673981"/>
<line stroke="black" vector-effect="non-scaling-stroke" x1="4.92833040041462" x2="4.92833040041462" y1="-14.226864416673981" y2="-14.226864416673981"/>
<line stroke="black" vector-effect="non-scaling-stroke" x1="1.7601180001480792" x2="1.7601180001480792" y1="-11.178250613100987" y2="-11.178250613100987"/>
<line stroke="black" vector-effect="non-scaling-stroke" x1="4.92833040041462" x2="4.92833040041462" y1="-14.226864416673981" y2="-14.226864416673981"/>
<line stroke="black" vector-effect="non-scaling-stroke" x1="4.92833040041462" x2="1.7601180001480792" y1="-14.226864416673981" y2="-11.178250613100987"/>
<line stroke="black" vector-effect="non-scaling-stroke" x1="0.0000000000000007074682875970728" x2="0.0000000000000007074682875970728" y1="-8.129636809527991" y2="-8.129636809527991"/>
<line stroke="black" vector-effect="non-scaling-stroke" x1="0.0000000000000007074682875970728" x2="0.0000000000000007074682875970728" y1="-8.129636809527991" y2="-8.129636809527991"/>
<line stroke="black" vector-effect="non-scaling-stroke" x1="0.0000000000000007074682875970728" x2="0.0000000000000007074682875970728" y1="-8.129636809527991" y2="-8.129636809527991"/>
<line stroke="black" vector-effect="non-scaling-stroke" x1="0.0000000000000007074682875970728" x2="0.0000000000000007074682875970728" y1="-8.129636809527991" y2="-8.129636809527991"/>
<line stroke="black" vector-effect="non-scaling-stroke" x1="-2.4641652002073084" x2="-2.4641652002073084" y1="-9.958805091671787" y2="-9.958805091671787"/>
<line stroke="black" vector-effect="non-scaling-stroke" x1="0.0000000000000007074682875970728" x2="0.0000000000000007074682875970728" y1="-8.129636809527991" y2="-8.129636809527991"/>
<line stroke="black" vector-effect="non-scaling-stroke" x1="-2.4641652002073084" x2="-2.4641652002073084" y1="-9.958805091671787" y2="-9.958805091671787"/>
<line stroke="black" vector-effect="non-scaling-stroke" x1="-2.4641652002073084" x2="0.0000000000000007074682875970728" y1="-9.958805091671787" y2="-8.129636809527991"/>
<line stroke="black" vector-effect="non-scaling-stroke" x1="0.0000000000000009904556026359021" x2="0.000000000000000990455602635902" y1="-14.22686441667399" y2="-14.226864416673985"/>
<line stroke="black" vector-effect="non-scaling-stroke" x1="0.0000000000000008253796688632517" x2="0.0000000000000008253796688632517" y1="-14.226864416673985" y2="-14.226864416673985"/>
<line stroke="black" vector-effect="non-scaling-stroke" x1="-2.4641652002073084" x2="-2.4641652002073084" y1="-9.958805091671787" y2="-9.958805091671787"/>
<line stroke="black" vector-effect="non-scaling-stroke" x1="0.0000000000000008253796688632517" x2="-2.4641652002073084" y1="-14.226864416673985" y2="-9.958805091671787"/>
<line stroke="black" vector-effect="non-scaling-stroke" x1="-2.4641652002073084" x2="-4.106942000345515" y1="-9.958805091671787" y2="-21.34029662501098"/>
<line stroke="black" vector-effect="non-scaling-stroke" x1="0.0000000000000009904556026359021" x2="0.0000000000000009904556026359021" y1="-14.22686441667399" y2="-14.22686441667399"/>
<line stroke="black" vector-effect="non-scaling-stroke" x1="-4.106942000345515" x2="0.0000000000000009904556026359021" y1="-21.34029662501098" y2="-14.22686441667399"/>
<line stroke="black" vector-effect="non-scaling-stroke" x1="-4.106942000345515" x2="-4.106942000345515" y1="-21.34029662501098" y2="-21.34029662501098"/>
<line stroke="black" vector-effect="non-scaling-stroke" x1="-4.106942000345515" x2="-4.106942000345515" y1="-21.34029662501098" y2="-21.34029662501098"/>
<line stroke="black" vector-effect="non-scaling-stroke" x1="-4.106942000345515" x2="-4.106942000345515" y1="-21.34029662501098" y2="-21.34029662501098"/>
<line stroke="black" vector-effect="non-scaling-stroke" x1="4.106942000345519" x2="4.106942000345519" y1="-21.340296625010986" y2="-21.340296625010986"/>
<line stroke="black" vector-effect="non-scaling-stroke" x1="4.106942000345519" x2="4.106942000345519" y1="-21.340296625010986" y2="-21.340296625010986"/>
<line stroke="black" vector-effect="non-scaling-stroke" x1="4.106942000345519" x2="4.106942000345519" y1="-21.340296625010986" y2="-21.340296625010986"/>
<line stroke="black" vector-effect="non-scaling-stroke" x1="4.106942000345519" x2="4.106942000345519" y1="-21.340296625010986" y2="-21.340296625010986"/>
<line stroke="black" vector-effect="non-scaling-stroke" x1="1.7601180001480792" x2="0.0000000000000008253796688632517" y1="-11.178250613100987" y2="-14.226864416673985"/>
<line stroke="black" vector-effect="non-scaling-stroke" x1="2.7821220002340605" x2="4.106942000345519" y1="-12.16167442070518" y2="-21.340296625010986"/>
<line stroke="black" vector-effect="non-scaling-stroke" x1="4.106942000345519" x2="0.0000000000000008881784197001252" y1="-21.340296625010986" y2="-14.22686441667399"/>
<line stroke="black" vector-effect="non-scaling-stroke" x1="0.0000000000000008253796688632519" x2="0.0000000000000024761390065897573" y1="-14.22686441667399" y2="-56.90745766669599"/>
<line stroke="black" vector-effect="non-scaling-stroke" x1="0.0000000000000024761390065897573" x2="4.106942000345519" y1="-56.90745766669599" y2="-21.340296625010986"/>
<line stroke="black" vector-effect="non-scaling-stroke" x1="0.0000000000000024761390065897573" x2="-4.106942000345515" y1="-56.90745766669599" y2="-21.34029662501098"/>
<line stroke="black" vector-effect="non-scaling-stroke" x1="0.0000000000000024761390065897573" x2="0.0000000000000024761390065897573" y1="-56.90745766669599" y2="-56.90745766669599"/>
<line stroke="black" vector-effect="non-scaling-stroke" x1="-4.106942000345515" x2="-4.106942000345515" y1="-21.34029662501098" y2="-21.34029662501098"/>
<line stroke="black" vector-effect="non-scaling-stroke" x1="0.0000000000000024761390065897573" x2="0.0000000000000024761390065897573" y1="-56.90745766669599" y2="-56.90745766669599"/>
<line stroke="black" vector-effect="non-scaling-stroke" x1="0.0000000000000024761390065897573" x2="0.0000000000000024761390065897573" y1="-56.90745766669599" y2="-56.90745766669599"/>
</svg>