<svg height="218mm" viewBox="0 0 300 218" width="300mm" xmlns="http://www.w3.org/2000/svg" xmlns:inkscape="http://www.inkscape.org/namespaces/inkscape">
<g inkscape:groupmode="layer" inkscape:label="0">
<path d="M150,159.80678 L150,159.80678 M150,159.80678 L150,159.80678 M150,159.80678 L139.2134,153.57913 L139.52034,165.85721 L139.52034,165.85721 M139.52034,165.85721 L150,172.26208 M150,172.26208 L139.52034,165.85721 L139.2134,153.57913 L150,159.80678 L160.7866,153.57913 L160.47966,165.85721 L150,172.26208 L150,159.80678 L150,172.26208 L160.47966,165.85721 L160.47966,165.85721 M160.7678,154.33128 L170.5718,159.68918 L171.15686,147.59186 L160.38774,142.04988 L160.12582,153.21933 M160.12582,153.21933 L160.38774,142.04988 L170.0182,136.80618 L180.75584,142.04988 L179.9282,153.97081 L179.9282,153.97081 L179.9282,153.97081 L170.5718,159.68918 L179.9282,153.97081 M180.59885,144.31111 L188.96684,148.44664 L180.59885,144.31111 M178.57323,143.31001 L178.57323,143.31001 M178.71907,141.05524 L179.32158,131.74057 L187.9723,127.03033 L198.6121,131.74057 L190.01488,136.70418 L179.32158,131.74057 L178.71907,141.05524 M180.75584,142.04988 L180.75584,142.04988 L171.15686,147.59186 L170.5718,159.68918 L160.7678,154.33128 M160.7866,153.57913 L160.7866,153.57913 M160.7866,153.57913 L150,147.70592 L139.2134,153.57913 L150,147.70592 M150,147.70592 L150,136.70418 L159.64526,131.74057 L159.64526,131.74057 L159.3991,143.31001 L150.67896,148.07559 L159.3991,143.31001 L159.3991,143.31001 L159.3991,143.31001 M160.38774,142.04988 L170.0182,136.80618 M169.98615,137.52417 L169.98615,137.52417 L169.98615,137.52417 M168.53424,137.61418 L168.97647,126.93857 L159.34383,122.467285 L168.97647,126.93857 L177.66504,122.467285 L177.66504,122.467285 L168.0553,118.21305 L159.34383,122.467285 L168.0553,118.21305 M166.89061,118.78183 L167.2035,110.144554 L166.89061,118.78183 M167.97437,120.30576 L167.97437,120.30576 L167.97437,120.30576 M170.24623,119.18298 L174.58305,117.03968 L174.58305,117.03968 L175.13872,106.46118 L166.44298,102.94064 L158.49055,106.46118 L167.2035,110.144554 L175.13872,106.46118 L166.44298,102.94064 M166.44298,102.94064 L158.49055,106.46118 L158.35823,113.92015 L158.49055,106.46118 L167.2035,110.144554 M167.07137,113.79195 L167.07137,113.79195 L167.07137,113.79195 M170.24623,119.18298 L174.58305,117.03968 L174.58305,117.03968 M176.51588,114.08134 L176.08318,121.767 L176.51588,114.08134 L186.09308,118.13007 L185.29228,128.48958 L186.09308,118.13007 L193.96056,114.08134 L193.96056,114.08134 L184.42293,110.219955 L176.51588,114.08134 L184.42293,110.219955 M184.42293,110.219955 L193.96056,114.08134 L192.94345,124.977936 L188.64392,127.327644 L192.94345,124.977936 M196.35268,122.467285 L204.16591,118.21305 L214.67389,122.467285 L214.67389,122.467285 L213.10417,133.6946 L205.51329,138.33392 L206.9294,126.93857 L196.35268,122.467285 L204.16591,118.21305 M204.82999,118.48191 L207.46901,117.03968 L204.82999,118.48191 M207.46901,117.03968 L208.768,106.46118 L201.6105,110.144554 L192.11984,106.46118 L191.5356,113.09958 M191.5356,113.09958 L192.11984,106.46118 L201.6105,110.144554 L200.51776,120.19943 L201.6105,110.144554 M198.7071,109.01773 L198.7071,109.01773 L198.7071,109.01773 M196.41423,104.36403 L197.20056,96.22051 L203.8505,93.13375 L195.28499,90.17226 L188.5954,93.13375 L197.20056,96.22051 L196.41423,104.36403 M194.05907,105.51416 L189.76138,103.86392 L194.05907,105.51416 M192.11984,106.46118 L199.32892,102.94064 L208.768,106.46118 L208.768,106.46118 M205.68718,105.31211 L206.3611,99.50649 L215.74283,102.87182 L214.41174,112.634285 M213.66325,113.04183 L208.21674,110.95046 L213.66325,113.04183 M211.75412,114.08134 L210.85715,120.92205 M210.85715,120.92205 L211.75412,114.08134 L218.84584,110.219955 L211.75412,114.08134 L222.18617,118.13007 L229.19878,114.08134 L218.84584,110.219955 M219.50084,110.46426 L220.75288,109.780014 L220.75288,109.780014 L219.50084,110.46426 M220.75288,109.780014 L220.75288,109.780014 L222.2823,99.50649 L212.96071,96.28358 L206.3611,99.50649 L205.68718,105.31211 M202.75777,103.11548 L203.8505,93.13375 L203.8505,93.13375 M201.31534,92.257225 L201.83437,87.27284 L208.0025,84.542206 L201.83437,87.27284 L201.31534,92.257225 M198.76044,91.30128 L198.76044,91.30128 L198.66931,91.34238 L198.76044,91.30128 L198.76044,91.30128 L199.69238,81.864494 L193.48492,84.48868 L185.61522,81.864494 L185.27223,86.71038 L185.61522,81.864494 L191.85387,79.33873 L199.69238,81.864494 M197.57256,81.18143 L197.98073,76.85822 L205.78423,79.289185 L211.5346,76.85822 L210.50648,85.349045 M208.0025,84.542206 L216.47685,87.27284 L216.47685,87.27284 L215.18103,96.975784 L215.09119,97.02019 L215.18103,96.975784 M212.96071,96.28358 L206.3611,99.50649 M207.01338,99.18795 L203.33177,97.87209 L207.01338,99.18795 M209.39055,98.02706 L210.3555,90.11425 L216.47685,87.27284 M213.48535,86.308914 L214.0511,81.864494 L219.75644,79.33873 L214.0511,81.864494 L222.47487,84.48868 L221.36107,92.18128 L222.47487,84.48868 L228.12827,81.864494 L219.75644,79.33873 M221.44772,79.84899 L222.52797,72.21081 L217.18597,74.469124 L216.34656,80.84829 L217.18597,74.469124 L209.45987,72.21081 L214.84341,70.03124 L209.45987,72.21081 L209.00935,76.09637 L209.45987,72.21081 L217.18597,74.469124 M216.57463,72.33691 L216.57463,72.33691 M216.8019,70.58672 L217.67683,63.84853 L212.6165,65.81247 L211.96733,71.19565 L212.6165,65.81247 L205.48282,63.84853 L210.57692,61.94856 L217.67683,63.84853 M220.14464,67.885 L227.78497,69.98843 L226.84692,76.19977 L227.78497,69.98843 L220.14464,67.885 L219.66794,71.39962 L220.14464,67.885 L225.16512,65.852425 L220.14464,67.885 M225.16512,65.852425 L232.76057,67.885 L227.78497,69.98843 M224.6897,69.13628 L224.6897,69.13628 L224.6897,69.13628 M222.52797,72.21081 L214.84341,70.03124 M211.98886,71.017105 L211.98886,71.017105 M214.38763,73.65118 L214.38763,73.65118 L214.38763,73.65118 M211.5346,76.85822 L203.7682,74.51512 L197.98073,76.85822 L205.78423,79.289185 L205.0612,85.84432 L205.78423,79.289185 M203.34543,78.52944 L203.34543,78.52944 L203.34543,78.52944 M206.31181,76.594154 L206.31181,76.594154 M206.4524,75.32493 L207.27638,67.885 L201.85664,69.98843 L201.3003,75.514275 L201.85664,69.98843 L194.66043,67.885 L194.33368,71.66875 L194.66043,67.885 L201.85664,69.98843 M202.89891,66.643425 L203.56935,60.073303 L198.44576,61.91119 L198.00816,66.63638 L198.44576,61.91119 L191.76993,60.073303 L196.918,58.293377 L203.56935,60.073303 L203.56935,60.073303 L203.56935,60.073303 M205.48282,63.84853 L210.57692,61.94856 M212.6165,65.81247 L205.48282,63.84853 L205.11829,67.2729 L205.48282,63.84853 M207.27638,67.885 L200.11008,65.852425 L194.66043,67.885 L200.11008,65.852425 M198.44576,61.91119 L191.76993,60.073303 L191.50432,63.41157 L191.76993,60.073303 L196.918,58.293377 M196.64005,61.41407 L196.64005,61.41407 L196.64005,61.41407 M193.0449,63.84853 L186.34615,61.94856 L180.85089,63.84853 L186.34615,61.94856 M184.89754,62.44941 L185.17741,58.25835 L184.89754,62.44941 M184.84705,63.205605 L184.84705,63.205605 M186.07028,65.91881 L186.07028,65.91881 L186.07028,65.91881 M187.5699,65.81247 L187.21912,70.66042 L187.5699,65.81247 L193.0449,63.84853 L192.44608,71.09926 M192.6358,68.80205 L194.53276,69.36348 L192.6358,68.80205 M188.90605,70.03124 L188.90605,70.03124 L196.1304,72.21081 L195.38683,80.477135 M197.57256,81.18143 L197.98073,76.85822 L203.7682,74.51512 M206.71336,72.96855 L209.2838,73.72932 L206.71336,72.96855 M208.42328,81.15125 L208.42328,81.15125 M210.91986,81.935074 L213.92212,82.87766 L210.91986,81.935074 M214.0511,81.864494 L213.48535,86.308914 M214.0511,81.864494 L222.47487,84.48868 M219.18733,83.46454 L219.18733,83.46454 L219.18733,83.46454 M216.49782,79.698715 L216.49782,79.698715 L216.49782,79.698715 M221.78975,77.43067 L225.12816,78.41873 L221.78975,77.43067 M225.35956,76.85822 L233.67635,79.289185 L232.43837,86.771706 L233.67635,79.289185 L225.35956,76.85822 L224.76753,80.85057 L225.35956,76.85822 L230.65231,74.51512 L225.35956,76.85822 M228.12827,81.864494 L226.77336,90.59062 M226.66301,91.30128 L226.66301,91.30128 L226.66301,91.30128 M225.47499,90.17226 L219.41069,93.13375 L218.68687,98.26338 L219.41069,93.13375 L228.6676,96.22051 L234.66579,93.13375 L225.47499,90.17226 L219.41069,93.13375 L228.6676,96.22051 L227.14156,105.70301 L228.6676,96.22051 M224.7517,94.914734 L224.7517,94.914734 L224.7517,94.914734 M225.19191,92.028305 L225.19191,92.028305 L225.19191,92.028305 M221.72029,89.700325 L221.72029,89.700325 L221.72029,89.700325 M219.36209,93.47817 L215.80685,92.289734 L219.36209,93.47817 M222.2823,99.50649 L222.2823,99.50649 L215.74283,102.87182 M218.00221,103.11548 L218.00221,103.11548 M221.55595,104.38562 L226.38875,106.112915 L221.55595,104.38562 M225.74913,106.46118 L224.80255,112.44166 M224.80255,112.44166 L225.74913,106.46118 L236.0175,110.144554 L234.07321,120.87891 L240.35495,117.03968 L242.3973,106.46118 L232.21487,102.94064 L225.74913,106.46118 L225.74913,106.46118 L232.21487,102.94064 M232.85971,103.1636 L232.94775,103.11548 L232.85971,103.1636 M232.94775,103.11548 L234.66579,93.13375 M235.34024,94.11183 L235.34024,94.11183 M233.77713,98.29682 L238.45726,99.86129 L233.77713,98.29682 M238.52194,99.50649 L244.44107,96.28358 L244.44107,96.28358 L254.44316,99.50649 L254.44316,99.50649 L248.61424,102.87182 L238.52194,99.50649 L244.44107,96.28358 M244.30115,96.359764 L246.05466,87.27284 L237.00375,84.542206 L231.41217,87.27284 L240.53325,90.11425 L246.05466,87.27284 M246.92096,83.16053 L246.92096,83.16053 M247.20091,81.15125 L247.20091,81.15125 L247.20091,81.15125 M247.53928,79.39721 L248.92554,72.21081 L244.06038,74.469124 L242.71883,81.75127 L244.06038,74.469124 L235.85744,72.21081 L235.25317,75.82006 L235.85744,72.21081 L240.78078,70.03124 L248.92554,72.21081 L248.92554,72.21081 M252.7384,76.85822 L261.56845,79.289185 L266.29227,76.85822 L264.3245,85.45723 M264.1909,86.04102 L264.1909,86.04102 L264.1909,86.04102 M260.99,87.27284 L270.711,90.11425 L268.31122,99.9536 L270.711,90.11425 L260.99,87.27284 L260.04858,91.49478 L260.99,87.27284 L266.005,84.542206 L275.63245,87.27284 L273.18353,96.975784 L268.31122,99.9536 L264.18423,98.65789 L268.31122,99.9536 L273.18353,96.975784 M274.20142,92.94283 L277.96143,94.05567 L282.46817,91.30128 L285,81.864494 L280.45477,84.48868 L270.92282,81.864494 L275.56158,79.33873 L285,81.864494 L285,81.864494 L285,81.864494 M280.45477,84.48868 L277.96143,94.05567 L282.46817,91.30128 M278.94363,90.2869 L278.94363,90.2869 L278.94363,90.2869 M277.96143,94.05567 L280.45477,84.48868 L270.92282,81.864494 L270.0066,85.67718 L270.92282,81.864494 L275.56158,79.33873 M274.6778,82.89825 L274.6778,82.89825 L274.6778,82.89825 M275.63245,87.27284 L270.711,90.11425 M268.655,91.30128 L268.655,91.30128 M265.48108,93.13375 L260.13464,96.22051 L257.85352,106.34505 L253.29959,104.82276 L257.85352,106.34505 L260.13464,96.22051 L250.22598,93.13375 L255.66498,90.17226 L250.22598,93.13375 L249.26735,97.83872 L250.22598,93.13375 L260.13464,96.22051 M258.82648,96.975784 L258.82648,96.975784 M258.89108,101.739975 L258.89108,101.739975 L258.89108,101.739975 M263.13776,103.11548 L257.85352,106.34505 L263.13776,103.11548 L265.48108,93.13375 L255.66498,90.17226 M254.69257,90.70174 L256.56412,81.864494 L247.65901,79.33873 L242.48697,81.864494 L251.46483,84.48868 L249.52554,94.05567 L245.01881,92.64075 L249.52554,94.05567 L251.46483,84.48868 L242.48697,81.864494 L241.73256,85.96888 L242.48697,81.864494 L247.65901,79.33873 L247.65901,79.33873 M251.98865,80.56675 L252.7384,76.85822 L257.5364,74.51512 L252.7384,76.85822 L251.98865,80.56675 M252.7384,76.85822 L261.56845,79.289185 L259.51535,88.59623 L259.51535,88.59623 L260.85858,87.86214 L259.51535,88.59623 L255.39664,87.37723 L259.51535,88.59623 L261.56845,79.289185 M266.29227,76.85822 L266.29227,76.85822 L257.5364,74.51512 M256.56412,81.864494 L256.56412,81.864494 L251.46483,84.48868 M254.5656,91.30128 L254.5656,91.30128 L254.5656,91.30128 M250.10237,93.74044 L249.52554,94.05567 L250.10237,93.74044 M254.44316,99.50649 L252.23323,109.780014 L252.23323,109.780014 L252.23323,109.780014 L246.48256,113.29467 L248.61424,102.87182 L238.52194,99.50649 L237.55898,104.788345 M237.55898,104.788345 L238.52194,99.50649 M238.84764,99.329155 L240.53325,90.11425 L238.84764,99.329155 M242.3973,106.46118 L236.0175,110.144554 M236.6489,109.780014 L236.6489,109.780014 M241.42685,111.4877 L246.48256,113.29467 L248.61424,102.87182 M248.19221,103.11548 L248.19221,103.11548 M252.23323,109.780014 L246.48256,113.29467 L241.42685,111.4877 M240.35495,117.03968 L234.07321,120.87891 L228.42067,118.708435 L234.07321,120.87891 M235.11978,115.10082 L235.11978,115.10082 L235.11978,115.10082 M229.19878,114.08134 L227.36636,124.977936 L220.47646,129.18886 L214.10373,126.54531 L220.47646,129.18886 L227.36636,124.977936 M221.48993,122.63348 L221.48993,122.63348 L221.48993,122.63348 M222.18617,118.13007 L220.47646,129.18886 L222.18617,118.13007 L211.75412,114.08134 M215.08702,107.68165 L215.08702,107.68165 L215.08702,107.68165 M209.39055,98.02706 L210.3555,90.11425 L201.83437,87.27284 L210.3555,90.11425 M207.46834,89.15152 L207.46834,89.15152 L207.46834,89.15152 M205.22519,84.357544 L205.22519,84.357544 L205.22519,84.357544 M201.79953,87.60738 L199.2107,86.742 L201.79953,87.60738 M195.28499,90.17226 L188.5954,93.13375 L188.15298,98.7723 L188.5954,93.13375 L197.20056,96.22051 M200.82397,96.975784 L200.82397,96.975784 M199.32892,102.94064 L192.11984,106.46118 M189.27252,109.780014 L186.59937,111.101105 L189.27252,109.780014 L190.12146,99.50649 L181.48036,96.28358 L181.48036,96.28358 L174.20024,99.50649 L182.87141,102.87182 L182.29977,111.25679 L182.87141,102.87182 L190.12146,99.50649 M186.17978,96.975784 L184.89273,97.556305 L186.17978,96.975784 L186.89905,87.27284 L179.00125,84.542206 L179.00125,84.542206 L172.25656,87.27284 L172.01158,92.75197 L172.25656,87.27284 L180.17775,90.11425 L186.89905,87.27284 L186.89905,87.27284 L186.89905,87.27284 M183.53859,86.04102 L183.53859,86.04102 L183.44661,86.07918 L183.53859,86.04102 L184.15578,76.85822 L176.88411,74.51512 L170.6019,76.85822 L177.89212,79.289185 L184.15578,76.85822 L184.15578,76.85822 M182.79103,76.41847 L183.0623,72.21081 L188.90605,70.03124 L188.90605,70.03124 L183.0623,72.21081 L190.31158,74.469124 L190.31158,74.469124 L189.8635,80.14455 L190.31158,74.469124 L196.1304,72.21081 M195.68591,77.15224 L197.8877,77.84351 L195.68591,77.15224 M191.85387,79.33873 L185.61522,81.864494 L193.48492,84.48868 L192.89943,91.22835 L193.48492,84.48868 M191.57507,82.7073 L191.57507,82.7073 L191.57507,82.7073 M193.0641,89.33278 L193.0641,89.33278 L193.0641,89.33278 M195.0276,92.98497 L195.0276,92.98497 L195.0276,92.98497 M194.81,95.36299 L194.81,95.36299 L194.81,95.36299 M189.25604,92.84128 L186.55775,91.87688 L189.25604,92.84128 M181.48036,96.28358 L174.20024,99.50649 L173.87903,105.95118 L174.20024,99.50649 L182.87141,102.87182 M181.1003,102.18443 L181.1003,102.18443 L181.1003,102.18443 M182.58241,107.11092 L182.58241,107.11092 L182.58241,107.11092 M179.97961,112.38984 L174.93718,110.29812 M174.93718,110.29812 L179.97961,112.38984 M176.51588,114.08134 L186.09308,118.13007 M185.8024,121.89045 L185.8024,121.89045 L185.8024,121.89045 M187.9723,127.03033 L179.32158,131.74057 L190.01488,136.70418 M190.01488,136.70418 L188.96684,148.44664 L197.3714,143.31001 L188.96684,148.44664 L190.01488,136.70418 M198.25607,135.06056 L205.51329,138.33392 L213.10417,133.6946 M206.44748,130.81651 L206.44748,130.81651 L206.44748,130.81651 M206.9294,126.93857 L205.51329,138.33392 L198.25607,135.06056 M198.6121,131.74057 L197.3714,143.31001 M195.55888,130.38892 L196.35268,122.467285 L195.55888,130.38892 M196.35268,122.467285 L206.9294,126.93857 L214.67389,122.467285 M199.77754,120.60248 L193.59138,118.036316 L199.77754,120.60248 M201.13576,114.51297 L201.13576,114.51297 L201.13576,114.51297 M201.48463,103.74467 L202.75777,103.11548 L201.48463,103.74467 M209.74771,95.098175 L209.74771,95.098175 L209.74771,95.098175 M227.31792,87.08339 L231.24168,88.31529 L227.31792,87.08339 M231.41217,87.27284 L230.66447,91.84444 L231.41217,87.27284 L240.53325,90.11425 M237.3068,86.04102 L237.3068,86.04102 L237.3068,86.04102 M236.69025,86.345726 L236.69025,86.345726 L236.69025,86.345726 M237.00375,84.542206 L231.41217,87.27284 M237.5407,84.7042 L238.91344,76.85822 L233.67635,79.289185 M231.36685,76.594154 L231.36685,76.594154 L231.36685,76.594154 M231.6541,74.799255 L232.76057,67.885 L232.76057,67.885 M235.85744,72.21081 L244.06038,74.469124 M240.78078,70.03124 L235.85744,72.21081 M238.91344,76.85822 L238.91344,76.85822 L230.65231,74.51512 M237.97514,82.22103 L242.19203,83.469086 L237.97514,82.22103 M243.04947,79.95645 L243.04947,79.95645 L243.04947,79.95645 M260.3245,84.92825 L260.3245,84.92825 L260.3245,84.92825 M260.99,87.27284 L266.005,84.542206 L266.005,84.542206 M274.20142,92.94283 L277.96143,94.05567 M188.61082,73.93929 L188.61082,73.93929 L188.61082,73.93929 M186.94789,74.40887 L186.94789,74.40887 M183.00049,73.16954 L181.49634,72.697296 L183.00049,73.16954 M183.0623,72.21081 L182.79103,76.41847 M181.29716,75.93712 L181.79218,67.885 L181.79218,67.885 L175.05504,65.852425 L175.05504,65.852425 L169.17624,67.885 L175.92833,69.98843 L175.6778,74.96504 L175.92833,69.98843 L169.17624,67.885 L169.02429,71.982506 L169.17624,67.885 L175.05504,65.852425 M174.02388,66.20895 L174.22287,61.91119 L179.73453,60.073303 L173.459,58.293377 L167.9351,60.073303 L174.22287,61.91119 L167.9351,60.073303 L167.81233,63.667313 L167.9351,60.073303 L173.459,58.293377 L173.459,58.293377 L173.459,58.293377 M172.5672,58.580738 L172.72794,54.830948 L166.84488,53.211315 L172.05412,51.639698 L177.92703,53.211315 L172.05412,51.639698 M172.05412,51.639698 L166.84488,53.211315 L166.74423,56.388866 L166.84488,53.211315 L172.72794,54.830948 L177.92703,53.211315 L177.92703,53.211315 L177.92703,53.211315 L177.59853,59.46747 M178.7386,59.79083 L178.91675,56.53476 L184.10233,54.863846 L184.10233,54.863846 L190.3463,56.53476 L189.857,62.94434 M189.72977,64.61087 L189.72977,64.61087 L189.72977,64.61087 M187.5699,65.81247 L180.85089,63.84853 L180.63266,67.53518 L180.85089,63.84853 L187.5699,65.81247 M181.79218,67.885 L175.92833,69.98843 M174.87134,69.65915 L174.87134,69.65915 L174.87134,69.65915 M174.02388,66.20895 L174.22287,61.91119 M173.30977,61.64429 L173.30977,61.64429 L173.30977,61.64429 M172.52101,59.658134 L172.52101,59.658134 L172.52101,59.658134 M172.5672,58.580738 L172.72794,54.830948 M167.2586,56.53476 L161.36745,54.863846 L155.82907,56.53476 L161.7258,58.25835 L167.2586,56.53476 L161.36745,54.863846 M161.36745,54.863846 L155.82907,56.53476 L161.7258,58.25835 L161.64026,62.101658 L161.7258,58.25835 M160.95395,54.988594 L161.02379,51.60874 L155.48518,50.083935 L155.45337,53.18644 L155.48518,50.083935 L160.70648,48.60302 L166.24045,50.083935 L166.24045,50.083935 L161.02379,51.60874 L155.48518,50.083935 L160.70648,48.60302 M161.02379,51.60874 L160.95395,54.988594 M166.05498,56.19337 L166.24045,50.083935 M167.2586,56.53476 L167.03337,63.432304 M166.99489,64.61087 L166.99489,64.61087 M168.41298,63.84853 L162.11539,61.94856 L156.21895,63.84853 L156.17131,67.840965 L156.21895,63.84853 L162.5233,65.81247 L168.41298,63.84853 L168.41298,63.84853 L168.13573,71.69619 M169.73283,72.21081 L169.38882,81.15125 L169.29633,81.18677 L169.38882,81.15125 M170.4108,81.57208 L170.6019,76.85822 L170.4108,81.57208 M171.25652,81.864494 L171.25652,81.864494 L171.25652,81.864494 L170.85786,91.30128 L169.56262,91.83857 L170.85786,91.30128 M173.03519,93.13375 L173.03519,93.13375 L165.73352,96.22051 L157.7801,93.13375 L165.095,90.17226 L165.095,90.17226 L173.03519,93.13375 L172.56776,103.11548 L169.87491,104.330086 L172.56776,103.11548 M172.83704,97.365265 L176.1572,98.640144 L172.83704,97.365265 M179.755,97.04739 L180.17775,90.11425 L180.17775,90.11425 L172.25656,87.27284 L179.00125,84.542206 L179.00125,84.542206 M177.57047,85.121475 L177.89212,79.289185 L170.6019,76.85822 L176.88411,74.51512 M175.68661,74.78997 L175.68661,74.78997 L175.68661,74.78997 M177.89212,79.289185 L177.57047,85.121475 M178.80052,88.006485 L178.80052,88.006485 L178.80052,88.006485 M178.70891,89.587364 L178.70891,89.587364 L178.70891,89.587364 M179.90115,94.65048 L179.90115,94.65048 L179.90115,94.65048 M183.53859,86.04102 L183.53859,86.04102 M185.59221,82.18962 L183.83688,81.60285 L185.59221,82.18962 M172.92218,87.003365 L171.06743,86.34046 L172.92218,87.003365 M171.25652,81.864494 L163.9513,79.33873 L157.17935,81.864494 L157.10335,87.191574 L157.17935,81.864494 L164.49498,84.48868 L164.32132,90.48549 L164.49498,84.48868 L171.25652,81.864494 M170.58908,77.17439 L169.55515,76.828766 L170.58908,77.17439 M169.73283,72.21081 L163.4372,74.469124 L156.66473,72.21081 L156.6051,76.79881 L156.66473,72.21081 L162.96869,70.03124 L156.66473,72.21081 L163.4372,74.469124 L163.30267,79.58065 L163.4372,74.469124 M162.86337,74.21321 L162.86337,74.21321 L162.86337,74.21321 M162.41049,70.48982 L162.41049,70.48982 M162.41695,70.222 L162.5233,65.81247 L156.21895,63.84853 L162.11539,61.94856 M162.11539,61.94856 L168.41298,63.84853 M167.88715,61.47724 L167.10478,61.245686 M167.10478,61.245686 L167.88715,61.47724 M166.00671,57.783295 L166.00671,57.783295 M161.62086,62.972935 L161.62086,62.972935 M162.5233,65.81247 L162.41695,70.222 M162.96869,70.03124 L169.73283,72.21081 M169.14162,68.81843 L168.24731,68.53765 L169.14162,68.81843 M179.33408,67.1434 L179.73453,60.073303 M178.7386,59.79083 L178.91675,56.53476 L185.17741,58.25835 L178.91675,56.53476 L184.10233,54.863846 M185.17741,58.25835 L190.3463,56.53476 L190.3463,56.53476 M180.76563,65.28886 L179.46098,64.902725 L180.76563,65.28886 M177.51306,61.09486 L177.51306,61.09486 L177.51306,61.09486 M156.2081,64.757835 L155.84833,64.64488 M155.84833,64.64488 L156.2081,64.757835 M155.8137,67.72574 L155.8997,60.073303 L155.8997,60.073303 L150,58.293377 L144.1003,60.073303 L144.1863,67.72574 L144.1003,60.073303 L150,61.91119 L155.8997,60.073303 L150,58.293377 M150,58.293377 L144.1003,60.073303 L150,61.91119 L150,65.852425 L150,61.91119 M150,59.431046 L150,59.431046 L150,59.431046 M150,58.293377 L150,54.830948 L150,58.293377 M150,54.830948 L155.54108,53.211315 L150,51.639698 M150,51.639698 L144.45892,53.211315 L144.52907,59.943943 M144.52907,59.943943 L144.45892,53.211315 L150,51.639698 L155.54108,53.211315 L155.54108,53.211315 L155.47093,59.943943 M155.7904,60.04033 L155.82907,56.53476 L155.7904,60.04033 M155.81396,57.90397 L155.49318,57.809025 M155.49318,57.809025 L155.81396,57.90397 M155.16559,53.104813 L155.22356,47.135765 L150,48.573833 L150,51.639698 L150,48.573833 L144.77644,47.135765 L144.83441,53.104813 L144.77644,47.135765 L150,45.73792 L155.22356,47.135765 L150,45.73792 M150,45.73792 L144.77644,47.135765 L150,48.573833 M150,48.573833 L150,48.573833 L150,48.573833 M144.51482,50.083935 L144.51482,50.083935 L144.54663,53.18644 M144.45892,53.211315 L150,54.830948 L144.45892,53.211315 M144.51482,50.083935 L144.51482,50.083935 M144.51482,50.083935 L138.97621,51.60874 L133.75955,50.083935 L139.29352,48.60302 L144.51482,50.083935 M139.29352,48.60302 L133.75955,50.083935 L138.97621,51.60874 L139.04605,54.988594 L138.97621,51.60874 M138.63255,54.863846 L132.7414,56.53476 L138.2742,58.25835 L144.17093,56.53476 L144.2096,60.04033 M144.18604,57.90397 L144.50682,57.809025 L144.18604,57.90397 M144.17093,56.53476 L138.63255,54.863846 L132.7414,56.53476 L132.96663,63.432304 L132.7414,56.53476 L138.2742,58.25835 L138.35974,62.101658 L138.2742,58.25835 M139.0736,56.321167 L139.0736,56.321167 M133.94502,56.19337 L133.75955,50.083935 L133.94502,56.19337 M133.25577,56.388866 L133.15512,53.211315 L127.94588,51.639698 L122.07296,53.211315 L127.272064,54.830948 L127.4328,58.580738 L127.272064,54.830948 L133.15512,53.211315 L133.15512,53.211315 M127.94588,51.639698 L122.07296,53.211315 L122.401474,59.46747 L122.07296,53.211315 L127.272064,54.830948 M126.541,58.293377 L120.26547,60.073303 L120.665924,67.1434 L120.26547,60.073303 L126.541,58.293377 L132.0649,60.073303 L132.0649,60.073303 L125.77712,61.91119 L120.26547,60.073303 L125.77712,61.91119 L125.97613,66.20895 L125.77712,61.91119 M126.69023,61.64429 L126.69023,61.64429 L126.69023,61.64429 M124.94496,65.852425 L118.207825,67.885 L124.07168,69.98843 L130.82376,67.885 L124.94496,65.852425 L118.207825,67.885 L118.70283,75.93712 L118.207825,67.885 L124.07168,69.98843 L124.322205,74.96504 M123.1159,74.51512 L115.84423,76.85822 L123.1159,74.51512 L129.3981,76.85822 L129.5892,81.57208 M128.74348,81.864494 L129.14214,91.30128 L130.43738,91.83857 M130.43738,91.83857 L129.14214,91.30128 L128.74348,81.864494 L136.0487,79.33873 L136.0487,79.33873 L142.82065,81.864494 L135.50502,84.48868 L128.74348,81.864494 L136.0487,79.33873 M136.69733,79.58065 L136.5628,74.469124 L136.69733,79.58065 M135.50502,84.48868 L128.74348,81.864494 M130.61118,81.15125 L130.26717,72.21081 L137.03131,70.03124 L143.33527,72.21081 L136.5628,74.469124 L130.26717,72.21081 L130.61118,81.15125 L130.70367,81.18677 L130.61118,81.15125 M129.41092,77.17439 L130.44485,76.828766 L129.41092,77.17439 M129.3981,76.85822 L122.10789,79.289185 L122.429535,85.121475 L122.10789,79.289185 L115.84423,76.85822 L122.10789,79.289185 M123.31788,78.350746 L123.31788,78.350746 L123.31788,78.350746 M122.36768,83.99998 L122.36768,83.99998 M120.99875,84.542206 L113.10096,87.27284 L119.82225,90.11425 L120.244995,97.04739 L119.82225,90.11425 L113.10096,87.27284 L113.82022,96.975784 L115.10728,97.556305 L113.82022,96.975784 L113.10096,87.27284 L120.99875,84.542206 L127.74343,87.27284 L127.98842,92.75197 M126.964806,93.13375 L134.905,90.17226 L134.905,90.17226 L142.2199,93.13375 L142.2199,93.13375 M142.2199,93.13375 L142.31891,99.39333 M142.0394,99.50649 L150,102.87182 L157.9606,99.50649 L157.9606,99.50649 L157.79216,109.780014 L153.44023,111.74295 L157.79216,109.780014 M158.72234,114.08134 L150,110.219955 L141.27766,114.08134 L141.47948,124.977936 L147.80315,128.10315 M147.80315,128.10315 L141.47948,124.977936 L141.27766,114.08134 L150,118.13007 L150,127.03033 L150,118.13007 L141.27766,114.08134 L150,110.219955 M150,110.219955 L150,102.87182 L150,110.219955 M146.55977,111.74295 L142.20784,109.780014 L142.0394,99.50649 L150,96.28358 L142.0394,99.50649 L142.20784,109.780014 L146.55977,111.74295 M141.64177,113.92015 L141.50945,106.46118 L132.7965,110.144554 L124.86128,106.46118 L133.55702,102.94064 L141.50945,106.46118 M142.10045,103.230515 L138.02791,104.9199 L142.10045,103.230515 M145.52261,98.09628 L142.82147,96.975784 L142.67876,87.27284 L150,84.542206 L157.32124,87.27284 L150,84.542206 L150,84.542206 L142.67876,87.27284 L150,90.11425 L150,96.28358 L150,90.11425 L157.32124,87.27284 L157.17853,96.975784 L154.47739,98.09628 L157.17853,96.975784 M157.68109,99.39333 L157.7801,93.13375 L165.095,90.17226 M164.36731,88.897484 L164.36731,88.897484 L164.36731,88.897484 M164.49498,84.48868 L157.17935,81.864494 L163.9513,79.33873 L163.9513,79.33873 M163.31656,79.05284 L163.31656,79.05284 L163.31656,79.05284 M157.8472,81.6154 L156.71887,81.21213 L157.8472,81.6154 M156.65448,86.04102 L155.35568,86.53974 L156.65448,86.04102 L156.77693,76.85822 L150,74.51512 M150,74.51512 L143.22307,76.85822 L143.34552,86.04102 L144.64432,86.53974 M144.64432,86.53974 L143.34552,86.04102 L143.22307,76.85822 L150,79.289185 L150,84.542206 L150,79.289185 L156.77693,76.85822 L150,74.51512 L143.22307,76.85822 L143.22307,76.85822 M143.3949,76.79881 L143.33527,72.21081 L143.33527,72.21081 M143.33926,72.51844 L143.74689,72.38218 L143.33926,72.51844 M143.88232,72.33691 L143.88232,72.33691 M143.79826,76.594154 L143.89098,76.6273 L143.79826,76.594154 L143.69203,67.885 L150,69.98843 L150,74.51512 L150,69.98843 L156.30797,67.885 L156.20174,76.594154 L156.10902,76.6273 L156.20174,76.594154 L156.20174,76.594154 M156.77693,76.85822 L156.77693,76.85822 M156.66074,72.51844 L156.25311,72.38218 L156.66074,72.51844 M156.11768,72.33691 L156.11768,72.33691 M156.30797,67.885 L150,65.852425 M150,65.852425 L156.30797,67.885 M150,65.852425 L143.69203,67.885 L143.79826,76.594154 M143.28113,81.21213 L142.1528,81.6154 L143.28113,81.21213 M142.82065,81.864494 L142.89665,87.191574 M142.67876,87.27284 L142.82147,96.975784 L145.52261,98.09628 M150,96.28358 L157.9606,99.50649 M157.68109,99.39333 L157.7801,93.13375 L165.73352,96.22051 L165.50385,103.35639 L165.73352,96.22051 M165.60106,100.33604 L165.60106,100.33604 L165.60106,100.33604 M161.97209,104.9199 L157.89955,103.230515 M157.89955,103.230515 L161.97209,104.9199 M158.72234,114.08134 L150,118.13007 M150,118.13007 L150,118.13007 L150,118.13007 M150,120.957466 L150,120.957466 M150,127.03033 L140.35474,131.74057 L140.6009,143.31001 L140.35474,131.74057 L150,136.70418 L140.35474,131.74057 L150,127.03033 L159.64526,131.74057 M159.16129,131.50421 L159.34383,122.467285 L159.16129,131.50421 M159.59862,133.93259 L167.82713,137.99919 M167.82713,137.99919 L159.59862,133.93259 M160.38774,142.04988 L171.15686,147.59186 M169.57292,146.77673 L169.57292,146.77673 M168.53424,137.61418 L168.97647,126.93857 M164.62177,119.88982 L158.66452,117.2028 L164.62177,119.88982 M158.52052,124.977936 L158.72234,114.08134 L158.72234,114.08134 M158.52052,124.977936 L152.19685,128.10315 L158.52052,124.977936 M150,136.70418 L150,147.70592 M149.32104,148.07559 L140.6009,143.31001 L149.32104,148.07559 M139.87418,153.21933 L139.61226,142.04988 L139.61226,142.04988 M139.61226,142.04988 L128.84314,147.59186 L119.244156,142.04988 L129.9818,136.80618 L119.244156,142.04988 L120.07179,153.97081 L129.4282,159.68918 M129.4282,159.68918 L128.84314,147.59186 L129.4282,159.68918 L139.2322,154.33128 L129.4282,159.68918 L120.07179,153.97081 L119.244156,142.04988 L128.84314,147.59186 M130.42708,146.77673 L130.42708,146.77673 L130.42708,146.77673 M132.17287,137.99919 L140.40138,133.93259 L132.17287,137.99919 M131.46576,137.61418 L131.02353,126.93857 L122.33496,122.467285 L131.9447,118.21305 L140.65617,122.467285 L140.65617,122.467285 M140.65617,122.467285 L140.83871,131.50421 M140.65617,122.467285 L131.02353,126.93857 L131.46576,137.61418 M130.01385,137.52417 L130.01385,137.52417 M129.9818,136.80618 L139.61226,142.04988 L129.9818,136.80618 M129.30492,137.13673 L123.00643,133.6946 L129.30492,137.13673 M123.00643,133.6946 L123.00643,133.6946 L122.33496,122.467285 L131.9447,118.21305 M133.10939,118.78183 L132.7965,110.144554 L124.86128,106.46118 L125.41694,117.03968 L129.75377,119.18298 M129.75377,119.18298 L125.41694,117.03968 L124.86128,106.46118 L133.55702,102.94064 M134.49615,103.35639 L134.26648,96.22051 L134.49615,103.35639 M133.65878,105.92396 L133.65878,105.92396 M130.12509,104.330086 L127.43223,103.11548 L130.12509,104.330086 M127.43223,103.11548 L126.964806,93.13375 L134.905,90.17226 M135.67868,90.48549 L135.50502,84.48868 L135.67868,90.48549 M135.01373,93.73695 L135.01373,93.73695 M134.26648,96.22051 L126.964806,93.13375 L127.43223,103.11548 M126.12097,105.95118 L125.79976,99.50649 L118.519646,96.28358 L109.87854,99.50649 L117.128586,102.87182 L117.70022,111.25679 L117.128586,102.87182 L109.87854,99.50649 L110.72748,109.780014 L113.40063,111.101105 L110.72748,109.780014 L110.72748,109.780014 L109.87854,99.50649 L118.519646,96.28358 M120.09885,94.65048 L120.09885,94.65048 M119.82225,90.11425 L127.74343,87.27284 M127.07783,87.003365 L128.93257,86.34046 L127.07783,87.003365 M126.964806,93.13375 L134.26648,96.22051 L142.2199,93.13375 M142.73923,91.38424 L140.25487,92.33819 L142.73923,91.38424 M142.67876,87.27284 L150,90.11425 M150,94.11183 L150,94.11183 L150,94.11183 M157.26077,91.38424 L159.74513,92.33819 L157.26077,91.38424 M150,83.576515 L150,83.576515 M143.34552,86.04102 L143.34552,86.04102 M142.82065,81.864494 L142.82065,81.864494 M137.13824,74.277245 L137.13824,74.277245 L137.13824,74.277245 M137.13663,74.21321 L137.13663,74.21321 L137.13663,74.21321 M137.58305,70.222 L137.4767,65.81247 L131.58702,63.84853 L137.88461,61.94856 L131.58702,63.84853 L131.86427,71.69619 L131.58702,63.84853 L137.4767,65.81247 L143.78105,63.84853 L143.78105,63.84853 L137.88461,61.94856 M138.37914,62.972935 L138.37914,62.972935 M137.4767,65.81247 L137.58305,70.222 M137.03131,70.03124 L130.26717,72.21081 M130.97571,71.982506 L130.82376,67.885 M130.85838,68.81843 L131.75269,68.53765 L130.85838,68.81843 M132.34769,68.350845 L132.34769,68.350845 L132.34769,68.350845 M132.18767,63.667313 L132.0649,60.073303 M132.11285,61.47724 L132.89522,61.245686 L132.11285,61.47724 M133.40482,61.09486 L133.40482,61.09486 L133.40482,61.09486 M137.98483,66.27548 L137.98483,66.27548 M143.69203,67.885 L150,65.852425 M150,69.98843 L150,69.98843 L150,69.98843 M150,69.98843 L143.69203,67.885 M143.82869,67.840965 L143.78105,63.84853 M144.15167,64.64488 L143.7919,64.757835 L144.15167,64.64488 M150,74.451004 L150,74.451004 M126.00098,66.745636 L126.00098,66.745636 M125.12866,69.65915 L125.12866,69.65915 L125.12866,69.65915 M124.07168,69.98843 L124.07168,69.98843 M119.36734,67.53518 L119.14912,63.84853 L119.14912,63.84853 L113.653854,61.94856 L106.95509,63.84853 L107.553925,71.09926 L106.95509,63.84853 L112.4301,65.81247 L119.14912,63.84853 M119.234375,65.28886 L120.53902,64.902725 L119.234375,65.28886 M121.52512,64.61087 L121.52512,64.61087 M121.261406,59.79083 L121.08325,56.53476 L114.82259,58.25835 L115.10246,62.44941 L114.82259,58.25835 L109.6537,56.53476 L110.14301,62.94434 L109.6537,56.53476 L115.89768,54.863846 L121.08325,56.53476 M115.89768,54.863846 L109.6537,56.53476 L114.82259,58.25835 M113.653854,61.94856 L106.95509,63.84853 L112.4301,65.81247 L112.780876,70.66042 L112.4301,65.81247 M113.92972,65.91881 L113.92972,65.91881 L113.92972,65.91881 M115.15296,63.205605 L115.15296,63.205605 M110.27023,64.61087 L110.27023,64.61087 M108.49568,63.41157 L108.23007,60.073303 L101.554245,61.91119 L96.43066,60.073303 L103.082,58.293377 L103.082,58.293377 L108.23007,60.073303 M103.35996,61.41407 L103.35996,61.41407 L103.35996,61.41407 M101.554245,61.91119 L101.99184,66.63638 M102.02404,66.984146 L102.02404,66.984146 M99.88992,65.852425 L92.723625,67.885 L93.547615,75.32493 L92.723625,67.885 L98.14335,69.98843 L98.6997,75.514275 L98.14335,69.98843 L105.33957,67.885 L99.88992,65.852425 L92.723625,67.885 L98.14335,69.98843 M100.24097,69.48961 L100.24097,69.48961 L100.24097,69.48961 M100.23024,69.37843 L100.23024,69.37843 L100.23024,69.37843 M97.10108,66.643425 L96.43066,60.073303 L97.10108,66.643425 M94.88172,67.2729 L94.51719,63.84853 L94.51719,63.84853 L87.38349,65.81247 L82.32316,63.84853 L83.19811,70.58672 L82.32316,63.84853 L89.42309,61.94856 L94.51719,63.84853 M96.43066,60.073303 L101.554245,61.91119 M103.082,58.293377 L96.43066,60.073303 M89.42309,61.94856 L82.32316,63.84853 L87.38349,65.81247 L88.03268,71.19565 L87.38349,65.81247 M89.7937,65.148926 L89.7937,65.148926 L89.7937,65.148926 M90.39385,70.33135 L90.39385,70.33135 M90.54014,72.21081 L90.99064,76.09637 M90.716194,73.72932 L93.28664,72.96855 L90.716194,73.72932 M90.54014,72.21081 L90.54014,72.21081 L82.81402,74.469124 L77.47203,72.21081 L77.47203,72.21081 L85.156586,70.03124 L85.156586,70.03124 L90.54014,72.21081 M88.46539,76.85822 L96.23179,74.51512 L102.01927,76.85822 L102.01927,76.85822 L102.42745,81.18143 M100.30761,81.864494 L101.23956,91.30128 L101.33068,91.34238 L101.23956,91.30128 L100.30761,81.864494 L108.14614,79.33873 L114.38477,81.864494 L114.72777,86.71038 M116.46142,86.04102 L115.84423,76.85822 L116.46142,86.04102 L116.55339,86.07918 L116.46142,86.04102 M114.40779,82.18962 L116.16312,81.60285 L114.40779,82.18962 M114.38477,81.864494 L106.515076,84.48868 L107.10058,91.22835 L106.515076,84.48868 L100.30761,81.864494 L106.515076,84.48868 M104.613174,80.477135 L103.8696,72.21081 L109.688416,74.469124 L103.8696,72.21081 L111.09395,70.03124 L116.9377,72.21081 L109.688416,74.469124 L110.136505,80.14455 L109.688416,74.469124 M111.09395,70.03124 L103.8696,72.21081 L104.613174,80.477135 M104.314095,77.15224 L102.1123,77.84351 L104.314095,77.15224 M102.01927,76.85822 L94.215775,79.289185 L94.9388,85.84432 L94.215775,79.289185 L88.46539,76.85822 L96.23179,74.51512 M98.65598,75.08003 L98.65598,75.08003 M100.30761,81.864494 L108.14614,79.33873 M110.07779,79.400894 L110.07779,79.400894 M117.20897,76.41847 L116.9377,72.21081 L116.9377,72.21081 M116.99951,73.16954 L118.50366,72.697296 L116.99951,73.16954 M112.78899,70.77248 L112.78899,70.77248 M108.88868,68.350845 L108.88868,68.350845 L108.88868,68.350845 M107.3642,68.80205 L105.46725,69.36348 L107.3642,68.80205 M105.33957,67.885 L105.66632,71.66875 M100.7893,86.742 L98.20046,87.60738 L100.7893,86.742 M98.16563,87.27284 L98.68467,92.257225 M96.14951,93.13375 L102.79944,96.22051 L103.58578,104.36403 L102.79944,96.22051 L111.40461,93.13375 L111.40461,93.13375 L111.84701,98.7723 M110.23861,103.86392 L105.940926,105.51416 L110.23861,103.86392 M107.88016,106.46118 L107.88016,106.46118 L100.67108,102.94064 L91.231995,106.46118 L98.3895,110.144554 L99.48223,120.19943 M100.22246,120.60248 L106.40861,118.036316 L100.22246,120.60248 M103.64732,122.467285 L103.64732,122.467285 L95.83409,118.21305 L85.3261,122.467285 L86.89582,133.6946 L85.3261,122.467285 L93.070595,126.93857 L103.64732,122.467285 L104.44112,130.38892 M101.3879,131.74057 L102.6286,143.31001 L111.03316,148.44664 L109.98513,136.70418 L111.03316,148.44664 L102.6286,143.31001 L101.3879,131.74057 L112.027695,127.03033 L120.67841,131.74057 L109.98513,136.70418 L101.3879,131.74057 L112.027695,127.03033 L112.027695,127.03033 M112.08539,127.72621 L112.08539,127.72621 L112.08539,127.72621 M111.35609,127.327644 L107.05656,124.977936 L106.039444,114.08134 L115.57708,110.219955 L123.48411,114.08134 L123.48411,114.08134 L113.90691,118.13007 L106.039444,114.08134 L107.05656,124.977936 L111.35609,127.327644 M114.70772,128.48958 L113.90691,118.13007 L114.70772,128.48958 M115.43463,128.88538 L122.52747,125.68615 L115.43463,128.88538 M120.67841,131.74057 L121.28093,141.05524 M119.401146,144.31111 L111.03316,148.44664 L119.401146,144.31111 M110.253586,139.71211 L110.253586,139.71211 M109.98513,136.70418 L101.3879,131.74057 M101.743935,135.06056 L94.48672,138.33392 L93.070595,126.93857 L85.3261,122.467285 L95.83409,118.21305 M95.91236,118.88761 L95.91236,118.88761 L95.91236,118.88761 M95.170006,118.48191 L92.53099,117.03968 L91.231995,106.46118 L92.53099,117.03968 L95.170006,118.48191 M98.86424,114.51297 L98.86424,114.51297 M98.3895,110.144554 L107.88016,106.46118 L108.4644,113.09958 M106.039444,114.08134 L115.57708,110.219955 M120.020386,112.38984 L125.06282,110.29812 L120.020386,112.38984 M123.48411,114.08134 L123.916824,121.767 M122.33496,122.467285 L123.00643,133.6946 M112.724304,135.43271 L112.724304,135.43271 L112.724304,135.43271 M101.743935,135.06056 L94.48672,138.33392 L93.070595,126.93857 M93.55251,130.81651 L93.55251,130.81651 M86.89582,133.6946 L94.48672,138.33392 L86.89582,133.6946 M85.89626,126.54531 L79.52355,129.18886 L72.63363,124.977936 L70.801216,114.08134 L81.15416,110.219955 L70.801216,114.08134 L77.81383,118.13007 L79.52355,129.18886 L85.89626,126.54531 M89.14286,120.92205 L88.24588,114.08134 L77.81383,118.13007 L70.801216,114.08134 L72.63363,124.977936 L72.63363,124.977936 L79.52355,129.18886 L77.81383,118.13007 M82.06201,116.48133 L82.06201,116.48133 L82.06201,116.48133 M85.58826,112.634285 L84.25717,102.87182 L93.63891,99.50649 L94.31282,105.31211 M91.231995,106.46118 L100.67108,102.94064 M100.87254,104.909615 L100.87254,104.909615 L100.87254,104.909615 M98.515366,103.74467 L97.24223,103.11548 L97.24223,103.11548 L96.14951,93.13375 L104.715004,90.17226 L111.40461,93.13375 M110.74395,92.84128 L113.442245,91.87688 L110.74395,92.84128 M104.9724,92.98497 L104.9724,92.98497 L104.9724,92.98497 M105.19,95.36299 L105.19,95.36299 L105.19,95.36299 M102.79944,96.22051 L96.14951,93.13375 L104.715004,90.17226 M98.16563,87.27284 L98.16563,87.27284 L91.9975,84.542206 L83.52315,87.27284 L89.6445,90.11425 L90.60945,98.02706 L89.6445,90.11425 L83.52315,87.27284 L84.81897,96.975784 L84.90881,97.02019 L84.81897,96.975784 L84.81897,96.975784 L83.52315,87.27284 L91.9975,84.542206 L91.9975,84.542206 M89.49352,85.349045 L88.46539,76.85822 L89.49352,85.349045 M89.57731,86.04102 L89.57731,86.04102 M86.51465,86.308914 L85.948906,81.864494 L80.24356,79.33873 L71.87174,81.864494 L80.24356,79.33873 M78.55227,79.84899 L77.47203,72.21081 L78.55227,79.84899 M78.21026,77.43067 L74.87185,78.41873 L78.21026,77.43067 M74.640434,76.85822 L74.640434,76.85822 L69.34769,74.51512 L61.08656,76.85822 L62.459312,84.7042 L61.08656,76.85822 L66.32366,79.289185 L67.56163,86.771706 L66.32366,79.289185 L74.640434,76.85822 L75.23247,80.85057 M71.87174,81.864494 L77.52512,84.48868 L78.63893,92.18128 L77.52512,84.48868 L85.948906,81.864494 M86.07787,82.87766 L89.08013,81.935074 L86.07787,82.87766 M83.65345,80.84829 L82.81402,74.469124 L83.65345,80.84829 M83.502174,79.698715 L83.502174,79.698715 M80.812675,83.46454 L80.812675,83.46454 L80.812675,83.46454 M76.00217,86.04102 L76.00217,86.04102 M72.682076,87.08339 L68.758316,88.31529 L72.682076,87.08339 M74.52501,90.17226 L80.58932,93.13375 L71.3324,96.22051 L65.33422,93.13375 L74.52501,90.17226 L74.52501,90.17226 L65.33422,93.13375 L67.05224,103.11548 L67.14029,103.1636 L67.05224,103.11548 L65.33422,93.13375 L71.3324,96.22051 L72.858444,105.70301 L71.3324,96.22051 M75.24831,94.914734 L75.24831,94.914734 L75.24831,94.914734 M74.80808,92.028305 L74.80808,92.028305 L74.80808,92.028305 M73.33698,91.30128 L73.33698,91.30128 M73.22664,90.59062 L71.87174,81.864494 L73.22664,90.59062 M69.335526,91.84444 L68.58782,87.27284 L59.466755,90.11425 L53.945347,87.27284 L55.698845,96.359764 L53.945347,87.27284 L62.996246,84.542206 L62.996246,84.542206 L62.996246,84.542206 L68.58782,87.27284 M63.309757,86.345726 L63.309757,86.345726 L63.309757,86.345726 M62.996246,84.542206 L53.945347,87.27284 L59.466755,90.11425 L61.15236,99.329155 L59.466755,90.11425 M58.26744,85.96888 L57.513035,81.864494 L57.513035,81.864494 L48.53518,84.48868 L43.43587,81.864494 L48.53518,84.48868 L50.474453,94.05567 L48.53518,84.48868 M49.118065,86.04102 L49.118065,86.04102 L49.118065,86.04102 M49.655346,90.01479 L49.655346,90.01479 M49.77402,93.13375 L39.865356,96.22051 L42.146477,106.34505 L46.700417,104.82276 L42.146477,106.34505 L39.865356,96.22051 L34.51893,93.13375 L44.335014,90.17226 L49.77402,93.13375 L49.77402,93.13375 L50.732655,97.83872 M50.474453,94.05567 L54.98119,92.64075 L50.474453,94.05567 L49.897636,93.74044 L50.474453,94.05567 M45.267136,94.53774 L45.267136,94.53774 L45.267136,94.53774 M45.307438,90.70174 L43.43587,81.864494 L52.34099,79.33873 L43.43587,81.864494 L45.307438,90.70174 M44.335014,90.17226 L34.51893,93.13375 L36.862244,103.11548 L42.146477,106.34505 L36.862244,103.11548 L34.51893,93.13375 L39.865356,96.22051 M35.81578,98.65789 L31.68878,99.9536 L35.81578,98.65789 M31.68878,99.9536 L26.816467,96.975784 L24.36754,87.27284 L29.289007,90.11425 L31.68878,99.9536 L26.816467,96.975784 L26.816467,96.975784 L24.36754,87.27284 L33.994995,84.542206 L39.010017,87.27284 L39.9514,91.49478 M40.484665,88.59623 L44.603367,87.37723 L40.484665,88.59623 L38.43155,79.289185 L47.261604,76.85822 L42.46358,74.51512 L33.707726,76.85822 L38.43155,79.289185 L33.707726,76.85822 L35.675507,85.45723 L33.707726,76.85822 L42.46358,74.51512 M47.261604,76.85822 L48.011345,80.56675 M52.34099,79.33873 L57.513035,81.864494 L57.513035,81.864494 M57.281178,81.75127 L55.93963,74.469124 L64.14257,72.21081 L59.21922,70.03124 L51.074467,72.21081 L52.460724,79.39721 L51.074467,72.21081 L59.21922,70.03124 M59.81349,73.402626 L59.81349,73.402626 L59.81349,73.402626 M61.08656,76.85822 L61.08656,76.85822 L69.34769,74.51512 M68.3459,74.799255 L67.23942,67.885 L74.834885,65.852425 L79.85536,67.885 L72.21503,69.98843 L73.153076,76.19977 L72.21503,69.98843 L67.23942,67.885 L72.21503,69.98843 M75.3103,69.13628 L75.3103,69.13628 L75.3103,69.13628 M74.834885,65.852425 L67.23942,67.885 L68.3459,74.799255 M68.63314,76.594154 L68.63314,76.594154 M64.746826,75.82006 L64.14257,72.21081 M60.774723,78.855835 L60.774723,78.855835 M62.02485,82.22103 L57.80797,83.469086 L62.02485,82.22103 M57.281178,81.75127 L55.93963,74.469124 L51.074467,72.21081 M52.79908,81.15125 L52.79908,81.15125 M56.950527,79.95645 L56.950527,79.95645 M55.55893,96.28358 L61.478054,99.50649 L61.478054,99.50649 L51.385754,102.87182 L45.55684,99.50649 L55.55893,96.28358 L45.55684,99.50649 L47.76676,109.780014 L53.51745,113.29467 L58.573154,111.4877 L53.51745,113.29467 L51.385754,102.87182 L45.55684,99.50649 L47.76676,109.780014 L53.51745,113.29467 L51.385754,102.87182 M52.466465,108.15592 L52.466465,108.15592 M57.602715,106.46118 L59.645046,117.03968 L65.926796,120.87891 L63.9825,110.144554 L65.926796,120.87891 L71.57933,118.708435 L65.926796,120.87891 L59.645046,117.03968 L57.602715,106.46118 L67.78513,102.94064 L57.602715,106.46118 L63.9825,110.144554 L74.25087,106.46118 L67.78513,102.94064 M67.89333,103.57514 L67.89333,103.57514 L67.89333,103.57514 M72.158066,101.35104 L72.158066,101.35104 M73.61126,106.112915 L78.44405,104.38562 L73.61126,106.112915 M74.25087,106.46118 L75.19745,112.44166 M79.247116,109.780014 L79.247116,109.780014 L80.49916,110.46426 L79.247116,109.780014 L77.71769,99.50649 L87.03928,96.28358 L77.71769,99.50649 L79.247116,109.780014 M81.15416,110.219955 L88.24588,114.08134 L88.24588,114.08134 M86.33675,113.04183 L91.783264,110.95046 L86.33675,113.04183 M85.58826,112.634285 L84.25717,102.87182 L77.71769,99.50649 L84.25717,102.87182 M81.31313,98.26338 L80.58932,93.13375 M80.63792,93.47817 L84.19315,92.289734 L80.63792,93.47817 M87.03928,96.28358 L93.63891,99.50649 M92.98661,99.18795 L96.66823,97.87209 L92.98661,99.18795 M90.25228,95.098175 L90.25228,95.098175 M89.6445,90.11425 L98.16563,87.27284 M94.77481,84.357544 L94.77481,84.357544 M91.57673,81.15125 L91.57673,81.15125 M96.14951,93.13375 L97.24223,103.11548 L98.515366,103.74467 M99.176025,96.975784 L99.176025,96.975784 L99.176025,96.975784 M106.039444,114.08134 L113.90691,118.13007 M122.33496,122.467285 L131.02353,126.93857 M135.37823,119.88982 L141.33548,117.2028 L135.37823,119.88982 M133.10939,118.78183 L132.7965,110.144554 M125.79976,99.50649 L117.128586,102.87182 M118.70617,99.17959 L118.70617,99.17959 L118.70617,99.17959 M123.842804,98.640144 L127.16296,97.365265 L123.842804,98.640144 M125.79976,99.50649 L125.79976,99.50649 M121.291084,89.587364 L121.291084,89.587364 L121.291084,89.587364 M85.156586,70.03124 L77.47203,72.21081 M76.079735,74.451004 L76.079735,74.451004 M80.33207,71.39962 L79.85536,67.885 M66.22287,98.29682 L61.54274,99.86129 L66.22287,98.29682 M61.478054,99.50649 L62.44103,104.788345 M63.351097,109.780014 L63.351097,109.780014 L63.351097,109.780014 M63.9825,110.144554 L57.602715,106.46118 M68.72362,108.44386 L68.72362,108.44386 L68.72362,108.44386 M64.88022,115.10082 L64.88022,115.10082 M40.484665,88.59623 L39.141415,87.86214 L40.484665,88.59623 L38.43155,79.289185 M39.675518,84.92825 L39.675518,84.92825 M39.010017,87.27284 L39.010017,87.27284 L29.289007,90.11425 L31.68878,99.9536 M31.34499,91.30128 L31.34499,91.30128 L31.34499,91.30128 M29.289007,90.11425 L24.36754,87.27284 L33.994995,84.542206 M34.905937,88.47245 L34.905937,88.47245 L34.905937,88.47245 M29.99342,85.67718 L29.077164,81.864494 L29.077164,81.864494 L19.545229,84.48868 L15,81.864494 L19.545229,84.48868 L22.038582,94.05567 L25.798592,92.94283 L22.038582,94.05567 L19.545229,84.48868 M15,81.864494 L24.438414,79.33873 L15,81.864494 L17.531836,91.30128 L22.038582,94.05567 L17.531836,91.30128 L15,81.864494 M24.438414,79.33873 L29.077164,81.864494 M170.69508,137.13673 L176.99358,133.6946 L177.66504,122.467285 M177.47253,125.68615 L184.56537,128.88538 L177.47253,125.68615 M176.99358,133.6946 L170.69508,137.13673" fill="none" stroke="black" vector-effect="non-scaling-stroke"/>
</g>
</svg>