<svg height="300mm" viewBox="0 0 218 300" width="218mm" xmlns="http://www.w3.org/2000/svg" xmlns:inkscape="http://www.inkscape.org/namespaces/inkscape">
<g inkscape:groupmode="layer" inkscape:label="0">
<path d="M88.07781,283.69794 L83.79937,283.02234 L81.224434,281.62186 M81.0529,281.5635 L85.24294,282.9886 L89.71189,280.8755 L93.788666,277.22742 L97.22059,272.61243 L99.85007,267.41412 L103.05062,263.87244 L106.93139,260.588 L110.47801,256.18146 L112.29683,250.51056 L112.08368,244.64557 L111.885254,239.28622 L111.86454,239.05319 M111.8886,238.28372 L111.521835,232.90819 L111.27614,232.08553 M111.27025,231.66385 L111.34889,237.29512 L110.829765,243.16199 L110.048294,249.28415 L107.45323,255.01892 L103.48727,259.54703 L99.06396,262.70456 L94.93021,265.0635 L91.67618,268.72546 L88.20507,272.71964 L84.2422,276.4759 L79.78031,279.71774 L75.42106,279.68005 L71.83422,277.33612 M72.863174,277.58997 L77.17687,277.52567 L81.634514,275.23373 L85.72996,271.6808 L89.31645,267.65262 L92.90078,264.45743 L97.457825,262.39944 L102.0404,259.04968 L105.7556,254.13675 L107.58503,248.1231 L108.06423,242.16772 L109.043,236.50842 L109.78977,230.80496 L109.6412,225.29202 L109.10838,219.83434 L108.15946,214.38637 L106.051476,209.78242 L101.83452,208.10738 L99.04583,208.4346 M99.14578,208.59126 L99.381966,209.75397 M99.49297,210.09235 L101.3131,211.23454 L103.23732,215.15819 L104.47893,219.60112 L106.12385,223.8596 L106.7119,228.8942 L105.29625,234.51405 L103.328705,239.89928 L102.035484,245.27672 L100.17549,250.7775 L96.72219,255.44922 L92.42582,258.80783 L88.240036,261.38892 L84.74979,265.2836 L80.93473,269.74155 L76.52145,272.72662 L72.2263,272.59854 L68.38563,271.5371 L64.145164,271.97202 L60.01978,271.48914 L58.663864,269.61063 M58.75002,268.9889 L63.344288,268.0329 L67.64615,267.02405 L71.78923,266.55472 L76.11444,265.2101 L80.41773,262.7472 L83.34578,260.26657 M83.473656,260.1982 L78.63466,262.7849 L73.85262,263.65814 L69.53985,263.6824 L65.49526,264.05756 L60.895737,266.06342 L56.09942,267.27606 L51.78442,266.74417 L49.031868,263.71255 L48.953938,263.34235 M49.824356,263.7909 L54.241787,263.977 L58.920517,262.87424 L63.352184,261.32013 L67.26742,261.64185 L71.634995,262.11044 L76.643906,261.68204 L81.89977,259.4732 L85.963356,254.41145 L88.89462,248.8445 L91.195244,243.63866 L93.58959,238.9208 L96.79946,234.28772 L99.23211,229.25069 L100.43236,224.17708 L100.46459,219.42783 L99.6811,215.117 L99.67199,215.08362 M99.741165,214.67871 L100.199554,215.8439 L101.643135,219.67595 L104.56236,222.9254 L105.8391,225.88992 M105.895226,225.97023 L105.16974,231.66574 L102.292366,237.42084 L98.02638,242.38878 L94.23062,246.6871 L91.199,251.02785 L87.99648,255.28415 L84.43875,259.3406 L83.55575,260.08868 M83.473656,260.1982 L87.1929,255.23589 L89.980865,249.95703 L92.441635,245.08426 L95.72952,240.69054 L99.904686,235.92842 L102.64721,230.45462 L103.44095,225.04398 L101.71078,220.71422 L100.380745,218.9665 M99.1553,218.10785 L97.31276,223.22688 L95.66657,227.95033 L93.72132,232.54144 L91.84342,237.14517 L90.270515,242.22818 L87.7453,247.51334 L84.37359,252.88435 L80.01569,257.78064 L74.624245,260.1367 L69.45921,260.7786 L64.92763,260.32547 L61.924183,259.65332 M62.468155,259.71643 L67.30909,259.5742 L72.58693,258.12094 L77.76822,254.9185 L82.25252,250.3928 L86.421165,245.86246 L89.86895,240.95663 L91.23902,235.56812 L91.60061,231.51952 M91.72554,230.54965 L92.84037,226.45656 L94.765686,222.01059 L98.030914,216.64964 L99.83752,211.14261 L98.50544,207.08209 L95.98992,203.98932 L93.55792,200.89952 L91.36201,198.54083 M90.4818,199.1606 L89.69294,202.79224 L88.14919,206.49643 L86.313446,210.17563 L83.93798,213.8769 L81.145195,217.6123 L77.84964,221.397 L73.723785,225.01343 L68.84634,228.1727 L63.52369,230.63847 L58.17435,232.93352 L52.63563,235.25972 L47.098923,236.50824 L42.831955,235.23738 L39.57752,233.3762 L35.590874,232.85898 L31.41945,232.33769 L28.410345,230.6775 L28.195583,230.27055 M27.92249,230.27283 L33.073483,230.22975 L37.647247,230.31544 L41.29573,231.65257 L45.77678,232.41551 L51.347225,230.79497 L56.714424,228.50037 L62.01824,226.89693 L67.44078,224.85992 L71.94089,221.57126 L75.746346,218.11894 L80.15437,214.9826 L84.109924,211.51205 L85.810646,207.8345 L86.754486,204.3861 L89.067,200.7206 L90.624435,196.9788 L89.71325,195.28514 M89.78932,195.10129 L88.32731,198.6346 L86.09834,202.11842 L85.41709,205.43553 L83.82876,209.03064 L79.50783,212.34976 L74.7352,215.25514 L70.90552,218.58856 L66.355194,221.78854 L60.75084,223.50395 L55.398087,224.70012 L50.063023,226.83218 L44.4581,228.48811 L39.83656,227.97832 L35.949608,226.9186 L31.128307,226.93402 L25.615046,227.09174 L21.20202,225.99243 L20.44401,222.713 L20.50584,222.4768 M19.52317,222.22127 L23.923647,223.3656 L29.30139,223.45305 L34.159874,223.57156 L38.33766,224.37997 L43.12491,224.71487 L48.753345,223.3276 L54.19961,221.57509 L59.781433,220.63483 L65.66824,219.04718 L70.53688,215.9725 L74.56918,212.66914 L78.98634,209.65807 L82.77369,206.3913 L84.32566,202.9847 L85.00906,199.84665 L86.79735,196.65732 L87.97283,193.45479 L86.41148,191.03702 L85.0255,189.8905 M85.01769,189.9761 L85.24601,187.47253 L85.98031,184.97693 L86.627266,182.41125 L85.85717,180.08994 L85.3652,179.80623 M85.01559,179.32089 L85.8231,180.4419 L84.46859,182.69131 L82.57769,184.8994 L81.70635,187.16284 L80.3452,189.6385 L76.933235,192.03612 L71.475685,193.89261 L65.864716,195.47055 L60.080433,196.66167 L54.266655,197.22641 L48.87103,198.06602 L43.210796,199.23518 L37.293,199.98627 L32.020393,199.75085 L27.57176,198.94978 L22.944378,198.28761 L18.597178,197.37965 L15.648567,195.86197 L13.874969,194.00038 L12.353872,192.08342 L11.852562,189.9498 L13.833855,187.69083 M13.678429,187.52301 L15.241218,189.21034 L16.410177,191.01212 L18.737503,192.58702 L23.008312,193.4678 L27.515306,194.1459 L31.50738,195.20569 L36.58039,195.70914 L42.615376,195.02216 L48.334805,193.81703 L53.590153,192.91315 L59.187687,192.44832 L64.8404,191.50636 L70.435936,190.23114 L76.08459,188.71329 L79.61071,186.59247 L80.853424,184.3267 L81.75545,182.2668 L84.22623,180.24435 L86.038124,178.12465 L85.364006,177.34227 M84.9572,177.74376 L86.97551,175.75182 L86.31588,174.98569 M86.060616,175.25456 L83.357635,176.98595 L81.98211,178.77213 L79.56353,180.56992 L73.83038,181.74889 L67.288376,182.33134 L62.391796,183.15434 L57.64874,183.97151 L52.630707,184.4791 L47.587803,185.06236 L42.182068,185.6855 L36.397762,186.09734 L30.739796,186.02478 L26.077547,185.29628 L22.080229,184.33119 L19.102526,183.09398 L18.297342,181.45432 L18.040125,179.90138 L16.98288,178.54344 L15.506718,177.16853 L13.656565,175.64537 L13.960825,173.94038 L14.518546,173.62978 M14.112224,173.0575 L13.253843,171.60165 L13.431779,171.38371 M13.548014,171.50056 L15.431451,172.75934 L18.012552,173.95236 L21.544487,175.00117 L25.972803,175.83244 L30.992624,176.42856 L36.04615,176.98454 L41.34625,177.48555 L47.08207,177.62457 L52.707897,177.21277 L58.07538,176.81528 L63.881836,176.6267 L69.902115,176.25764 L74.834854,175.37704 L77.775185,174.07027 L80.17674,172.78111 L82.87989,171.55275 L85.7974,170.27028 L86.28961,168.84851 L85.59389,168.44072 M84.816956,168.9948 L86.50507,167.79088 L85.8546,166.48897 L85.67555,166.38907 M85.749016,166.367 L86.027374,165.2257 L84.56063,164.04451 L84.161995,163.6182 M84.82586,163.50644 L84.679115,162.52812 L83.4554,161.52791 L83.93025,160.68895 L83.965904,160.61543 M84.037674,160.60971 L84.151245,159.85234 L83.39103,159.04227 L84.346756,158.4163 L84.92436,157.6958 L84.060814,157.32239 M84.217606,157.21878 L84.10672,156.63501 L84.8753,156.16219 L84.902626,155.56538 L82.165665,154.69159 M82.616714,154.68974 L80.34155,154.69905 L77.49338,154.5969 L74.19626,154.40991 L70.356476,154.12126 L65.64902,153.63745 L60.183224,152.9431 L54.306324,152.07724 L48.40498,151.18509 L42.285107,150.25368 L36.27588,149.20493 L31.897697,148.15697 L28.663847,147.26295 L24.496264,146.35555 L20.131872,145.40793 L17.138819,144.58873 L15.959172,144.00151 L15.316256,143.50426 L15.412326,143.12737 L16.09544,142.85074 L16.173506,142.45622 L16.746798,142.11386 L18.85914,142.03502 L23.58977,142.51385 L29.744661,143.39279 L35.02875,144.12904 L37.002636,144.3867 M37.155174,144.42113 L32.500866,143.37048 L28.780884,142.47108 L23.960684,141.44075 L18.514034,140.28798 L14.47579,139.32509 L14.028858,138.96097 L15.037646,138.87953 L16.535427,138.91551 L17.41745,138.85136 L16.66759,138.45667 L17.05219,138.26027 L19.60418,138.49858 L24.728535,139.3133 L30.44199,140.30658 L35.10084,141.06693 L39.758938,141.8185 L44.934765,142.7131 L50.355156,143.73456 L55.563133,144.76245 L60.723854,145.77502 L66.5777,146.87878 L72.22789,148.01596 L76.11847,148.93819 L79.787445,149.8221 L82.094536,150.48851 L83.40917,150.9797 L85.69802,151.64207 L87.02939,152.14636 L85.13019,152.04178 L82.448204,151.76563 L81.197685,151.77696 L79.138306,151.63567 L74.73962,150.98161 L69.88268,150.20401 L65.61535,149.57803 L60.621094,148.7852 L54.75392,147.70563 L49.037453,146.62296 L43.17872,145.56697 L37.155174,144.42113 M38.012356,139.67653 L44.007324,140.9694 L49.740772,142.1896 L55.41589,143.42477 L61.37763,144.70872 L66.323746,145.72131 L70.514786,146.56114 L75.6454,147.6243 L80.31822,148.573 L82.169365,148.88193 L83.06347,148.98492 L85.559875,149.44218 L87.263016,149.72058 L85.54054,149.26118 L82.99562,148.63345 L82.001335,148.33266 L80.11672,147.84088 L75.5606,146.804 L72.25458,146.01643 L67.326256,144.90851 L61.65955,143.67088 L56.242855,142.48657 L50.761375,141.28804 L45.04771,140.05183 L39.547867,138.89264 L34.694954,137.8949 L30.16494,136.96938 L25.270178,135.95967 L21.036255,135.10878 L18.773142,134.70473 L18.329708,134.69984 L18.47503,134.81616 L16.659534,134.50464 L14.586629,134.147 L13.25371,133.95981 L13.779708,134.17566 L18.331179,135.22774 L24.138586,136.52342 L29.202868,137.65695 L33.20171,138.58409 L38.012356,139.67653 M39.362473,136.05292 L45.184303,137.49379 L51.20994,138.9598 L57.057274,140.37173 L62.76958,141.74522 L68.18669,143.03432 L72.48856,144.0275 L75.567505,144.71022 L79.36503,145.5818 L81.41592,146.01183 L82.643936,146.23967 L84.97548,146.74048 L86.49144,147.03578 L85.179405,146.6414 L83.235695,146.09772 L82.42434,145.82307 L80.7078,145.32698 L76.68765,144.28935 L72.01515,143.10393 L67.715645,141.99873 L62.545868,140.69347 L56.369427,139.18959 L50.527435,137.78212 L44.777596,136.3746 L38.84408,134.93336 L33.868423,133.76501 L29.552029,132.76541 L24.485615,131.5698 L18.870945,130.24362 L14.337355,129.20168 L13.572469,129.10373 L14.768611,129.4826 L16.972168,130.09782 L19.367188,130.74991 L19.761036,130.9164 L20.264412,131.11491 L22.107582,131.63765 L25.268293,132.4736 L29.475119,133.55324 L34.154617,134.74248 L39.362473,136.05292 M39.570717,133.35744 L33.980896,131.7246 L28.938978,130.20134 L24.709536,128.86006 L21.873056,127.854706 L20.134602,127.136566 L19.719246,126.774025 L19.855814,126.57702 L18.027866,125.859024 L15.973089,125.05256 L14.986658,124.510284 L15.939081,124.495094 L19.77457,125.322815 L24.436531,126.416 L29.346918,127.602974 L34.58379,128.91112 L36.742325,129.45984 M35.314205,128.99326 L40.815105,130.79047 L46.56647,132.56184 L52.204983,134.28836 L57.9683,136.0517 L63.947914,137.83202 L69.70695,139.42992 L74.2086,140.4791 L77.714645,141.17589 L78.56884,140.95667 L81.881165,141.65173 L84.600685,142.12659 L85.357925,141.96028 L84.69989,141.37029 L83.77394,140.71883 L83.434555,140.23334 L82.99183,139.93 M83.88717,140.11699 L80.271904,139.36188 L77.32199,138.87543 L73.893654,138.22765 L69.45306,137.15564 L63.854717,135.45271 L58.186962,133.57784 L52.814533,131.73897 L47.62605,129.96759 L42.306232,128.16656 L37.174694,126.2995 L32.254955,124.42187 L27.362057,122.504395 L23.799204,120.86321 L21.938265,119.678505 L21.619705,118.97479 L21.948988,118.52037 L20.3181,117.455536 L18.348618,116.21626 L18.054455,115.4873 L20.644096,115.78609 L24.749958,116.699295 L25.17868,116.782005 M24.854345,116.54143 L26.647602,117.871574 L30.02257,119.63669 L34.592735,121.6339 L39.14415,123.56796 L43.813385,125.47189 L48.627792,127.33379 L53.49528,129.2119 L58.587482,131.10583 L63.87284,132.97128 L69.10061,134.661 L73.46288,135.7818 L76.9689,136.47746 L81.86116,137.83812 L85.4464,138.52458 L88.40587,138.90398 L89.358376,138.46358 L88.922516,137.52563 L88.39313,136.57991 L88.38403,136.2937 M87.86579,136.36523 L85.57096,136.33855 L82.58627,135.97852 L77.944244,134.7101 L73.528496,133.48846 L68.77117,131.98334 L64.08234,130.47908 L59.252712,128.87532 L54.19277,126.98502 L49.354862,124.83611 L45.040417,122.753845 L40.769512,120.77083 L36.500793,118.75965 L32.529922,116.74598 L29.488209,114.916916 L27.385904,113.35059 L25.502462,111.856186 L22.380844,109.883194 L19.162773,107.73614 L18.367485,106.41461 L19.51447,105.8533 L22.637243,106.185585 L23.125652,106.29502 M24.627335,107.36848 L21.350245,105.0259 L19.597021,103.14872 L20.38139,102.29172 L22.150272,101.89301 L22.910011,101.78571 M22.007145,100.762505 L23.852816,102.85419 L26.4833,105.17101 L29.340149,107.5108 L32.342575,109.88756 L36.07308,112.44756 L40.706272,115.11293 L45.44395,117.74524 L50.221832,120.511894 L55.624626,123.09734 L60.92686,124.987335 L65.43777,126.17337 L69.424835,127.20951 L74.380264,129.17494 L79.78255,131.23033 L84.21428,132.40836 L86.369125,132.1386 L87.72842,131.49509 L90.38009,131.52599 L92.223946,131.06656 L91.47409,129.98627 M92.284615,129.99191 L89.4124,129.97192 L87.58597,130.5128 L85.25581,130.80849 L79.51271,128.60904 L74.53688,126.6875 L70.13533,125.07382 L66.30916,124.22896 L61.7353,122.92827 L56.47021,120.886894 L51.07608,118.226105 L46.05262,115.31782 L41.064827,112.41838 L36.289516,109.440834 L32.526966,106.56934 L29.549719,103.90465 L26.645763,101.25959 L24.339882,98.774734 L24.022078,97.07532 L25.747095,96.38071 L27.179749,96.039604 M26.676064,95.44718 L28.934488,98.10351 L31.77124,100.90557 L34.306187,103.63243 L37.741028,106.63334 L42.500366,109.76301 L47.591053,112.70473 L52.491432,115.5334 L57.44225,118.404915 L62.614494,121.01968 L67.555046,122.94135 L71.53296,123.75086 L75.15345,124.532326 L79.390976,125.9567 L84.8335,128.1377 L87.35701,127.95145 L90.50309,128.16719 L93.94315,128.41049 L95.95656,127.687096 L95.07409,125.70327 M94.15634,126.02859 L90.3598,125.570984 L86.45283,124.782936 L84.1973,125.13502 L80.801186,124.5955 L76.843895,123.51676 L73.284096,123.06749 L68.77716,121.77466 L63.503963,119.04084 L58.52098,115.781746 L54.103043,112.68749 L49.402405,110.019325 L44.278667,107.12105 L39.584366,103.903854 L36.456596,100.81368 L34.311176,98.05039 L31.537987,95.12138 L29.005863,92.1811 L28.44616,90.04548 L29.80224,88.9358 L30.074734,88.75165 M29.636482,88.21245 L28.565733,85.541756 L29.406096,83.88208 L29.431993,83.85634 M29.42303,83.8438 L28.302992,80.78003 L29.001713,78.7079 L29.61918,77.94291 M29.270739,76.64726 L30.145924,79.90155 L32.34283,83.72473 L35.134865,87.67934 L38.042927,91.62357 L41.569714,95.72006 L46.06573,99.8545 L51.137966,103.73572 L56.43324,107.12062 L61.492264,110.165825 L66.402756,113.07785 L71.323135,115.83042 L76.36973,118.52736 L81.2085,120.52871 L85.340515,121.458664 L89.04471,121.91653 L89.65501,120.31116 M89.587776,120.48801 L90.08083,120.45115 M90.12259,120.46488 L91.5459,118.561745 L93.213615,117.2137 L96.301895,117.04255 L99.44422,116.60254 L100.698715,114.62116 L98.6465,110.72259 L95.79297,106.69615 L92.61523,102.81635 L89.63379,99.210045 L87.96767,95.77027 L85.70727,91.81732 L81.972176,87.571335 L76.8705,83.893105 L71.69686,80.94953 L66.85285,77.67807 L61.843925,74.49209 L57.009796,72.28816 L52.403168,70.555504 L47.621006,68.70273 L42.79034,67.10021 L38.58492,66.468925 L36.04524,67.53957 L34.59541,69.46943 L33.702156,71.74726 L33.290905,74.33174 L33.741425,77.43676 L35.359512,81.112946 L37.85082,85.08567 L40.84339,89.1469 L44.141113,93.251884 L48.004345,97.4219 L52.295353,101.60157 L57.07317,105.667564 L62.364258,108.970474 L67.46395,111.41169 L72.1884,113.57807 L77.04739,116.28851 L81.88145,118.53946 L85.58404,118.972786 L90.12259,120.46488 M90.13593,120.44704 L90.48162,120.42119 L93.874054,120.65002 L96.06647,119.82742 L95.72839,118.087364 M94.486755,118.39268 L91.676926,118.45583 M94.486755,118.39268 L97.09023,117.752495 L97.162994,116.921974 M100.10715,115.555504 L101.54065,115.37901 L103.3845,113.50804 L101.6823,109.41398 L98.70219,104.936035 L95.15349,100.572845 L91.6558,96.56042 L89.80005,92.88466 L87.65669,88.73148 L84.095695,84.25091 L79.15007,80.28145 L73.99201,77.03456 L69.08192,73.50499 L64.02601,70.28559 L59.37722,68.60787 L55.098763,67.35689 L50.396923,65.42022 L45.594513,63.71529 L41.923103,63.60906 L40.192837,65.44688 L39.592323,66.620155 M43.42688,63.65257 L43.702415,62.97242 L45.283066,60.936184 L48.863823,61.02409 L53.539288,62.798508 L57.916576,64.48222 L61.682194,64.67757 L66.192795,65.47761 L71.449776,68.75467 L76.565636,72.690346 L81.80346,76.41666 L86.70958,80.79939 L90.282455,85.62123 L92.554665,90.11652 L94.712715,94.18936 L98.37159,98.62763 L101.785126,103.34128 L104.33045,108.00026 L105.160065,111.9142 L103.2467,113.17659 M104.72865,109.87889 L105.63982,109.50058 L106.229034,106.2511 L104.717064,101.77035 L101.92652,96.87859 L98.32544,92.00014 L95.63078,87.42895 L93.01748,82.57425 L89.30147,77.47239 L84.34763,72.84771 L79.10922,68.79117 L73.93035,64.500145 L68.565796,61.107113 L64.0725,60.83005 L60.499317,61.218746 L56.19744,59.537003 L51.312088,57.354225 L47.17917,56.67828 L45.389687,58.77898 L44.77607,61.589306 M45.961346,58.107903 L46.028458,57.445942 L46.40721,53.802498 L48.386395,51.480816 L53.06818,52.64709 L58.27088,55.245926 L62.812836,57.321003 L66.70142,57.629086 L71.240585,58.450947 L76.35613,62.00396 L81.21578,66.32171 L86.187004,70.27678 L91.0318,74.7546 L94.70411,79.84433 L97.40813,84.78631 L100.22877,89.540665 L103.35618,94.478134 L105.34024,99.190895 L106.11936,103.371796 L105.79033,104.95099 M105.928314,105.35992 L106.23871,104.37685 L105.77833,100.33323 L104.98341,96.16451 L103.414055,91.658424 L100.757385,86.88878 L98.25898,82.23149 L95.80737,77.37658 L92.40966,72.4018 L87.85226,68.09958 L83.22078,64.311676 L78.74303,60.08777 L73.968094,56.42206 L69.45785,54.883965 L65.294,53.709995 L60.59363,51.295692 L55.35088,48.626698 L50.74461,47.657272 L48.923885,50.43163 L48.835793,51.592766 M52.315285,47.987835 L52.517494,47.733826 M52.377983,48.00103 L53.93372,45.021275 L58.123913,45.385216 L63.223057,47.895626 L67.98678,50.59579 L72.30107,52.579304 L76.68944,54.74769 L81.10493,58.433754 L85.222626,62.488064 L89.58926,66.025444 L94.02295,70.08069 L97.353004,74.94778 L99.67231,79.79767 L101.59666,84.387184 L103.4031,88.8674 L104.51291,93.09088 L105.36359,97.22239 L106.81195,101.99431 L107.03633,106.19182 L106.02381,107.3829 M106.13325,107.803276 L108.60028,106.66698 L110.62876,103.526184 L111.896614,99.70734 L112.72036,95.64101 L113.882996,91.86955 L114.60975,87.56117 L114.46191,82.52991 L112.83845,76.85316 L109.51379,71.129524 L105.93276,65.93964 L102.52625,61.12598 L99.702225,55.851658 L96.69956,49.75226 L92.56976,44.468445 L87.84461,41.050438 L83.334404,40.30871 L79.25268,39.42502 L74.77351,36.77709 L70.278534,35.053616 L67.14009,36.59984 L64.85673,39.263508 L61.81117,40.66106 L58.393307,42.015907 L57.102673,43.714428 M57.65271,43.584354 L55.39822,44.1175 L54.500214,45.070477 M53.172268,46.479713 L52.85924,46.8119 L52.892178,47.016174 M56.64388,45.256668 L57.732044,43.452843 L61.242928,42.819813 L66.04277,44.907856 L70.81352,47.876396 L75.16839,50.537403 L79.380745,53.093807 L83.50301,56.642467 L87.35643,60.53434 L91.54956,63.87173 L96.20069,67.581024 L100.08831,72.35255 L102.93778,77.47217 L104.35764,82.35499 L104.65862,86.59468 L104.90854,90.47381 L105.217545,94.26126 L106.19975,98.65748 L106.53152,101.07035 M106.64517,101.44482 L106.87235,100.320465 L106.972176,96.39343 L107.58234,92.991974 L108.07546,89.35671 L108.32861,85.28962 L108.45689,80.674675 L106.58354,75.233635 L102.96679,69.83273 L98.6331,65.07554 L94.12019,61.186977 L90.19741,57.22388 L86.299995,53.00015 L82.07385,49.56205 L77.863525,47.447247 L73.62594,45.116825 L68.95251,42.16726 L64.41268,40.471558 L61.407974,41.934288 L60.595753,42.936504 M60.77999,42.709167 L59.38571,43.15468 M62.001263,40.57383 L64.01545,37.546124 L66.44306,34.83937 L69.19895,32.41031 L73.22283,32.433 L77.8839,34.774418 L82.268585,37.482334 L86.28058,38.202934 L90.81269,38.229454 L95.71948,41.02675 L100.177826,46.02721 L103.226425,52.627254 L105.189445,58.929207 L107.505356,64.18475 L110.00155,69.29011 L112.67063,74.64052 L114.75313,80.22955 L115.45123,85.46112 L115.48464,90.35228 L115.444756,95.33774 L114.47559,99.691284 L112.16919,102.601654 L110.70753,103.28894 M108.18156,103.40384 L106.815796,107.02897 L105.8995,108.06844 M108.18156,103.40384 L109.00304,99.54918 L109.66136,95.78833 L111.03253,92.57661 L111.877045,88.69173 L112.051414,84.10693 L111.38722,78.858215 L108.6137,73.11143 L104.7553,67.72937 L100.65417,62.975765 L96.828094,58.52385 L93.354,53.527687 L89.36166,48.716362 L84.89302,45.222446 L80.5413,43.741467 L76.39504,42.13438 L71.81889,39.33886 L67.35811,37.765778 L64.483055,39.601498 L63.343193,40.992195 M67.35252,34.03777 L68.55972,31.175522 L71.48302,28.529884 L76.10979,29.679028 L80.902794,32.52919 L85.290436,35.664757 L89.279655,37.50416 L93.57327,37.863426 L98.29337,40.004055 L102.94663,43.94994 L106.74329,49.609173 L108.95183,56.17883 L110.66085,62.10059 L112.06022,67.535995 L113.48175,72.724304 L115.32571,78.115105 L116.37897,83.468 L117.03112,88.85977 L117.61639,94.64052 L116.09939,98.71355 L114.51064,99.53383 M114.84306,99.3622 L118.13104,101.557106 L122.69857,96.04272 L123.031746,95.709465 M123.009186,94.8968 L122.24094,95.16068 M122.30455,95.125565 L124.106224,90.50394 L123.991585,84.23683 L123.97579,78.57706 L124.37622,73.271706 L125.29679,67.78805 L125.22845,61.51466 L123.213554,55.070316 L120.54362,48.90085 L117.65031,42.85759 L113.76902,37.98333 L109.32519,34.891342 L104.974144,33.341797 L101.09633,32.028675 L97.39189,28.897589 L93.380356,26.051632 L89.147545,24.080753 L84.733376,22.85428 L81.94411,23.979662 M81.350525,23.825733 L79.67898,24.940844 M77.87278,24.771967 L82.21848,25.178282 L86.89165,27.823366 L91.26584,31.501116 L95.1647,35.246067 L99.00937,37.01148 L103.191734,38.975105 L107.679085,41.81319 L112.451294,45.613476 L115.99667,51.43177 L118.07329,57.970318 L119.255615,64.2672 L120.06057,70.16165 L121.28959,76.06251 L122.04871,81.96856 L122.31046,87.84129 L121.87188,93.466446 L119.222046,96.81168 L117.682144,97.31259 M117.520966,97.5594 L119.804695,94.062386 L119.76787,88.36918 L119.23159,82.67364 L118.178345,76.98406 L116.45981,71.32991 L115.39856,65.85599 L114.29724,59.995045 L112.547386,53.68231 L109.658554,47.454372 L105.27348,42.881508 L100.69027,39.636166 L96.27708,37.630234 L92.23004,36.41865 L88.243774,33.352745 L83.808624,29.808971 L79.02392,26.984638 L74.52716,26.244898 L72.55013,28.794922 M76.54972,26.57762 L77.87278,24.771967 M81.350525,23.825733 L85.82616,24.986372 L90.23965,27.386932 L94.364265,30.65961 L98.09138,34.147423 L101.862656,35.709633 L106.040016,37.414967 L110.519424,40.144432 L115.229164,43.962227 L118.96986,49.64169 L121.56211,56.162907 L123.12706,62.78982 L123.18521,69.013435 L122.912766,74.649864 L122.971535,80.21217 L123.141754,86.00957 L123.11029,92.094315 L121.00184,96.24959 L117.31061,97.931526 L116.38541,97.94562 M116.38987,97.93364 L117.520966,97.5594 M117.19925,98.97532 L117.591606,99.67922 L121.28678,96.51109 L121.59742,96.284515 M120.978355,96.53271 L119.9814,96.71456 M120.04396,96.70315 L119.93058,96.81575 L116.291176,99.693306 L115.67335,98.93352 M116.67164,99.39248 L117.11186,99.65072 L117.382935,99.30485 M119.650276,99.72293 L123.9733,97.53713 L127.89451,94.35501 L128.77402,93.73461 M128.49133,92.33785 L131.8559,89.3432 L133.89726,84.14551 L135.54768,78.86867 L137.91096,74.22786 L140.06271,68.93454 L140.82216,62.690628 L140.30136,56.225075 L139.62924,49.817566 L138.59386,43.374485 L136.60356,37.35708 L133.66898,32.30989 L130.39641,27.973036 L127.03882,23.898668 L123.43951,20.232607 L120.788635,19.379354 M120.627655,19.219364 L116.310745,18.006424 L114.51982,18.496038 M114.93539,17.069538 L113.11392,17.835556 M113.19085,17.819101 L110.306526,18.436066 M110.00684,18.168419 L114.07376,21.800615 L117.36786,27.261148 L120.65161,31.439344 L123.8707,35.661484 L126.38396,40.866634 L128.29057,46.45809 L129.98122,52.074394 L131.84053,57.822453 L134.04721,64.12343 L134.42937,70.57 L132.65611,75.936035 L131.14207,79.2763 M132.1786,79.88305 L134.67542,75.4433 L136.91121,70.167984 L137.39061,63.722767 L135.91411,57.0854 L134.29631,50.83169 L132.57468,44.755257 L130.40489,38.933064 L127.68831,33.582573 L124.423164,29.012741 L121.01525,24.62217 L117.42665,19.976686 L113.19085,17.819101 M114.93539,17.069538 L119.49714,17.896017 L120.17017,18.050037 M120.2224,18.023003 L120.07365,18.027948 M119.41787,18.879446 L122.47011,18.471495 L126.377525,20.633503 L129.61081,24.821795 L132.7366,28.820475 L135.95023,32.81097 L138.95612,37.476433 L140.695,43.438023 L141.16463,49.871075 L141.28627,56.065964 L141.73537,62.2143 L141.44292,68.40508 L139.57646,73.81189 L137.43332,78.71505 L136.09328,84.62808 L134.04732,90.30575 L130.44604,93.34638 L126.32633,94.30295 L125.29142,94.46544 M124.77879,95.00903 L120.978355,96.53271 M121.287224,95.68716 L122.30455,95.125565 M123.009186,94.8968 L126.457275,92.4 L128.75131,87.91427 L130.18755,82.53477 L131.7336,77.25701 L132.6397,71.378654 L131.32193,64.75974 L128.55635,58.639072 L126.39442,53.221657 L124.72439,47.877514 L123.3916,41.971783 L121.12886,36.37022 L117.621056,32.53196 L114.02157,29.300175 L110.692856,24.309158 L106.77926,19.327137 L102.41358,17.66949 L98.22336,18.039454 L96.30474,18.924164 M94.914825,18.670994 L99.239395,19.4587 L103.54797,22.381098 L107.37752,27.079988 L111.062485,30.212484 L115.21363,32.337746 L119.24033,35.90543 L121.78303,41.828575 L123.137054,48.20385 L125.07222,53.77954 L127.33711,59.468384 L129.43777,65.67299 L130.40858,72.113174 L130.06808,78.17885 L129.17564,83.93898 L127.626495,89.19633 L124.62825,92.59293 L123.71393,93.00204 M123.31642,93.63056 L122.79025,93.87965 M123.31642,93.63056 L125.789604,89.72011 L126.51757,83.96933 L126.88624,78.23029 L127.2435,72.57342 L127.380264,66.673836 L126.41885,60.416485 L124.21782,54.328617 L121.8829,48.45554 L119.90361,42.08086 L116.782234,36.420746 L112.46674,33.02968 L108.08531,31.36216 L104.19755,29.534481 L100.42165,25.847319 L96.28296,22.897655 L92.01649,21.404444 L87.95107,21.601131 L86.00033,23.2063 M90.44736,21.48036 L91.15154,20.45531 L94.914825,18.670994 M104.75571,18.558796 L105.726776,18.279486 L110.00684,18.168419 M118.86692,18.724644 L121.54407,17.338863 L125.84455,16.892656 L129.84552,19.201374 L133.1207,23.513632 L136.29427,27.633764 L139.54971,31.770473 L142.52649,36.649395 L144.08212,42.887135 L144.31319,49.551456 L144.2236,55.91594 L144.61218,62.223244 L144.36708,68.665955 L142.43344,74.35474 L139.99777,79.37311 L137.95508,84.7775 L135.29767,89.62846 L132.28429,91.79432 M133.28065,91.07818 L135.2626,90.2596 L138.8987,87.62239 L141.82535,83.32719 L144.61058,78.84755 L147.80473,74.414185 L150.85403,69.18131 L152.90245,62.937237 L153.51895,56.214592 L153.55539,49.47873 L152.53963,43.067852 L150.14362,38.490402 M150.92308,39.692844 L152.14157,42.30737 M151.49208,41.885582 L149.13536,35.951813 L146.24763,30.847372 L143.64806,25.533209 L140.58301,20.696274 L136.4457,18.209465 L133.8411,18.251764 M133.62737,18.035513 L137.01247,18.04132 L141.17322,19.041414 L145.13618,20.957617 L148.07184,25.140741 L149.87791,30.624691 L151.10924,36.141144 L152.77158,40.899994 L154.76787,45.64111 L155.4476,51.334713 L155.58261,57.294506 L156.10088,63.61151 L155.07962,70.09107 L152.09581,75.57279 L148.7655,80.252426 L146.07973,85.50916 L143.14426,90.941574 L139.17604,94.38377 L134.83124,95.756744 L130.6282,95.543205 L128.28578,95.51941 M127.96918,96.31967 L124.70832,96.94065 M125.07307,96.644646 L125.314606,96.615 L129.28773,95.14995 L133.25839,94.082756 L137.38748,92.72023 L141.24814,89.681564 L144.11363,84.592735 L146.72945,79.53002 L149.99876,74.96749 L153.0415,69.608116 L154.40996,63.195442 L154.20187,56.71383 L154.05632,50.481773 L153.1895,44.555935 L152.56212,43.20975 M151.49208,41.885582 L152.20267,48.84318 L151.98303,55.890465 L151.2523,62.777843 L149.43288,69.21435 L146.6619,74.74955 L143.49258,79.36476 L140.25972,83.313896 L139.54399,84.01689 M139.33025,84.33656 L136.50801,87.41905 M139.33025,84.33656 L142.2998,79.89539 L145.18951,74.95486 L147.4511,69.120674 L148.23257,62.493076 L148.26125,55.827957 L148.46965,49.060093 L148.19296,42.077526 L146.5132,35.637444 L143.54109,30.45414 L140.34566,25.859383 L137.05624,21.5047 L133.39818,17.803633 L129.1051,16.302055 L124.702644,16.80538 L123.96963,17.087194 M120.627655,19.219364 L124.44339,23.011612 L127.9803,27.308521 L131.3091,32.008137 L134.11127,37.494545 L136.26118,43.581642 L137.82489,49.981106 L139.13036,56.527306 L140.0579,63.319744 L139.15157,69.77972 L136.77252,75.11303 L134.10808,79.565094 L131.95157,84.12856 L129.7471,88.70416 L128.86143,89.51603 M128.69807,89.991264 L130.4747,84.82292 L132.1786,79.88305 M129.92503,83.51804 L129.38248,86.06923 L127.90013,91.69916 L124.77879,95.00903 M126.45189,93.23487 L128.49133,92.33785 M128.21887,90.48856 L128.69807,89.991264 M127.96918,96.31967 L131.9533,96.66025 L136.22243,96.604 L140.4206,94.23039 L144.07202,90.019 L146.94589,84.75219 L149.84143,80.016846 L153.05312,75.44589 L155.93518,70.17027 L157.79918,64.15256 L158.49336,57.91318 L158.7812,51.754784 L158.1547,45.907543 L155.87022,41.25869 L153.45198,37.24665 L151.6402,32.782085 L149.62784,28.274727 L148.54825,26.587278 M149.31638,26.481745 L152.16351,29.670584 L154.72801,33.243103 L157.14407,37.117935 L159.77908,41.168514 L161.69632,46.241196 L162.08322,52.31858 L161.42561,58.65688 L159.74362,64.86146 L157.24754,70.57404 L154.48099,75.78909 L151.24995,80.26869 L147.8532,84.13439 L144.8516,88.73907 L144.48189,89.26785 M143.47644,90.70592 L141.51512,93.51112 L137.51912,96.96799 L133.22916,97.84741 L129.11696,97.798615 L124.797104,98.90189 L123.163246,97.94671 M123.30213,98.0279 L125.32933,101.06601 L128.8848,102.8597 L132.24063,104.69433 L135.3433,107.20674 L140.80223,104.33553 M141.38217,103.48722 L145.97304,103.65932 L150.87877,101.45935 L155.48523,97.53228 L159.28545,92.333015 L162.71901,87.47508 L166.37029,83.07628 L169.67287,78.231926 L172.09515,72.93114 L174.07146,67.537674 L175.93011,62.00077 L177.27199,56.311054 L177.37839,50.911655 L175.90938,46.453407 L173.82,42.650593 L171.32289,39.382717 L170.04834,38.29115 M170.70409,39.394203 L171.04152,45.318363 L169.37793,51.893745 L167.87117,57.717052 L166.65056,63.133614 L166.283,68.67586 L165.94489,74.93994 L163.82799,81.16495 L160.47316,86.79737 L156.08447,91.04431 L151.21866,93.423355 L146.71368,95.262825 L142.46893,97.16042 L138.12735,99.986855 L133.49393,102.208595 L129.49362,101.05235 L125.32722,100.47907 L123.491356,98.13853 M125.909874,98.6177 L128.65283,99.411476 L132.58826,100.371544 L136.9285,99.401955 L138.51912,98.748085 M138.84843,97.99244 L142.96153,94.40105 L146.41536,89.552666 L149.78212,85.371216 L153.70302,81.85483 L157.21803,77.2468 L159.92296,71.70683 L161.764,65.70618 L162.77092,59.604008 L163.32634,53.566128 L163.3939,47.610073 L162.77217,41.896214 L161.15894,36.862854 L158.7784,32.660683 L155.93277,29.175205 L152.80557,26.204103 L149.32365,23.904371 L146.66716,23.13917 M145.78337,23.256735 L147.82524,28.875746 L149.11093,34.750633 L150.92308,39.692844 M147.36026,32.814083 L145.68813,27.270147 L143.2063,21.920984 L139.15933,19.605509 L138.81943,19.636242 M138.46527,19.423365 L142.24966,19.983335 L145.78337,23.256735 M145.53857,21.530994 L148.93382,21.482763 L153.06589,22.845787 L156.72958,25.30767 L160.09265,28.324987 L163.13899,31.942038 L165.26564,36.721546 L165.33264,43.050777 L164.17368,49.504803 L163.48462,55.198277 L163.18605,60.70927 L163.58676,66.635414 L163.08083,73.17611 L160.52171,79.26622 L156.66292,84.186485 L152.13484,87.52616 L148.15744,91.03579 L144.37767,95.3904 L140.10905,98.66155 L135.71027,98.90094 L131.69168,98.090454 L129.06927,98.070076 M130.41728,97.831245 L126.19218,98.57981 L126.15078,98.55617 M126.32451,100.616295 L126.58031,100.8976 L129.48433,101.05107 M131.86661,101.738235 L132.24832,101.974884 L135.08748,104.68262 L139.54613,104.10347 L143.60088,104.852585 L148.17072,104.56991 L152.93407,101.36533 L157.06541,96.65164 L160.68436,92.33793 L165.12955,89.6687 L170.06523,86.49427 L174.41548,81.99969 L176.98697,76.517944 L178.13748,71.05281 L179.73918,65.7467 L181.0518,60.369854 L180.83383,55.48896 L179.53683,51.300983 L178.11713,47.28133 L176.65126,43.151375 L175.74797,41.38877 M175.0947,39.961987 L172.55716,36.44105 L168.51436,35.05569 L168.10326,35.08998 M168.12234,35.133865 L168.21622,35.209267 L170.70409,39.394203 M170.80708,41.202488 L171.6901,42.311474 L173.48819,46.887657 L173.24985,52.722675 L171.94112,58.70206 L170.0444,64.45421 L167.95322,69.930534 L166.23293,75.49513 L163.94939,81.122856 L161.02477,86.6677 L157.42091,91.86428 L152.87808,95.33733 L148.17696,97.30668 L143.7109,98.77745 L139.30351,100.66285 L134.83266,101.94249 L134.28383,101.829834 M134.05109,101.94144 L134.62024,102.43049 L138.30023,103.7366 L142.41833,104.58171 L147.06104,104.38874 L151.89749,101.30852 L154.72945,98.1766 M154.44034,97.1994 L149.63327,99.893456 L144.8844,101.32154 L140.40709,101.76625 L136.37624,101.500694 M135.93791,101.62615 L137.3509,102.399765 L141.38217,103.48722 M141.7253,105.84356 L146.00992,105.442406 L148.97989,104.48276 M149.3151,104.45069 L148.18759,104.55855 M147.88249,104.58774 L144.85739,104.87714 L144.36687,104.80521 M141.7253,105.84356 L135.50757,109.724014 L131.88123,107.77343 L128.46507,105.68372 L125.760086,102.78168 L125.01519,100.59521 M128.23166,105.433304 L129.21033,107.020164 L132.84914,108.775154 L134.87968,109.386284 M135.66838,109.62366 L136.84247,109.97702 L142.00336,108.6656 L146.7552,107.5108 L151.5464,105.21096 L156.10175,103.74833 L160.78503,101.75551 L165.21896,98.44464 L169.62758,95.04998 L174.49686,91.66483 L179.51205,87.59407 L183.23889,82.49745 L184.2295,77.10547 L184.33275,72.28424 L184.21452,67.92662 L184.53705,63.572353 L185.53128,58.672726 L185.24971,54.175266 L183.52971,50.56003 L180.58537,48.06718 L180.4135,47.989616 M180.75484,48.503235 L182.22089,52.31658 L183.1055,56.418045 L183.6689,60.650684 L184.12067,65.02445 L183.6905,69.858635 L182.7546,74.98184 L181.28653,80.42517 L177.72157,85.58206 L172.91608,89.7461 L167.96751,92.9236 L163.42465,95.63801 L159.33885,98.92129 L155.01564,101.85492 L150.52068,103.9849 L149.57486,104.29051 M149.3151,104.45069 L153.97672,101.57623 L158.12401,97.37085 L161.83452,93.44903 L166.29936,90.92042 L171.23404,87.86593 L175.79982,83.61951 L179.10736,78.41328 L180.94182,72.957924 L182.65663,67.57606 L183.64891,62.285995 L182.57625,57.876335 L180.63608,54.288284 L179.7669,52.043888 M178.98033,53.234146 L178.34955,58.604794 L176.89212,64.02018 L175.46532,69.25668 L174.70804,74.70065 L172.6617,80.33094 L168.65378,85.058716 L164.00035,88.59978 L159.79305,91.89503 L156.38104,96.30667 M154.44034,97.1994 L158.60869,92.53515 L161.73082,86.838646 L164.6057,81.612854 L167.22334,76.48257 L169.80836,71.33417 L172.71902,65.92004 L174.91762,60.076717 L176.11874,54.115963 L175.64105,48.735477 L173.24019,44.786575 L172.15744,43.50086 M168.19911,44.114925 L168.98677,37.120518 L166.85007,32.209858 L163.48102,28.85447 L159.80858,26.24634 L156.19832,23.576536 L152.17712,21.569027 L147.52856,21.443104 L147.42119,21.504251 M148.25981,25.7115 L149.31638,26.481745 M168.19911,44.114925 L165.73622,51.112675 L164.37157,56.730305 L163.91962,61.907764 L164.96533,67.602394 L165.43811,74.409294 L163.20401,80.94134 L159.34204,86.34501 L154.41956,89.75993 L149.68211,92.11461 L145.49272,95.00079 L142.33261,96.95759 M138.84843,97.99244 L134.47598,98.45667 L130.41728,97.831245 M129.85268,107.32997 L131.12817,108.63665 L134.5575,110.27962 L138.74187,110.92203 L139.70117,111.51153 M138.89787,110.561035 L141.20474,113.290634 L146.03668,112.61585 L150.6117,111.96553 L155.14809,111.365486 L159.8913,111.16572 L165.10197,109.70832 L169.79381,105.864334 L173.78038,101.79283 L178.46112,98.729485 L183.90822,95.50399 L188.83923,91.34198 L190.76381,86.52192 L190.84789,82.14046 L190.23746,79.95981 M190.27998,79.40589 L189.29622,75.50284 L188.74129,74.65133 M188.67345,74.24727 L189.17488,71.69399 L190.11382,67.49398 L189.7337,63.68548 L187.63646,60.922287 L186.30463,60.295902 M186.3835,61.649086 L186.46628,61.767815 L187.16313,65.29167 L186.93756,69.11362 L186.9756,69.44819 M186.89041,69.2568 L188.40808,72.666855 L189.10548,76.820496 L188.68129,81.642235 L186.37907,86.795395 L181.3948,91.210495 L176.10658,94.6919 L171.56334,97.9856 L167.7703,102.391304 L163.30447,106.865746 L158.10385,108.984055 L153.11603,110.01744 L148.10255,111.53003 L143.3473,111.997284 L142.1811,110.76449 M142.44316,110.889565 L139.24966,109.36533 M138.8376,109.47005 L141.17554,110.80961 L142.60411,111.21165 M142.44316,110.889565 L147.34158,109.901215 L152.35052,107.729965 L157.1447,106.48357 L162.12733,104.5119 L166.6235,100.60924 L170.7351,96.62381 L175.45435,93.2321 L180.62494,89.42183 L184.93065,84.6208 L186.44058,79.32408 L186.58218,74.52295 L186.16188,70.295975 L185.82942,66.3398 L186.39993,61.93091 L186.15436,57.7183 L185.37291,56.143173 M178.98033,53.234146 L178.40681,48.35207 L176.95697,44.029255 L175.0947,39.961987 M174.82501,39.587795 L174.64636,39.23917 L174.54407,39.19796 M177.09402,44.398808 L178.55019,45.185944 L180.75484,48.503235 M178.22932,47.599 L177.91277,46.62702 L177.76764,46.29668 M186.24533,63.125687 L186.4352,65.66189 L186.89041,69.2568 M189.80054,64.35509 L192.39638,66.20857 L192.92091,69.91733 L191.72224,74.21992 L190.44856,78.130936 L191.42885,81.245316 L192.35628,84.825966 L192.29807,89.09506 L190.50233,93.83412 L185.60555,97.97609 L180.02335,101.18423 L175.11899,104.163864 L170.83223,107.90795 L165.95789,111.313675 L160.73358,112.54923 L156.0015,112.767365 L151.25768,113.82752 L146.22176,115.07176 L142.08699,114.515205 L140.60315,112.578804 M141.45067,113.68481 L138.60445,113.24538 L134.21782,112.60346 L131.9577,110.25468 L131.29726,108.71765 M133.50801,111.86581 L134.20193,114.66658 L137.81831,115.97763 L142.1367,116.4099 L145.28241,117.7207 L149.09265,118.42388 L153.16695,119.00008 L157.57085,119.71799 L162.8491,118.91806 L168.3844,117.27504 L173.98868,115.11176 L178.99379,111.783516 L182.97197,107.914856 L185.9712,104.04062 L188.52046,100.446556 L191.69691,97.06743 L194.5064,93.53234 L196.35992,89.955215 L197.70732,86.3712 L198.74644,82.70535 L198.93002,79.15459 L198.24013,75.805405 L198.22177,75.78448 M198.32736,75.2583 L197.41301,71.81456 L195.21393,70.66331 M194.83968,69.00122 L195.63243,72.52188 L194.45143,76.77492 L192.82928,80.7872 L193.16699,84.052376 L193.64545,87.61173 L193.25023,91.7325 L191.34546,96.25342 L186.73518,100.30676 L181.36783,103.58085 L176.45609,106.64906 L171.957,110.30795 L166.86143,113.52313 L161.48607,114.79957 L156.57274,115.14828 L151.63756,116.188835 L146.40408,117.39027 L143.65704,114.90418 L143.46127,114.70019 M144.8656,111.84809 L144.8938,111.856026 L149.36171,111.66908 L154.07115,110.98673 L159.0047,110.44996 L164.27907,108.546555 L168.7914,104.065895 L172.47995,99.58987 L176.95966,96.41888 L182.31912,93.16904 L187.5083,89.00346 L189.9239,84.0441 L190.27998,79.40589 M195.57834,83.42969 L197.51396,79.31146 L198.32736,75.2583 M194.83968,69.00122 L192.66438,68.10356 M195.57834,83.42969 L194.47638,87.02612 L193.65623,90.58511 L193.2664,91.56388 M192.31767,93.94589 L192.15155,94.363 L192.11617,94.42418 M190.76096,96.76731 L189.87384,98.30113 L186.50479,102.18358 L182.34358,105.81687 L177.89267,109.36083 L173.15358,113.02901 L167.7306,115.910835 L162.14207,117.47444 L156.925,118.043045 L152.21751,117.983536 L147.60954,118.05624 L146.86429,117.28462 M144.71289,120.57912 L149.58757,120.226425 L154.03328,120.21241 L158.5451,120.365036 L163.63916,119.4346 L168.91042,118.05275 L174.49472,116.633316 L179.73622,113.90236 L183.69751,110.17982 L186.54158,106.4277 L189.43605,103.11371 L193.52393,99.94245 L196.97263,96.429565 L198.87132,92.85906 L199.03183,89.62231 L198.5612,86.66178 L198.3558,84.08349 M198.92311,91.81481 L200.10004,92.995674 L201.68518,95.82009 L200.17468,99.382454 L196.36525,102.95707 L191.20425,106.02469 L187.29013,108.96824 L184.14609,112.35925 L180.07597,115.68537 L174.75433,117.78823 L169.37753,118.66282 L164.45903,119.798805 L159.59663,120.89975 L154.7676,121.67524 L149.73253,122.424126 L144.4114,123.02138 L141.214,121.44188 L137.7966,120.087425 L135.42616,118.02297 L135.36159,117.15094 M134.41966,116.56154 L137.33095,118.38327 L141.39467,119.21564 L144.71289,120.57912 M142.5322,122.500916 L141.24605,121.4577 M142.5322,122.500916 L145.13698,124.42966 L150.06218,124.32918 L155.12952,123.72037 L160.33557,122.31659 L165.18066,120.89315 L169.85638,119.649086 L174.83835,118.748085 L179.94414,117.08197 L184.12387,114.33646 L187.802,111.49845 L192.9044,108.99465 L198.83437,106.03831 L202.59102,102.48264 L203.61928,99.01785 L201.27592,96.78526 M201.62486,96.74509 L202.60248,97.05328 L204.36464,99.26366 L205.28888,101.68111 L205.20903,104.29722 L203.19333,107.17609 L200.8,109.87558 L198.91473,112.405754 L196.95529,114.960846 L195.13765,117.72208 L192.4706,120.666405 L188.22163,123.36084 L182.94643,125.54753 L177.16228,126.931984 L171.6266,128.10641 L166.11433,129.53384 L160.2989,130.90523 L154.46185,131.66747 L149.75797,131.0143 L146.20833,129.62373 L143.79118,127.77212 L141.38194,126.13841 L138.14424,124.859856 L135.7814,123.09013 L134.19449,120.950714 L133.34596,118.500084 L134.04175,117.44655 M134.41966,116.56154 L134.30754,114.704865 M134.28452,114.69652 L133.41666,116.254395 L134.68877,118.68055 L136.47551,120.781 L138.97006,122.47366 L142.3478,123.59584 L144.60384,125.237045 L146.69356,127.24809 L149.90808,128.828 L154.44266,129.50218 L160.18195,128.53107 L165.81421,126.999504 L171.1158,125.42513 L176.33377,123.96817 L181.62257,122.3204 L186.42105,120.03377 L190.61578,117.443504 L194.55077,114.78313 L197.9834,111.9829 L200.36726,109.09228 L201.73752,106.26987 L201.83191,105.887474 M201.94107,105.770515 L202.97101,102.6148 L202.70717,102.09128 M205.13622,101.28176 L206.51949,102.869606 L207.1,105.36068 L206.55812,108.00017 L204.10521,110.79941 L201.08046,113.38246 L198.47061,115.72013 L196.29979,118.00176 L195.5273,120.67757 L193.87119,123.77604 L189.5167,126.42786 L183.75441,128.31303 L177.55482,129.15051 L171.98073,129.85043 L166.59502,131.07793 L160.96959,132.1761 L155.5115,132.57097 L150.72227,132.17839 L145.5594,132.0065 L142.37523,130.51636 L140.43109,128.56976 L138.84235,126.6352 L137.38893,124.707985 L136.84535,123.88701 M137.5503,124.92194 L137.50229,126.84263 L137.96835,128.78549 L138.92305,130.66222 L140.62363,132.40167 L143.80045,133.65237 L147.99799,134.39053 L153.02936,134.48347 L157.19928,135.11266 L161.76854,135.66422 L167.22598,135.09445 L172.58815,133.90024 L177.6728,132.78654 L182.95975,131.86275 L188.15703,130.55092 L192.55093,128.73393 L195.6396,126.606316 L198.73175,124.58934 L202.50037,122.562904 L205.29997,120.35361 L205.3706,118.24411 L204.51398,116.35049 L204.6973,114.78121 M204.89465,114.484795 L203.34398,116.813705 L200.42236,119.10021 L197.31943,121.246826 L195.61572,123.62401 L193.49556,126.31807 L189.08081,128.57256 L183.43684,130.09229 L177.54659,130.75748 L172.27104,131.47282 L167.05428,132.63841 L161.68103,133.42847 L156.83932,133.29633 L152.30888,132.94165 L146.34991,133.40681 L142.43266,132.38145 L140.34822,130.56108 L139.6608,128.40727 L139.09915,126.947914 M137.57765,127.15677 L137.5717,127.16082 L135.7201,129.29764 L135.9078,131.28195 L137.50276,133.02473 L140.83368,134.27055 L145.34293,134.9612 L149.71394,135.49208 L152.87947,136.6353 L157.09998,137.3277 L161.78676,137.90549 L167.35072,137.49823 L172.86203,136.45454 L177.95113,135.22586 L182.89424,134.12372 L187.72548,132.89333 L191.9766,131.34373 L195.53902,129.60834 L199.35225,127.89531 L203.31117,126.048744 L205.94089,124.004105 L205.56369,122.05589 L204.67801,120.84443 M205.09851,120.51259 L205.35547,120.6153 L205.76515,122.3938 L205.69434,122.73069 M205.47778,124.364174 L206.29027,124.748276 L206.72032,126.427345 L206.19666,128.12141 L205.36574,129.75969 L204.18803,131.37619 L201.9422,132.94684 L198.71887,134.38322 L195.46,135.76173 L192.68236,137.33302 L189.11862,138.90578 L184.47751,140.25185 L178.8851,140.98575 L173.19371,141.0207 L167.94482,141.00195 L162.77887,141.09425 L157.14883,141.38313 L151.6309,141.2653 L149.708,139.5144 L145.1456,138.94637 L141.67365,137.92984 L139.08429,136.65413 L136.64063,135.28351 L134.91623,133.72057 L135.0052,133.55583 M134.90134,133.48676 L137.23419,135.03839 L141.20757,136.1002 L146.05962,136.68164 L150.61617,137.11351 L151.9729,139.16667 L157.04771,139.43549 L162.32603,139.42526 L167.69061,139.15475 L173.04865,138.67393 L178.40802,138.0627 L183.63141,137.1349 L188.32758,135.83566 L192.19934,134.27435 L195.32724,132.62903 L198.82283,131.09879 L202.38899,129.48001 L204.857,127.69592 L205.42514,125.905525 L205.3931,124.430016 M205.66457,129.17052 L205.737,130.70819 L205.4481,132.18689 L205.55006,133.62346 L205.33382,135.1175 L203.35501,136.58542 L199.8723,137.8757 L195.77835,138.9705 L192.40916,140.19283 L188.88689,141.52989 L184.49493,142.7689 L179.11235,143.58327 L173.31982,143.68808 L167.85617,143.56369 L162.58745,143.44022 L157.21243,143.33662 L152.27916,142.85709 L148.60797,141.86876 L144.14592,141.14098 L141.95813,139.82657 L140.81387,138.41328 L138.68114,137.15785 L136.3691,135.80998 L135.74748,134.474 M134.90134,133.48676 L134.22949,131.63167 L135.81877,130.34071 M136.58955,135.9385 L135.82243,136.59958 L137.18654,137.99843 L139.43388,139.244 L141.10847,140.44785 L141.45776,141.86554 L143.1589,143.23734 L147.6603,144.0547 L152.74701,144.58488 L157.14752,145.34508 L162.28896,145.7881 L167.7245,146.04555 L173.37775,146.17169 L179.12054,145.95023 L184.17679,145.11935 L188.29407,144.05316 L191.76968,142.984 L195.72421,142.1323 L200.67798,141.36205 L204.51932,140.26097 L206.26794,138.90837 L205.23875,137.50476 L203.87437,136.24649 L203.87614,136.19882 M203.21219,140.63564 L204.11131,141.3607 L205.24327,142.61208 L203.46306,143.7413 L199.61667,144.58995 L194.96399,145.16954 L191.46869,145.91869 L188.22946,146.86115 L184.0882,147.69592 L178.90509,148.13136 L173.31407,148.08025 L167.85039,147.93384 L162.38239,147.73946 L156.98206,147.3734 L152.2347,146.67691 L147.05444,146.05775 L142.1692,145.24359 L139.652,144.01724 L139.18152,142.66931 L138.27922,141.44933 L137.1031,140.23763 L136.63522,138.97902 L137.67877,138.27124 M138.01904,141.18127 L137.60222,141.41502 L137.30713,142.48935 L137.44485,143.59036 L137.70525,144.74547 L138.77304,145.95964 L142.47427,147.00589 L147.67207,147.7793 L151.83751,148.6719 L156.87,149.34663 L162.4779,149.69064 L167.94633,149.86276 L173.19647,150.06735 L178.71893,150.4549 L184.25792,150.4728 L188.6125,149.8813 L191.67229,149.03232 L194.46724,148.2881 L198.46988,147.81007 L202.205,147.18987 L204.24028,146.30118 L203.92911,145.23946 L203.4344,144.2338 L203.92188,143.45026 M204.18655,146.32465 L204.6796,146.46176 L205.23561,147.4305 L204.57687,148.30963 L204.92413,149.22447 L205.07559,150.17404 L202.93585,150.90321 L199.02762,151.33269 L194.70757,151.59027 L191.70331,152.11803 L188.60965,152.7667 L184.24783,153.16614 L178.69223,153.01553 L173.0983,152.55592 L167.7005,152.24797 L162.11717,151.9009 L156.82054,151.28279 L152.41283,150.4295 L148.51799,149.54155 L143.39096,148.75517 L139.61607,147.77603 L138.61418,146.7177 L138.60817,145.77217 M138.1161,145.21265 L137.3146,145.39525 L137.96283,146.29404 L138.61377,146.65184 M138.35922,147.41449 L137.08098,147.94968 L138.47612,148.80867 L139.68652,149.56874 L139.34714,150.1543 L139.51854,150.82703 L141.94875,151.67082 L146.14122,152.5509 L150.09253,153.36955 L152.68105,154.25624 L157.16577,155.09769 L162.07362,155.9013 L167.36316,156.59175 L172.7125,157.25955 L178.44154,158.04395 L184.17181,158.57275 L188.7599,158.636 L192.50378,158.53513 L196.96407,158.64827 L202.15364,158.85016 L205.66765,158.66364 L206.73604,158.07487 L204.99901,157.15607 L203.55978,156.36194 L203.79504,155.76189 L203.12228,155.05225 L202.74474,154.94255 M204.69643,154.81512 L200.64586,155.07957 L195.60725,155.05884 L191.86807,155.25848 L188.54993,155.65033 L184.17967,155.84969 L178.64911,155.58675 L172.95888,155.04066 L167.41257,154.57326 L161.80003,154.01932 L156.86853,153.19685 L152.98994,152.26799 L149.40977,151.39897 L144.65427,150.58675 L140.98813,149.67091 L139.87416,148.77501 L139.90622,147.98126 L139.85527,147.83807 M139.1775,147.31274 L138.35922,147.41449 M139.15326,150.34375 L139.3852,150.30362 M139.15326,150.34375 L138.80725,150.83174 L139.72475,151.47131 L139.17517,151.86911 L137.89781,152.20343 L138.18118,152.76976 L141.53036,153.64922 L145.96452,154.56694 L149.23955,155.38065 L152.21156,156.2275 L157.31998,157.08171 L162.23071,157.90192 L167.23203,158.70049 L172.41515,159.51689 L178.09712,160.43988 L183.78201,161.14063 L188.38445,161.43599 L192.28688,161.5906 L196.75615,161.90216 L201.26288,162.1806 L203.85448,162.05447 L204.30267,161.56967 L202.94571,160.8509 L202.3747,160.29681 L202.73317,159.86398 L201.95311,159.27261 L200.26125,158.77654 M198.86572,162.81166 L195.48528,161.99855 L194.64018,161.75465 M195.17365,164.85309 L199.12637,165.2497 L201.26758,165.26266 L201.76642,164.97763 L201.71498,164.61885 L202.61226,164.42603 L203.28166,164.17484 L202.2122,163.64502 L198.86572,162.81166 M195.17365,164.85309 L191.05698,164.39958 L187.3411,164.05779 L183.04578,163.60895 L177.7706,162.8782 L172.1372,161.92905 L166.76837,160.98723 L161.68732,160.0464 L157.08554,159.12103 L152.46136,158.2089 L147.73483,157.26651 L144.63562,156.4633 L140.73459,155.56635 L137.86835,154.77649 L137.75665,154.37538 L139.37735,154.2738 L140.7892,154.17644 L140.36104,153.76216 L140.46548,153.41016 L140.5728,153.39778 M141.86418,156.54495 L141.66655,156.71686 L141.74768,156.92813 L140.06447,156.79994 L138.39821,156.70027 L138.141,156.8835 L139.7889,157.41605 L142.79338,158.18002 L145.99283,158.98232 L152.59184,160.24316 L156.58556,161.14056 L160.936,162.11887 L166.19568,163.20386 L171.8495,164.30876 L177.49844,165.34662 L182.41762,166.15236 L186.53008,166.77518 L190.12703,167.29898 L193.63356,167.81479 L196.76099,168.24513 L198.5559,168.3902 L199.37999,168.34354 L200.7348,168.40652 L202.82669,168.59702 L203.53589,168.50575 L202.01315,168.00093 L197.96906,167.07182 L194.17145,166.20851 L191.6498,165.5453 L188.90544,164.81711 L184.89111,163.8827 L184.02473,163.71124 M183.27637,168.1086 L178.0879,166.97133 L172.96823,165.85701 L167.9063,164.76231 L163.05013,163.73145 L158.66681,162.81721 L154.63708,161.98314 L150.89984,161.21625 L147.41936,160.50935 L144.60347,159.95544 L142.80046,159.62907 L142.13063,159.55194 L141.83836,159.55457 L140.2174,159.2699 L138.65927,159.0074 L137.98817,158.94455 L138.44481,159.1301 L140.90633,159.74048 L144.58363,160.60347 L151.52538,162.10603 L155.8591,163.08818 L160.53275,164.14236 L165.76453,165.30855 L171.48186,166.56337 L177.19987,167.78516 L182.15765,168.81087 L186.6293,169.72993 L190.5853,170.53238 L193.32271,171.05682 L195.03682,171.35567 L196.40793,171.58417 L197.69527,171.79718 L199.92532,172.21523 L201.95488,172.58185 L201.7871,172.46907 L199.53938,171.91357 L195.67207,171.02377 L192.6561,170.31737 L190.4463,169.7726 L187.5372,169.07669 L183.27637,168.1086 M181.62892,171.38972 L186.44797,172.5935 L190.93474,173.72292 L193.94067,174.51213 L195.54428,174.9685 L197.01666,175.38731 L198.59888,175.83006 L200.5491,176.36319 L201.30641,176.61177 L199.95709,176.34724 L197.10698,175.70961 L193.80252,174.95299 L191.85529,174.53467 L189.91533,174.1253 L186.64609,173.38356 L181.84894,172.24242 L176.79793,171.02321 L172.06273,169.89125 L167.03296,168.69058 L161.70213,167.39896 L157.035,166.23166 L153.27942,165.27176 L150.1385,164.45988 L147.07066,163.67017 L143.66843,162.80214 L141.09796,162.12654 L139.9552,161.78964 L139.81804,161.69589 L138.8605,161.40369 L137.59344,161.03043 L136.97511,160.8079 L137.7697,160.92686 L140.9427,161.63684 L145.12498,162.60333 L150.20227,163.80467 L155.34166,165.0298 L160.5008,166.26788 L165.48268,167.44887 L170.9761,168.75989 L176.6068,170.13557 L181.62892,171.38972 M180.49763,173.85999 L185.1127,175.20293 L189.74153,176.55379 L193.71805,177.76968 L196.47557,178.69917 L198.39337,179.41609 L200.03514,180.05931 L201.61717,180.69156 L201.70972,180.93332 L199.92764,180.65887 L196.81168,179.99466 L193.40878,179.22623 L191.4921,178.88997 L189.48924,178.55193 L186.04625,177.78905 L181.06145,176.51355 L175.9692,175.16568 L171.2097,173.95229 L166.05527,172.6474 L160.47083,171.16898 L155.60794,169.74681 L151.81311,168.55722 L148.6682,167.54222 L145.34007,166.50427 L141.36797,165.30656 L138.3987,164.33731 L137.16623,163.8027 L137.48839,163.68088 L137.17725,163.39722 L136.14798,162.9055 L135.87518,162.60002 L137.77762,162.89812 L141.95604,163.86945 L146.2771,164.90231 L149.85869,165.69984 L155.09027,167.05005 L160.25885,168.41403 L165.0821,169.62296 L170.41487,170.98512 L175.80531,172.47647 L180.49763,173.85999 M179.14694,176.33693 L175.64108,175.08203 M179.14694,176.33693 L183.25609,177.73714 L187.63396,179.18864 L192.32175,180.74425 L196.3683,182.18866 L198.90266,183.26836 L200.63058,184.13501 L201.83604,184.86043 L201.55536,185.15594 L199.83406,185.00488 L196.81541,184.42134 L193.11417,183.57794 L190.71303,183.15671 L188.50482,182.8348 L185.05862,182.09555 L180.21635,180.79996 L175.1813,179.3818 L170.29936,178.06512 L164.97946,176.63275 L159.24048,174.97514 L154.23607,173.3011 L150.28526,171.84586 L146.95663,170.57324 L143.34814,169.26479 L139.01788,167.76305 L135.7536,166.49704 L134.40718,165.73402 L135.10681,165.5617 L135.3784,165.28656 L134.58838,164.67879 L134.6524,164.30081 L137.45619,164.79466 L142.29742,166.00864 L146.59865,167.0774 L148.52359,167.49713 M145.28984,173.61154 L148.7313,175.1382 L152.89563,176.87003 L158.04233,178.78368 L163.8609,180.58856 L169.22098,182.104 L174.05061,183.4481 L178.78444,184.81102 L183.29988,186.04732 L186.68846,186.76476 L189.20581,187.1538 L192.21371,187.76013 L195.73395,188.52913 L197.84769,188.75269 L198.9926,188.62627 L199.96922,188.42336 L199.59386,187.77405 L197.53885,186.62494 L194.14166,185.12744 L189.56145,183.38226 L187.63867,182.649 M190.17195,187.34854 L191.4242,187.8967 L195.30652,189.70006 L197.7239,191.13466 L197.56982,191.7545 L196.2146,191.92258 L195.71791,192.37721 L194.56427,192.59752 L191.46606,192.02328 L188.05777,191.2743 L185.22397,190.78868 L181.7121,190.0081 L177.17693,188.66006 L172.60815,187.26414 L167.96909,185.93558 L162.76305,184.40036 L157.13593,182.5123 L152.2051,180.45888 L148.14238,178.56377 L144.88231,176.88979 L142.21,175.40941 L138.56342,173.70027 L134.72583,171.875 L132.32857,170.41696 L132.62555,169.81812 L133.57994,169.4827 L133.29741,168.69965 L133.38718,168.43816 M134.12141,168.87538 L132.22888,167.74841 L132.89204,167.40294 L133.70615,167.14178 L133.23729,166.45085 L133.48293,165.96104 L135.3306,166.25732 M134.12141,168.87538 L137.78903,170.47304 L141.96214,172.15192 L145.28984,173.61154 M142.61424,178.6885 L144.99246,180.2344 L147.98517,181.99362 L151.71901,183.97699 L156.23589,186.14226 L161.59433,188.13368 L166.66498,189.70996 L171.21112,191.08609 L175.9181,192.71503 L180.82578,194.37285 L184.6128,195.26855 L187.66263,195.78767 L191.23784,196.5707 L194.26627,197.04591 L195.24449,196.61111 L195.57939,195.94118 L196.83441,195.61125 L196.9193,194.80669 L194.37341,193.12427 L192.67519,192.24739 M194.55852,196.91602 L197.02985,198.79971 L197.24786,199.91867 L196.21407,200.51053 L195.6742,201.29343 L194.41551,201.78215 L191.23145,201.33023 L187.41751,200.48683 L184.0011,199.84697 L179.84984,198.75719 L174.67783,196.82037 L169.88808,195.01054 L165.33455,193.55766 L160.29932,191.8718 L155.17538,189.71057 L151.00618,187.40741 L147.4331,185.31398 L144.49167,183.42372 L142.30125,181.77667 L139.21773,179.9323 L135.66876,177.86812 L133.31929,176.10118 L133.58997,175.26414 L134.69061,174.80621 L134.65652,174.42162 M135.40817,174.92545 L139.17839,176.89494 L142.61424,178.6885 M138.40921,182.71579 L140.48376,184.47699 L142.42786,186.29985 L145.9025,188.49449 L149.88495,190.78017 L153.97118,193.22917 L158.8792,195.63176 L163.95535,197.52896 L168.55002,198.99373 L172.98882,200.52919 L177.89543,202.4278 L182.51707,203.92528 L186.66331,204.99718 L190.64188,205.88516 L193.69672,206.17924 L195.5127,205.80167 L196.71347,205.1198 L197.52623,204.23544 L196.85472,202.7169 L195.42264,201.3911 M194.5288,206.00624 L195.33748,207.53267 L194.62686,208.58748 L192.83113,209.07161 L190.75175,209.36235 L188.47337,209.53908 L184.9176,208.90942 L180.30086,207.4385 L175.39264,205.52194 L170.93845,203.78787 L166.98367,202.69733 L162.46007,201.29393 L157.45262,199.23015 L152.75266,196.65222 L148.59868,194.10284 L144.10782,191.6268 L139.98595,189.09029 L137.91142,186.96219 L136.39207,185.11288 L133.50926,182.856 L130.91911,180.59464 L130.89874,179.31589 L132.58398,178.86552 L132.90732,178.6227 M132.89679,178.65508 L135.29202,180.61133 L138.40921,182.71579 M134.5078,187.50826 L136.35936,189.66072 L138.82014,192.06409 L143.07076,194.76227 L147.55557,197.32416 L151.58873,199.93414 L156.06158,202.58183 L160.86673,204.68161 L165.22311,206.05704 L169.03526,207.12482 L173.44327,209.00827 L178.42595,211.15218 L183.0179,212.68256 L185.93526,212.8725 L187.40111,212.16016 L189.32007,211.77278 L191.22507,211.32411 L191.90236,210.18842 L191.43143,209.26732 M188.40465,211.95758 L188.89522,212.92554 L188.44685,214.25665 L186.59683,214.77737 L184.80296,215.28053 L183.84839,216.42905 L181.41219,216.66238 L176.93376,215.19566 L171.8954,212.89696 L167.29286,210.64285 L163.39633,209.2435 L159.22034,207.76604 L154.72404,205.64441 L151.67409,203.70645 M150.3687,202.41313 L154.17543,206.1847 L157.85832,209.59502 L161.70224,212.97432 L164.96463,216.69987 L168.11852,220.51912 L172.23041,224.77559 L175.01183,229.05191 L175.09947,232.26762 L173.8479,234.50175 L172.97858,236.71005 L173.41536,239.91106 L173.07318,242.75438 L172.49928,243.3015 M172.54132,243.82114 L172.26408,240.39502 L172.37,237.41489 L173.37242,234.8563 L173.17082,231.40985 L169.8248,226.8194 L165.56297,222.51836 L162.86725,218.73088 L160.06635,214.90884 L156.38766,211.4488 L152.75014,208.09184 L149.10269,204.28815 L144.97838,200.15947 L140.32338,196.32164 L135.83296,194.31783 L134.72923,196.01959 M134.91515,195.89932 L139.2916,197.73444 L143.84752,201.07071 L148.00993,205.2488 L151.73149,209.2082 L155.6797,212.5804 L159.60371,216.30692 L162.23125,220.53783 L164.4419,224.59407 L168.00931,228.94794 L170.90018,233.53026 L170.91441,237.002 L170.09396,239.77313 L170.53566,243.32416 L170.49352,246.7261 L168.10118,248.05283 L167.95248,248.063 M167.8765,249.0563 L165.36086,250.08331 M165.24223,251.28331 L162.75468,252.64426 L162.51537,252.64252 M162.41893,253.22868 L160.66989,255.51605 L159.06982,256.08997 M159.48996,254.95567 L158.3403,258.05963 L156.3796,260.4244 L155.21606,260.36594 M155.48666,259.86365 L153.86694,262.87018 L151.39946,263.63196 M150.73639,264.3929 L148.68022,265.5021 M148.37726,266.40735 L149.68462,262.50104 L150.09007,257.93585 L151.38919,254.1694 L152.67288,250.02393 L152.44814,244.86256 L150.42587,239.3012 L148.10318,234.0158 L145.87354,228.83008 L143.55125,223.49713 L140.34502,218.68193 L136.4088,215.13663 L132.50029,212.24522 L128.74179,208.88452 L124.78537,205.96823 L120.92568,205.10072 L117.050285,204.03786 L112.96498,202.90517 L109.68872,204.1662 L108.34774,206.77501 M108.526665,206.82147 L108.97565,206.13223 L112.35737,205.35599 L116.27759,206.57669 L117.888794,206.9557 M117.17597,206.94485 L121.07872,207.0043 L124.9939,210.15517 L128.71848,213.55447 L132.7432,216.36726 L137.01808,219.72374 L140.51788,224.73486 L141.85594,231.1633 L142.25063,237.1363 L142.77881,242.45323 L144.21112,247.7711 L145.16234,253.25784 L144.02278,257.7317 L141.63535,260.85324 L139.4341,263.61493 L138.42784,267.81958 L137.04266,272.11606 L134.89708,275.84857 L131.8714,278.33957 L131.60611,278.28842 M132.3154,277.76282 L129.1022,280.14386 L128.35944,279.89148 M127.232475,280.40384 L129.60843,279.32364 L132.09087,275.5143 L133.73114,270.93475 L135.21098,266.77164 L137.98744,264.118 L140.76846,260.774 L142.03693,255.82402 L140.74342,249.76865 L139.02592,244.15608 L138.71783,238.6874 L138.53362,232.58012 L136.9657,226.41818 L133.27989,221.99356 L129.22908,218.90167 L126.71468,217.14775 M127.16742,218.39888 L123.49038,215.05238 L119.39278,213.83214 L116.5619,212.64398 M117.03229,212.15572 L113.379585,207.9089 L112.22566,207.88608 M112.12166,207.75508 L114.46849,210.711 M113.70737,211.81377 L109.6442,210.67825 L106.08263,209.85046 M105.91588,209.72856 L105.69192,209.03995 L105.267815,208.75299 M105.25362,208.7236 L106.97241,207.97507 L110.76873,209.22896 M111.22186,209.11351 L115.20694,211.07434 L118.55694,214.95512 L120.938835,220.2204 L122.513824,225.8691 L124.14945,230.95045 L126.86982,235.47995 L129.18364,240.85846 L130.4369,246.97151 L130.23143,253.23271 L128.65633,258.95483 L126.899216,264.33264 L125.04071,269.60666 L122.544624,274.2662 L118.882576,276.88077 L117.19819,277.276 M116.58914,277.88742 L119.978195,274.4851 L121.8788,268.98456 L123.426575,263.56464 L125.14814,258.39636 L126.95346,253.00691 L127.39193,247.01697 L126.12844,241.17697 L123.826385,236.13438 L121.53033,231.71442 L120.54929,226.36655 L119.345955,220.51399 L117.11837,215.23477 L113.70737,211.81377 M111.71886,213.70706 L115.17209,216.3938 L117.456696,221.13435 L118.69564,226.65341 L119.54584,231.92178 L121.53295,236.35527 L123.642525,241.28476 L124.80192,246.97708 L124.19492,252.81152 L122.1431,257.9741 L120.2273,262.86584 L118.60223,268.0585 L116.9236,273.77792 L113.89949,277.92816 L109.8844,279.56024 L108.12923,279.542 M108.4605,279.92017 L112.12166,280.35468 L115.91984,280.45532 L119.717,280.61575 L123.56944,280.34848 L127.04294,278.488 L129.65956,274.83368 L131.17096,269.85825 L133.0933,265.7874 L135.76431,262.14197 L137.53592,257.29773 L136.67337,251.19362 L134.86674,245.4467 L134.35513,240.02719 L134.01468,234.20374 L132.78932,228.23962 L130.28476,222.96487 L127.16742,218.39888 M128.34204,218.40318 L131.92796,222.34279 L134.82304,227.41974 L135.95013,233.5904 L136.11125,239.4885 L136.5988,244.83534 L138.73653,250.54083 L140.19232,256.81845 L138.75134,261.87296 L136.01126,265.47784 L133.68182,268.9863 L132.1797,273.7067 L129.97687,277.91812 L126.86676,280.73508 L123.001236,281.40503 L120.40337,280.56815 M120.06558,278.94125 L116.42226,279.24063 L112.868,279.573 L109.21146,279.9109 L107.68316,279.92978 M107.35863,280.2119 L103.39109,281.63132 L102.1803,281.50082 M100.77021,282.6302 L104.523186,279.6244 L107.61375,275.2976 L110.38818,271.03577 L113.71817,267.66815 L117.00781,263.67084 L120.03554,258.8363 L122.40238,253.11035 L122.40897,246.69424 L120.995705,240.76259 L119.604904,235.38416 L119.08763,229.70416 L118.01656,224.07146 L115.13286,220.17012 L111.62388,217.6328 L108.36037,215.23172 L108.30114,215.18985 M108.298965,215.18726 L110.21324,217.471 L113.72949,219.92984 L116.756,223.62389 L117.62964,229.34828 L117.70641,235.1732 L118.87762,240.51117 L120.196396,246.35587 L120.01729,252.67455 L117.38993,258.22992 L114.15903,262.8415 L110.673744,266.51038 L107.18805,269.43015 L104.48724,273.59064 L101.53884,278.17175 L97.90703,281.81296 L93.788086,283.1728 L92.14668,282.71924 M92.43053,281.30807 L88.07781,283.69794 M88.78397,283.3102 L90.94104,283.4091 L95.100624,281.029 L98.75653,277.18597 L101.73854,272.56934 L104.26118,268.07306 L107.46899,264.97046 L110.89032,261.5044 L114.15346,257.17368 L116.78389,251.88716 L117.052864,245.8742 L115.94896,240.311 L114.98712,235.2061 L115.089516,229.61159 L114.515045,223.99924 L111.84185,220.20859 L108.783104,217.2785 L108.59631,216.89442 M108.28285,215.09476 L109.690445,215.4168 L113.21235,217.41145 L116.12553,220.89761 L116.77332,222.38948 M121.70554,221.11845 L123.97431,225.82324 L126.92507,229.95944 L130.14336,234.6171 L131.91222,240.50693 L132.62802,246.78955 L132.54425,253.07994 L131.22824,258.89764 L129.17268,264.00897 L126.69657,268.42328 L123.799484,271.9237 M126.16624,274.10526 L127.920265,269.59598 L130.05295,265.82922 L132.83177,262.32123 L134.9056,257.67487 L134.86868,251.81178 L133.8124,245.98543 L133.50537,240.2894 L132.94785,234.32266 L130.98521,228.78828 L128.01839,224.21819 L125.06831,219.89156 L121.70043,216.44789 L118.61715,215.08823 M120.6554,213.825 L124.54362,215.47289 L128.34204,218.40318 M130.79062,218.08499 L135.02919,221.06468 L138.91362,225.48012 L140.59923,231.7241 L140.87402,237.8828 L141.13983,243.36493 L142.4541,248.81354 L143.41809,254.5004 L142.2068,259.1628 L139.57623,262.30252 L139.18814,262.67426 M143.18143,263.786 L141.81659,267.62793 L139.61975,270.5134 L136.87686,272.40448 M134.45076,273.61548 L132.3154,277.76282 M134.45076,273.61548 L135.7781,268.95108 L136.8528,265.20245 M140.60825,269.21506 L142.36305,269.11627 L145.42563,267.54938 L147.06464,263.91458 L148.10211,259.7535 L149.7058,255.97658 L150.84836,251.52312 L149.84305,245.96635 L147.24391,240.40608 L145.09468,235.34119 L143.4701,230.20041 L142.14162,224.32393 L139.5454,218.67221 L135.59282,214.708 L131.46014,211.86374 L127.49012,209.36186 L123.577156,207.46515 L122.82521,207.45888 M122.31028,207.1849 L126.29901,209.30713 L130.31819,211.939 L134.5419,214.79372 L138.66994,218.71654 L141.38284,224.522 L142.27106,230.91307 L143.12372,236.38965 L144.49573,241.44852 L146.74124,246.84013 L147.9672,252.42574 L146.8904,256.92935 L144.87143,260.3754 L143.18143,263.786 M145.06616,267.7333 L145.18013,267.7366 L148.37726,266.40735 M148.35,266.5691 L150.90356,264.51517 L152.5943,261.5039 L153.91565,258.97443 M154.15407,258.60297 L152.35007,261.41357 L151.28471,262.46878 M150.73639,264.3929 L151.84294,260.5099 L152.09044,256.05273 L153.1034,252.30397 L154.23317,248.31412 L154.49544,243.51569 L153.05238,238.07893 L150.70995,232.68317 L148.07816,227.4687 L145.08508,222.47821 L141.48212,218.16031 L137.55658,214.78331 L133.74188,211.79018 L130.01367,207.98462 L125.950455,204.49908 L121.65676,201.84192 L117.58054,201.0161 L113.67485,200.90111 L110.708374,202.87146 L110.08856,204.0123 M109.22303,205.07217 L108.365265,205.60582 L107.83892,206.82964 M107.8341,206.83562 L109.16151,205.19188 M108.14012,206.7211 L104.870895,207.94449 M104.878174,207.94658 L105.61579,209.47316 M105.80075,209.68283 L103.7685,207.37915 L99.04266,207.20699 L98.59683,207.36067 M98.51971,207.12558 L100.62583,206.72612 L102.77504,207.34296 M103.20712,207.3587 L102.021805,206.5567 L98.17401,206.67459 M98.84681,208.12268 L99.14578,208.59126 M99.26749,209.19037 L99.55012,209.20998 L103.799965,210.4501 L106.07197,214.48581 L107.18106,219.48776 L107.93182,224.5892 L107.73992,230.06514 L106.34813,235.68349 L104.84321,241.04369 L104.39624,246.64392 L103.122246,252.60966 L99.71144,257.62186 L95.24027,261.10602 L90.76298,263.44296 L87.13631,266.96875 L83.38339,271.30722 L79.054924,274.48883 L74.673874,275.02975 L70.63844,274.35886 L66.3917,274.53967 L62.35358,273.68958 L60.93904,271.59674 M61.69072,269.9618 L57.57161,269.48392 L57.02537,268.7331 M58.75002,268.9889 L54.56382,268.36798 L53.65233,266.97443 M49.824356,263.7909 L46.26014,261.95416 L45.560448,260.49515 M45.056023,259.0521 L49.349117,259.60492 L53.783836,259.50455 L58.16529,259.21732 L62.468155,259.71643 M60.676674,259.50864 L56.79169,260.1901 L52.286797,260.9425 L47.81134,260.9286 L43.474934,260.09357 L41.5907,258.2352 M40.7572,258.03873 L37.456543,255.57477 L35.539467,251.78917 L35.284897,249.20746 M34.757786,248.29483 L33.774223,244.21858 L33.957478,241.61649 M34.26667,242.1568 L34.87457,244.22253 L36.686108,247.31418 L38.95931,250.02856 L41.77616,252.26425 L45.306324,253.6996 L49.46723,254.15558 L53.998615,253.71097 L58.54131,253.14023 L63.26719,252.31242 L68.175224,250.2917 L72.71115,246.77399 L77.049255,243.3949 L81.88177,240.40665 L86.81676,236.81107 L90.57536,232.2234 L92.42206,227.26553 L93.821754,222.5722 L95.51663,217.90631 L97.374374,212.97687 L97.0727,208.68703 L94.41043,205.83302 L94.04747,205.55122 M93.551125,206.31952 L95.44575,209.62346 L95.82224,213.80086 L93.80606,218.56671 L90.639336,223.24405 L86.58441,227.53839 L81.90351,231.18799 L77.22009,234.23822 L72.653595,236.74915 L68.38616,239.16762 L64.15975,241.7187 L59.753384,243.50629 L55.365944,244.761 L50.64799,246.49747 L45.64827,247.915 L41.278706,247.7303 L37.93568,246.13283 L36.878124,244.65163 M35.215828,243.81543 L38.6048,245.5202 L43.105484,245.82199 L48.186165,244.80276 L53.172558,243.23788 L57.909958,241.7571 L62.587414,239.73177 L67.050896,237.13777 L71.55211,234.70993 L76.23851,232.08904 L80.60931,228.78969 L84.18938,224.93127 L87.64385,220.92009 L91.33283,216.63399 L93.8118,212.12073 L93.13728,208.29073 L91.53162,205.12096 L91.46153,201.39877 L91.32388,197.44598 L90.897575,196.7071 M90.180565,196.15376 L89.98692,194.25821 L88.62786,193.27829 M88.5767,193.17807 L88.75388,193.36916 M88.527504,193.08171 L88.987946,193.98358 M88.527504,193.08171 L88.005974,192.614 M87.97735,192.57407 L86.840614,191.70154 M86.63708,191.38635 L87.86704,192.48941 M87.97735,192.57407 L89.78932,195.10129 M90.037506,194.75342 L90.912384,195.69688 L90.85453,199.64253 L90.42112,203.45709 L91.545815,206.6456 L91.90029,210.33507 L89.18185,214.58751 L85.56951,218.57965 L83.009186,222.54808 L80.24051,226.728 L75.83838,230.26483 L70.83853,233.01717 L65.99304,235.59901 L61.13253,238.34384 L56.018826,240.48933 L50.924862,241.75171 L46.135662,242.12358 L41.711227,241.88661 L37.53967,241.28589 L34.23314,239.70647 L32.397053,236.96146 L30.334478,234.56796 L27.507982,232.50432 L25.910181,229.6165 M23.977678,228.98619 L23.425419,226.5463 M23.977678,228.98619 L27.92249,230.27283 M27.490429,232.4726 L27.44166,232.63647 L28.99572,235.74352 L31.64588,238.01212 L33.463528,240.75333 L35.215828,243.81543 M38.48537,246.3955 L40.62162,248.34933 L43.976704,249.76607 L48.05945,250.11307 L52.583,249.3645 L57.008526,248.4827 L61.46486,247.62396 L66.080894,245.8376 L70.44713,242.86794 L74.7401,240.01099 L79.464775,237.32092 L84.450424,234.10585 L89.110374,230.07748 L92.29664,225.35927 L94.41575,220.54922 L96.1211,215.76854 L96.94237,211.13857 L95.70139,207.35829 L93.14684,204.56721 L92.49295,203.97125 M92.10663,203.11394 L91.46502,201.58388 M91.72508,200.67757 L93.422905,204.11653 L96.22877,206.66641 L98.44796,209.9503 L97.58239,214.87282 L94.73637,220.07054 L94.67956,220.21072 M99.1553,218.10785 L100.03408,212.96426 L99.730385,211.4692 M102.254776,206.71434 L103.28837,206.6228 L103.94755,207.5821 M104.06257,207.7125 L104.878174,207.94658 M106.22723,210.16626 L106.85044,210.87271 L107.34659,212.61102 M107.400345,212.72841 L107.76923,213.10112 L111.71886,213.70706 M111.22186,209.11351 L107.25749,210.12352 M108.14012,206.7211 L112.12166,207.75508 M113.663574,208.23907 L114.49079,208.13696 M114.68366,208.53308 L114.07617,208.7188 M113.976654,208.60309 L115.933266,207.68437 L119.800026,208.62286 L123.50325,211.93636 L126.97097,215.40918 L130.79062,218.08499 M124.38796,215.4069 L121.98568,213.47044 L118.423904,210.80379 L114.68366,208.53308 M113.828606,208.43095 L117.17597,206.94485 M121.45188,207.30461 L122.31028,207.1849 M127.278206,204.90784 L131.26608,207.13574 L135.26166,209.79532 L139.2608,212.96254 L143.04414,216.9462 L146.21416,221.71863 L149.009,226.61345 L151.81035,231.52774 L154.26807,236.68065 L155.75804,241.86877 L156.11447,246.6659 L156.00632,251.10913 L155.41812,255.16577 L154.15407,258.60297 M154.17145,258.55573 L156.51332,256.6654 L158.67221,254.08823 L158.7781,249.72658 L157.8457,244.86581 L156.85634,240.0917 L155.31516,235.17928 L152.76006,230.30267 L149.81367,225.7215 L147.2157,220.98247 L144.45982,215.84863 L140.819,211.33641 L136.67317,208.00914 L132.50615,206.34792 L128.65268,205.19875 L123.94619,200.16502 L123.020515,200.09209 M122.97542,200.04108 L124.712906,199.60979 L128.10458,199.6298 L132.0989,201.25026 L136.12929,203.04036 L140.26314,205.74464 L144.16908,209.51974 L147.82968,213.36058 L152.09256,216.63168 L156.73544,220.50645 L160.18361,225.40997 L162.34602,230.45064 L163.09473,235.04391 L163.07672,239.00838 L163.12372,242.71155 L163.0208,246.22859 L162.97437,249.85262 L162.41893,253.22868 M160.73404,252.10945 L159.48996,254.95567 M158.68443,254.4744 L160.48186,251.78484 L160.22343,247.44695 L159.12958,242.78943 L158.61833,238.40721 L157.63559,233.6794 L155.06639,228.7693 L151.7491,224.22371 L148.52701,219.89166 L145.41956,215.34897 L141.82204,211.10739 L137.81612,207.71393 L133.7375,205.45126 L129.7688,203.54242 L125.73284,201.55661 L125.201546,201.50766 M125.19258,201.49808 L127.26291,201.68262 L130.81291,201.7447 L134.95465,204.43814 L138.9658,207.45914 L142.79762,210.94608 L146.39145,214.76018 L150.14758,218.4451 L154.28795,222.3787 L157.94858,227.07516 L160.4176,232.1358 L160.77402,236.7443 L160.51631,240.68578 L161.25934,244.86624 L161.64247,248.9431 L160.73404,252.10945 M158.68443,254.4744 L156.65533,256.67072 L155.48666,259.86365 M148.35,266.5691 L147.91658,266.59888 M145.86493,267.45187 L145.32411,268.01953 L142.34908,269.86993 L140.18753,269.76764 M130.60553,262.9135 L132.84016,258.22562 L133.55954,252.4594 L133.20964,246.43927 L132.97456,240.39226 L132.02194,234.29309 L129.18152,229.24873 L125.70681,225.39944 L122.90571,221.32816 L119.90612,217.66904 L119.72194,217.5304 M120.06413,218.28682 L121.70554,221.11845 M120.6554,213.825 L117.03229,212.15572 M108.92296,218.76978 L109.792625,220.57138 L111.54577,224.89833 L112.02119,230.09605 L112.3065,235.11978 L112.96932,240.01642 L113.67118,245.27542 L113.80029,251.0522 L111.74184,256.43124 L108.42289,260.6975 L104.8934,264.03488 L101.93243,267.5956 L99.522446,272.78043 L96.32317,277.51297 L92.43053,281.30807 M95.99012,282.4458 L96.620926,282.7532 L100.77021,282.6302 M107.35863,280.2119 L110.915886,277.11948 L113.72612,272.63657 L116.109055,267.8764 L118.52222,263.25055 L120.9833,258.4078 L123.181175,252.9855 L123.48258,246.88292 L122.19566,241.09389 L120.43264,235.96646 L119.237915,231.3544 M111.27025,231.66385 L110.11534,226.62262 L109.37595,222.57509 M105.895226,225.97023 L103.04763,221.89632 L101.84267,221.04427 M105.89031,226.00883 L106.488495,227.3978 L105.36684,233.10477 L102.89009,238.71207 L100.12948,243.91815 L97.14593,248.76717 L93.66326,253.05319 L89.718506,256.45453 L85.87273,259.4236 L82.39079,263.37183 L78.47972,267.4111 L74.08726,270.00732 L69.864746,270.0125 L65.97993,269.41193 L61.69072,269.9618 M64.66508,274.17618 L65.221344,274.78586 L68.85766,276.60184 L72.863174,277.58997 M77.25876,279.69595 L78.2518,280.54916 L82.479324,281.47995 L86.939964,278.80096 L90.969734,275.1116 L94.444275,270.8221 L97.37861,266.31873 L101.023415,263.32297 L105.20026,260.13174 L109.030876,255.70186 L111.35216,250.00615 L111.710884,243.96548 L111.8886,238.28372 M91.27441,234.05186 L91.91953,229.04369 L92.154495,227.98387 M91.27441,234.05186 L88.752045,239.16582 L84.24478,243.29459 L79.50461,246.78647 L75.11339,250.69847 L70.362015,254.47482 L65.2211,256.55692 L60.299908,257.32178 L55.65532,257.68488 L51.022804,258.0743 L46.66631,257.69742 L42.81346,256.406 L39.448944,254.4187 L36.724663,251.70023 L34.757786,248.29483 M37.039997,236.51305 L40.848602,237.29047 L44.438713,238.74136 L48.8531,239.59105 L54.210514,238.54929 L59.671223,236.33499 L64.873405,233.60115 L70.017914,230.95198 L75.190735,228.0585 L79.62803,224.41063 L82.18688,220.15906 L84.333626,216.22765 L87.56508,212.42761 L90.18763,208.4317 L90.48408,204.78067 L90.01489,201.47298 L90.04075,201.19102 M91.42023,200.21262 L91.72508,200.67757 M90.4818,199.1606 L90.2726,197.8241 M90.350334,197.81555 L90.32112,198.13406 M90.350334,197.81555 L90.33572,197.67247 M92.10663,203.11394 L93.551125,206.31952 M96.92881,205.14366 L96.96198,205.1685 L97.009155,205.24245 M82.313156,200.45918 L80.75848,203.56203 L78.18127,206.80374 L74.64063,210.06789 L70.30049,213.29156 L65.08705,216.2248 L59.043163,218.08719 L53.08787,218.94408 L47.496727,219.83884 L42.054493,220.52324 L36.862953,220.74174 L31.812418,220.69547 L27.066929,220.20847 L22.551327,219.36842 L18.809914,217.87437 L17.797035,215.02635 L18.48955,212.28915 M19.02511,213.08295 L17.432762,210.72281 L18.011726,207.83582 M18.910093,208.50418 L22.90068,209.5685 L26.238186,210.89438 L30.248154,211.83395 L35.577908,211.55478 L40.661694,211.27737 L45.552822,211.58086 L51.082047,211.59308 L57.026432,210.40137 L62.37423,208.00996 L67.2061,205.58693 L71.82531,203.2195 L76.242096,200.7595 L80.02535,198.08958 L82.6171,195.2839 L83.76205,192.69376 M83.77401,192.68245 L80.87169,195.42598 L76.02741,197.81326 L70.67288,199.7749 L65.90349,201.75851 L61.164696,203.86206 L55.98298,205.96985 L50.23361,207.13838 L44.772774,207.26309 L39.87412,207.0305 L34.987274,207.05594 L30.043547,207.01875 L26.162815,206.11504 L22.652275,205.00578 L18.058178,204.25131 L14.816355,202.71802 L14.728337,200.18484 L15.160835,199.58519 M16.384449,200.25838 L13.42596,198.63074 L12.489014,196.39944 L13.516566,193.85399 L13.667329,193.73871 M13.678429,187.52301 L12.389257,185.71716 L12.601605,183.68268 L14.533108,181.89798 M14.019721,181.40793 L15.63644,182.95117 L16.98719,184.44714 L17.67571,186.11613 L19.398485,187.67677 L23.256721,188.62994 L27.496202,189.38768 L31.359238,190.44263 L36.361465,190.9654 L42.284798,190.45235 L47.909554,189.43945 L52.988476,188.53365 L58.16178,188.00166 L63.346024,187.19658 L68.69591,186.24042 L74.906685,185.24652 L79.45503,183.58269 L81.13719,181.53508 L82.21352,179.61617 L84.9572,177.74376 M86.060616,175.25456 L87.80121,173.42119 L86.3899,171.9361 M87.03578,171.16174 L85.69364,172.77084 L83.18568,174.28972 L81.624146,175.86346 L78.98025,177.39827 L73.46378,178.37462 L67.55139,178.97414 L62.94441,179.85663 L58.117214,180.69911 L52.694084,181.05217 L47.31129,181.19638 L41.85925,181.4325 L36.009293,181.6805 L29.792425,181.74782 L24.627075,181.08015 L20.983835,179.90897 L18.601059,178.53816 L17.473457,177.07062 L16.273672,175.73276 L15.079812,174.42027 L14.112224,173.0575 M13.548014,171.50056 L12.250778,170.19652 L11.881198,168.84851 L12.737942,167.50566 L14.442504,166.25471 M13.829808,165.74542 L13.391445,164.59264 L14.403969,163.48575 L15.714123,162.75235 M15.180198,162.35353 L13.331724,161.3136 L12.574299,160.26328 L14.207659,159.35423 L15.985158,158.7528 M15.961147,158.73479 L14.481534,157.77904 L12.027722,156.7751 L10.9,155.78966 L13.001067,155.07532 L15.732213,154.49661 L16.738422,153.90569 M17.078703,154.06369 L15.246045,153.21269 L12.546502,152.27518 L11.2670765,151.40666 L13.283351,150.89566 L15.912696,150.51648 L17.045523,149.91537 L18.016953,149.31293 M18.378265,149.45474 L16.467796,148.70486 L14.143245,147.89307 L13.078649,147.1966 L14.544433,146.8383 L16.37643,146.5561 L17.310795,146.10815 L18.648897,145.66985 L21.14123,145.62709 M20.36871,150.22522 L23.80211,151.09839 L27.75557,151.99193 L31.385244,152.94112 L35.974865,153.96921 L41.816025,154.90651 L47.90882,155.68785 L53.778656,156.337 L59.561043,156.98535 L65.387985,157.60117 L70.51368,157.9536 L73.717834,157.83542 L76.44076,157.68225 L80.2777,157.76747 L83.48793,157.70094 L84.217606,157.21878 M83.53656,159.19734 L84.36687,159.7887 L84.06855,160.4038 M84.037674,160.60971 L80.61455,160.88309 L76.27209,160.93613 L73.030624,161.18805 L69.5294,161.44032 L64.373215,161.25557 L58.67676,160.80603 L53.153954,160.35307 L47.577385,159.92686 L41.804268,159.33684 L36.171658,158.58237 L30.991285,157.71799 L26.28996,156.8092 L21.913544,155.88087 L18.616226,154.93756 L17.078703,154.06369 M18.378265,149.45474 L20.36871,150.22522 M17.317352,159.75221 L15.961147,158.73479 M17.317352,159.75221 L20.672037,160.77087 L25.464102,161.68056 L31.09924,162.39908 L36.715263,162.97546 L42.04028,163.52342 L47.379974,163.9361 L52.570698,164.17963 L57.76268,164.46706 L63.169865,164.7446 L68.33238,164.81015 L72.72582,164.60367 L76.99537,164.34036 L81.53991,164.05956 L84.82586,163.50644 M85.749016,166.367 L82.83706,167.24179 L78.70674,167.89359 L73.679344,168.29118 L68.07523,168.4115 L62.553272,168.37558 L57.234642,168.21964 L52.24019,168.09238 L47.25485,168.00677 L42.200676,167.68921 L37.253624,167.23503 L31.854696,166.84718 L26.200174,166.32472 L21.515797,165.49498 L18.203323,164.4795 L16.569418,163.3912 L15.180198,162.35353 M13.829808,165.74542 L15.190904,166.8768 L16.860394,167.99516 L19.10787,169.09682 L22.459038,170.08913 L26.813053,170.89024 L31.858574,171.44261 L36.818073,171.9382 L41.80004,172.44525 L47.125767,172.70494 L52.39665,172.57268 L57.553616,172.46149 L63.129623,172.47295 L69.06735,172.37451 L74.78687,171.98293 L79.038734,171.142 L82.15569,170.09718 L84.816956,168.9948 M85.85819,170.09468 L87.03578,171.16174 M85.816864,180.45224 L85.81992,180.45616 L86.22643,182.66554 L85.378395,185.05125 L84.49381,187.45477 L83.43607,189.98961 L81.164154,192.63853 L76.72484,195.02383 L71.07634,196.88931 L65.83691,198.65526 L60.567436,200.28607 L55.05505,201.55527 L49.5006,202.51707 L43.98324,203.19296 L38.613922,203.50098 L33.538635,203.42041 L28.824165,203.0028 L24.57512,202.24207 L20.563524,201.29056 L16.384449,200.25838 M16.89824,203.7027 L16.767778,203.89343 L16.418982,206.65083 L18.910093,208.50418 M19.02511,213.08295 L22.464096,214.57439 L26.043928,215.9565 L30.416132,216.79472 L35.993076,216.36113 L41.324062,215.86407 L46.42838,215.8909 L52.040142,215.72194 L58.1275,214.67747 L63.880432,212.38582 L69.027756,209.69084 L73.58799,206.84578 L77.09106,203.79079 L79.62821,200.76155 L81.609795,197.87381 L82.58372,195.32005 M84.124756,194.80096 L83.12437,197.58214 L82.313156,200.45918 M84.124756,194.80096 L85.12349,191.97769 L84.83978,190.36325 M85.01769,189.9761 L83.77401,192.68245 M86.061844,190.74779 L85.27652,189.32794 L85.0923,189.15797 M85.039276,189.7394 L85.142166,189.98701 M113.863495,200.90666 L114.87019,200.11299 L118.31655,198.96355 L122.44636,199.44267 L127.278206,204.90784 M126.77201,197.61453 L127.14318,197.50963 L130.26845,197.12083 L134.20921,198.31828 L138.2611,199.32541 L142.7194,201.89874 L146.93422,206.07541 L150.72208,210.21806 L154.8735,213.69298 L159.00224,217.6548 L161.6435,222.24472 L163.63795,226.62112 L166.56548,231.10362 L168.8003,235.64601 L168.56236,239.12477 L167.7032,241.98131 L168.13481,245.68002 L167.8765,249.0563 M165.58316,247.83427 L165.27681,244.08528 L166.02039,241.06271 L166.36371,237.54778 L165.03525,233.16502 L162.9367,228.57426 L160.98631,223.86479 L158.12105,219.01878 L153.73323,214.99324 L149.45088,211.56195 L145.6902,207.41995 L141.55211,203.3414 L137.21913,201.1505 L133.3499,200.49303 L128.8242,197.4265 L125.50176,197.73091 L122.609924,198.49779 L119.36031,198.6667 L116.192154,199.2022 L115.61113,199.86588 M119.70359,198.64886 L121.31588,198.39372 L123.284355,198.31894 M122.53865,197.8805 L122.21326,198.35963 M122.53865,197.8805 L124.525116,196.65611 L127.706375,196.90825 L129.60153,197.20381 M131.217,197.40907 L132.57544,197.41289 M132.17445,197.67229 L134.91515,195.89932 M134.32466,194.87717 L131.12904,194.60452 L127.295685,193.51137 L124.01054,193.38008 L122.725845,195.38725 L122.06262,197.77127 L121.32461,198.39339 M120.66744,197.49036 L120.32863,196.81714 L120.99496,194.52278 L122.60329,192.98244 L123.258545,190.73714 L124.39287,188.70465 L127.24089,188.20103 L128.20088,188.31653 M126.89364,186.91927 L125.55315,184.42337 L126.64467,183.16498 L126.80533,183.10283 M126.48239,182.36543 L127.51208,181.21304 L128.7403,180.20973 L129.80658,179.8635 M129.72223,179.93274 L128.36224,180.73048 L128.83334,182.42844 L131.55112,184.99117 L134.5078,187.50826 M133.23454,190.05624 L130.19664,187.30518 L127.41131,184.48654 L126.48239,182.36543 M126.04476,185.33871 L124.64027,186.47298 L125.694695,188.47446 M125.13384,187.40987 L123.47363,188.4505 L121.842285,189.91261 L120.25092,191.49756 L120.52519,194.30539 L120.884766,194.90222 M122.53321,195.5135 L122.97322,193.01709 L123.99188,190.78726 L127.12179,190.61266 L131.05087,191.56624 L134.45143,191.87657 L134.91982,191.83209 M135.56181,192.5086 L133.23454,190.05624 M131.40144,191.59824 L129.70784,189.92728 L126.89364,186.91927 M125.013954,187.1823 L124.96829,187.18726 L122.37125,187.82133 L120.76688,189.30263 L121.224075,190.52834 M123.184494,187.62277 L124.36692,186.68428 L124.73002,186.64336 M129.72223,179.93274 L130.80307,179.04553 L132.06511,178.23575 L133.06436,178.14008 M133.2055,177.70625 L134.76707,177.35568 L134.8335,177.23996 M134.57292,177.04398 L134.28943,177.24397 L134.06845,177.51251 M133.2055,177.70625 L132.89679,178.65508 M135.40817,174.92545 L132.96475,173.28761 L133.13737,172.52692 L134.06117,172.08258 L133.86183,171.3495 M141.86418,156.54495 L143.17422,156.58562 L145.86485,156.91246 L147.22025,157.13315 M150.18002,126.41843 L146.3496,125.45685 L145.31718,124.42599 M150.18002,126.41843 L154.81502,126.67012 L160.32866,125.40326 L165.56721,123.803345 L170.48708,122.26823 L175.41177,120.92479 L180.43265,119.28483 L184.88237,116.90852 L188.9696,114.35056 L193.92302,111.89631 L198.90184,109.02657 L201.94107,105.770515 M206.06773,108.5598 L206.12007,109.82374 L205.61766,112.18752 L204.89465,114.484795 M201.8388,97.32153 L201.46996,96.32767 M203.8447,150.5935 L204.60861,150.79239 L205.28444,151.6483 L204.82901,152.39749 L205.77193,153.261 L206.5871,154.18466 L204.69643,154.81512 M186.47571,214.81134 L187.22055,216.2437 L187.39247,218.07724 L185.56937,218.75432 L183.4898,219.2031 L182.34969,220.39473 L179.94493,220.77951 L175.51596,219.36238 L170.52745,217.06537 L169.3035,216.4354 M167.72174,214.56207 L171.05151,218.50563 L174.51518,222.6349 L176.3939,226.45787 L176.26828,229.35338 L175.06898,231.1492 M175.08809,231.12059 L176.02805,230.64885 L176.91817,229.05733 L176.86185,226.87608 L176.91484,226.72267 M177.21194,226.296 L177.55339,223.7282 L176.59164,220.37828 L176.00659,219.51936 M177.48601,224.23492 L177.87006,224.35931 L180.53581,224.11479 L182.24263,223.19646 L184.73024,222.88779 L186.60303,222.07005 L186.06026,219.80501 L185.58269,218.74937 M183.83348,222.99905 L184.18622,225.05135 L182.25774,225.89926 L180.57008,226.0917 M180.63754,227.1922 L180.5015,224.97285 L180.38406,224.12871 M177.86467,224.35757 L177.47206,225.1095 L177.30565,225.59126 M177.21194,226.296 L176.34705,227.53809 M176.90466,228.53415 L178.90656,228.16223 L180.63754,227.1922 M175.00531,232.43571 L174.92107,234.52089 L174.07321,235.37701 M174.15205,235.93808 L173.92967,234.35579 M174.15205,235.93808 L174.17519,238.76154 L173.38397,239.68106 M172.54132,243.82114 L171.14423,245.99025 L170.49924,246.26427 M165.58316,247.83427 L165.24223,251.28331 M130.60553,262.9135 L127.79981,266.45645 M126.16624,274.10526 L123.47552,277.37442 L120.06558,278.94125 M116.58914,277.88742 L112.44039,278.9154 L111.69258,278.82526 M125.97137,280.89026 L126.06855,280.933 L126.280334,280.83673 M81.0529,281.5635 L80.40749,281.0238 M79.98569,280.94812 L80.933334,281.46353 M79.98569,280.94812 L79.95448,280.92404 M45.056023,259.0521 L40.7572,258.03873 M37.039997,236.51305 L33.660316,235.28139 L31.502773,233.05197 L30.182787,231.6554 M19.52317,222.22127 L18.614155,219.12971 L18.931568,217.92296 M14.019721,181.40793 L12.659856,179.6797 L13.465873,177.75684 L14.9990425,176.75058 M39.570717,133.35744 L45.601986,135.04784 L51.68159,136.70749 L57.733143,138.34135 L63.777924,139.94345 L69.34074,141.34473 L73.56192,142.2944 L76.80739,142.95862 L78.177574,143.07347 L80.81453,143.59717 L82.766785,143.91959 L84.27636,144.11288 L84.70033,144.0007 L83.655045,143.49281 L82.60624,142.9872 L81.74738,142.52022 L80.12369,141.8413 L78.03179,141.0945 M83.88717,140.11699 L86.90906,140.6092 L87.56443,140.23412 L86.721634,139.37376 L85.98871,138.5941 M87.86579,136.36523 L89.59208,136.12695 L90.25327,135.43362 L89.69871,134.27196 L89.32936,133.53137 M89.319954,133.53378 L90.947136,133.11703 L89.98521,131.60391 L89.91102,131.52052 M89.319954,133.53378 L86.8798,133.51274 L85.335594,133.91573 L83.03306,133.97206 L79.35632,133.26645 L74.03272,131.4132 L68.929886,129.50208 L64.70011,128.27896 L60.12036,126.988884 L54.873253,125.11442 L49.704273,122.656136 L45.307327,120.18154 L40.90568,117.90392 L36.513866,115.60691 L32.869076,113.39636 L29.966303,111.36039 L27.34805,109.40279 L24.627335,107.36848 M22.038874,111.173546 L18.666338,110.644714 L18.43641,111.38675 L20.328947,112.856895 L23.039465,114.51524 L24.13047,115.57288 L24.854345,116.54143 M25.847847,112.13023 L22.038874,111.173546 M18.485178,120.15309 L22.021076,120.85794 L25.225515,121.520226 M25.378296,125.53088 L30.158728,127.23237 L35.314205,128.99326 M25.378296,125.53088 L22.022934,124.15475 L20.131905,123.1674 L19.830635,122.64034 L20.572834,122.4504 L19.387451,121.71743 L17.50282,120.73725 L16.861088,120.093735 L18.485178,120.15309 M22.007145,100.762505 L22.171354,99.48068 L23.765078,98.89131 L24.3374,98.76147 M26.676064,95.44718 L26.90747,93.84226 L29.12654,93.32846 L29.815298,93.12101 M32.31537,91.508354 L35.12016,94.72378 L37.30144,97.76247 L40.474556,101.126076 L45.21821,104.57897 L50.472763,107.62495 L55.31134,110.27602 L59.604164,113.403534 L64.40751,116.89768 L69.687515,120.04127 L74.59175,121.96023 L78.672424,122.84675 L82.892975,124.029724 L84.93912,123.16806 L86.68892,122.32803 L90.2301,122.89693 L93.930855,123.322136 L96.06298,122.511826 L95.53766,120.12319 L95.49178,120.043045 M95.53839,122.7112 L95.71766,123.0028 L96.2882,125.272896 L94.15634,126.02859 M93.527695,128.38112 L94.15749,129.37137 L92.284615,129.99191 M86.716896,122.18749 L84.630104,123.28721 L80.20605,122.00061 L75.61265,120.48785 L70.51252,118.0355 L65.37139,114.822876 L60.6376,111.41396 L56.11984,108.36922 L50.941746,105.55726 L45.559803,102.17514 L40.767715,98.36522 L37.379692,94.60274 L34.903725,91.116005 L32.03786,87.499054 L29.42303,83.8438 M29.636482,88.21245 L32.31537,91.508354 M29.270739,76.64726 L29.76619,74.16871 L30.89308,72.110886 L33.07697,70.83215 L34.02568,70.92226 M87.095314,121.67557 L86.716896,122.18749 M77.41199,151.37898 L78.23664,151.67181 L81.95628,152.57825 L84.31024,153.33345 L85.53848,153.93881 L85.75437,154.39267 L84.58401,154.61642 L82.616714,154.68974 M120.87314,197.03809 L122.53321,195.5135 M120.87314,197.03809 L120.17442,198.57436 M132.10614,197.67924 L132.17445,197.67229 M134.32466,194.87717 L136.9161,193.2201 L141.2705,194.6518 L146.06888,198.3587 L150.3687,202.41313 M161.21735,208.47258 L164.03331,210.73112 L167.72174,214.56207 M136.56834,193.44246 L135.56181,192.5086 M138.89787,110.561035 L138.29929,109.606834" fill="none" stroke="black" vector-effect="non-scaling-stroke"/>
</g>
</svg>