<svg height="218mm" viewBox="0 0 300 218" width="300mm" xmlns="http://www.w3.org/2000/svg" xmlns:inkscape="http://www.inkscape.org/namespaces/inkscape">
<g inkscape:groupmode="layer" inkscape:label="0">
<path d="M150,129.41345 L150,129.41345 M150,129.41345 L150,129.41345 L214.28572,92.29808 L214.28572,92.29808 L214.28572,92.29808 L214.28572,92.29808 L150,55.18271 L150,55.18271 L150,55.18271 L150,55.18271 M150,55.18271 L150,55.18271 L85.71429,92.29808 L85.71429,92.29808 L85.71429,92.29808 L85.71429,92.29808 L150,129.41345 L150,129.41345 L150,129.41345 L150,129.41345 M150,129.41345 L150,203.64421 L150,203.64421 L150,203.64421 L214.28572,166.52882 L214.28572,166.52882 L214.28572,166.52882 L150,203.64421 M150,203.64421 L150,203.64421 L150,203.64421 M150,203.64421 L150,203.64421 M150,203.64421 L85.71429,166.52882 L85.71429,166.52882 L85.71429,166.52882 L85.71429,166.52882 L85.71429,92.29808 L150,55.18271 L150,55.18271 M150,55.18271 L150,55.18271 M214.28572,92.29808 L214.28572,166.52882 L214.28572,166.52882 L214.28572,166.52882 L214.28572,166.52882 M214.28572,92.29808 L214.28572,92.29808 M150,129.41345 L150,129.41345 L150,129.41345 L150,129.41345 M85.71429,92.29808 L85.71429,92.29808 M85.71429,166.52882 L85.71429,166.52882 L85.71429,166.52882" fill="none" stroke="black" vector-effect="non-scaling-stroke"/>
</g>
<g inkscape:groupmode="layer" inkscape:label="1">
<path d="M156.42857,125.70192 L156.42857,125.70192 L156.42857,125.70192 L156.42857,125.70192 M156.42857,58.894245 L156.42857,51.47117 L156.42857,51.47117 L156.42857,51.47117 L156.42857,51.47117 L156.42857,51.47117 L220.71428,88.58655 L220.71428,88.58655 L220.71428,88.58655 L220.71428,88.58655 L220.71428,162.81729 L220.71428,162.81729 L285,125.70192 L285,125.70192 L285,125.70192 L285,125.70192 L285,125.70192 L285,51.47117 L285,51.47117 L285,51.47117 L285,51.47117 L285,51.47117 L220.71428,88.58655 L220.71428,88.58655 M220.71428,88.58655 L220.71428,88.58655 L220.71428,88.58655 L220.71428,88.58655 L220.71428,88.58655 M220.71428,88.58655 L220.71428,88.58655 M214.28572,159.10576 L220.71428,162.81729 M220.71428,162.81729 L220.71428,162.81729 L220.71428,162.81729 L220.71428,162.81729 M285,125.70192 L285,125.70192 L285,125.70192 M285,51.47117 L220.71428,14.355795 L220.71428,14.355795 L220.71428,14.355795 L220.71428,14.355795 L156.42857,51.47117 L156.42857,51.47117 M220.71428,14.355795 L220.71428,14.355795 L220.71428,14.355795 M285,51.47117 L285,51.47117" fill="none" stroke="red" vector-effect="non-scaling-stroke"/>
</g>
<g inkscape:groupmode="layer" inkscape:label="2">
<path d="M143.57143,125.70192 L143.57143,125.70192 L143.57143,125.70192 L143.57143,125.70192 L143.57143,125.70192 L143.57143,125.70192 M143.57143,125.70192 L143.57143,125.70192 M143.57143,58.894245 L143.57143,51.47117 L143.57143,51.47117 L143.57143,51.47117 L143.57143,51.47117 L143.57143,51.47117 L79.28571,14.355795 L79.28571,14.355795 L79.28571,14.355795 L79.28571,14.355795 L79.28571,14.355795 L15,51.47117 L15,51.47117 L15,51.47117 L15,125.70192 L15,125.70192 L15,125.70192 L15,125.70192 L15,125.70192 L15,125.70192 L15,125.70192 L79.28571,162.81729 M79.28571,162.81729 L79.28571,162.81729 L79.28571,162.81729 L79.28571,162.81729 L79.28571,88.58655 M79.28571,88.58655 L79.28571,88.58655 L79.28571,88.58655 L79.28571,88.58655 L79.28571,88.58655 L143.57143,51.47117 M79.28571,14.355795 L79.28571,14.355795 M79.28571,88.58655 L79.28571,88.58655 L79.28571,88.58655 L79.28571,88.58655 L79.28571,88.58655 M79.28571,88.58655 L15,51.47117 L15,51.47117 L15,51.47117 M79.28571,162.81729 L85.71429,159.10576 M79.28571,162.81729 L79.28571,162.81729 L79.28571,162.81729" fill="none" stroke="blue" vector-effect="non-scaling-stroke"/>
</g>
</svg>