<svg viewBox="-1.6334166645409247 -1.4140621244871503 3.26683332908185 2.3790511294640515" xmlns="http://www.w3.org/2000/svg" xmlns:inkscape="http://www.inkscape.org/namespaces/inkscape">
<g inkscape:groupmode="layer" inkscape:label="0">
<path d="M-0.00000000000000009614813,0.000000000000000032049378 L-0.00000000000000009614813,0.000000000000000032049378 M0.00000000000000005551115,-0.00000000000000005551115 L0.00000000000000005551115,-0.00000000000000005551115 L0.00000000000000005551115,-0.00000000000000005551115 L0.00000000000000005551115,-0.00000000000000005551115 M-0.00000000000000005551115,0.00000000000000005551115 L-0.00000000000000005551115,0.00000000000000005551115 L0.70710677,-0.4082483 L0.70710677,-0.4082483 L0.70710677,-0.4082483 L0.70710677,0.4082483 L0.70710677,0.4082483 L0.70710677,0.4082483 L0.70710677,0.4082483 L0.0000000000000001110223,0.8164966 M0,0.8164966 L0,0.8164966 L-0.00000000000000005551115,0.8164966 L-0.00000000000000005551115,0.8164966 L0.70710677,0.4082483 L0.70710677,0.4082483 M0.70710677,0.4082483 L0.70710677,0.4082483 M-0.00000000000000005551115,0.8164966 L-0.00000000000000005551115,0.8164966 L-0.00000000000000005551115,0.00000000000000005551115 L-0.70710677,-0.4082483 L-0.70710677,-0.4082483 L-0.70710677,0.4082483 L-0.70710677,0.4082483 L-0.70710677,0.4082483 L-0.0000000000000001110223,0.8164966 M-0.00000000000000005551115,0.8164966 L-0.00000000000000005551115,0.8164966 M-0.70710677,0.4082483 L-0.70710677,0.4082483 L-0.70710677,0.4082483 L-0.70710677,0.4082483 M-0.70710677,-0.4082483 L-0.70710677,-0.4082483 M-0.70710677,-0.4082483 L-0.0000000000000001110223,-0.8164966 L-0.0000000000000001110223,-0.8164966 M0,-0.8164966 L0,-0.8164966 M0.00000000000000005551115,-0.8164966 L0.0000000000000001110223,-0.8164966 M0.00000000000000005551115,-0.8164966 L0.00000000000000005551115,-0.8164966 L0.70710677,-0.4082483 M0.70710677,-0.4082483 L0.70710677,-0.4082483 L0.70710677,-0.4082483 M-0.00000000000000005551115,0.00000000000000005551115 L0,0.00000000000000005551115 M-0.00000000000000005551115,0.00000000000000005551115 L-0.00000000000000005551115,0.00000000000000005551115 M-0.70710677,-0.4082483 L0.00000000000000005551115,-0.8164966 L0.00000000000000005551115,-0.8164966 L0.00000000000000005551115,-0.8164966 M-0.70710677,-0.4082483 L-0.70710677,-0.4082483 L-0.70710677,-0.4082483" fill="none" stroke="black" vector-effect="non-scaling-stroke"/>
</g>
<g inkscape:groupmode="layer" inkscape:label="1">
<path d="M0.07071068,-0.04082483 L0.07071068,-0.04082483 L0.07071068,-0.04082483 L0.07071068,-0.04082483 M0.07071068,-0.7756718 L0.07071068,-0.8573214 L0.7778175,-1.2655697 L0.7778175,-1.2655697 L0.7778175,-1.2655697 L0.7778175,-1.2655697 L1.4849242,-0.8573214 L1.4849242,-0.04082483 L1.4849242,-0.04082483 L1.4849242,-0.04082483 L1.4849242,-0.04082483 L1.4849242,-0.04082483 L0.7778175,0.36742347 L0.7778175,0.36742347 L0.7778175,0.36742347 L0.7778175,0.36742347 L0.7778175,0.36742347 L0.7778175,-0.4490731 L0.7778175,-0.4490731 L0.7778175,-0.4490731 L0.7778175,-0.4490731 L0.7778175,-0.4490731 L1.4849242,-0.8573214 L1.4849242,-0.8573214 L1.4849242,-0.8573214 L1.4849242,-0.8573214 L1.4849242,-0.8573214 L1.4849242,-0.8573214 M1.4849242,-0.04082483 L1.4849242,-0.04082483 L1.4849242,-0.04082483 M0.7778175,-0.4490731 L0.7778175,-0.4490731 L0.7778175,-0.4490731 L0.7778175,-0.4490731 L0.7778175,-0.4490731 M0.7778175,-0.4490731 L0.7778175,-0.4490731 M0.7778175,-0.4490731 L0.07071068,-0.8573214 L0.07071068,-0.8573214 L0.07071068,-0.8573214 L0.07071068,-0.8573214 L0.07071068,-0.8573214 M0.07071068,-0.8573214 L0.07071068,-0.8573214 M0.7778175,-1.2655697 L0.7778175,-1.2655697 L0.7778175,-1.2655697 M0.70710677,0.32659864 L0.7778175,0.36742347" fill="none" stroke="red" vector-effect="non-scaling-stroke"/>
</g>
<g inkscape:groupmode="layer" inkscape:label="2">
<path d="M-0.07071068,-0.04082483 L-0.07071068,-0.04082483 L-0.07071068,-0.04082483 L-0.07071068,-0.04082483 L-0.07071068,-0.04082483 L-0.07071068,-0.04082483 M-0.07071068,-0.04082483 L-0.07071068,-0.04082483 M-0.07071068,-0.7756718 L-0.07071068,-0.8573214 L-0.07071068,-0.8573214 L-0.07071068,-0.8573214 L-0.07071068,-0.8573214 L-0.07071068,-0.8573214 L-0.7778175,-0.4490731 L-0.7778175,-0.4490731 L-0.7778175,-0.4490731 L-0.7778175,-0.4490731 L-0.7778175,-0.4490731 L-1.4849242,-0.8573214 L-1.4849242,-0.8573214 L-0.7778175,-1.2655697 L-0.7778175,-1.2655697 L-0.7778175,-1.2655697 L-0.7778175,-1.2655697 L-0.07071068,-0.8573214 M-0.7778175,-1.2655697 L-0.7778175,-1.2655697 L-0.7778175,-1.2655697 M-0.7778175,-0.4490731 L-0.7778175,-0.4490731 L-0.7778175,-0.4490731 L-0.7778175,-0.4490731 L-0.7778175,-0.4490731 M-0.7778175,-0.4490731 L-0.7778175,0.36742347 L-0.7778175,0.36742347 L-0.7778175,0.36742347 L-0.7778175,0.36742347 L-0.7778175,0.36742347 L-0.70710677,0.32659864 M-0.7778175,0.36742347 L-0.7778175,0.36742347 M-0.7778175,0.36742347 L-1.4849242,-0.04082483 L-1.4849242,-0.04082483 L-1.4849242,-0.04082483 L-1.4849242,-0.04082483 L-1.4849242,-0.04082483 L-1.4849242,-0.04082483 L-1.4849242,-0.8573214 L-1.4849242,-0.8573214 L-1.4849242,-0.8573214 L-1.4849242,-0.8573214 M-1.4849242,-0.04082483 L-1.4849242,-0.04082483" fill="none" stroke="blue" vector-effect="non-scaling-stroke"/>
</g>
</svg>