<svg viewBox="-7.2 -12.2 29.4 48.4" xmlns="http://www.w3.org/2000/svg" xmlns:inkscape="http://www.inkscape.org/namespaces/inkscape">
<g inkscape:groupmode="layer" inkscape:label="0">
<path d="L20,-4 M20,-5 L-5,0 M-5,1 L0,0 L15,0 L15,0 L20,-1 M20,0 L15,1 M15,0 L15,15 L-5,19 M-5,18 L10,15 M10,10 L10,5 L5,5 L5,10 L10,9 M10,10 L10,10 L5,10 L5,10 M5,9 L10,8 M10,7 L5,8 M5,7 L10,6 M10,5 L5,6 M5,5 L5,5 M5,0 L20,-3 M20,-2 L10,0 M15,2 L20,1 M20,2 L15,3 M15,4 L20,3 M20,4 L15,5 M15,6 L20,5 M20,6 L15,7 M15,8 L20,7 M20,8 L15,9 M15,10 L20,9 M20,10 L15,11 M15,12 L20,11 M20,12 L15,13 M15,14 L20,13 M20,14 L15,15 L0,15 L0,0 M0,1 L-5,2 M-5,3 L0,2 M0,3 L-5,4 M-5,5 L0,4 M0,5 L-5,6 M-5,7 L0,6 M0,7 L-5,8 M-5,9 L0,8 M0,9 L-5,10 M-5,11 L0,10 M0,11 L-5,12 M-5,13 L0,12 M0,13 L-5,14 M-5,15 L0,14 M0,15 L-5,16 M-5,17 L5,15 M-5,20 L20,15 M20,16 L-5,21 M-5,22 L20,17 M20,18 L-5,23 M-5,24 L20,19 M20,20 L-5,25 M-5,26 L20,21 M20,22 L-5,27 M-5,28 L20,23 M20,24 L-5,29 M-5,30 L20,25 M20,26 L-5,31 M-5,32 L20,27 M20,28 L-5,33 M-5,34 L20,29 M20,-6 L-5,-1 M-5,-2 L20,-7 M20,-8 L-5,-3 M-5,-4 L20,-9 M20,-10 L-5,-5" fill="none" stroke="black" vector-effect="non-scaling-stroke"/>
</g>
</svg>