<svg height="218mm" viewBox="0 0 300 218" width="300mm" xmlns="http://www.w3.org/2000/svg" xmlns:inkscape="http://www.inkscape.org/namespaces/inkscape">
<g inkscape:groupmode="layer" inkscape:label="0">
<path d="M116.556816,55.49091 L205.73863,37.654545 M205.73863,33.195454 L94.26136,55.49091 M94.26136,59.95 L116.556816,55.49091 L183.44318,55.49091 L183.44318,55.49091 L205.73863,51.03182 M205.73863,55.49091 L183.44318,59.95 M183.44318,55.49091 L183.44318,122.37727 L94.26136,140.21364 M94.26136,135.75455 L161.14772,122.37727 M161.14772,100.08182 L161.14772,77.78636 L138.85228,77.78636 L138.85228,100.08182 L161.14772,95.62273 M161.14772,100.08182 L161.14772,100.08182 L138.85228,100.08182 L138.85228,100.08182 M138.85228,95.62273 L161.14772,91.163635 M161.14772,86.704544 L138.85228,91.163635 M138.85228,86.704544 L161.14772,82.24545 M161.14772,77.78636 L138.85228,82.24545 M138.85228,77.78636 L138.85228,77.78636 M138.85228,55.49091 L205.73863,42.113636 M205.73863,46.572727 L161.14772,55.49091 M183.44318,64.40909 L205.73863,59.95 M205.73863,64.40909 L183.44318,68.86818 M183.44318,73.32727 L205.73863,68.86818 M205.73863,73.32727 L183.44318,77.78636 M183.44318,82.24545 L205.73863,77.78636 M205.73863,82.24545 L183.44318,86.704544 M183.44318,91.163635 L205.73863,86.704544 M205.73863,91.163635 L183.44318,95.62273 M183.44318,100.08182 L205.73863,95.62273 M205.73863,100.08182 L183.44318,104.54091 M183.44318,109 L205.73863,104.54091 M205.73863,109 L183.44318,113.45909 M183.44318,117.91818 L205.73863,113.45909 M205.73863,117.91818 L183.44318,122.37727 L116.556816,122.37727 L116.556816,55.49091 M116.556816,59.95 L94.26136,64.40909 M94.26136,68.86818 L116.556816,64.40909 M116.556816,68.86818 L94.26136,73.32727 M94.26136,77.78636 L116.556816,73.32727 M116.556816,77.78636 L94.26136,82.24545 M94.26136,86.704544 L116.556816,82.24545 M116.556816,86.704544 L94.26136,91.163635 M94.26136,95.62273 L116.556816,91.163635 M116.556816,95.62273 L94.26136,100.08182 M94.26136,104.54091 L116.556816,100.08182 M116.556816,104.54091 L94.26136,109 M94.26136,113.45909 L116.556816,109 M116.556816,113.45909 L94.26136,117.91818 M94.26136,122.37727 L116.556816,117.91818 M116.556816,122.37727 L94.26136,126.836365 M94.26136,131.29546 L138.85228,122.37727 M94.26136,144.67273 L205.73863,122.37727 M205.73863,126.836365 L94.26136,149.13182 M94.26136,153.59091 L205.73863,131.29546 M205.73863,135.75455 L94.26136,158.05 M94.26136,162.5091 L205.73863,140.21364 M205.73863,144.67273 L94.26136,166.96819 M94.26136,171.42728 L205.73863,149.13182 M205.73863,153.59091 L94.26136,175.88637 M94.26136,180.34546 L205.73863,158.05 M205.73863,162.5091 L94.26136,184.80455 M94.26136,189.26364 L205.73863,166.96819 M205.73863,171.42728 L94.26136,193.72273 M94.26136,198.18182 L205.73863,175.88637 M205.73863,180.34546 L94.26136,202.64091 M94.26136,207.1 L205.73863,184.80455 M205.73863,28.736364 L94.26136,51.03182 M94.26136,46.572727 L205.73863,24.277273 M205.73863,19.818182 L94.26136,42.113636 M94.26136,37.654545 L205.73863,15.359091 M205.73863,10.9 L94.26136,33.195454" fill="none" stroke="black" vector-effect="non-scaling-stroke"/>
</g>
</svg>