<svg height="218mm" viewBox="0 0 300 218" width="300mm" xmlns="http://www.w3.org/2000/svg" xmlns:inkscape="http://www.inkscape.org/namespaces/inkscape">
<g inkscape:groupmode="layer" inkscape:label="0">
<path d="M99.25862,44.727585 L200.74138,44.727585 L200.74138,146.21034 L99.25862,146.21034 L99.25862,44.727585 M99.25862,51.493103 L65.43104,58.25862 M65.43104,65.02414 L99.25862,58.25862 M99.25862,65.02414 L65.43104,71.78966 M65.43104,78.555176 L99.25862,71.78966 M99.25862,78.555176 L65.43104,85.32069 M65.43104,92.086205 L99.25862,85.32069 M99.25862,92.086205 L65.43104,98.85172 M65.43104,105.61724 L99.25862,98.85172 M99.25862,105.61724 L65.43104,112.38276 M65.43104,119.14828 L99.25862,112.38276 M99.25862,119.14828 L65.43104,125.913795 M65.43104,132.6793 L99.25862,125.913795 M99.25862,132.6793 L65.43104,139.44482 M65.43104,146.21034 L99.25862,139.44482 M99.25862,146.21034 L65.43104,152.97586 M65.43104,159.74138 L133.08621,146.21034 M133.08621,112.38276 L166.91379,105.61724 M166.91379,112.38276 L133.08621,112.38276 L133.08621,78.555176 L166.91379,78.555176 L166.91379,112.38276 M166.91379,98.85172 L133.08621,105.61724 M133.08621,98.85172 L166.91379,92.086205 M166.91379,85.32069 L133.08621,92.086205 M133.08621,85.32069 L166.91379,78.555176 M166.91379,44.727585 L234.56897,31.196552 M234.56897,24.431034 L133.08621,44.727585 M200.74138,44.727585 L234.56897,37.96207 M234.56897,44.727585 L200.74138,51.493103 M200.74138,58.25862 L234.56897,51.493103 M234.56897,58.25862 L200.74138,65.02414 M200.74138,71.78966 L234.56897,65.02414 M234.56897,71.78966 L200.74138,78.555176 M200.74138,85.32069 L234.56897,78.555176 M234.56897,85.32069 L200.74138,92.086205 M200.74138,98.85172 L234.56897,92.086205 M234.56897,98.85172 L200.74138,105.61724 M200.74138,112.38276 L234.56897,105.61724 M234.56897,112.38276 L200.74138,119.14828 M200.74138,125.913795 L234.56897,119.14828 M234.56897,125.913795 L200.74138,132.6793 M200.74138,139.44482 L234.56897,132.6793 M234.56897,139.44482 L200.74138,146.21034 M200.74138,146.21034 L65.43104,173.27242 M65.43104,180.03793 L234.56897,146.21034 M234.56897,152.97586 L65.43104,186.80345 M65.43104,193.56897 L234.56897,159.74138 M234.56897,166.5069 L65.43104,200.33449 M65.43104,207.1 L234.56897,173.27242 M166.91379,146.21034 L65.43104,166.5069 M65.43104,51.493103 L234.56897,17.665518 M234.56897,10.9 L65.43104,44.727585" fill="none" stroke="black" vector-effect="non-scaling-stroke"/>
</g>
</svg>