<svg viewBox="-5 -10 25 44" xmlns="http://www.w3.org/2000/svg">
<path d="M15,6 L20,5 M15,5 L20,4 M15,4 L20,3 M15,3 L20,2 M10,5 L10,10 M15,10 L20,9 M15,9 L20,8 M15,8 L20,7 M15,7 L20,6 M15,2 L20,1 M15,0 L15,0 M15,1 L20,0 M10,10 L5,10 M10,10 L10,10 M5,10 L5,10 M5,10 L10,9 M5,9 L10,8 M5,10 L5,5 M5,5 L10,5 M5,5 L5,5 M5,8 L10,7 M5,7 L10,6 M5,6 L10,5 M15,13 L20,12 M15,12 L20,11 M15,11 L20,10 M-5,34 L20,29 M-5,33 L20,28 M-5,29 L20,24 M-5,32 L20,27 M-5,30 L20,25 M-5,31 L20,26 M-5,28 L20,23 M-5,27 L20,22 M-5,26 L20,21 M-5,25 L20,20 M-5,24 L20,19 M-5,23 L20,18 M-5,22 L20,17 M-5,21 L20,16 M15,15 L15,0 M0,0 L0,15 M-5,13 L0,12 M-5,12 L0,11 M-5,8 L0,7 M-5,7 L0,6 M-5,6 L0,5 M-5,5 L0,4 M-5,11 L0,10 M-5,10 L0,9 M-5,9 L0,8 M-5,16 L0,15 M-5,17 L5,15 M-5,18 L10,15 M-5,19 L15,15 M-5,20 L20,15 M0,15 L15,15 M15,15 L20,14 M-5,15 L0,14 M15,14 L20,13 M-5,14 L0,13 M-5,4 L0,3 M-5,3 L0,2 M-5,2 L0,1 M15,0 L20,-1 M10,0 L20,-2 M5,0 L20,-3 M15,0 L0,0 M0,0 L20,-4 M-5,1 L0,0 M-5,0 L20,-5 M-5,-1 L20,-6 M-5,-2 L20,-7 M-5,-3 L20,-8 M-5,-4 L20,-9 M-5,-5 L20,-10" stroke="black" vector-effect="non-scaling-stroke"/>
</svg>