<svg viewBox="-0.026087605325888094 -0.01737552519230065 0.05217521065177619 0.03486117832605581" xmlns="http://www.w3.org/2000/svg">
<path d="M-0.023706878,0.0013687173 L-0.023706878,0.0013687173 L-0.023706878,0.0013687173 L-0.023706878,0.0013687173 L-0.023706878,0.0013687173 M-0.0000000000000000023914102,0.015114052 L-0.0000000000000000023923343,0.012370822 M-0.000000000000000003469447,0.015114052 L-0.0000000000000000023914102,0.015114052 M-0.021340346,0.0000071134486 L-0.021340346,0.0000071134486 M-0.023706878,0.0013687173 L-0.023716005,-0.0013692442 M-0.023716005,-0.0013692442 L-0.023716005,-0.0013692442 M-0.023716005,-0.0013692442 L-0.023716005,-0.0013692442 L-0.023716005,-0.0013692442 M-0.023706878,0.0013687173 L-0.023706878,0.0013687173 M-0.023706878,0.0013687173 L-0.023706878,0.0013687173 L-0.000000000000000003469447,0.015114052 M-0.0000000000000000023923343,0.012370822 L-0.023716005,-0.0013692442 M0.023706878,0.0013687173 L0.023706878,0.0013687173 M0.023706878,0.0013687173 L0.023706878,0.0013687173 M0.023706878,0.0013687173 L0.023716005,-0.0013692442 M0.023706878,0.0013687173 L0.023706878,0.0013687173 L0.023706878,0.0013687173 L0.023706878,0.0013687173 L0.023706878,0.0013687173 M0.023716005,-0.0013692442 L0.023716005,-0.0013692442 L0.023716005,-0.0013692442 L0.023716005,-0.0013692442 L0.023716005,-0.0013692442 L0.023706878,0.0013687173 M0.021340346,0.0000071134486 L0.021340346,0.0000071134486 M0.023706878,0.0013687173 L-0.0000000000000000023914102,0.015114052 M-0.0000000000000000023923343,0.012370822 L0.023716005,-0.0013692442 M0.0000000000000000023739852,-0.015003924 L0.0000000000000000023739852,-0.015003924 M0,-0.015003924 L0.0000000000000000023739852,-0.015003924 M0.000000000000000003469447,-0.015003924 L0.000000000000000003469447,-0.015003924 L0.000000000000000003469447,-0.015003924 M0.0000000000000000023739852,-0.015003924 L0.023716005,-0.0013692442 M-0.0000000000000000023923343,0.012370822 L-0.0000000000000000023923343,0.012370822 L-0.0000000000000000023923343,0.012370822 M-0.0000000000000000023914102,0.015114052 L-0.0000000000000000023914102,0.015114052 M-0.000000000000000003469447,0.015114052 L-0.0000000000000000023914102,0.015114052 M-0.000000000000000003469447,0.012370822 L-0.000000000000000003469447,0.012370822 M-0.0000000000000000023914102,0.015114052 L-0.0000000000000000023914102,0.015114052 M-0.023716005,-0.0013692442 L-0.023716005,-0.0013692442 M-0.023716005,-0.0013692442 L-0.023716005,-0.0013692442 L-0.023706878,0.0013687173 M0.0000000000000000023739852,-0.012271232 L0.0000000000000000023739852,-0.012271232 M0.0000000000000000023730753,-0.012271232 L0.0000000000000000023730753,-0.012271232 L0.0000000000000000023730753,-0.012271232 L0.0000000000000000023730753,-0.012271232 M0.0000000000000000023739852,-0.015003924 L0.0000000000000000023739852,-0.015003924 L0.0000000000000000023739852,-0.015003924 M-0.023716005,-0.0013692442 L0.0000000000000000023739852,-0.015003924" fill="none" stroke="black" vector-effect="non-scaling-stroke"/>
</svg>