<svg viewBox="-0.41946955436196076 0.021594452871908497 0.8389391087239215 0.743778961096801" xmlns="http://www.w3.org/2000/svg">
<line stroke="black" vector-effect="non-scaling-stroke" x1="0.2003971817386464" x2="-0.00000000000000008325670494869973" y1="0.6247765808369095" y2="0.7653734139687095"/>
<line stroke="black" vector-effect="non-scaling-stroke" x1="0.2003971817386464" x2="0.2003971817386464" y1="0.6247765808369095" y2="0.6247765808369095"/>
<line stroke="black" vector-effect="non-scaling-stroke" x1="0.2003971817386464" x2="0.2003971817386464" y1="0.6247765808369095" y2="0.6247765808369095"/>
<line stroke="black" vector-effect="non-scaling-stroke" x1="0.2003971817386464" x2="0.2003971817386464" y1="0.6247765808369095" y2="0.6247765808369095"/>
<line stroke="black" vector-effect="non-scaling-stroke" x1="0.2003971817386464" x2="0.2003971817386464" y1="0.6247765808369095" y2="0.6247765808369095"/>
<line stroke="black" vector-effect="non-scaling-stroke" x1="0.21972214752293173" x2="0.21972214752293173" y1="0.611218361274748" y2="0.611218361274748"/>
<line stroke="black" vector-effect="non-scaling-stroke" x1="0.4062956797479178" x2="0.21972214752293173" y1="0.4803200744352772" y2="0.611218361274748"/>
<line stroke="black" vector-effect="non-scaling-stroke" x1="0.21972214752293173" x2="0.22708523953053375" y1="0.611218361274748" y2="0.39332317251583304"/>
<line stroke="black" vector-effect="non-scaling-stroke" x1="-0.00000000000000008325670494869973" x2="-0.00000000000000008615349553224036" y1="0.7653734139687095" y2="0.5445023507838396"/>
<line stroke="black" vector-effect="non-scaling-stroke" x1="-0.00000000000000008326672684688674" x2="-0.00000000000000008326672684688674" y1="0.7653734139687095" y2="0.7653734139687095"/>
<line stroke="black" vector-effect="non-scaling-stroke" x1="-0.20039718173864648" x2="-0.00000000000000008326672684688674" y1="0.6247765808369093" y2="0.7653734139687095"/>
<line stroke="black" vector-effect="non-scaling-stroke" x1="-0.00000000000000008325670494869973" x2="-0.00000000000000008325670494869973" y1="0.7653734139687095" y2="0.7653734139687095"/>
<line stroke="black" vector-effect="non-scaling-stroke" x1="-0.00000000000000008325670494869973" x2="-0.00000000000000008325670494869973" y1="0.7653734139687095" y2="0.7653734139687095"/>
<line stroke="black" vector-effect="non-scaling-stroke" x1="0.22708523953053375" x2="0.22708523953053375" y1="0.39332317251583304" y2="0.39332317251583304"/>
<line stroke="black" vector-effect="non-scaling-stroke" x1="0.22708523953053375" x2="0.22708523953053375" y1="0.39332317251583304" y2="0.39332317251583304"/>
<line stroke="black" vector-effect="non-scaling-stroke" x1="-0.20713525621191442" x2="-0.20039718173864648" y1="0.406604626170877" y2="0.6247765808369093"/>
<line stroke="black" vector-effect="non-scaling-stroke" x1="-0.20039718173864648" x2="-0.20039718173864648" y1="0.6247765808369093" y2="0.6247765808369093"/>
<line stroke="black" vector-effect="non-scaling-stroke" x1="-0.20039718173864648" x2="-0.20039718173864648" y1="0.6247765808369093" y2="0.6247765808369093"/>
<line stroke="black" vector-effect="non-scaling-stroke" x1="-0.20039718173864648" x2="-0.20039718173864648" y1="0.6247765808369093" y2="0.6247765808369093"/>
<line stroke="black" vector-effect="non-scaling-stroke" x1="0.20713525621191428" x2="0.2003971817386464" y1="0.406604626170877" y2="0.6247765808369095"/>
<line stroke="black" vector-effect="non-scaling-stroke" x1="0.2003971817386464" x2="0.2003971817386464" y1="0.6247765808369095" y2="0.6247765808369095"/>
<line stroke="black" vector-effect="non-scaling-stroke" x1="0.2003971817386464" x2="0.2003971817386464" y1="0.6247765808369095" y2="0.6247765808369095"/>
<line stroke="black" vector-effect="non-scaling-stroke" x1="0.20713525621191428" x2="-0.00000000000000008615349553224036" y1="0.406604626170877" y2="0.5445023507838396"/>
<line stroke="black" vector-effect="non-scaling-stroke" x1="0.058241864728033985" x2="0.058241864728033985" y1="0.5057285525898946" y2="0.5057285525898946"/>
<line stroke="black" vector-effect="non-scaling-stroke" x1="0.03889560629257794" x2="0.038895606292577975" y1="0.5186080839010412" y2="0.5186080839010412"/>
<line stroke="black" vector-effect="non-scaling-stroke" x1="-0.00000000000000003900535185736784" x2="-0.00000000000000003900535185736784" y1="0.4930387478367542" y2="0.4930387478367542"/>
<line stroke="black" vector-effect="non-scaling-stroke" x1="-0.00000000000000003900535185736784" x2="-0.00000000000000003900535185736784" y1="0.4930387478367542" y2="0.4930387478367542"/>
<line stroke="black" vector-effect="non-scaling-stroke" x1="0.21972214752293173" x2="0.21972214752293173" y1="0.611218361274748" y2="0.611218361274748"/>
<line stroke="black" vector-effect="non-scaling-stroke" x1="0.21972214752293173" x2="0.21972214752293173" y1="0.611218361274748" y2="0.611218361274748"/>
<line stroke="black" vector-effect="non-scaling-stroke" x1="0.21972214752293173" x2="0.21972214752293173" y1="0.611218361274748" y2="0.611218361274748"/>
<line stroke="black" vector-effect="non-scaling-stroke" x1="0.21972214752293173" x2="0.21972214752293173" y1="0.611218361274748" y2="0.611218361274748"/>
<line stroke="black" vector-effect="non-scaling-stroke" x1="-0.21972214752293184" x2="-0.21972214752293184" y1="0.611218361274748" y2="0.611218361274748"/>
<line stroke="black" vector-effect="non-scaling-stroke" x1="0.4062956797479178" x2="0.4062956797479178" y1="0.4803200744352772" y2="0.4803200744352772"/>
<line stroke="black" vector-effect="non-scaling-stroke" x1="0.019347413321329384" x2="0.019347413321329384" y1="0.4803200744352772" y2="0.4803200744352772"/>
<line stroke="black" vector-effect="non-scaling-stroke" x1="0.019347413321329384" x2="0.019347413321329384" y1="0.4803200744352772" y2="0.4803200744352772"/>
<line stroke="black" vector-effect="non-scaling-stroke" x1="-0.00000000000000008615349553224036" x2="-0.20713525621191442" y1="0.5445023507838396" y2="0.406604626170877"/>
<line stroke="black" vector-effect="non-scaling-stroke" x1="-0.00000000000000008615349553224036" x2="-0.00000000000000008615349553224036" y1="0.5445023507838396" y2="0.5445023507838396"/>
<line stroke="black" vector-effect="non-scaling-stroke" x1="-0.00000000000000008615349553224036" x2="-0.00000000000000008615349553224036" y1="0.5445023507838396" y2="0.5445023507838396"/>
<line stroke="black" vector-effect="non-scaling-stroke" x1="-0.00000000000000008615349553224036" x2="-0.00000000000000008615349553224036" y1="0.5445023507838396" y2="0.5445023507838396"/>
<line stroke="black" vector-effect="non-scaling-stroke" x1="-0.03889560629257809" x2="-0.03889560629257812" y1="0.5186080839010412" y2="0.5186080839010412"/>
<line stroke="black" vector-effect="non-scaling-stroke" x1="0.21972214752293173" x2="0.20118981908770991" y1="0.611218361274748" y2="0.5991117947808096"/>
<line stroke="black" vector-effect="non-scaling-stroke" x1="0.20118981908770991" x2="0.20118981908770991" y1="0.5991117947808096" y2="0.5991117947808096"/>
<line stroke="black" vector-effect="non-scaling-stroke" x1="-0.20118981908771" x2="-0.20118981908771" y1="0.5991117947808096" y2="0.5991117947808096"/>
<line stroke="black" vector-effect="non-scaling-stroke" x1="-0.21972214752293184" x2="-0.21972214752293184" y1="0.611218361274748" y2="0.611218361274748"/>
<line stroke="black" vector-effect="non-scaling-stroke" x1="-0.21972214752293184" x2="-0.21972214752293184" y1="0.611218361274748" y2="0.611218361274748"/>
<line stroke="black" vector-effect="non-scaling-stroke" x1="-0.21972214752293184" x2="-0.21972214752293184" y1="0.611218361274748" y2="0.611218361274748"/>
<line stroke="black" vector-effect="non-scaling-stroke" x1="-0.21972214752293184" x2="-0.21972214752293184" y1="0.611218361274748" y2="0.611218361274748"/>
<line stroke="black" vector-effect="non-scaling-stroke" x1="-0.21972214752293184" x2="-0.2270852395305339" y1="0.611218361274748" y2="0.39332317251583304"/>
<line stroke="black" vector-effect="non-scaling-stroke" x1="-0.40629567974791786" x2="-0.21972214752293184" y1="0.4803200744352772" y2="0.611218361274748"/>
<line stroke="black" vector-effect="non-scaling-stroke" x1="-0.20713525621191442" x2="-0.20713525621191442" y1="0.406604626170877" y2="0.406604626170877"/>
<line stroke="black" vector-effect="non-scaling-stroke" x1="-0.18823344256472535" x2="-0.18823344256472532" y1="0.3692971582270939" y2="0.3692971582270939"/>
<line stroke="black" vector-effect="non-scaling-stroke" x1="-0.18701344767898584" x2="-0.18701344767898584" y1="0.3455112459505359" y2="0.3455112459505359"/>
<line stroke="black" vector-effect="non-scaling-stroke" x1="-0.18701344767898584" x2="-0.18701344767898584" y1="0.3455112459505359" y2="0.3455112459505359"/>
<line stroke="black" vector-effect="non-scaling-stroke" x1="-0.00000000000000003900535185736784" x2="-0.00000000000000003900535185736784" y1="0.4930387478367542" y2="0.4930387478367542"/>
<line stroke="black" vector-effect="non-scaling-stroke" x1="-0.019974740683902932" x2="-0.019974740683902932" y1="0.265245703949419" y2="0.265245703949419"/>
<line stroke="black" vector-effect="non-scaling-stroke" x1="-0.019974740683902932" x2="-0.2270852395305339" y1="0.265245703949419" y2="0.39332317251583304"/>
<line stroke="black" vector-effect="non-scaling-stroke" x1="-0.2270852395305339" x2="-0.2270852395305339" y1="0.39332317251583304" y2="0.39332317251583304"/>
<line stroke="black" vector-effect="non-scaling-stroke" x1="-0.2270852395305339" x2="-0.2270852395305339" y1="0.39332317251583304" y2="0.39332317251583304"/>
<line stroke="black" vector-effect="non-scaling-stroke" x1="-0.2270852395305339" x2="-0.2270852395305339" y1="0.39332317251583304" y2="0.39332317251583304"/>
<line stroke="black" vector-effect="non-scaling-stroke" x1="-0.2270852395305339" x2="-0.2270852395305339" y1="0.39332317251583304" y2="0.39332317251583304"/>
<line stroke="black" vector-effect="non-scaling-stroke" x1="-0.40629567974791786" x2="-0.40629567974791786" y1="0.4803200744352772" y2="0.4803200744352772"/>
<line stroke="black" vector-effect="non-scaling-stroke" x1="-0.40629567974791786" x2="-0.40629567974791786" y1="0.4803200744352772" y2="0.4803200744352772"/>
<line stroke="black" vector-effect="non-scaling-stroke" x1="-0.40629567974791786" x2="-0.40629567974791786" y1="0.4803200744352772" y2="0.4803200744352772"/>
<line stroke="black" vector-effect="non-scaling-stroke" x1="-0.40629567974791786" x2="-0.40629567974791786" y1="0.4803200744352772" y2="0.4803200744352772"/>
<line stroke="black" vector-effect="non-scaling-stroke" x1="-0.2270852395305339" x2="-0.41946955436196076" y1="0.39332317251583304" y2="0.265245703949419"/>
<line stroke="black" vector-effect="non-scaling-stroke" x1="-0.41946955436196076" x2="-0.40629567974791786" y1="0.265245703949419" y2="0.4803200744352772"/>
<line stroke="black" vector-effect="non-scaling-stroke" x1="-0.41946955436196076" x2="-0.41946955436196076" y1="0.265245703949419" y2="0.265245703949419"/>
<line stroke="black" vector-effect="non-scaling-stroke" x1="-0.41946955436196076" x2="-0.41946955436196076" y1="0.265245703949419" y2="0.265245703949419"/>
<line stroke="black" vector-effect="non-scaling-stroke" x1="-0.41946955436196076" x2="-0.41946955436196076" y1="0.265245703949419" y2="0.265245703949419"/>
<line stroke="black" vector-effect="non-scaling-stroke" x1="-0.41946955436196076" x2="-0.41946955436196076" y1="0.265245703949419" y2="0.265245703949419"/>
<line stroke="black" vector-effect="non-scaling-stroke" x1="0.4062956797479178" x2="0.4062956797479178" y1="0.4803200744352772" y2="0.4803200744352772"/>
<line stroke="black" vector-effect="non-scaling-stroke" x1="0.4062956797479178" x2="0.4062956797479178" y1="0.4803200744352772" y2="0.4803200744352772"/>
<line stroke="black" vector-effect="non-scaling-stroke" x1="0.4062956797479178" x2="0.4062956797479178" y1="0.4803200744352772" y2="0.4803200744352772"/>
<line stroke="black" vector-effect="non-scaling-stroke" x1="0.4062956797479178" x2="0.4062956797479178" y1="0.4803200744352772" y2="0.4803200744352772"/>
<line stroke="black" vector-effect="non-scaling-stroke" x1="0.4194695543619607" x2="0.4194695543619607" y1="0.265245703949419" y2="0.265245703949419"/>
<line stroke="black" vector-effect="non-scaling-stroke" x1="0.4194695543619607" x2="0.4194695543619607" y1="0.265245703949419" y2="0.265245703949419"/>
<line stroke="black" vector-effect="non-scaling-stroke" x1="0.4194695543619607" x2="0.4194695543619607" y1="0.265245703949419" y2="0.265245703949419"/>
<line stroke="black" vector-effect="non-scaling-stroke" x1="0.4194695543619607" x2="0.4062956797479178" y1="0.265245703949419" y2="0.4803200744352772"/>
<line stroke="black" vector-effect="non-scaling-stroke" x1="0.4194695543619607" x2="0.22708523953053375" y1="0.265245703949419" y2="0.39332317251583304"/>
<line stroke="black" vector-effect="non-scaling-stroke" x1="0.4194695543619607" x2="0.4194695543619607" y1="0.265245703949419" y2="0.265245703949419"/>
<line stroke="black" vector-effect="non-scaling-stroke" x1="0.4194695543619607" x2="0.4194695543619607" y1="0.265245703949419" y2="0.265245703949419"/>
<line stroke="black" vector-effect="non-scaling-stroke" x1="0.2128215465346236" x2="0.4194695543619607" y1="0.14521304575950242" y2="0.265245703949419"/>
<line stroke="black" vector-effect="non-scaling-stroke" x1="0.2128215465346236" x2="0.2128215465346236" y1="0.14521304575950242" y2="0.14521304575950242"/>
<line stroke="black" vector-effect="non-scaling-stroke" x1="0.2128215465346236" x2="0.2128215465346236" y1="0.14521304575950242" y2="0.14521304575950242"/>
<line stroke="black" vector-effect="non-scaling-stroke" x1="-0.00000000000000003876111822577322" x2="-0.00000000000000003876111822577322" y1="0.4676810395358516" y2="0.4676810395358516"/>
<line stroke="black" vector-effect="non-scaling-stroke" x1="-0.00000000000000003876111822577322" x2="-0.00000000000000003876111822577322" y1="0.4676810395358516" y2="0.4676810395358516"/>
<line stroke="black" vector-effect="non-scaling-stroke" x1="-0.01934741332132946" x2="-0.01934741332132946" y1="0.4803200744352772" y2="0.4803200744352772"/>
<line stroke="black" vector-effect="non-scaling-stroke" x1="-0.01934741332132946" x2="-0.01934741332132946" y1="0.4803200744352772" y2="0.4803200744352772"/>
<line stroke="black" vector-effect="non-scaling-stroke" x1="-0.01934741332132946" x2="-0.01934741332132946" y1="0.4803200744352772" y2="0.4803200744352772"/>
<line stroke="black" vector-effect="non-scaling-stroke" x1="-0.01934741332132946" x2="-0.01934741332132946" y1="0.4803200744352772" y2="0.4803200744352772"/>
<line stroke="black" vector-effect="non-scaling-stroke" x1="-0.019974740683902932" x2="-0.01990234445410023" y1="0.265245703949419" y2="0.2900661955767749"/>
<line stroke="black" vector-effect="non-scaling-stroke" x1="-0.000000000000000040274189285034336" x2="-0.000000000000000040274189285034336" y1="0.2776784803719598" y2="0.2776784803719598"/>
<line stroke="black" vector-effect="non-scaling-stroke" x1="-0.019974740683902932" x2="-0.019974740683902932" y1="0.265245703949419" y2="0.265245703949419"/>
<line stroke="black" vector-effect="non-scaling-stroke" x1="-0.000000000000000040274189285034336" x2="-0.000000000000000040274189285034336" y1="0.2776784803719598" y2="0.2776784803719598"/>
<line stroke="black" vector-effect="non-scaling-stroke" x1="0.20713525621191428" x2="0.20713525621191428" y1="0.406604626170877" y2="0.406604626170877"/>
<line stroke="black" vector-effect="non-scaling-stroke" x1="0.20713525621191428" x2="0.20713525621191428" y1="0.406604626170877" y2="0.406604626170877"/>
<line stroke="black" vector-effect="non-scaling-stroke" x1="0.20713525621191428" x2="0.20713525621191428" y1="0.406604626170877" y2="0.406604626170877"/>
<line stroke="black" vector-effect="non-scaling-stroke" x1="0.22708523953053375" x2="0.22708523953053375" y1="0.39332317251583304" y2="0.39332317251583304"/>
<line stroke="black" vector-effect="non-scaling-stroke" x1="0.22708523953053375" x2="0.22708523953053375" y1="0.39332317251583304" y2="0.39332317251583304"/>
<line stroke="black" vector-effect="non-scaling-stroke" x1="0.20713525621191428" x2="0.20713525621191428" y1="0.406604626170877" y2="0.406604626170877"/>
<line stroke="black" vector-effect="non-scaling-stroke" x1="0.20713525621191428" x2="0.20713525621191428" y1="0.406604626170877" y2="0.406604626170877"/>
<line stroke="black" vector-effect="non-scaling-stroke" x1="0.206341188388772" x2="0.206341188388772" y1="0.3573934219834944" y2="0.3573934219834944"/>
<line stroke="black" vector-effect="non-scaling-stroke" x1="0.206341188388772" x2="0.206341188388772" y1="0.3573934219834944" y2="0.3573934219834944"/>
<line stroke="black" vector-effect="non-scaling-stroke" x1="0.206341188388772" x2="0.206341188388772" y1="0.3573934219834944" y2="0.3573934219834944"/>
<line stroke="black" vector-effect="non-scaling-stroke" x1="0.18701344767898578" x2="0.18701344767898578" y1="0.3455112459505359" y2="0.3455112459505359"/>
<line stroke="black" vector-effect="non-scaling-stroke" x1="0.18701344767898578" x2="0.18701344767898578" y1="0.3455112459505359" y2="0.3455112459505359"/>
<line stroke="black" vector-effect="non-scaling-stroke" x1="-0.20634118838877202" x2="-0.20634118838877202" y1="0.3573934219834944" y2="0.3573934219834944"/>
<line stroke="black" vector-effect="non-scaling-stroke" x1="-0.20634118838877202" x2="-0.20634118838877202" y1="0.3573934219834944" y2="0.3573934219834944"/>
<line stroke="black" vector-effect="non-scaling-stroke" x1="-0.20634118838877202" x2="-0.20634118838877202" y1="0.3573934219834944" y2="0.3573934219834944"/>
<line stroke="black" vector-effect="non-scaling-stroke" x1="-0.000000000000000040274189285034336" x2="0.20713525621191428" y1="0.2776784803719598" y2="0.406604626170877"/>
<line stroke="black" vector-effect="non-scaling-stroke" x1="0.019974740683902852" x2="0.019974740683902852" y1="0.26524570394941904" y2="0.265245703949419"/>
<line stroke="black" vector-effect="non-scaling-stroke" x1="0.019974740683902852" x2="0.01990234445410015" y1="0.265245703949419" y2="0.2900661955767748"/>
<line stroke="black" vector-effect="non-scaling-stroke" x1="0.22708523953053375" x2="0.019974740683902852" y1="0.39332317251583304" y2="0.265245703949419"/>
<line stroke="black" vector-effect="non-scaling-stroke" x1="0.019974740683902852" x2="0.019974740683902852" y1="0.265245703949419" y2="0.265245703949419"/>
<line stroke="black" vector-effect="non-scaling-stroke" x1="0.019974740683902852" x2="0.019974740683902852" y1="0.265245703949419" y2="0.265245703949419"/>
<line stroke="black" vector-effect="non-scaling-stroke" x1="0.019974740683902852" x2="0.019974740683902852" y1="0.265245703949419" y2="0.265245703949419"/>
<line stroke="black" vector-effect="non-scaling-stroke" x1="0.019974740683902852" x2="0.019974740683902852" y1="0.265245703949419" y2="0.265245703949419"/>
<line stroke="black" vector-effect="non-scaling-stroke" x1="-0.000000000000000040013860476904736" x2="-0.000000000000000040013860476904736" y1="0.25289329189734183" y2="0.25289329189734183"/>
<line stroke="black" vector-effect="non-scaling-stroke" x1="-0.000000000000000040013860476904736" x2="-0.000000000000000040013860476904736" y1="0.25289329189734183" y2="0.25289329189734183"/>
<line stroke="black" vector-effect="non-scaling-stroke" x1="-0.20713525621191442" x2="-0.000000000000000040274189285034336" y1="0.406604626170877" y2="0.2776784803719598"/>
<line stroke="black" vector-effect="non-scaling-stroke" x1="-0.20713525621191442" x2="-0.20713525621191442" y1="0.406604626170877" y2="0.406604626170877"/>
<line stroke="black" vector-effect="non-scaling-stroke" x1="-0.20713525621191442" x2="-0.20713525621191442" y1="0.406604626170877" y2="0.406604626170877"/>
<line stroke="black" vector-effect="non-scaling-stroke" x1="-0.20713525621191442" x2="-0.20713525621191442" y1="0.406604626170877" y2="0.406604626170877"/>
<line stroke="black" vector-effect="non-scaling-stroke" x1="-0.20713525621191442" x2="-0.20713525621191442" y1="0.406604626170877" y2="0.406604626170877"/>
<line stroke="black" vector-effect="non-scaling-stroke" x1="0.019974740683902852" x2="0.2128215465346236" y1="0.265245703949419" y2="0.14521304575950242"/>
<line stroke="black" vector-effect="non-scaling-stroke" x1="0.19286841005064848" x2="0.19219336918957414" y1="0.1336231541531005" y2="0.15805253744522924"/>
<line stroke="black" vector-effect="non-scaling-stroke" x1="-0.000000000000000040013860476904736" x2="-0.000000000000000040013860476904736" y1="0.25289329189734183" y2="0.25289329189734183"/>
<line stroke="black" vector-effect="non-scaling-stroke" x1="-0.000000000000000040013860476904736" x2="-0.000000000000000040013860476904736" y1="0.25289329189734183" y2="0.25289329189734183"/>
<line stroke="black" vector-effect="non-scaling-stroke" x1="0.19286841005064848" x2="-0.000000000000000040013860476904736" y1="0.1336231541531005" y2="0.25289329189734183"/>
<line stroke="black" vector-effect="non-scaling-stroke" x1="-0.00000000000000003986930170599817" x2="-0.000000000000000040013860476904736" y1="0.2776784803719598" y2="0.25289329189734183"/>
<line stroke="black" vector-effect="non-scaling-stroke" x1="-0.21282154653462365" x2="-0.019974740683902932" y1="0.14521304575950242" y2="0.265245703949419"/>
<line stroke="black" vector-effect="non-scaling-stroke" x1="-0.41946955436196076" x2="-0.21282154653462365" y1="0.265245703949419" y2="0.14521304575950242"/>
<line stroke="black" vector-effect="non-scaling-stroke" x1="-0.019974740683902932" x2="-0.019974740683902932" y1="0.265245703949419" y2="0.265245703949419"/>
<line stroke="black" vector-effect="non-scaling-stroke" x1="-0.000000000000000040013860476904736" x2="-0.19286841005064853" y1="0.25289329189734183" y2="0.1336231541531005"/>
<line stroke="black" vector-effect="non-scaling-stroke" x1="-0.019974740683902932" x2="-0.019974740683902932" y1="0.265245703949419" y2="0.265245703949419"/>
<line stroke="black" vector-effect="non-scaling-stroke" x1="-0.1928684100506485" x2="-0.19286841005064853" y1="0.1336231541531005" y2="0.1336231541531005"/>
<line stroke="black" vector-effect="non-scaling-stroke" x1="-0.19286841005064853" x2="-0.19286841005064853" y1="0.1336231541531005" y2="0.1336231541531005"/>
<line stroke="black" vector-effect="non-scaling-stroke" x1="-0.19286841005064853" x2="-0.19286841005064853" y1="0.1336231541531005" y2="0.1336231541531005"/>
<line stroke="black" vector-effect="non-scaling-stroke" x1="-0.19286841005064853" x2="-0.19286841005064853" y1="0.1336231541531005" y2="0.1336231541531005"/>
<line stroke="black" vector-effect="non-scaling-stroke" x1="-0.21282154653462365" x2="-0.21282154653462365" y1="0.14521304575950242" y2="0.14521304575950242"/>
<line stroke="black" vector-effect="non-scaling-stroke" x1="-0.19286841005064853" x2="-0.1921933691895742" y1="0.1336231541531005" y2="0.15805253744522924"/>
<line stroke="black" vector-effect="non-scaling-stroke" x1="-0.21282154653462365" x2="-0.21282154653462365" y1="0.14521304575950242" y2="0.14521304575950242"/>
<line stroke="black" vector-effect="non-scaling-stroke" x1="-0.21282154653462365" x2="-0.21282154653462365" y1="0.14521304575950242" y2="0.14521304575950242"/>
<line stroke="black" vector-effect="non-scaling-stroke" x1="0.19286841005064845" x2="0.19286841005064848" y1="0.1336231541531005" y2="0.1336231541531005"/>
<line stroke="black" vector-effect="non-scaling-stroke" x1="-0.000000000000000018792217847886615" x2="0.19286841005064848" y1="0.021594452871908497" y2="0.1336231541531005"/>
<line stroke="black" vector-effect="non-scaling-stroke" x1="-0.000000000000000018792217847886615" x2="-0.000000000000000018792217847886615" y1="0.021594452871908497" y2="0.021594452871908497"/>
<line stroke="black" vector-effect="non-scaling-stroke" x1="-0.000000000000000018792217847886615" x2="-0.000000000000000018792217847886615" y1="0.021594452871908497" y2="0.021594452871908497"/>
<line stroke="black" vector-effect="non-scaling-stroke" x1="0.19286841005064848" x2="0.19286841005064848" y1="0.1336231541531005" y2="0.1336231541531005"/>
<line stroke="black" vector-effect="non-scaling-stroke" x1="0.19286841005064848" x2="0.19286841005064848" y1="0.1336231541531005" y2="0.1336231541531005"/>
<line stroke="black" vector-effect="non-scaling-stroke" x1="0.19286841005064848" x2="0.19286841005064848" y1="0.1336231541531005" y2="0.1336231541531005"/>
<line stroke="black" vector-effect="non-scaling-stroke" x1="0.19286841005064848" x2="0.19286841005064848" y1="0.1336231541531005" y2="0.1336231541531005"/>
<line stroke="black" vector-effect="non-scaling-stroke" x1="-0.000000000000000018238545036086493" x2="-0.000000000000000018238545036086493" y1="0.23054039968255657" y2="0.23054039968255657"/>
<line stroke="black" vector-effect="non-scaling-stroke" x1="-0.000000000000000018238545036086493" x2="-0.000000000000000018238545036086493" y1="0.23054039968255657" y2="0.23054039968255657"/>
<line stroke="black" vector-effect="non-scaling-stroke" x1="-0.000000000000000018238545036086493" x2="-0.000000000000000018238545036086493" y1="0.23054039968255657" y2="0.23054039968255657"/>
<line stroke="black" vector-effect="non-scaling-stroke" x1="-0.19286841005064853" x2="-0.19286841005064853" y1="0.1336231541531005" y2="0.1336231541531005"/>
<line stroke="black" vector-effect="non-scaling-stroke" x1="-0.000000000000000027755575615628914" x2="-0.000000000000000027755575615628914" y1="0.021594452871908504" y2="0.021594452871908504"/>
<line stroke="black" vector-effect="non-scaling-stroke" x1="-0.19286841005064853" x2="-0.000000000000000018792217847886615" y1="0.1336231541531005" y2="0.021594452871908497"/>
</svg>