<svg viewBox="-0.41946955436196076 0.021594452871908497 0.8389391087239215 0.743778961096801" xmlns="http://www.w3.org/2000/svg">
<path d="M0.20039718,0.6247766 L0.20039718,0.6247766 L0.20039718,0.6247766 L0.20039718,0.6247766 L0.20039718,0.6247766 M0.038895607,0.5186081 L0.038895607,0.5186081 M0.20039718,0.6247766 L-0.00000000000000008325671,0.7653734 M0.20713526,0.40660462 L-0.000000000000000086153495,0.5445024 M0.20713526,0.40660462 L0.20039718,0.6247766 L0.20039718,0.6247766 L0.20039718,0.6247766 M0.01997474,0.2652457 L0.01997474,0.2652457 M0.18701345,0.34551126 L0.18701345,0.34551126 L0.18701345,0.34551126 M0.22708523,0.39332318 L0.01997474,0.2652457 M-0.00000000000000004027419,0.2776785 L0.20713526,0.40660462 M0.22708523,0.39332318 L0.22708523,0.39332318 L0.22708523,0.39332318 M0.41946957,0.2652457 L0.22708523,0.39332318 M0.21282154,0.14521305 L0.41946957,0.2652457 M0.4062957,0.48032007 L0.4062957,0.48032007 L0.4062957,0.48032007 L0.4062957,0.48032007 L0.4062957,0.48032007 M0.41946957,0.2652457 L0.41946957,0.2652457 L0.41946957,0.2652457 L0.4062957,0.48032007 M0.41946957,0.2652457 L0.41946957,0.2652457 L0.41946957,0.2652457 L0.41946957,0.2652457 M0.22708523,0.39332318 L0.22708523,0.39332318 L0.22708523,0.39332318 M0.21972215,0.61121833 L0.22708523,0.39332318 M0.4062957,0.48032007 L0.21972215,0.61121833 L0.21972215,0.61121833 M0.20634119,0.3573934 L0.20634119,0.3573934 L0.20634119,0.3573934 L0.20634119,0.3573934 M0.20118982,0.5991118 L0.21972215,0.61121833 L0.21972215,0.61121833 L0.21972215,0.61121833 L0.21972215,0.61121833 L0.21972215,0.61121833 L0.20118982,0.5991118 M0.4062957,0.48032007 L0.4062957,0.48032007 M0.019347413,0.48032007 L0.019347413,0.48032007 L0.019347413,0.48032007 M0.20713526,0.40660462 L0.20713526,0.40660462 L0.20713526,0.40660462 L0.20713526,0.40660462 L0.20713526,0.40660462 L0.20713526,0.40660462 M0.01997474,0.2652457 L0.01997474,0.2652457 L0.01997474,0.2652457 L0.019902345,0.29006618 M0.01997474,0.2652457 L0.01997474,0.2652457 L0.01997474,0.2652457 M0.01997474,0.2652457 L0.01997474,0.2652457 M-0.000000000000000018238545,0.2305404 L-0.000000000000000018238545,0.2305404 M-0.00000000000000008325671,0.7653734 L-0.00000000000000008325671,0.7653734 M-0.00000000000000008326673,0.7653734 L-0.00000000000000008326673,0.7653734 M-0.00000000000000008325671,0.7653734 L-0.00000000000000008325671,0.7653734 M-0.000000000000000027755576,0.46768105 L-0.000000000000000027755576,0.46768105 L-0.000000000000000027755576,0.46768105 M-0.00000000000000004001386,0.2528933 L-0.00000000000000004001386,0.2528933 L-0.00000000000000004001386,0.2528933 M-0.000000000000000018238545,0.2305404 L-0.000000000000000018238545,0.2305404 L-0.000000000000000018238545,0.2305404 M0.21282154,0.14521305 L0.21282154,0.14521305 L0.21282154,0.14521305 L0.21282154,0.14521305 L0.21282154,0.14521305 M0.01997474,0.2652457 L0.21282154,0.14521305 M0.19286841,0.13362315 L0.19219337,0.15805253 M0.19286841,0.13362315 L-0.00000000000000004001386,0.2528933 M-0.000000000000000018792218,0.021594454 L0.19286841,0.13362315 L0.19286841,0.13362315 L0.19286841,0.13362315 L0.19286841,0.13362315 L0.19286841,0.13362315 M0.19286841,0.13362315 L0.19286841,0.13362315 M-0.00000000000000004001386,0.2528933 L-0.00000000000000004001386,0.2528933 L-0.00000000000000004001386,0.2528933 M-0.000000000000000027755576,0.2776785 L-0.00000000000000004027419,0.2776785 L-0.00000000000000004027419,0.2776785 M-0.000000000000000027755576,0.2776785 L-0.000000000000000027755576,0.2776785 M-0.0000000000000000398693,0.2776785 L-0.0000000000000000398693,0.2776785 M-0.00000000000000004027419,0.2776785 L-0.00000000000000004027419,0.2776785 M-0.01997474,0.2652457 L-0.01997474,0.2652457 L-0.01997474,0.2652457 L-0.01997474,0.2652457 L-0.01997474,0.2652457 M-0.01997474,0.2652457 L-0.01997474,0.2652457 M-0.20039718,0.6247766 L-0.20039718,0.6247766 L-0.20039718,0.6247766 L-0.20039718,0.6247766 L-0.20039718,0.6247766 M-0.21972215,0.61121833 L-0.21972215,0.61121833 L-0.21972215,0.61121833 L-0.21972215,0.61121833 L-0.21972215,0.61121833 L-0.21972215,0.61121833 M-0.038895607,0.5186081 L-0.038895607,0.5186081 M-0.038895607,0.5186081 L-0.038895607,0.5186081 M-0.019347413,0.48032007 L-0.019347413,0.48032007 L-0.019347413,0.48032007 L-0.019347413,0.48032007 L-0.019347413,0.48032007 M-0.19286841,0.13362315 L-0.19286841,0.13362315 L-0.19286841,0.13362315 M-0.19286841,0.13362315 L-0.19286841,0.13362315 L-0.19286841,0.13362315 L-0.19286841,0.13362315 L-0.000000000000000018792218,0.021594454 M-0.000000000000000027755576,0.021594454 L-0.000000000000000018792218,0.021594454 M-0.000000000000000027755576,0.021594454 L-0.000000000000000018792218,0.021594454 L-0.000000000000000018792218,0.021594454 L-0.000000000000000018792218,0.021594454 M-0.000000000000000027755576,0.021594454 L-0.000000000000000027755576,0.021594454 M-0.21282154,0.14521305 L-0.21282154,0.14521305 M-0.21282154,0.14521305 L-0.21282154,0.14521305 M-0.21282154,0.14521305 L-0.21282154,0.14521305 L-0.21282154,0.14521305 L-0.21282154,0.14521305 M-0.0000000000000000398693,0.2776785 L-0.00000000000000004001386,0.2528933 M-0.21282154,0.14521305 L-0.01997474,0.2652457 M-0.19286841,0.13362315 L-0.19219337,0.15805253 M-0.00000000000000004001386,0.2528933 L-0.19286841,0.13362315 M-0.00000000000000008326673,0.7653734 L-0.00000000000000008325671,0.7653734 M-0.000000000000000086153495,0.5445024 L-0.000000000000000086153495,0.5445024 L-0.000000000000000086153495,0.5445024 L-0.000000000000000086153495,0.5445024 L-0.000000000000000086153495,0.5445024 M-0.00000000000000008325671,0.7653734 L-0.000000000000000086153495,0.5445024 M-0.20039718,0.6247766 L-0.00000000000000008326673,0.7653734 M-0.20713526,0.40660462 L-0.20039718,0.6247766 M-0.20713526,0.40660462 L-0.20713526,0.40660462 L-0.20713526,0.40660462 M-0.20118982,0.5991118 L-0.21972215,0.61121833 M-0.000000000000000086153495,0.5445024 L-0.20713526,0.40660462 M-0.000000000000000041633363,0.46768105 L-0.000000000000000041633363,0.46768105 M-0.000000000000000038761118,0.46768105 L-0.000000000000000038761118,0.46768105 L-0.000000000000000038761118,0.46768105 L-0.000000000000000038761118,0.46768105 M-0.00000000000000003900535,0.49303874 L-0.00000000000000003900535,0.49303874 M-0.20713526,0.40660462 L-0.00000000000000004027419,0.2776785 M-0.01997474,0.2652457 L-0.019902345,0.29006618 M-0.01997474,0.2652457 L-0.22708523,0.39332318 M-0.18823344,0.36929715 L-0.18823344,0.36929715 M-0.18701345,0.34551126 L-0.18701345,0.34551126 L-0.18701345,0.34551126 M-0.20713526,0.40660462 L-0.20713526,0.40660462 L-0.20713526,0.40660462 L-0.20713526,0.40660462 M-0.4062957,0.48032007 L-0.4062957,0.48032007 M-0.21972215,0.61121833 L-0.22708523,0.39332318 M-0.4062957,0.48032007 L-0.21972215,0.61121833 M-0.22708523,0.39332318 L-0.22708523,0.39332318 L-0.22708523,0.39332318 L-0.22708523,0.39332318 L-0.22708523,0.39332318 L-0.41946957,0.2652457 L-0.21282154,0.14521305 M-0.20634119,0.3573934 L-0.20634119,0.3573934 L-0.20634119,0.3573934 L-0.20634119,0.3573934 M-0.4062957,0.48032007 L-0.4062957,0.48032007 L-0.4062957,0.48032007 L-0.4062957,0.48032007 M-0.41946957,0.2652457 L-0.41946957,0.2652457 L-0.4062957,0.48032007 M-0.41946957,0.2652457 L-0.41946957,0.2652457 L-0.41946957,0.2652457 L-0.41946957,0.2652457" stroke="black" vector-effect="non-scaling-stroke"/>
</svg>