<svg height="218mm" viewBox="0 0 300 218" width="300mm" xmlns="http://www.w3.org/2000/svg" xmlns:inkscape="http://www.inkscape.org/namespaces/inkscape">
<g inkscape:groupmode="layer" inkscape:label="0">
<path d="M133.37454,112.40443 L180.47844,113.974556 M180.42445,114.2366 L179.7044,116.735596 L178.7942,119.17437 L177.70055,121.53918 L176.43097,123.81705 L174.99388,125.995804 L173.39836,128.06415 L171.65414,130.01161 L169.77151,131.82864 L167.76129,133.50662 L165.63464,135.03778 L163.40314,136.41534 L161.07855,137.6334 L158.6729,138.687 L156.19833,139.57204 L153.66704,140.28535 L151.09126,140.82465 L148.48317,141.18846 L145.85484,141.37617 L143.21819,141.38797 L140.58493,141.22481 L137.96657,140.88841 L135.3743,140.38118 L132.81897,139.70624 L130.3111,138.86732 L127.8608,137.8688 L125.47779,136.7156 L123.17131,135.41321 L120.950134,133.96758 L118.82256,132.38512 L116.796364,130.6727 L114.8788,128.83754 L113.07659,126.88721 L111.39592,124.829575 L109.84239,122.672775 L108.42109,120.425186 L107.136505,118.09537 L105.99258,115.69203 L104.99269,113.22402 L104.13966,110.700264 L103.435776,108.12974 L102.88274,105.52144 L102.48175,102.88437 L102.23347,100.22747 L102.13804,97.55963 L102.19509,94.88963 L102.40379,92.22616 L102.76281,89.57771 L103.27036,86.95265 L103.924225,84.35913 L104.72174,81.80509 L105.65986,79.298256 L106.73514,76.84607 L107.94376,74.45573 L109.28157,72.13415 L110.74407,69.88794 L112.32648,67.723404 L114.0237,65.646515 L115.83039,63.662933 L117.74097,61.77796 L119.74961,59.996567 L121.8503,58.32335 L124.03685,56.762558 L126.3029,55.31808 L128.64195,53.99343 L131.04741,52.791756 L133.51254,51.715836 L136.03058,50.76808 L138.59467,49.950535 L141.19792,49.26487 L143.83342,48.7124 L146.4943,48.294083 L149.17361,48.01051 L151.86453,47.861942 L154.56023,47.848278 L157.25398,47.969093 L159.9391,48.223633 L162.60904,48.610817 L165.25734,49.129257 L167.87764,49.77726 L170.46376,50.552845 L173.00964,51.453743 L175.50941,52.477417 L177.95735,53.621063 L180.3479,54.881634 L182.67574,56.25584 L184.93571,57.740166 L187.12288,59.330883 L189.23253,61.02406 L191.26016,62.81557 L193.20149,64.70112 L195.0525,66.67624 L196.8094,68.73631 L198.46863,70.87658 L200.02687,73.09216 L201.4811,75.37807 L202.82848,77.72919 L204.06647,80.14033 L205.1928,82.60624 L206.20541,85.12158 L207.10255,87.68098 L207.88268,90.27899 L208.54451,92.910194 L209.08705,95.5691 L209.50955,98.250244 L209.81146,100.94816 L209.99254,103.657394 L210.05275,106.37252 L209.99231,109.08815 L209.81168,111.79895 L209.51152,114.49964 L209.09276,117.185 L208.55652,119.849884 L207.90413,122.48926 L207.13715,125.09814 L206.25735,127.67167 L205.26668,130.20511 L204.16727,132.6938 L202.96147,135.13324 L201.65178,137.51904 L200.24086,139.84697 L198.73158,142.1129 L197.1269,144.31287 L195.43001,146.44308 L193.64415,148.49988 L191.77274,150.47978 L189.81934,152.37944 L187.78758,154.19572 L185.68123,155.92563 L183.50417,157.56635 L181.26035,159.11526 L178.95378,160.5699 L176.58862,161.92802 L174.16902,163.1875 L171.69925,164.34645 L169.18358,165.40317 L166.62636,166.35608 L164.03197,167.20387 L161.4048,167.94536 L158.7493,168.57959 L156.06989,169.10573 L153.371,169.52321 L150.6571,169.83157 L147.9326,170.03056 L145.20195,170.12013 L142.46951,170.10039 L139.73967,169.97159 L137.01674,169.73418 L134.30502,169.38881 L131.60875,168.93623 L128.9321,168.37741 L126.279205,167.71344 L123.65412,166.94559 L121.06083,166.07527 L118.50324,165.10402 L115.98518,164.03357 L113.5104,162.86574 L111.082535,161.60251 L108.70513,160.24597 L106.38166,158.79839 L104.115456,157.26207 L101.90976,155.63951 L99.76771,153.93329 L97.692314,152.14606 L95.68646,150.28064 L93.752945,148.33987 L91.89441,146.32675 L90.11337,144.24431 L88.41224,142.0957 L86.79329,139.88411 L85.25864,137.61282 L83.8103,135.28519 L82.45016,132.90457 L81.17992,130.47444 L80.00119,127.99828 L78.91543,125.479645 L77.92396,122.92209 L77.027954,120.32922 L76.22846,117.70467 L75.52639,115.05209 L74.9225,112.37515 L74.41743,109.67751 L74.01165,106.96287 L73.70553,104.23489 L73.49928,101.49727 L73.393,98.75365 L73.38663,96.00769 L73.47998,93.26302 L73.67275,90.52326 L73.96451,87.791985 L74.354675,85.07274 L74.842575,82.36903 L75.427376,79.68434 L76.10816,77.02208 L76.88387,74.38563 L77.75335,71.778305 L78.71532,69.203384 L79.76837,66.66407 L80.91103,64.1635 L82.1417,61.704742 L83.45867,59.290817 L84.860146,56.924644 L86.34424,54.609085 L87.90896,52.346916 L89.55223,50.140827 L91.271904,47.99343 L93.06574,45.907253 L94.931435,43.884724 L96.86657,41.928192 L98.868706,40.03991 L100.93531,38.222027 L103.06379,36.47661 L105.251495,34.80562 L107.49571,33.21091 L109.79369,31.694254 L112.142624,30.257305 L114.53966,28.901623 L116.981895,27.628658 L119.4664,26.439762 L121.99023,25.336176 L124.55036,24.319036 L127.1438,23.389378 L129.76749,22.548124 L132.41838,21.796093 L135.09338,21.133999 L137.78941,20.562449 L140.50339,20.08194 L143.23221,19.69287 L145.97276,19.395527 L148.72195,19.190096 L151.47672,19.07666 L154.23393,19.055197 L156.99057,19.12558 L159.74356,19.287588 L162.48987,19.540895 L165.2265,19.885077 L167.95047,20.319613 L170.65881,20.843887 L173.34862,21.457186 L176.017,22.158707 L178.6611,22.947552 L181.27812,23.822737 L183.86528,24.78319 L186.41988,25.82775 L188.93922,26.955173 L191.4207,28.164139 L193.86174,29.45324 L196.25984,30.820992 L198.61253,32.26584 L200.91742,33.786148 L203.17218,35.380222 L205.37453,37.046284 L207.52226,38.7825 L209.61325,40.58697 L211.6454,42.457733 L213.61674,44.392765 L215.52533,46.389988 L217.36931,48.447273 L219.1469,50.562443 L220.85638,52.73326 L222.49617,54.957455 L224.06467,57.2327 L225.56044,59.556644 L226.98207,61.926888 L228.32825,64.340996 L229.59775,66.7965 L230.78944,69.29092 L231.90224,71.82172 L232.93515,74.386345 L233.8873,76.982254 L234.75784,79.60684 L235.54607,82.25751 L236.25133,84.93163 L236.87303,87.6266 L237.4107,90.33977 L237.86395,93.06848 L238.23245,95.81012 L238.51598,98.56202 L238.71436,101.32154 L238.82753,104.086044 L238.85551,106.852905 L238.7984,109.619484 L238.65636,112.38319 L238.42963,115.1414 L238.11853,117.89156 L237.7235,120.631096 L237.245,123.35747 L236.6836,126.06815 L236.0399,128.76067 L235.31465,131.43253 L234.50862,134.08133 L233.62263,136.70464 L232.65762,139.30011 L231.6146,141.86539 L230.49457,144.39818 L229.29869,146.89624 L228.02812,149.35735 L226.68413,151.77931 L225.26802,154.16002 L223.78114,156.49739 L222.22493,158.78937 L220.60088,161.03398 L218.91049,163.22928 L217.15538,165.37338 L215.33717,167.46446 L213.45755,169.50075 L211.51826,171.4805 L209.52109,173.40207 L207.46783,175.26382 L205.36037,177.06424 L203.2006,178.8018 L200.9905,180.47511 L198.73198,182.08278 L196.42711,183.6235 L194.07791,185.09605 L191.68645,186.49924 L189.25484,187.83194 L186.7852,189.09311 L184.27968,190.28177 L181.74046,191.39699 L179.16975,192.43793 L176.56973,193.4038 L173.94264,194.29385 L171.29073,195.10747 L168.61624,195.84404 L165.92143,196.50305 L163.20859,197.08406 L160.48,197.58665 L157.73792,198.01051 L154.98463,198.35541 L152.22246,198.62112 L149.45364,198.80754 L146.68048,198.91461 L143.90526,198.94235 L141.13023,198.89081 L138.35767,198.76013 L135.58981,198.55052 L132.82889,198.26224 L130.07713,197.89561 L127.33676,197.45103 L124.609955,196.92894 L121.89888,196.32986 L119.20568,195.65434 L116.5325,194.90303 L113.88144,194.07661 L111.25457,193.17581 L108.653946,192.20145 L106.0816,191.15437 L103.539505,190.03549 L101.02964,188.84576 L97.84265,196.36748 L100.56493,197.6437 L103.32206,198.8432 L106.11191,199.96489 L108.93231,201.00781 L111.7811,201.97101 L114.65603,202.85362 L117.55486,203.65483 L120.47532,204.3739 L123.4151,205.01012 L126.37187,205.56288 L129.34328,206.03162 L132.32695,206.41583 L135.3205,206.7151 L138.32152,206.92908 L141.32758,207.05745 L144.33623,207.1 L147.34503,207.05656 L150.35153,206.92708 L153.35324,206.7115 L156.3477,206.40991 L159.33243,206.02242 L162.30495,205.54922 L165.26276,204.9906 L168.2034,204.3469 L171.1244,203.6185 L174.02328,202.80592 L176.89758,201.90971 L179.74486,200.93051 L182.56267,199.86902 L185.3486,198.726 L188.10025,197.50232 L190.8152,196.19888 L193.49113,194.8167 L196.12567,193.35681 L198.7165,191.82036 L201.26137,190.20857 L203.75798,188.52269 L206.20412,186.76408 L208.5976,184.93416 L210.93625,183.03438 L213.21797,181.06631 L215.44069,179.03157 L217.60234,176.93184 L219.70097,174.76883 L221.73463,172.54439 L223.70142,170.26036 L225.59947,167.91867 L227.42705,165.52133 L229.18237,163.07037 L230.86378,160.56792 L232.46967,158.0161 L233.99844,155.41714 L235.44865,152.77332 L236.81883,150.08693 L238.10762,147.36037 L239.31372,144.59601 L240.43593,141.79634 L241.47305,138.96384 L242.42403,136.10106 L243.28783,133.21059 L244.06354,130.29503 L244.7503,127.35704 L245.34732,124.399315 L245.8539,121.42456 L246.26942,118.43553 L246.59337,115.43499 L246.82527,112.42573 L246.96477,109.41057 L247.01155,106.39235 L246.96547,103.37391 L246.82637,100.35812 L246.59427,97.347855 L246.2692,94.346 L245.85135,91.35543 L245.34094,88.37905 L244.73831,85.419754 L244.04391,82.480415 L243.25826,79.563934 L242.38193,76.673164 L241.41565,73.81099 L240.36021,70.98025 L239.21649,68.18378 L237.98547,65.424385 L236.66821,62.704857 L235.26588,60.02796 L233.77971,57.396435 L232.21104,54.812977 L230.56131,52.280254 L228.83202,49.800896 L227.02477,47.377495 L225.14124,45.012596 L223.18323,42.708694 L221.15257,40.468246 L219.05124,38.293644 L216.88123,36.18723 L214.64465,34.151287 L212.34369,32.188046 L209.9806,30.299656 L207.55775,28.488214 L205.07751,26.755743 L202.5424,25.104195 L199.95496,23.535446 L197.31778,22.051294 L194.6336,20.653461 L191.90514,19.343584 L189.13522,18.123215 L186.32672,16.993818 L183.48256,15.95677 L180.60573,15.013356 L177.69925,14.164767 L174.7662,13.412096 L171.80974,12.756341 L168.833,12.198397 L165.8392,11.7390585 L162.83159,11.379017 L159.81343,11.118859 L156.78804,10.959064 L153.75876,10.9 L150.72893,10.94193 L147.70192,11.085003 L144.68112,11.329258 L141.66995,11.674617 L138.6718,12.120892 L135.69008,12.667778 L132.72823,13.314854 L129.78961,14.061583 L126.87768,14.9073105 L123.9958,15.851268 L121.14735,16.892565 L118.33568,18.030197 L115.56414,19.26304 L112.83602,20.589855 L110.1546,22.009285 L107.523125,23.519855 L104.944786,25.119978 L102.42274,26.80795 L99.96009,28.58195 L97.55989,30.440048 L95.225136,32.380203 L92.95877,34.40026 L90.76366,36.49796 L88.6426,38.67093 L86.59834,40.916695 L84.633514,43.232677 L82.75071,45.616196 L80.95239,48.064476 L79.24098,50.574642 L77.61877,53.14372 L76.08796,55.76865 L74.65067,58.44629 L73.308914,61.173393 L72.06457,63.94665 L70.919426,66.762665 L69.87516,69.617966 L68.93332,72.50901 L68.095345,75.43219 L67.36253,78.38383 L66.73608,81.36018 L66.217026,84.357475 L65.80629,87.37186 L65.50466,90.39944 L65.31279,93.43629 L65.23117,96.47844 L65.26018,99.52188 L65.40002,102.5626 L65.65078,105.59653 L66.01238,108.619606 L66.484604,111.62774 L67.06707,114.616844 L67.759254,117.582825 L68.560486,120.5216 L69.46992,123.429085 L70.48659,126.301216 L71.60934,129.13396 L72.836876,131.92328 L74.167755,134.66522 L75.60038,137.35582 L77.13299,139.99118 L78.763664,142.56746 L80.49036,145.08086 L82.31085,147.52765 L84.22278,149.90417 L86.22364,152.20683 L88.31077,154.43214 L90.48136,156.57666 L92.7325,158.63707 L95.06107,160.61015 L97.46389,162.49278 L99.93759,164.28194 L102.4787,165.97473 L105.08361,167.56837 L107.7486,169.06024 L110.46981,170.4478 L113.2433,171.7287 L116.064995,172.90068 L118.930725,173.96169 L121.83621,174.90977 L124.77711,175.74318 L127.74894,176.4603 L130.7472,177.0597 L133.76723,177.54012 L136.8044,177.90045 L139.85393,178.13982 L142.91104,178.25748 L145.97086,178.2529 L149.0285,178.12575 L152.07904,177.87589 L155.11751,177.50336 L158.13893,177.00839 L161.1383,176.39148 L164.11066,175.65324 L167.05096,174.79457 L169.95427,173.81651 L172.81561,172.72035 L175.63004,171.5076 L178.39267,170.17992 L181.09866,168.73923 L183.74323,167.18764 L186.32162,165.52748 L188.8292,163.76128 L191.2614,161.89177 L193.61372,159.92189 L195.8818,157.8548 L198.06137,155.6938 L200.14828,153.44247 L202.13852,151.1045 L204.02818,148.68385 L205.81355,146.18459 L207.49104,143.61101 L209.05724,140.96756 L210.50888,138.25888 L211.84293,135.48975 L213.0565,132.6651 L214.14693,129.79004 L215.11176,126.86982 L215.9487,123.90978 L216.65575,120.91544 L217.2311,117.89242 L217.67319,114.84642 L217.9807,111.783295 L218.15254,108.70894 L218.18791,105.62936 L218.08624,102.550606 L217.84726,99.47882 L217.47095,96.420166 L216.95755,93.380844 L216.3076,90.36708 L215.52194,87.38513 L214.60168,84.44122 L213.54822,81.54159 L212.36322,78.69242 L211.0487,75.89987 L209.60692,73.17005 L208.04045,70.508995 L206.35216,67.92265 L204.5452,65.41688 L202.62302,62.99741 L200.58936,60.669876 L198.44824,58.43975 L196.20396,56.31236 L193.86113,54.292854 L191.42456,52.386208 L188.8994,50.597187 L186.29103,48.93036 L183.60507,47.390045 L180.84741,45.980343 L178.02414,44.705082 L175.14163,43.567825 L172.2064,42.571857 L169.22523,41.720154 L166.20506,41.01539 L163.15302,40.45992 L160.07637,40.05576 L156.98257,39.804577 L153.87921,39.707687 L150.77397,39.766033 L147.67464,39.980186 L144.5891,40.350327 L141.52528,40.876236 L138.4912,41.557297 L135.49484,42.392483 L132.54427,43.380344 L129.64746,44.51902 L126.81241,45.806213 L124.04703,47.2392 L121.35914,48.81483 L118.75649,50.529514 L116.24668,52.37924 L113.83716,54.35955 L111.5352,56.465572 L109.347885,58.692 L107.28207,61.033115 L105.344345,63.48278 L103.541046,66.034454 L101.87818,68.6812 L100.361465,71.415695 L98.99625,74.23025 L97.78748,77.116806 L96.73976,80.06698 L95.85723,83.07204 L95.14358,86.12295 L94.60204,89.21041 L94.23536,92.32484 L94.045746,95.4564 L94.0349,98.59506 L94.20392,101.730606 L94.55339,104.85263 L95.08325,107.95063 L95.792854,111.013985 L96.68094,114.032005 L97.74559,116.99398 L98.984245,119.88921 L100.393684,122.70703 L101.97003,125.43686 L103.70872,128.06824 L105.60452,130.59088 L107.65152,132.9947 L109.84313,135.26988 L112.17209,137.40688 L114.63047,139.3965 L117.209694,141.22995 L119.90052,142.89885 L122.69309,144.39536 L125.57695,145.71208 L128.54102,146.84227 L131.57368,147.77979 L134.6628,148.51917 L137.79568,149.05565 L140.95923,149.38525 L144.13986,149.50484 L147.32368,149.41206 L150.4964,149.10553 L153.64348,148.58476 L156.75014,147.85025 L159.80145,146.90352 L162.78238,145.74712 L165.67783,144.38467 L168.4728,142.82094 L171.15234,141.06174 L173.70177,139.11409 L176.10661,136.98613 L178.35281,134.68715 L180.42674,132.22765 L182.31534,129.61923 L184.00618,126.874695 L185.4876,124.00793 L186.74876,121.03395 L187.77982,117.96886 L188.57193,114.82974 L189.11746,111.63472 L189.41002,108.4028 L189.44463,105.153854 L189.21773,101.908516 L188.72742,98.68809 L187.97342,95.514465 L186.95729,92.40999 L185.68243,89.39733 L184.15425,86.499374 L182.38014,83.739 L180.36967,81.139 L178.13458,78.72183 L175.68884,76.509445 L173.0487,74.5231 L170.23274,72.78309 L167.26181,71.30855 L164.15909,70.117195 L160.95006,69.22504 L157.66235,68.64613 L154.3258,68.39229 L150.97226,68.47274 L147.63544,68.89387 L144.35078,69.65887 L141.15521,70.7674 L138.0869,72.21532 L135.18489,73.99428 L132.48883,76.09143 L130.03844,78.4891 L127.87313,81.16445 L126.03135,84.089226 L124.54998,87.22942 L123.46363,90.54509 L122.80377,93.99008 L122.5978,97.511955 L122.86803,101.051834 L123.6304,104.54444 L124.89322,107.918175 L126.655525,111.09537 L128.90536,113.99263 L131.61777,116.521484 L134.82387,109.0079 L133.35715,107.143196 L132.1738,105.071945 L131.29338,102.84166 L130.72775,100.49961 L130.48192,98.091835 L130.55469,95.66236 L130.93944,93.25265 L131.6249,90.90118 L132.59576,88.643105 L133.83342,86.51011 L135.31654,84.53026 L137.02164,82.72797 L138.92357,81.12403 L140.99605,79.73566 L143.21205,78.5766 L145.54417,77.65726 L147.96501,76.98487 L150.44748,76.563644 L152.96501,76.39499 L155.49182,76.47768 L158.00316,76.80805 L160.47539,77.380264 L162.88618,78.18644 L165.21463,79.2169 L167.44135,80.4604 L169.54848,81.90425 L171.51985,83.534584 L173.34093,85.3365 L174.99884,87.29426 L176.48244,89.39144 L177.7822,91.61113 L178.89029,93.936035 L179.80049,96.34866 L180.50812,98.83144 L181.01007,101.366844 L181.30469,103.93749 L181.39171,106.52629 L181.27223,109.1165 L180.94862,111.69186 L180.42445,114.2366 M180.25247,114.83348 L133.01001,113.25873 M132.64548,114.11304 L180.0052,115.69169 M179.75792,116.549904 L132.28094,114.96734 M131.9164,115.82165 L179.45412,117.406235 M179.1347,118.26205 L106.05639,115.8261 M105.69092,114.947464 L130.82823,115.78537 M129.86443,114.88679 L105.33508,114.069145 M104.98149,113.1909 L128.90196,113.98825 M128.21126,113.09877 L104.685295,112.314575 M104.3891,111.43824 L127.52053,112.20929 M126.82981,111.31981 L104.10186,110.56221 M103.86241,109.687775 L126.28942,110.43534 M125.79977,109.55257 L103.62296,108.81334 M103.39539,107.93929 L125.31011,108.669785 M124.84442,107.7878 L103.21037,107.06667 M103.02535,106.194046 L124.516,106.9104 M124.187584,106.033 L102.85239,105.32182 M102.71996,104.45096 L123.85916,105.155594 M123.57259,104.27959 L102.58754,103.580086 M102.465416,102.70956 L123.38207,103.40678 M123.19155,102.53397 L102.38419,101.84039 M102.30297,100.97123 L123.00104,101.66116 M122.84801,100.78961 L102.22899,100.10231 M102.19796,99.23482 L122.7817,99.920944 M122.715385,99.05228 L102.16693,98.367325 M102.13931,97.49995 L122.64908,98.18361 M122.609276,97.31583 L102.157814,96.63411 M102.176315,95.76827 L122.65985,96.45106 M122.71042,95.58629 L102.19482,94.902435 M102.26181,94.03821 L122.760994,94.72151 M122.82919,93.85733 L102.32952,93.17401 M102.39724,92.30981 L122.99411,92.996376 M123.15902,92.135414 L102.5094,91.44709 M102.62633,90.58453 L123.32393,91.27445 M123.50655,90.414085 L102.743256,89.72198 M102.90143,88.860794 L123.78737,89.55699 M124.06819,88.6999 L103.06788,87.999886 M103.23434,87.13898 L124.349014,87.8428 M124.664406,86.986855 L103.4401,86.27938 M103.65673,85.42014 L125.066826,86.13381 M125.46924,85.28077 L103.87335,84.560905 M104.12911,83.70298 L125.87166,84.42773 M126.35369,83.57734 L104.39688,82.84544 M104.66466,81.987915 L126.88809,82.7287 M127.4225,81.88005 L104.97372,81.13176 M105.293976,80.27598 L127.98018,81.03219 M128.66302,80.18849 L105.61423,79.4202 M105.980965,78.56597 L129.34587,79.344795 M130.02872,78.50111 L106.35543,77.71199 M106.7299,76.85802 L130.88258,77.66311 M131.73892,76.825195 L107.15995,76.0059 M107.5908,75.1538 L132.62158,75.98817 M133.68971,75.15731 L108.03231,74.30206 M108.522194,73.451935 L134.75784,74.32646 M135.98949,73.50106 L109.012085,72.601814 M109.52998,71.75262 L137.33003,72.67928 M138.83362,71.86295 L110.082146,70.904564 M110.634315,70.05652 L140.5486,71.05366 M142.62794,70.256516 L111.23952,69.210236 M111.85788,68.36439 L145.14474,69.47395 M148.91006,68.73301 L112.493416,67.51912 M113.1827,66.67564 L197.38786,69.482475 M198.0774,70.37192 L160.31468,69.11316 M164.12056,70.106476 L198.73859,71.260414 M199.3626,72.14767 L166.60327,71.055695 M168.63452,71.98986 L199.98662,73.03493 M200.5537,73.92029 L170.44913,72.9168 M171.93134,73.832664 L201.11685,74.80551 M201.6599,75.69007 L173.3453,74.746254 M174.55034,75.65288 L202.1661,76.5734 M202.67233,77.45673 L175.74374,76.55911 M176.73824,77.45872 L203.1415,78.33883 M203.59412,79.22037 L177.73273,78.35832 M178.62721,79.2546 L204.04674,80.10191 M204.45084,80.98184 L179.45389,80.148605 M180.28055,81.04262 L204.85272,81.861694 M205.24716,82.741295 L180.98325,81.9325 M181.67097,82.82188 L205.60072,83.61954 M205.95428,84.49778 L182.35869,83.71126 M182.93146,84.59681 L206.29445,85.37557 M206.60176,86.25227 L183.50053,85.48223 M184.0696,86.36766 L206.90906,87.128975 M207.19989,88.00513 L184.55016,87.25014 M185.01524,88.132095 L207.46269,88.88034 M207.7255,89.75556 L185.48032,89.01405 M185.89272,89.89426 L207.97101,90.630196 M208.1908,91.50398 L186.26462,90.77311 M186.63652,91.65196 L208.41058,92.37776 M208.61406,93.251 L186.99672,92.530426 M187.28345,93.40644 L208.79207,94.12339 M208.97008,94.99578 L187.57018,94.28245 M187.8569,95.15846 L209.13411,95.86771 M209.27136,96.73874 L188.09659,96.03291 M188.3041,96.90629 L209.40862,97.60977 M209.53531,98.480446 L188.51158,97.779655 M188.71909,98.65303 L209.63263,99.35015 M209.72997,100.21985 L188.85468,99.52401 M188.98727,100.39488 L209.82089,101.08933 M209.87894,101.957726 L189.11987,101.265755 M189.23363,102.13601 L209.93698,102.82612 M209.99336,103.69445 L189.29436,103.004486 M189.35507,103.87297 L210.01259,104.561554 M210.03181,105.42865 L189.41579,104.74145 M189.43977,105.6087 L210.05106,106.295746 M210.03519,107.161674 L189.43056,106.47485 M189.42133,107.341 L210.01591,108.02749 M209.99666,108.8933 L189.41211,108.207146 M189.34949,109.07152 L209.94768,109.758125 M209.89006,110.62266 L189.27129,109.93537 M189.19308,110.79922 L209.83246,111.4872 M209.75034,112.350914 L189.11263,111.662994 M188.96553,112.52454 L209.65439,113.21417 M209.55846,114.07743 L188.81842,113.3861 M188.67131,114.24765 L209.44284,114.94003 M209.30843,115.80201 L188.5016,115.10845 M188.28479,115.96768 L209.17401,116.66399 M209.02425,117.52545 L188.06796,116.826904 M187.85115,117.686134 L208.85106,118.38613 M208.67787,119.24682 L187.58643,118.54377 M187.29819,119.40062 L208.49294,120.10711 M208.28052,120.966484 L187.00996,120.25747 M186.71478,121.11408 L208.0681,121.82586 M207.8466,122.68494 L186.35248,121.96846 M185.99016,122.82284 L207.59435,123.542984 M207.34209,124.40103 L185.62784,123.67722 M185.21782,124.53001 L207.08221,125.25882 M206.78935,126.11552 L184.77765,125.38179 M184.33748,126.233574 L206.49648,126.972206 M206.19597,127.82865 L183.87682,127.08468 M183.35376,127.9337 L205.86151,128.68396 M205.52705,129.53926 L182.8307,128.78271 M182.30632,129.6317 L205.18312,130.39426 M204.80591,131.24814 L181.69376,130.47774 M181.08119,131.32378 L204.4287,132.10202 M204.03793,132.95546 L180.46863,132.16982 M179.76468,133.0128 L203.6166,133.80786 M203.19525,134.66028 L179.05403,133.85558 M178.34193,134.69829 L202.75354,135.51201 M202.28645,136.3629 L177.52206,135.53741 M176.70221,136.37654 L201.81935,137.21378 M201.3217,138.06364 L175.84848,137.21454 M174.90483,138.04955 L200.80696,138.91295 M200.29222,139.76224 L173.96118,138.88454 M172.91377,139.71608 L199.73259,140.61005 M199.168,141.45769 L171.82703,140.54631 M170.6761,141.3744 L198.59152,142.30492 M197.97452,143.15082 L169.4201,142.199 M168.11359,143.02191 L197.35753,143.9967 M196.70586,144.84143 L166.65201,143.83965 M165.10439,144.65451 L196.03351,145.68549 M195.35513,146.52933 L163.3848,145.46365 M161.44615,146.26549 L194.62396,147.37141 M193.8928,148.2135 L159.29622,147.06027 M157.25497,139.19412 L128.78423,138.2451 M126.70469,137.30933 L159.33504,138.397 M161.15883,137.59134 L124.88752,136.3823 M123.256805,135.46149 L162.7135,136.7767 M164.14409,135.95793 L121.84173,134.54787 M120.50551,133.63686 L165.47577,135.13586 M166.64758,134.30847 L119.28591,132.72975 M118.16074,131.82579 L167.79294,133.4802 M168.7911,132.64702 L117.09342,130.92375 M116.1194,130.02484 L169.78696,131.81375 M170.65471,130.97623 L115.18137,129.1271 M114.31917,128.23192 L171.52246,130.13869 M172.29333,129.29793 L113.49307,127.33792 M112.71585,126.44556 L173.04686,128.45659 M173.74603,127.61344 L111.98833,125.55485 M111.27715,124.66469 L174.39766,126.76871 M175.04144,125.923706 L110.637695,123.77692 M109.998245,122.889145 L175.60065,125.07589 M176.15987,124.22807 L109.41909,122.00339 M108.859375,121.11827 L176.67523,123.3788 M177.14934,122.528145 L108.3155,120.23369 M107.82882,119.351006 L177.62346,121.6775 M178.031,120.82462 L107.34214,118.46833 M106.89451,117.58695 L178.42564,119.97132 M178.8153,119.11785 L106.47545,116.70653 M99.00125,119.92321 L76.677605,119.17909 M76.41096,118.30374 L98.622696,119.044136 M98.24664,118.165146 L76.15544,117.42877 M75.92407,116.5546 L97.87059,117.286156 M97.53515,116.408516 L75.692696,115.680435 M75.47101,114.80659 L97.21994,115.531555 M96.904724,114.65459 L75.27406,113.93356 M75.07712,113.06055 L96.606255,113.77818 M96.34876,112.903145 L74.88742,112.18777 M74.724174,111.31587 L96.09127,112.02811 M95.833786,111.15307 L74.56093,110.44397 M74.40168,109.572205 L95.622734,110.27957 M95.42046,109.40638 L74.27152,108.70141 M74.14136,107.83062 L95.21819,108.53318 M95.03364,107.66057 L74.01131,106.95982 M73.91371,106.09012 L94.8846,106.78915 M94.73555,105.91772 L73.81612,105.220406 M73.71852,104.3507 L94.58651,105.046295 M94.47767,104.17621 L73.6488,103.48192 M73.47524,100.87676 L94.19513,101.56743 M94.14833,100.69941 L73.441635,100.009186 M73.40803,99.14161 L94.10154,99.83139 M94.05475,98.96338 L73.391884,98.27461 M73.38988,97.40809 L94.03662,98.09631 M94.03961,97.22996 L73.38786,96.541565 M73.39793,95.675446 L94.04261,96.3636 M94.04561,95.497246 L73.42736,94.809975 M73.4568,93.944496 L94.095634,94.63246 M94.147995,93.767746 L73.49291,93.07925 M73.553734,92.21481 L94.20035,92.90304 M94.26903,92.03887 L73.614555,91.35039 M73.676735,90.486 L94.37064,91.175804 M94.47226,90.31273 L73.76896,89.62262 M73.86119,88.75924 L94.573875,89.44966 M94.71125,88.58778 L73.953415,87.89586 M74.07336,87.0334 L94.86234,87.726364 M95.013435,86.864944 L74.19708,86.17107 M74.320816,85.30874 L95.171455,86.00375 M95.37257,85.144005 L74.46757,84.447174 M74.622986,83.58589 L95.57368,84.28425 M95.77478,83.4245 L74.778404,82.72462 M74.95259,81.86397 L96.00591,82.56575 M96.25791,81.70769 L75.13997,81.00376 M75.32735,80.14355 L96.50991,80.84963 M96.76649,79.99173 L75.52979,79.283844 M75.74949,78.424706 L97.0706,79.135414 M97.37471,78.27909 L75.969185,77.565575 M76.20091,76.70684 L97.678825,77.422775 M98.01746,76.567604 L76.45337,75.8488 M76.705826,74.99076 L98.375305,75.71307 M98.73314,74.85855 L76.9681,74.13305 M77.25387,73.276115 L99.10574,74.00451 M99.51933,73.15184 L77.539635,72.41919 M77.83396,71.56254 L99.93293,72.29917 M100.34653,71.4465 L78.15368,70.70674 M78.4734,69.850945 L100.816284,70.5957 M101.28815,69.74498 L78.80156,68.99542 M79.155975,68.140785 L101.76001,68.89425 M102.27785,68.04505 L79.5104,67.28614 M79.874504,66.43182 L102.81105,67.19637 M103.344246,66.34769 L80.264496,65.57836 M80.654495,64.72491 L103.91848,65.500374 M104.51672,64.65386 L81.057,63.87187 M81.48357,63.01963 L105.114975,63.807346 M105.75609,62.962257 L81.91013,62.167393 M82.353935,61.31573 L106.42386,62.11806 M107.09164,61.273865 L82.81821,60.464752 M83.28248,59.61377 L107.81298,60.431454 M108.5557,59.589756 L83.77094,58.763596 M74.64423,58.459373 L52.988445,57.737514 M52.988445,58.60397 L74.22481,59.311848 M73.80538,60.16432 L52.988445,59.470425 M52.988445,60.33688 L73.385956,61.0168 M72.99623,61.870262 L52.988445,61.20334 M52.988445,62.069794 L72.61318,62.723953 M72.23014,63.57764 L52.988445,62.93625 M52.988445,63.802708 L71.867195,64.432 M71.51956,65.286865 L52.988445,64.66916 M52.988445,65.53562 L71.17193,66.14173 M70.83375,66.99692 L52.988445,66.40208 M52.988445,67.26853 L70.52068,67.852936 M70.20761,68.70896 L52.988445,68.13499 M52.988445,69.00144 L69.89454,69.56498 M69.613205,70.42206 L52.988445,69.8679 M52.988445,70.73436 L69.33396,71.279205 M69.054726,72.13635 L52.988445,71.600815 M52.988445,72.46727 L68.79425,72.99413 M68.54822,73.85239 L52.988445,73.333725 M52.988445,74.20018 L68.302185,74.71064 M68.06136,75.56907 L52.988445,75.066635 M52.988445,75.93309 L67.84801,76.42841 M67.63466,77.28776 L52.988445,76.79955 M52.988445,77.66601 L67.42131,78.1471 M67.23132,79.007225 L52.988445,78.53246 M52.988445,79.39892 L67.050224,79.867645 M66.869125,80.728065 L52.988445,80.26537 M52.988445,81.13183 L66.696495,81.58877 M66.54731,82.45025 L52.988445,81.99829 M52.988445,82.864746 L66.39812,83.31173 M66.24893,84.17322 L52.988445,83.7312 M52.988445,84.59766 L66.12463,85.03553 M66.00711,85.89807 L52.988445,85.46411 M52.988445,86.33057 L65.88958,86.760605 M65.78123,87.62345 L52.988445,87.19702 M52.988445,88.063484 L65.69519,88.48704 M65.60915,89.35063 L52.988445,88.92994 M52.988445,89.796394 L65.52312,90.21422 M65.461754,91.07863 L52.988445,90.66285 M52.988445,91.529305 L65.40712,91.94326 M65.35249,92.8079 L52.988445,92.39576 M52.988445,93.26222 L65.30644,93.67282 M65.28322,94.5385 L52.988445,94.12868 M52.988445,94.99513 L65.259995,95.40418 M65.23676,96.26987 L52.988445,95.86159 M52.988445,96.72804 L65.23744,97.136345 M65.2457,98.003075 L52.988445,97.5945 M52.988445,98.46096 L65.25396,98.869804 M65.27006,99.7368 L52.988445,99.327415 M52.988445,100.19387 L65.30997,100.60458 M65.34988,101.472374 L52.988445,101.060326 M52.988445,101.92678 L65.389786,102.34016 M65.45342,103.20874 L52.988445,102.793236 M52.988445,103.65969 L65.52524,104.07759 M65.597046,104.946434 L52.988445,104.52615 M52.988445,105.39261 L65.67698,105.81556 M65.78104,106.685486 L52.988445,106.25906 M52.988445,107.12552 L65.885086,107.555405 M65.98914,108.42533 L52.988445,107.991974 M52.988445,108.85843 L66.11858,109.296104 M66.25531,110.167114 L52.988445,109.72489 M52.988445,110.59135 L66.392044,111.03813 M66.539505,111.9095 L52.988445,111.4578 M52.988445,112.32426 L66.70945,112.781624 M66.879395,113.65375 L52.988445,113.19071 M52.988445,114.05717 L67.04934,114.52586 M67.2496,115.398994 L52.988445,114.92362 M52.988445,115.790085 L67.4534,116.27225 M67.657196,117.14549 L52.988445,116.65654 M52.988445,117.522995 L67.87826,118.019325 M68.11666,118.89372 L52.988445,118.38945 M52.988445,119.255905 L68.35506,119.76813 M68.59836,120.64269 L52.988445,120.12236 M52.988445,120.98882 L68.87224,121.51828 M69.14611,122.39387 L52.988445,121.85528 M52.988445,122.72173 L69.41999,123.26945 M69.7237,124.14603 L52.988445,123.58819 M52.988445,124.45464 L70.034065,125.022835 M70.34444,125.899635 L52.988445,125.3211 M52.988445,126.18755 L70.67521,126.777115 M71.023224,127.655174 L52.988445,127.054016 M52.988445,127.92047 L71.37124,128.53323 M71.73157,129.4117 L52.988445,128.78693 M52.988445,129.65338 L72.11855,130.29105 M72.50555,131.17041 L52.988445,130.51984 M52.988445,131.38629 L72.89836,132.04996 M73.325836,132.93066 L52.988445,132.25275 M52.988445,133.1192 L73.75332,133.81137 M74.18208,134.69212 L52.988445,133.98566 M52.988445,134.85211 L74.651764,135.57423 M75.12145,136.45634 L52.988445,135.71858 M52.988445,136.58504 L75.59113,137.33846 M76.10412,138.22202 L52.988445,137.45149 M52.988445,138.31795 L76.61797,139.10559 M77.13182,139.98918 L52.988445,139.1844 M52.988445,140.05086 L77.69197,140.87431 M78.25222,141.75945 L52.988445,140.91731 M52.988445,141.78377 L78.81674,142.64471 M79.42594,143.53148 L52.988445,142.65022 M52.988445,143.51668 L80.03514,144.41824 M86.48959,139.43465 L116.07128,140.4207 M114.79242,139.51163 L85.89066,138.54823 M85.29173,137.6618 L113.65529,138.60725 M112.538704,137.70358 L84.7385,136.77692 M84.18795,135.8921 L111.51393,136.80296 M110.53404,135.90385 L83.65181,135.00778 M83.147156,134.1245 L109.58883,135.00589 M108.72651,134.11069 L82.642494,133.24123 M82.1649,132.35884 L107.86418,133.21548 M107.07941,132.32288 L81.70397,131.47702 M81.24304,130.5952 L106.320015,131.4311 M105.56591,130.5395 L80.8182,129.71458 M80.39909,128.83415 L104.898026,129.65079 M104.23014,128.76207 L79.98201,127.9538 M79.60304,127.07471 L103.580345,127.873955 M102.99494,126.98798 L79.22408,126.195625 M78.85229,125.31677 L102.40953,126.10201 M101.84288,125.21667 L78.512,124.43897 M78.17171,123.56117 L101.332726,124.333206 M100.82257,123.449745 L77.84158,122.683716 M77.53868,121.80716 L100.32347,122.56665 M99.88273,121.68551 L77.23577,120.93061 M76.94425,120.054436 L99.44199,120.80436 M94.38032,103.30651 L73.58336,102.61328 M73.51792,101.744644 L94.282974,102.43681 M130.60684,99.31532 L180.93605,100.992966 M181.06703,101.863785 L130.6956,100.18474 M130.8623,101.056755 L181.1667,102.73357 M181.26639,103.60335 L131.07326,101.93024 M131.28421,102.80373 L181.32263,104.47167 M181.35179,105.3391 L131.62492,103.68154 M131.97153,104.55955 L181.38095,106.206535 M181.3665,107.07251 L132.38394,105.43975 M132.88857,106.32303 L181.3266,107.93763 M181.2867,108.80276 L133.40715,107.20677 M134.10704,108.09656 L181.20313,109.66643 M181.09471,110.529274 L134.80692,108.98634 M134.46815,109.84151 L180.9863,111.39211 M180.83295,112.253456 L134.10362,110.695816 M133.73909,111.55012 L180.65569,113.114006 M180.76338,100.12075 L130.51808,98.44591 M130.4973,97.57876 L180.5907,99.24854 M180.37802,98.37499 L130.52322,96.713165 M130.54915,95.84757 L180.12871,97.50023 M179.87938,96.62546 L130.66286,94.98491 M130.80048,94.12304 L179.57419,95.74883 M179.24315,94.87134 L130.93808,93.26117 M131.1871,92.403015 L178.91211,93.99385 M178.4983,93.1136 L131.43726,91.5449 M131.71666,90.68775 L178.07867,92.233154 M177.63033,91.35175 L132.08392,89.83354 M132.4512,88.979324 L177.11285,90.46805 M176.59538,89.58434 L132.89484,88.12766 M133.38806,87.27764 L175.99171,88.69777 M175.36395,87.81039 L133.89487,86.42808 M134.52812,85.58273 L174.68294,86.92123 M173.92787,86.0296 L135.16138,84.73739 M135.9165,83.8961 L173.13916,85.136856 M172.23296,84.2402 L136.71117,83.05613 M137.62386,82.2201 L171.28723,83.34221 M170.19553,82.43937 L138.61223,81.38659 M139.76755,80.55864 L169.00711,81.533295 M167.67796,80.622536 L141.00058,79.73329 M142.5579,78.91874 L166.08504,79.70298 M164.21422,78.77416 L144.38739,78.113266 M146.73962,77.32522 L161.81334,77.827675 M158.13522,76.838615 L150.3553,76.579285 M119.79019,59.964237 L190.70853,62.328182 M191.68391,63.22715 L118.84461,60.799175 M117.903015,61.634243 L192.60771,64.1244 M193.50093,65.02063 L117.03765,62.471855 M116.188126,63.309994 L194.33913,65.91502 M195.16577,66.80904 L115.38699,64.14974 M114.621056,64.99067 L195.92633,67.70084 M196.68689,68.59265 L113.871994,65.83216 M131.29102,139.19511 L154.75984,139.97742 M151.51595,140.73573 L134.57925,140.17119 M141.03961,141.25299 L144.86783,141.38058 M126.22133,145.95778 L90.56224,144.76913 M89.823395,143.87805 L124.05957,145.01926 M122.119835,144.08815 L89.1188,142.98811 M88.4142,142.09818 L120.39571,143.16422 M118.8482,142.24619 L87.76391,141.21004 M87.11377,140.32191 L117.37184,141.33052 M204.12065,148.55443 L226.2797,149.29306 M226.2797,148.4266 L204.7252,147.70811 M205.32977,146.86182 L226.2797,147.56015 M226.2797,146.6937 L205.92398,146.01517 M206.47675,145.16713 L226.2797,145.82722 M226.2797,144.96077 L207.0295,144.3191 M207.57411,143.4708 L226.2797,144.09431 M226.2797,143.22786 L208.07753,142.62112 M208.58095,141.77145 L226.2797,142.3614 M226.2797,141.49495 L209.08182,140.92169 M209.53802,140.07043 L226.2797,140.6285 M226.2797,139.76204 L209.99423,139.2192 M210.45044,138.36794 L226.2797,138.89558 M226.2797,138.02913 L210.86707,137.51537 M211.2779,136.66261 L226.2797,137.16267 M226.2797,136.29622 L211.68872,135.80984 M212.07217,134.95618 L226.2797,135.42976 M226.2797,134.5633 L212.43918,134.10194 M212.80618,133.24773 L226.2797,133.69684 M226.2797,132.83038 L213.15968,132.39305 M213.4842,131.53741 L226.2797,131.96393 M226.2797,131.09747 L213.80873,130.68178 M214.13324,129.82614 L226.2797,130.23102 M226.2797,129.36456 L214.41814,128.96918 M214.7013,128.11217 L226.2797,128.49811 M226.2797,127.63165 L214.98444,127.25514 M215.24533,126.397385 L226.2797,126.7652 M226.2797,125.898735 L215.48804,125.53902 M215.73073,124.68065 L226.2797,125.03228 M226.2797,124.165825 L215.96939,123.82215 M216.1724,122.962456 L226.2797,123.29937 M226.2797,122.432915 L216.37538,122.10277 M216.57838,121.24308 L226.2797,121.56646 M226.2797,120.7 L216.75716,120.38258 M216.92104,119.52159 L226.2797,119.83354 M226.2797,118.96709 L217.0849,118.66059 M217.2446,117.79946 L226.2797,118.10063 M226.2797,117.23418 L217.36974,116.93718 M217.49489,116.07489 L226.2797,116.36772 M226.2797,115.50127 L217.62004,115.21261 M217.72307,114.34959 L226.2797,114.6348 M226.2797,113.76835 L217.80975,113.48602 M217.89645,112.62245 L226.2797,112.90189 M226.2797,112.03544 L217.98206,111.75885 M218.0304,110.894005 L226.2797,111.16898 M226.2797,110.30253 L218.07874,110.02916 M218.12709,109.164314 L226.2797,109.436066 M226.2797,108.56961 L218.15724,108.29887 M218.16719,107.43274 L226.2797,107.703156 M226.2797,106.8367 L218.17714,106.56661 M218.18709,105.70049 L226.2797,105.970245 M226.2797,105.10379 L218.16162,104.83318 M218.13298,103.965775 L226.2797,104.237335 M226.2797,103.37087 L218.10432,103.098366 M218.06134,102.23048 L226.2797,102.50442 M226.2797,101.63796 L217.99376,101.36176 M217.92616,100.49306 L226.2797,100.77151 M226.2797,99.90505 L217.85858,99.624344 M217.75815,98.75454 L226.2797,99.0386 M226.2797,98.172134 L217.65111,97.88452 M217.54407,97.014496 L226.2797,97.30568 M226.2797,96.439224 L217.4243,96.14404 M217.27711,95.27268 L226.2797,95.57277 M226.2797,94.706314 L217.12993,94.40132 M216.98273,93.52996 L226.2797,93.83986 M226.2797,92.973404 L216.80154,92.65746 M216.61333,91.78473 L226.2797,92.10694 M226.2797,91.240486 L216.42513,90.912 M216.2211,90.03874 L226.2797,90.37403 M226.2797,89.507576 L215.99078,89.16461 M215.76048,88.29048 L226.2797,88.64112 M226.2797,87.774666 L215.53017,87.41634 M215.25801,86.54082 L226.2797,86.9082 M226.2797,86.04175 L214.98431,85.66524 M214.7106,84.78966 L226.2797,85.17529 M226.2797,84.30884 L214.40984,83.91318 M214.09119,83.036095 L226.2797,83.44238 M226.2797,82.57593 L213.77254,82.15902 M213.44003,81.28148 L226.2797,81.70947 M226.2797,80.84301 L213.0746,80.40284 M212.70917,79.52421 L226.2797,79.976555 M226.2797,79.1101 L212.34113,78.645485 M211.92676,77.76521 L226.2797,78.243645 M226.2797,77.37719 L211.5124,76.88494 M211.09804,76.00468 L226.2797,76.510735 M226.2797,75.64427 L210.63834,75.122894 M210.1725,74.24091 L226.2797,74.77782 M226.2797,73.91136 L209.70667,73.358925 M209.19807,72.47552 L226.2797,73.04491 M226.2797,72.17845 L208.67781,71.59172 M208.15755,70.707924 L226.2797,71.312 M226.2797,70.44554 L207.5924,69.822624 M207.01422,68.9369 L226.2797,69.57908 M226.2797,68.71262 L206.43605,68.05117 M205.80484,67.16367 L226.2797,67.84617 M226.2797,66.97971 L205.16463,66.27588 M204.52226,65.38801 L226.2797,66.11326 M226.2797,65.2468 L203.81517,64.497986 M203.10806,63.607956 L226.2797,64.38034 M226.2797,63.51389 L202.37816,62.71717" fill="none" stroke="black" vector-effect="non-scaling-stroke"/>
</g>
</svg>