<svg viewBox="-333.9659386402182 -396.1351617789106 739.7134419601442 747.2506500848002" xmlns="http://www.w3.org/2000/svg" xmlns:inkscape="http://www.inkscape.org/namespaces/inkscape">
<g inkscape:groupmode="layer" inkscape:label="0">
<path d="M325.42404,73.41413 L322.08282,82.40061 L318.47144,91.282585 L314.59348,100.05209 L310.45288,108.701324 M355.8978,71.32431 L358.8886,61.316387 M352.60516,81.23633 L355.8978,71.32431 M349.01422,91.04351 L352.60516,81.23633 M345.12875,100.737045 L349.01422,91.04351 M340.95276,110.30828 L345.12875,100.737045 M366.01935,30.808432 L367.77332,20.50871 M363.95224,41.049206 L366.01935,30.808432 M361.57443,51.221626 L363.95224,41.049206 M358.8886,61.316387 L361.57443,51.221626 M315.87186,156.03783 L321.432,147.20247 M310.05017,164.70232 L315.87186,156.03783 M303.97256,173.18846 L310.05017,164.70232 M291.34906,141.94412 L285.96088,149.87982 L280.33777,157.6515 L274.48502,165.25247 L268.40814,172.6762 M336.49048,119.74871 L340.95276,110.30828 M321.432,147.20247 L326.72525,138.2039 L331.7464,129.04999 L336.49048,119.74871 M310.45288,108.701324 L306.05374,117.22259 L301.40033,125.60837 L296.4972,133.85129 L291.34906,141.94412 M343.44537,-39.523808 L343.54227,-29.943903 L343.3445,-20.36494 L342.8527,-10.795962 L342.06766,-1.2459619 M270.8037,-55.47577 L269.50076,-66.066 M343.0535,-49.095573 L343.44537,-39.523808 M342.3666,-58.65009 L343.0535,-49.095573 M341.38498,-68.17821 L342.3666,-58.65009 M342.06766,-1.2459619 L340.99054,8.276126 L339.6228,17.761429 L337.96603,27.20115 L336.02225,36.58657 L333.79355,45.909065 L331.28247,55.16009 L328.49164,64.33122 L325.42404,73.41413 M370.33365,-0.22947204 L371.13657,-10.6486635 M369.21204,10.159545 L370.33365,-0.22947204 M367.77332,20.50871 L369.21204,10.159545 M371.78156,-31.538513 L371.62198,-41.98949 M371.61954,-21.088282 L371.78156,-31.538513 M371.62198,-41.98949 L371.14038,-52.431293 M371.13657,-10.6486635 L371.61954,-21.088282 M367.76447,-83.60202 L365.99725,-93.907364 M371.14038,-52.431293 L370.33673,-62.853973 L369.21124,-73.24755 L367.76447,-83.60202 M352.4064,-144.34752 L348.75208,-154.14862 M365.99725,-93.907364 L363.91077,-104.15359 M355.75204,-134.43758 L352.4064,-144.34752 M363.91077,-104.15359 L361.50647,-114.33068 M358.7862,-124.428665 L355.75204,-134.43758 M361.50647,-114.33068 L358.7862,-124.428665 M269.95572,212.69592 L277.222,205.2068 M241.97534,200.47452 L234.86621,206.92064 M277.222,205.2068 L284.26324,197.50491 M248.89035,193.82135 L241.97534,200.47452 M284.26324,197.50491 L291.073,189.59674 L297.64484,181.48895 L303.97256,173.18846 M255.60489,186.96669 L248.89035,193.82135 M262.11282,179.91632 L255.60489,186.96669 M268.40814,172.6762 L262.11282,179.91632 M271.98032,-33.93399 L300,-33 M271.77258,-21.940914 L300,-21 M271.877,-24.937433 L300,-24 M271.9459,-30.935137 L300,-30 M271.91144,-27.936285 L300,-27 M271.8607,-23.517609 L271.98315,-34.18029 M271.4378,-15.952073 L300,-15 M271.6052,-18.946493 L300,-18 M271.26572,-12.873027 L271.8607,-23.517609 M271.63116,-44.84008 L270.8037,-55.47577 M271.98315,-34.18029 L271.63116,-44.84008 M271.31094,-48.956303 L300,-48 M271.07693,-51.964104 L300,-51 M270.84293,-54.9719 L300,-54 M270.49518,-57.983494 L300,-57 M249.4805,70.31602 L300,72 M248.05807,73.2686 L300,75 M246.63565,76.22119 L300,78 M245.39546,78.79549 L250.01445,69.207695 M229.13846,106.237305 L234.94656,97.32659 M233.34853,99.77828 L300,102 M231.43468,102.71449 L300,105 M229.52083,105.650696 L300,108 M245.1931,79.1731 L300,81 M243.61354,82.12045 L300,84 M240.36931,88.17398 L245.39546,78.79549 M234.94656,97.32659 L240.36931,88.17398 M242.03398,85.0678 L300,87 M240.45442,88.015144 L300,90 M238.72021,90.957344 L300,93 M236.9772,93.89924 L300,96 M235.23418,96.84114 L300,99 M227.46342,108.582115 L300,111 M225.3702,111.51234 L300,114 M223.27696,114.442566 L300,117 M222.95683,114.8907 L229.13846,106.237305 M255.69716,55.52324 L300,57 M254.57355,58.485786 L300,60 M253.34961,61.44499 L300,63 M257.9918,49.473183 L261.33234,39.362244 M260.89154,40.696384 L300,42 M259.91116,43.663704 L300,45 M258.93082,46.631027 L300,48 M233.72127,33.22801 L230.67506,42.138557 M264.30182,28.81006 L300,30 M263.4755,31.782516 L300,33 M261.79483,37.726494 L300,39 M262.63516,34.754505 L300,36 M261.33234,39.362244 L264.23016,29.113485 M254.21631,59.42771 L257.9918,49.473183 M257.9444,49.598145 L300,51 M256.82077,52.56069 L300,54 M230.67506,42.138557 L227.24496,50.910263 L223.43842,59.52707 M252.07889,64.402626 L300,66 M250.80817,67.360275 L300,69 M250.01445,69.207695 L254.21631,59.42771 M223.43842,59.52707 L219.26347,67.97335 M266.67825,18.745947 L268.67035,8.279077 M268.16412,10.938805 L300,12 M267.59677,13.919892 L300,15 M267.0294,16.90098 L300,18 M266.41037,19.880346 L300,21 M265.70752,22.856918 L300,24 M268.67035,8.279077 L270.20102,-2.267305 M270.017,-0.99943334 L300,0 M269.58368,1.9861227 L300,3 M269.15036,4.9716787 L300,6 M268.71704,7.957235 L300,9 M270.97403,-9.967532 L300,-9 M270.67386,-6.9775376 L300,-6 M270.37372,-3.987543 L300,-3 M265.00467,25.833488 L300,27 M264.23016,29.113485 L266.67825,18.745947 M270.20102,-2.267305 L271.26572,-12.873027 M271.27045,-12.957652 L300,-12 M243.6077,-41.007973 L243.81618,-31.60718 M242.98074,-50.38836 L243.6077,-41.007973 M271.89212,-36.936928 L300,-36 M271.79297,-39.940235 L300,-39 M271.6938,-42.94354 L300,-42 M271.54492,-45.9485 L300,-45 M243.81618,-31.60718 L243.60692,-22.204628 L242.98149,-12.818808 L241.94225,-3.4680033 L240.49232,5.8297267 L238.63562,15.056587 L236.37682,24.195076 L233.72127,33.22801 M308.8371,-227.47957 L302.5797,-235.8703 M331.1136,-192.0696 L325.9679,-201.18094 L320.5366,-210.12585 L314.82455,-218.8951 L308.8371,-227.47957 M340.52985,-173.38515 L335.969,-182.80116 M302.43185,-185.4948 L307.09286,-177.13625 M335.969,-182.80116 L331.1136,-192.0696 M297.50964,-193.70148 L302.43185,-185.4948 M302.5797,-235.8703 L296.05823,-244.05849 M292.33075,-201.74785 L297.50964,-193.70148 M270.12457,-60.99585 L300,-60 M269.75394,-64.0082 L300,-63 M269.33926,-67.022026 L300,-66 M268.82965,-70.03901 L300,-69 M267.72318,-76.58929 L265.47284,-87.024055 M269.50076,-66.066 L267.72318,-76.58929 M268.32,-73.056 L300,-72 M267.8104,-76.07299 L300,-75 M267.18304,-79.093895 L300,-78 M266.53137,-82.11562 L300,-81 M265.47284,-87.024055 L262.7526,-97.3487 M265.87973,-85.137344 L300,-84 M265.1733,-88.16089 L300,-87 M264.37592,-91.18747 L300,-90 M263.5785,-94.21405 L300,-93 M262.78107,-97.24063 L300,-96 M261.83878,-100.27204 L300,-99 M260.8911,-103.30363 L300,-102 M259.94342,-106.33522 L300,-105 M259.5663,-107.541626 L255.9188,-117.58127 M262.7526,-97.3487 L259.5663,-107.541626 M258.90207,-109.369934 L300,-108 M257.79877,-112.40671 L300,-111 M256.69547,-115.44348 L300,-114 M255.54424,-118.48186 L300,-117 M238.59407,-78.21885 L240.47258,-69.012695 M236.30254,-87.329056 L238.59407,-78.21885 M233.60146,-96.32439 L236.30254,-87.329056 M230.49524,-105.185974 L233.60146,-96.32439 M226.98917,-113.89504 L230.49524,-105.185974 M223.0894,-122.43295 L226.98917,-113.89504 M255.9188,-117.58127 L251.8159,-127.446175 M218.80296,-130.78125 L223.0894,-122.43295 M254.27896,-121.52403 L300,-120 M253.0137,-124.56621 L300,-123 M251.73941,-127.60869 L300,-126 M250.30472,-130.65651 L300,-129 M251.8159,-127.446175 L247.26453,-137.11502 M248.87003,-133.70433 L300,-132 M247.43533,-136.75215 L300,-135 M245.84367,-139.8052 L300,-138 M340.10907,-77.670784 L341.38498,-68.17821 M338.53976,-87.118645 L340.10907,-77.670784 M336.67813,-96.51265 L338.53976,-87.118645 M334.52554,-105.84364 L336.67813,-96.51265 M247.26453,-137.11502 L242.27252,-146.5667 M244.23079,-142.85898 L300,-141 M242.61792,-145.91273 L300,-144 M240.85693,-148.97144 L300,-147 M332.0837,-115.10249 L334.52554,-105.84364 M329.35458,-124.280106 L332.0837,-115.10249 M326.3404,-133.36742 L329.35458,-124.280106 M323.0437,-142.35542 L326.3404,-133.36742 M319.46735,-151.23515 L323.0437,-142.35542 M242.27252,-146.5667 L236.8488,-155.78027 M348.75208,-154.14862 L344.7921,-163.83107 M315.61444,-159.99774 L319.46735,-151.23515 M311.48837,-168.63434 L315.61444,-159.99774 M239.05559,-152.03148 L300,-150 M237.25424,-155.09152 L300,-153 M236.8488,-155.78027 L231.0033,-164.73518 M235.29752,-158.15675 L300,-156 M233.29564,-161.22348 L300,-159 M231.29376,-164.2902 L300,-162 M231.0033,-164.73518 L224.74692,-173.41113 M344.7921,-163.83107 L340.52985,-173.38515 M307.09286,-177.13625 L311.48837,-168.63434 M229.10829,-167.36305 L300,-165 M226.89165,-170.43695 L300,-168 M224.66751,-173.51108 L300,-171 M222.21928,-176.5927 L300,-174 M219.77106,-179.6743 L300,-177 M224.74692,-173.41113 L218.0916,-181.78824 M217.2438,-182.75854 L300,-180 M282.248,-259.79276 L274.97235,-267.32205 M289.27887,-252.03546 L282.248,-259.79276 M286.9,-209.62561 L292.33075,-201.74785 M296.05823,-244.05849 L289.27887,-252.03546 M281.22247,-217.32661 L286.9,-209.62561 M275.30353,-224.84282 L281.22247,-217.32661 M269.14883,-232.16632 L275.30353,-224.84282 M262.7643,-239.28943 L269.14883,-232.16632 M256.15607,-246.20457 L262.7643,-239.28943 M243.5664,-295.00027 L235.17754,-301.27216 M274.97235,-267.32205 L267.45892,-274.61526 L259.71506,-281.66446 L251.74828,-288.46194 L243.5664,-295.00027 M249.33055,-252.90439 L256.15607,-246.20457 M242.29445,-259.38168 L249.33055,-252.90439 M235.05467,-265.62943 L242.29445,-259.38168 M132.92099,-245.12321 L122.94063,-249.06082 L112.77778,-252.50925 L102.45583,-255.45818 L91.99885,-257.89832 M142.6962,-240.70778 L132.92099,-245.12321 M170.57526,-224.72252 L161.54408,-230.49371 L152.24428,-235.82684 L142.6962,-240.70778 M226.59004,-307.27063 L217.8125,-312.98892 M235.17754,-301.27216 L226.59004,-307.27063 M227.6184,-271.64087 L235.05467,-265.62943 M219.99303,-277.40942 L227.6184,-271.64087 M212.1862,-282.9287 L219.99303,-277.40942 M179.31831,-218.52826 L170.57526,-224.72252 M187.75462,-211.92671 L179.31831,-218.52826 M195.86642,-204.93442 L187.75462,-211.92671 M218.0916,-181.78824 L211.05031,-189.84705 L203.63695,-197.56859 L195.86642,-204.93442 M91.99885,-257.89832 L81.43149,-259.82156 L70.77899,-261.22095 M70.30374,-232.94066 L79.54807,-231.60008 M190.42923,-328.39905 L180.98227,-332.93433 M217.8125,-312.98892 L208.85376,-318.42053 L199.7229,-323.5592 L190.42923,-328.39905 M204.2058,-288.1926 L212.1862,-282.9287 M196.05989,-293.1952 L204.2058,-288.1926 M187.75676,-297.93088 L196.05989,-293.1952 M179.30495,-302.39423 L187.75676,-297.93088 M180.98227,-332.93433 L171.39177,-337.15973 L161.66766,-341.07013 L151.82011,-344.66077 M170.71312,-306.5801 L179.30495,-302.39423 M161.99019,-310.4837 L170.71312,-306.5801 M153.14522,-314.10037 L161.99019,-310.4837 M144.18748,-317.4258 L153.14522,-314.10037 M121.64079,-353.4714 L111.40436,-355.74188 M151.82011,-344.66077 L141.85942,-347.92722 L131.79608,-350.86536 L121.64079,-353.4714 M135.12639,-320.45602 L144.18748,-317.4258 M125.971504,-323.18732 L135.12639,-320.45602 M116.73257,-325.61624 L125.971504,-323.18732 M107.41943,-327.73972 L116.73257,-325.61624 M111.40436,-355.74188 L101.097755,-357.67368 L90.732086,-359.2641 L80.31859,-360.51068 M98.042114,-329.55496 L107.41943,-327.73972 M88.61071,-331.05948 L98.042114,-329.55496 M79.13545,-332.25116 L88.61071,-331.05948 M69.62667,-333.1282 L79.13545,-332.25116 M156.85146,-199.99081 L164.42427,-194.48314 M115.55891,-221.75679 L124.21406,-218.21245 M149.02658,-205.13011 L156.85146,-199.99081 M124.21406,-218.21245 L132.68971,-214.25272 M140.96674,-209.88814 L149.02658,-205.13011 M132.68971,-214.25272 L140.96674,-209.88814 M61.006817,-233.82196 L70.30374,-232.94066 M106.74407,-224.87604 L115.55891,-221.75679 M97.78994,-227.56142 L106.74407,-224.87604 M88.71745,-229.80505 L97.78994,-227.56142 M79.54807,-231.60008 L88.71745,-229.80505 M49.3221,-262.4261 L38.57056,-262.22406 M70.77899,-261.22095 L60.067123,-262.09064 M51.68004,-234.24028 L61.006817,-233.82196 M60.067123,-262.09064 L49.3221,-262.4261 M42.34648,-234.19298 L51.68004,-234.24028 M38.57056,-262.22406 L27.839487,-261.4826 L17.15616,-260.20102 L6.548082,-258.38013 L-3.957079,-256.02203 M-44.39344,-241.31068 L-53.968254,-236.34914 M-34.577415,-245.76743 L-44.39344,-241.31068 M-3.957079,-256.02203 L-14.331563,-253.13031 L-24.547586,-249.70996 L-34.577415,-245.76743 M33.0295,-233.67857 L42.34648,-234.19298 M23.75268,-232.69675 L33.0295,-233.67857 M14.539768,-231.24837 L23.75268,-232.69675 M-63.274723,-230.8937 L-72.28609,-224.95682 M-53.968254,-236.34914 L-63.274723,-230.8937 M5.414633,-229.33551 L14.539768,-231.24837 M-3.598808,-226.96147 L5.414633,-229.33551 M-12.476644,-224.13081 L-3.598808,-226.96147 M-72.28609,-224.95682 L-80.976006,-218.55238 M-21.195032,-220.84933 L-12.476644,-224.13081 M-29.730272,-217.12408 L-21.195032,-220.84933 M-38.05886,-212.96344 L-29.730272,-217.12408 M-46.157562,-208.377 L-38.05886,-212.96344 M80.31859,-360.51068 L69.8686,-361.41144 L59.393562,-361.96472 L48.90502,-362.16922 L38.414585,-362.02405 M-3.3317573,-357.94205 L-13.65558,-356.0485 M7.048979,-359.4872 L-3.3317573,-357.94205 M38.414585,-362.02405 L27.933939,-361.5287 L17.474812,-360.68298 L7.048979,-359.4872 M-64.00804,-341.4207 L-73.743095,-337.48178 M-13.65558,-356.0485 L-23.910671,-353.80807 M-54.145626,-345.02606 L-64.00804,-341.4207 M-23.910671,-353.80807 L-34.085224,-351.22263 M-44.167454,-348.2944 L-54.145626,-345.02606 M-34.085224,-351.22263 L-44.167454,-348.2944 M-43.246056,-318.92627 L-34.161842,-321.839 M-52.22551,-315.70743 L-43.246056,-318.92627 M-61.08968,-312.1857 L-52.22551,-315.70743 M60.094776,-333.68915 L69.62667,-333.1282 M50.550266,-333.93283 L60.094776,-333.68915 M41.003704,-333.85852 L50.550266,-333.93283 M31.46571,-333.46576 L41.003704,-333.85852 M-83.339226,-333.2132 L-92.784996,-328.61926 M-73.743095,-337.48178 L-83.339226,-333.2132 M21.946943,-332.7545 L31.46571,-333.46576 M12.458105,-331.72498 L21.946943,-332.7545 M3.0099165,-330.37787 L12.458105,-331.72498 M-6.3868923,-328.71417 L3.0099165,-330.37787 M-15.721594,-326.73523 L-6.3868923,-328.71417 M-24.983473,-324.4428 L-15.721594,-326.73523 M-34.161842,-321.839 L-24.983473,-324.4428 M-111.18025,-318.4745 L-120.107445,-312.93427 M-69.8281,-308.3647 L-61.08968,-312.1857 M-78.43042,-304.24826 L-69.8281,-308.3647 M-92.784996,-328.61926 L-102.06908,-323.70468 L-111.18025,-318.4745 M-54.003487,-203.37566 L-46.157562,-208.377 M-61.57415,-197.97162 L-54.003487,-203.37566 M-68.84754,-192.1783 L-61.57415,-197.97162 M-75.80222,-186.01042 L-68.84754,-192.1783 M-82.41735,-179.48395 L-75.80222,-186.01042 M73.804016,-160.22585 L62.42076,-162.23021 M-88.67281,-172.61603 L-82.41735,-179.48395 M62.42076,-162.23021 L50.86838,-163.10912 L39.257133,-162.83057 L27.703793,-161.37247 M-93.97123,-166.13237 L32.116997,-161.92943 M-96.17171,-163.20572 L19.080051,-159.364 M-98.312706,-160.27708 L10.365942,-156.65446 M-100.028114,-157.93062 L-94.54924,-165.42506 M-100.40815,-157.34694 L3.1664658,-153.89445 M105.94418,-147.90651 L95.6577,-153.01193 L84.91493,-157.13686 L73.804016,-160.22585 M-106.02493,-148.53416 L-12.618946,-145.42064 M-104.23175,-151.4744 L-7.9774494,-148.26591 M-102.31995,-154.41066 L-2.7714725,-151.09238 M159.43692,-90.3817 L154.14574,-100.41554 L148.0031,-109.972984 L141.0421,-118.975174 L133.30336,-127.34434 L124.83528,-135.00444 L115.69414,-141.88194 L105.94418,-147.90651 M-24.369303,-92.99313 L-20.084051,-100.37837 M-27.730799,-85.174835 L-24.369303,-92.99313 M-126.02967,-98.20099 L-52.922657,-95.76409 M-126.606,-95.2202 L-53.894966,-92.7965 M-127.182335,-92.23941 L-54.86727,-89.82891 M-127.66228,-89.75716 L-125.90494,-98.846115 M-127.72999,-89.25767 L-55.839577,-86.86132 M163.85094,-79.95075 L159.43692,-90.3817 M-30.104088,-77.03313 L-27.730799,-85.174835 M-128.13483,-86.271164 L-56.471897,-83.88239 M-128.53967,-83.28465 L-57.042877,-80.90143 M-128.90533,-80.587234 L-127.66228,-89.75716 M-128.92802,-80.2976 L-57.613857,-77.92046 M-129.16248,-77.30541 L-58.18484,-74.93949 M-129.62793,-71.365265 L-128.90533,-80.587234 M-9.0452385,-113.473564 L-2.4600205,-119.02701 M-14.948916,-107.23337 L-9.0452385,-113.473564 M-118.89843,-121.96328 L-40.35019,-119.34501 M-120.00727,-119.000244 L-42.28108,-116.40937 M-121.07737,-116.03591 L-44.131397,-113.47105 M-122.00449,-113.06682 L-45.981712,-110.53272 M-123.64103,-107.82587 L-120.879715,-116.66891 M-125.90494,-98.846115 L-123.64103,-107.82587 M-20.084051,-100.37837 L-14.948916,-107.23337 M-125.31723,-101.17724 L-51.830635,-98.72769 M-124.56719,-104.15224 L-50.437317,-101.681244 M-123.81716,-107.127235 L-49.044,-104.6348 M-122.93162,-110.09772 L-47.650684,-107.588356 M-113.90856,-133.83894 L-109.723854,-142.11519 M-107.72109,-145.5907 L-16.883335,-142.56277 M-109.41726,-142.64725 L-20.581612,-139.68605 M-110.94595,-139.6982 L-24.279888,-136.80933 M-117.631584,-125.34854 L-113.90856,-133.83894 M20.463005,-131.03029 L28.8449,-133.35835 M12.388313,-127.84718 L20.463005,-131.03029 M-115.22325,-130.84077 L-33.257347,-128.10858 M-113.92671,-133.79756 L-30.300941,-131.01003 M-112.4377,-136.74792 L-27.335985,-133.9112 M-2.4600205,-119.02701 L4.715696,-123.834076 M-117.78959,-124.92632 L-37.98591,-122.2662 M4.715696,-123.834076 L12.388313,-127.84718 M-116.51979,-127.883995 L-35.621628,-125.187386 M-119.04551,-279.39893 L-111.27516,-284.92038 M-126.62017,-273.6133 L-119.04551,-279.39893 M-120.107445,-312.93427 L-128.83974,-307.08987 L-137.36636,-300.9476 M-86.88637,-299.8408 L-78.43042,-304.24826 M-95.18579,-295.14688 L-86.88637,-299.8408 M-103.31868,-290.17163 L-95.18579,-295.14688 M-111.27516,-284.92038 L-103.31868,-290.17163 M-161.60759,-280.8024 L-169.20789,-273.5394 M-137.36636,-300.9476 L-145.67676,-294.51416 L-153.76056,-287.79663 L-161.60759,-280.8024 M-133.98978,-267.57 L-126.62017,-273.6133 M-141.14513,-261.27582 L-133.98978,-267.57 M-148.07729,-254.73785 L-141.14513,-261.27582 M-154.77748,-247.96361 L-148.07729,-254.73785 M-161.23718,-240.96085 L-154.77748,-247.96361 M-167.44814,-233.7377 L-161.23718,-240.96085 M-169.20789,-273.5394 L-176.55177,-266.01575 M-196.95177,-241.96858 L-203.1782,-233.49171 M-176.55177,-266.01575 L-183.62979,-258.24005 M-190.43275,-250.22124 L-196.95177,-241.96858 M-183.62979,-258.24005 L-190.43275,-250.22124 M-220.0207,-206.81694 L-224.99715,-197.54596 M-214.72049,-215.90546 L-220.0207,-206.81694 M-194.50052,-194.62187 L-189.64809,-202.81445 L-184.5096,-210.8318 L-179.09195,-218.66429 M-97.28893,-204.40395 L-104.862236,-196.6952 M-196.71805,-190.55727 L-112.67425,-187.75581 M-195.11057,-193.5037 L-110.17667,-190.67256 M-199.06036,-186.26395 L-194.50052,-194.62187 M-193.41931,-196.44731 L-107.60508,-193.58684 M-89.31869,-211.69579 L-97.28893,-204.40395 M-80.976006,-218.55238 L-89.31869,-211.69579 M-209.10378,-224.80057 L-214.72049,-215.90546 M-179.09195,-218.66429 L-173.40231,-226.30261 M-203.1782,-233.49171 L-209.10378,-224.80057 M-173.40231,-226.30261 L-167.44814,-233.7377 M-198.32553,-187.61086 L-114.986336,-184.83287 M-199.86214,-184.66208 L-117.298416,-181.90994 M-201.33908,-181.7113 L-119.5182,-178.98393 M-203.3214,-177.75081 L-199.06036,-186.26395 M-205.55997,-172.852 L-125.649124,-170.18831 M-204.20966,-175.80699 L-123.6609,-173.12202 M-207.27773,-169.09288 L-203.3214,-177.75081 M-202.81601,-178.76053 L-121.58955,-176.05298 M-208.17093,-166.93903 L-129.34138,-164.31139 M-210.92381,-160.3008 L-207.27773,-169.09288 M-206.91028,-169.897 L-127.495255,-167.24985 M-214.2545,-151.38545 L-210.92381,-160.3008 M-209.39807,-163.97993 L-131.13434,-161.37114 M-210.62521,-161.02084 L-132.76811,-158.4256 M-211.76144,-158.05872 L-134.40189,-155.48006 M-217.26495,-142.35793 L-214.2545,-151.38545 M-212.86842,-155.09561 L-136.02837,-152.53429 M-213.9754,-152.1325 L-137.46039,-149.58202 M-214.99446,-149.16649 L-138.89241,-146.62975 M-215.9839,-146.19946 L-140.32443,-143.67747 M-216.97333,-143.23244 L-141.61452,-140.72049 M-217.88142,-140.26271 L-142.85349,-137.76178 M-218.75552,-137.29185 L-144.09245,-134.80309 M-219.62964,-134.32098 L-145.26495,-131.84216 M-120.879715,-116.66891 L-117.631584,-125.34854 M-220.43198,-131.34773 L-146.31792,-128.87726 M-221.19264,-128.3731 L-147.37086,-125.91236 M-221.95331,-125.398445 L-148.42381,-122.947464 M-222.65424,-122.42181 L-149.31218,-119.97707 M169.97975,-58.213593 L167.36916,-69.20188 M240.47258,-69.012695 L241.9354,-59.72956 M167.79564,-67.406815 L241.11072,-64.962975 M166.96571,-70.43448 L240.6355,-67.97881 M165.97296,-73.46757 L240.06754,-70.99775 M164.9802,-76.50066 L239.45119,-74.018295 M167.36916,-69.20188 L163.85094,-79.95075 M135.91994,-74.667 L139.07138,-66.31356 M144.27946,-40.03817 L144.58075,-31.074766 M139.07138,-66.31356 L141.52147,-57.717236 M143.25941,-48.93873 L144.27946,-40.03817 M141.52147,-57.717236 L143.25941,-48.93873 M132.0833,-82.716705 L135.91994,-74.667 M127.583,-90.4021 L132.0833,-82.716705 M163.98743,-79.53375 L238.83485,-77.03884 M162.74031,-82.575325 L238.13037,-80.062325 M161.45265,-85.61825 L237.36938,-83.087685 M160.165,-88.66116 L236.6084,-86.11305 M158.7371,-91.70876 L235.75833,-89.14139 M157.1268,-94.76244 L234.8484,-92.17172 M155.5165,-97.81612 L233.93846,-95.20205 M153.85263,-100.87158 L232.93152,-98.23562 M151.88231,-103.937256 L231.86751,-101.27108 M149.91197,-107.00294 L230.8035,-104.30655 M147.92883,-110.06904 L229.62575,-107.34581 M172.34322,-24.577555 L172.463,-35.826645 M172.44623,-34.251793 L243.81027,-31.872992 M172.41429,-31.252857 L243.75537,-28.87482 M172.36317,-37.254562 L243.7437,-34.87521 M172.15294,-40.26157 L243.67712,-37.87743 M172.13362,-22.262213 L243.45235,-19.884922 M172.35043,-25.254986 L243.62193,-22.879269 M172.38235,-28.253922 L243.68864,-25.877045 M172.463,-35.826645 L171.67741,-47.063255 M171.94272,-43.268578 L243.61053,-40.87965 M171.73248,-46.275585 L243.41533,-43.886154 M171.3386,-49.288715 L243.21437,-46.892853 M170.8795,-52.304016 L243.01341,-49.89955 M171.67741,-47.063255 L169.97975,-58.213593 M241.9354,-59.72956 L242.98074,-50.38836 M170.42043,-55.31932 L242.69855,-52.91005 M169.95093,-58.33497 L242.36156,-55.92128 M169.2325,-61.358917 L242.02458,-58.932514 M168.51407,-64.382866 L241.58595,-61.947136 M209.10278,-146.83636 L214.13782,-138.9217 M111.82536,-144.27249 L212.87668,-140.90411 M106.69343,-147.44356 L210.92683,-143.9691 M100.410545,-150.65298 L208.9634,-147.03456 M137.87129,-122.40429 L224.42023,-119.519325 M135.00905,-125.499695 L223.0211,-122.56596 M131.91202,-128.60294 L221.45393,-125.6182 M128.46869,-131.71771 L219.88676,-128.67044 M214.13782,-138.9217 L218.80296,-130.78125 M125.025375,-134.83249 L218.26236,-131.7246 M120.89335,-137.97021 L216.50963,-134.783 M116.721085,-141.1093 L214.75691,-137.84143 M122.44624,-97.663345 L127.583,-90.4021 M116.70591,-104.44184 L122.44624,-97.663345 M145.54768,-113.14841 L228.40158,-110.38661 M143.16653,-116.22778 L227.17743,-113.42742 M140.73354,-119.30888 L225.81169,-116.472946 M110.40067,-110.680756 L116.70591,-104.44184 M103.575035,-116.325584 L110.40067,-110.680756 M96.27933,-121.324745 L103.575035,-116.325584 M88.56962,-125.630196 L96.27933,-121.324745 M80.50763,-129.19807 L88.56962,-125.630196 M72.160545,-131.98935 L80.50763,-129.19807 M203.70753,-154.50757 L209.10278,-146.83636 M93.377625,-153.8874 L206.80281,-150.10657 M84.78151,-157.17395 L204.64223,-153.17859 M71.60413,-160.61319 L202.35294,-156.2549 M197.96268,-161.918 L203.70753,-154.50757 M169.1979,-1.3600695 L241.23904,1.0413015 M168.44722,1.6149073 L240.77364,4.025788 M167.69652,4.5898843 L240.25511,7.008504 M166.94583,7.564861 L239.65546,9.988515 M166.69882,8.543735 L169.4414,-2.3250525 M141.2318,-4.3787456 L138.73872,4.273724 L135.58725,12.71769 M169.4414,-2.3250525 L171.33025,-13.387429 M143.04666,-13.189612 L141.2318,-4.3787456 M170.8042,-10.306527 L242.4369,-7.91877 M170.29486,-7.3235044 L242.1047,-4.929843 M169.78554,-4.340482 L241.70445,-1.9431849 M144.58075,-31.074766 L144.1671,-22.106459 M171.33025,-13.387429 L172.34322,-24.577555 M144.1671,-22.106459 L143.04666,-13.189612 M171.86287,-19.271238 L243.25288,-16.891571 M171.59212,-16.280264 L243.05342,-13.898219 M171.31352,-13.289549 L242.76909,-10.907697 M160.50235,25.350079 L235.30424,27.843475 M159.24788,28.308262 L234.43085,30.814362 M157.8282,31.26094 L233.53107,33.78437 M163.12895,19.156275 L166.69882,8.543735 M166.02922,10.5343075 L239.0558,12.968527 M165.03127,13.501042 L238.4155,15.947183 M164.03331,16.467777 L237.68002,18.922667 M158.76231,29.453306 L163.12895,19.156275 M163.01129,19.43371 L236.94456,21.898151 M161.75682,22.391893 L236.17764,24.872587 M135.58725,12.71769 L131.80055,20.905556 L127.40483,28.792395 M153.63309,39.379135 L158.76231,29.453306 M153.18517,40.10617 L230.46252,42.682083 M156.30418,34.21014 L232.51703,36.75057 M154.78017,37.15934 L231.50299,39.716766 M127.40483,28.792395 L122.42908,36.33609 L116.90477,43.49745 L110.865616,50.240314 M147.77875,48.881783 L153.63309,39.379135 M151.37415,43.045803 L229.30449,45.643482 M149.56311,45.985435 L228.14647,48.60488 M147.74751,48.924915 L226.95564,51.56519 M145.62657,51.854218 L225.6496,54.521652 M24.602142,-132.17993 L76.79306,-130.44023 M63.600754,-133.97057 L72.160545,-131.98935 M37.12098,-134.76263 L64.058,-133.86473 M28.8449,-133.35835 L37.440132,-134.81679 M54.905563,-135.11446 L63.600754,-133.97057 M46.156757,-135.40074 L54.905563,-135.11446 M37.440132,-134.81679 L46.156757,-135.40074 M16.45781,-129.4514 L85.10577,-127.16314 M10.123431,-126.66255 L91.58329,-123.94722 M4.731395,-123.842285 L97.09857,-120.76338 M0.46215615,-120.9846 L101.7006,-117.60998 M-3.5379899,-118.117935 L105.81536,-114.472824 M-6.9600997,-115.232 L109.59527,-111.346825 M-10.120191,-112.33734 L112.86972,-108.23768 M171.72867,-188.62073 L178.74908,-182.41783 M164.42427,-194.48314 L171.72867,-188.62073 M-68.707016,-192.29024 L176.83916,-184.10536 M-71.98097,-189.39937 L180.2163,-180.99278 M-12.871638,-109.429054 L116.00731,-105.13309 M-15.48615,-106.516205 L118.73815,-102.04206 M-17.678726,-103.589294 L121.352486,-98.95492 M-19.871304,-100.66238 L123.71043,-95.87632 M-21.626057,-97.72087 L125.88394,-92.80387 M-23.333765,-94.777794 L127.974106,-89.7342 M-24.86983,-91.828995 L129.76576,-86.67448 M-26.14146,-88.87138 L131.55743,-83.61475 M178.74908,-182.41783 L185.47073,-175.88936 M-75.241135,-186.50804 L183.41484,-177.88617 M-78.23737,-183.60791 L186.50749,-174.78308 M-81.17874,-180.70596 L189.40965,-171.68634 M191.87965,-169.05075 L197.96268,-161.918 M185.47073,-175.88936 L191.87965,-169.05075 M-83.95257,-177.79842 L192.27179,-168.59094 M-86.60452,-174.88681 L194.90514,-165.50316 M-89.198074,-171.97327 L197.5385,-162.41539 M-91.58465,-169.05283 L199.96552,-159.33449 M141.2397,57.913094 L147.77875,48.881783 M110.865616,50.240314 L104.347275,56.531597 M-81.41669,50.28611 L104.40071,56.480022 M-84.66451,47.17785 L107.40521,53.580173 M-87.64978,44.078342 L110.40972,50.680325 M-90.51003,40.982998 L113.07875,47.76929 M-93.201065,37.8933 L115.68777,44.85626 M-95.72005,34.80933 L118.10854,41.93695 M-98.182396,31.727253 L120.364746,39.012157 M-100.39642,28.653452 L122.59373,36.086456 M-102.61046,25.57965 L124.52994,33.150997 M-104.6157,22.51281 L126.46614,30.215538 M-106.55366,19.448212 L128.25055,27.275019 M-108.43675,16.38544 L129.89209,24.329737 M-110.121826,13.329272 L131.53365,21.384455 M-111.8069,10.273104 L132.94475,18.431492 M-113.356766,7.2214413 L134.31113,15.477037 M-114.80772,4.173076 L135.6603,12.52201 M-116.25866,1.1247114 L136.76619,9.558873 M-117.52405,-1.9174682 L-30.489134,0.9836955 M-118.7561,-4.9585366 L-33.826195,-2.1275399 M-22.934996,-7.7644997 L140.63634,-2.312122 M-24.197163,-4.806572 L139.78015,0.6593384 M-25.459328,-1.8486443 L138.92397,3.630799 M-26.721495,1.1092834 L137.8721,6.5957365 M-16.713427,-22.557114 L143.55246,-17.214918 M-17.88633,-19.59621 L143.17706,-14.227431 M-19.148495,-16.638283 L142.64613,-11.245129 M-20.410662,-13.680355 L142.03241,-8.265586 M-21.672829,-10.722427 L141.41869,-5.2860436 M-19.136692,-25.63789 L143.92784,-20.202406 M-21.559956,-28.718666 L144.2172,-23.19276 M-23.355482,-31.778517 L144.35536,-26.188154 M-25.102705,-34.836758 L144.49353,-29.18355 M-26.530619,-37.884354 L144.54355,-32.18188 M-27.730692,-40.924355 L144.44258,-35.185246 M-27.413092,-85.91377 L133.10979,-80.563 M-28.380495,-82.946014 L134.56273,-77.51457 M-29.246572,-79.974884 L135.99547,-74.46682 M-30.108799,-77.003624 L137.14166,-71.42861 M-28.910366,-43.96368 L144.34163,-38.188614 M-29.640764,-46.988026 L144.14687,-41.195103 M-30.371162,-50.01237 L143.80174,-44.206608 M-30.585268,-74.01951 L138.28786,-68.3904 M-31.061737,-71.03539 L139.34453,-65.35518 M-31.45546,-68.048515 L140.20778,-62.32641 M-31.545223,-65.051506 L141.07103,-59.297634 M-30.948341,-53.031612 L143.4566,-47.218113 M-31.255684,-56.041855 L143.00313,-50.23323 M-31.563026,-59.0521 L142.40526,-53.25316 M-31.634985,-62.0545 L141.80739,-56.273087 M84.74721,208.26895 L94.9277,205.29588 M32.527092,216.82973 L43.089203,215.9646 M74.455826,210.825 L84.74721,208.26895 M43.089203,215.9646 L53.60953,214.67473 M64.07083,212.96101 L74.455826,210.825 M53.60953,214.67473 L64.07083,212.96101 M21.940365,217.26996 L32.527092,216.82973 M11.3461,217.28578 L21.940365,217.26996 M0.761243,216.8784 L11.3461,217.28578 M-9.797404,216.04964 L0.761243,216.8784 M-20.313215,214.80202 L-9.797404,216.04964 M-30.769758,213.13864 L-20.313215,214.80202 M-41.15082,211.06331 L-30.769758,213.13864 M-51.440445,208.58035 L-41.15082,211.06331 M-61.62292,205.6948 L-51.440445,208.58035 M262.47122,219.96602 L269.95572,212.69592 M254.77536,227.01108 L262.47122,219.96602 M246.87518,233.82526 L254.77536,227.01108 M238.77785,240.40298 L246.87518,233.82526 M230.49074,246.7389 L238.77785,240.40298 M222.02127,252.82787 L230.49074,246.7389 M213.37706,258.665 L222.02127,252.82787 M234.86621,206.92064 L227.56938,213.15436 L220.09146,219.17049 L212.43918,224.96411 L204.61938,230.53046 M204.56581,264.24567 L213.37706,258.665 M204.61938,230.53046 L196.63902,235.86504 M195.59534,269.5654 L204.56581,264.24567 M196.63902,235.86504 L188.50519,240.96355 L180.22505,245.82188 M145.78833,262.7798 L136.88751,266.3839 M154.58005,258.91846 L145.78833,262.7798 M180.22505,245.82188 L171.8059,250.4362 L163.25508,254.80286 L154.58005,258.91846 M186.47356,274.6201 L195.59534,269.5654 M177.2085,279.40573 L186.47356,274.6201 M109.60735,275.62686 L100.34725,278.17715 M118.78929,272.8098 L109.60735,275.62686 M127.88526,269.7281 L118.78929,272.8098 M136.88751,266.3839 L127.88526,269.7281 M167.80827,283.91873 L177.2085,279.40573 M158.28105,288.15558 L167.80827,283.91873 M100.34725,278.17715 L91.01683,280.45892 L81.62395,282.47055 L72.17649,284.21072 L62.682365,285.6783 L53.149483,286.87244 L43.58575,287.79245 L33.99908,288.43793 L24.397367,288.80865 L14.7884865,288.90466 L5.180293,288.7262 L-4.4193883,288.27377 L-14.002771,287.548 L-23.56211,286.54987 L-33.08971,285.2805 L-42.577927,283.74118 L-52.019184,281.9335 M88.736244,309.846 L98.91787,307.61722 M78.495155,311.78018 L88.736244,309.846 M68.203186,313.41855 L78.495155,311.78018 M57.86893,314.7602 L68.203186,313.41855 M47.500973,315.80444 L57.86893,314.7602 M37.1079,316.55084 L47.500973,315.80444 M26.698275,316.99918 L37.1079,316.55084 M148.6351,292.11313 L158.28105,288.15558 M98.91787,307.61722 L109.03146,305.09528 M138.87877,295.78845 L148.6351,292.11313 M109.03146,305.09528 L119.06849,302.28183 M129.02042,299.17883 L138.87877,295.78845 M119.06849,302.28183 L129.02042,299.17883 M16.280651,317.14954 L26.698275,316.99918 M5.863546,317.00223 L16.280651,317.14954 M-4.5445533,316.55774 L5.863546,317.00223 M-14.935204,315.8169 L-4.5445533,316.55774 M-25.300007,314.7807 L-14.935204,315.8169 M-35.63062,313.45038 L-25.300007,314.7807 M-45.918762,311.82745 L-35.63062,313.45038 M-56.15622,309.91357 L-45.918762,311.82745 M-66.33485,307.71075 L-56.15622,309.91357 M-76.44658,305.22107 L-66.33485,307.71075 M-86.48345,302.447 L-76.44658,305.22107 M-61.40596,279.85925 L-70.73081,277.52036 M-52.019184,281.9335 L-61.40596,279.85925 M-70.73081,277.52036 L-79.986374,274.91904 L-89.16537,272.05765 M-96.43755,299.39105 L-86.48345,302.447 M-89.16537,272.05765 L-98.26058,268.93875 M-106.30112,296.0561 L-96.43755,299.39105 M-98.26058,268.93875 L-107.26493,265.56512 M-116.06644,292.44513 L-106.30112,296.0561 M-125.72594,288.56137 L-116.06644,292.44513 M-135.27216,284.40826 L-125.72594,288.56137 M-144.69772,279.98947 L-135.27216,284.40826 M-107.26493,265.56512 L-116.17139,261.93976 L-124.97306,258.06573 L-133.66316,253.94646 L-144.69772,279.98947 M93.457535,176.07866 L84.47477,179.01402 L75.37853,181.58136 L66.18416,183.77727 L56.907005,185.599 L47.56246,187.04445 L38.16591,188.1121 L28.73269,188.80112 L19.27811,189.11125 L9.817382,189.04285 L0.3656194,188.5969 M-37.05428,183.07727 L-46.239605,180.77837 M0.3656194,188.5969 L-9.062185,187.77493 L-18.451189,186.5791 L-27.786715,185.01212 L-37.05428,183.07727 M-46.239605,180.77837 L-55.32864,178.11977 L-64.307594,175.10637 L-73.162926,171.74356 M216.4141,123.27194 L222.95683,114.8907 M209.52316,131.36684 L216.4141,123.27194 M202.29749,139.16182 L209.52316,131.36684 M194.75098,146.64397 L202.29749,139.16182 M187.00336,114.25373 L180.52383,121.10888 L173.7604,127.68623 M186.89801,153.80106 L194.75098,146.64397 M178.75336,160.6215 L186.89801,153.80106 M170.33218,167.09445 L178.75336,160.6215 M161.65,173.20972 L170.33218,167.09445 M152.72261,178.95781 L161.65,173.20972 M151.89493,145.64528 L144.12593,151.0082 L136.13976,156.04474 L127.95066,160.74702 L119.573105,165.10783 M173.7604,127.68623 L166.7257,133.97487 L159.43274,139.96446 L151.89493,145.64528 M119.573105,165.10783 L111.02179,169.12057 L102.31159,172.77928 L93.457535,176.07866 M94.9277,205.29588 L104.98004,201.9095 M143.56615,184.32999 L152.72261,178.95781 M104.98004,201.9095 L114.88706,198.1142 M134.19698,189.3182 L143.56615,184.32999 M114.88706,198.1142 L124.63169,193.91515 L134.19698,189.3182 M-71.68283,202.41216 L-61.62292,205.6948 M-81.605064,198.73856 L-71.68283,202.41216 M-91.37484,194.6807 L-81.605064,198.73856 M-100.977715,190.24576 L-91.37484,194.6807 M-115.13245,149.91104 L-122.978905,144.59175 M-107.0877,154.92316 L-115.13245,149.91104 M-98.85624,159.61996 L-107.0877,154.92316 M-73.162926,171.74356 L-81.88139,168.03723 L-90.45004,163.99374 L-98.85624,159.61996 M-110.3996,185.44148 L-100.977715,190.24576 M-119.626785,180.2761 L-110.3996,185.44148 M-128.64597,174.75827 L-119.626785,180.2761 M-137.44424,168.89719 L-128.64597,174.75827 M-122.978905,144.59175 L-130.61584,138.97385 L-138.03246,133.06624 M-162.39102,149.35254 L-154.3286,156.1841 M-146.00914,162.70245 L-137.44424,168.89719 M-154.3286,156.1841 L-146.00914,162.70245 M99.8506,94.591064 L109.12823,88.50007 M204.61798,92.13957 L199.06201,99.756714 L193.18669,107.13232 M98.606895,95.286896 L199.86049,98.66202 M69.82713,108.7265 L80.14821,104.7226 M59.262333,112.004456 L69.82713,108.7265 M193.18669,107.13232 L187.00336,114.25373 M82.23403,103.741135 L192.92743,107.430916 M75.52169,106.51739 L190.39587,110.34653 M68.077835,109.269264 L187.86432,113.262146 M48.50589,114.5476 L59.262333,112.004456 M37.609512,116.350716 L48.50589,114.5476 M26.624353,117.41205 L37.609512,116.350716 M93.54633,98.11821 L197.60419,101.58681 M90.17338,100.00533 L99.8506,94.591064 M88.187874,100.9396 L195.27623,104.50921 M80.14821,104.7226 L90.17338,100.00533 M39.669163,87.67918 L30.638954,88.93883 M48.587482,85.81194 L39.669163,87.67918 M57.35175,83.34216 L48.587482,85.81194 M4.8665423,89.16222 L18.12127,89.60404 M-17.501701,85.41661 L41.139565,87.37132 M-28.886793,82.03711 L52.37114,84.745705 M117.95529,81.75655 L126.281784,74.38873 M118.85348,80.961784 L210.0215,84.00072 M122.12074,78.070694 L211.80374,81.06013 M214.7288,76.23392 L209.8437,84.29407 M125.388016,75.1796 L213.58597,78.11953 M134.05898,66.42883 L141.2397,57.913094 M143.50565,54.78352 L224.34355,57.47812 M134.02132,66.46738 L218.54355,69.28478 M141.3847,57.712822 L222.99062,60.43302 M136.48686,63.54956 L220.07292,66.33576 M138.94739,60.63158 L221.53177,63.38439 M126.281784,74.38873 L134.05898,66.42883 M128.34393,72.27813 L215.30902,75.17696 M131.18262,69.37276 L216.92628,72.23087 M219.26347,67.97335 L214.7288,76.23392 M109.12823,88.50007 L117.95529,81.75655 M209.8437,84.29407 L204.61798,92.13957 M115.226944,83.8409 L208.08388,86.93613 M111.46421,86.71548 L206.12904,89.87097 M107.47928,89.58264 L204.13303,92.804436 M103.13056,92.43768 L201.99677,95.73322 M65.919655,80.2778 L57.35175,83.34216 M74.248924,76.62988 L65.919655,80.2778 M82.297516,72.41249 L74.248924,76.62988 M-37.56629,78.74779 L61.01026,82.033676 M-44.766426,75.50779 L68.21223,79.27374 M-51.058132,72.298065 L74.526886,76.48423 M90.023865,67.64285 L82.297516,72.41249 M97.3871,62.341362 L90.023865,67.64285 M-56.704285,69.109856 L79.909744,73.66366 M-61.603817,65.94654 L84.86299,70.828766 M-66.23034,62.79232 L89.47374,67.98246 M104.347275,56.531597 L97.3871,62.341362 M-70.45303,59.651566 L93.531044,65.1177 M-74.3488,56.521706 L97.49669,62.24989 M-78.04427,53.398525 L100.95271,59.36509 M-27.75545,3.532388 L-16.654734,-22.482494 M-37.146816,-5.223452 L-27.75545,3.532388 M-44.93665,-15.254888 L-37.146816,-5.223452 M-51.038418,-26.255524 L-44.93665,-15.254888 M-123.855034,-20.128502 L-46.20422,-17.54014 M-124.6841,-23.156137 L-47.89959,-20.596653 M-122.89508,-16.62287 L-125.33222,-25.523012 M-116.4796,0.6605224 L-119.94159,-7.8846607 M-122.03145,-14.067715 L-41.941658,-11.398055 M-119.94159,-7.8846607 L-122.89508,-16.62287 M-151.79489,-15.536665 L-148.72,-5.087131 M15.6007805,117.73326 L26.624353,117.41205 M-38.40834,108.51445 L-27.908092,111.76049 M4.588186,117.319244 L15.6007805,117.73326 M-27.908092,111.76049 L-17.212433,114.32049 M-6.365191,116.17799 L4.588186,117.319244 M-17.212433,114.32049 L-6.365191,116.17799 M-40.763504,77.44489 L-49.014393,73.452095 L-57.00031,68.9427 L-64.69086,63.93736 L-72.057335,58.45832 M-77.64169,89.08246 L-68.32503,94.860855 M30.638954,88.93883 L21.53866,89.58875 L12.409567,89.62959 L3.2922652,89.064674 L-5.773495,87.89991 M-32.279675,80.902145 L-40.763504,77.44489 M-5.773495,87.89991 L-14.748956,86.1437 L-23.59648,83.806786 L-32.279675,80.902145 M-86.57193,82.73437 L-77.64169,89.08246 M-95.08378,75.84555 L-86.57193,82.73437 M-103.14752,68.44647 L-95.08378,75.84555 M-110.7357,60.56895 L-103.14752,68.44647 M-48.671085,104.601295 L-38.40834,108.51445 M-58.65608,100.04228 L-48.671085,104.601295 M-68.32503,94.860855 L-58.65608,100.04228 M-169.90527,101.336494 L-46.44,105.452 M-165.29282,106.72952 L-171.45943,99.51934 M-172.46344,98.25122 L-53.924828,102.20251 M-72.057335,58.45832 L-79.0728,52.529278 L-85.71213,46.175255 M-124.38718,43.51165 L-117.8232,52.246002 L-110.7357,60.56895 M-197.32643,61.42245 L-107.0137,64.43288 M-198.98004,58.367332 L-109.99938,61.333355 M-197.99239,60.256844 L-202.39044,51.842808 L-206.47163,43.26942 M-200.57596,55.314137 L-112.71658,58.24278 M-202.17188,52.260937 L-115.345894,55.155136 M-203.64282,49.211906 L-117.95689,52.068104 M-130.40718,34.40081 L-124.38718,43.51165 M-85.71213,46.175255 L-91.95205,39.42246 L-97.77119,32.298145 M-205.09395,46.163536 L-120.269356,48.99102 M-206.53804,43.1154 L-122.58182,45.91394 M-207.85016,40.071663 L-124.831665,42.838943 M-209.16228,37.027924 L-126.85856,39.77138 M-210.44955,33.985016 L-128.88545,36.70382 M-138.03246,133.06624 L-145.21826,126.87819 L-152.16327,120.419365 M-170.18529,142.2186 L-162.39102,149.35254 M-177.70073,134.79344 L-170.18529,142.2186 M-152.16327,120.419365 L-158.85783,113.699715 L-165.29282,106.72952 M-174.90303,95.1699 L-60.640923,98.97864 M-177.3426,92.08858 L-66.61048,95.77965 M-171.45943,99.51934 L-177.34938,92.080025 M-182.95482,84.422676 L-188.26834,76.558624 M-177.34938,92.080025 L-182.95482,84.422676 M-179.59416,89.01353 L-71.968575,92.60104 M-181.84518,85.93849 L-77.08028,89.43066 M-184.00632,82.866455 L-81.58329,86.280556 M-186.08003,79.79733 L-86.0112,83.13296 M-188.15376,76.72821 L-89.948395,80.00172 M-190.06924,73.66436 L-93.81444,76.87285 M-191.97548,70.600815 L-97.36258,73.75458 M-188.26834,76.558624 L-193.28304,68.49943 M-193.8318,67.53894 L-100.755325,70.64149 M-195.57912,64.4807 L-104.02802,67.5324 M-193.28304,68.49943 L-197.99239,60.256844 M-184.92717,127.0886 L-177.70073,134.79344 M-191.85489,119.1159 L-184.92717,127.0886 M-198.47472,110.88748 L-191.85489,119.1159 M-204.77794,102.415764 L-198.47472,110.88748 M-210.75641,93.713425 L-204.77794,102.415764 M-135.86508,24.949108 L-130.40718,34.40081 M-140.7451,15.192749 L-135.86508,24.949108 M-97.77119,32.298145 L-103.15007,24.8305 L-108.07117,17.048496 M-211.62778,30.945742 L-130.84741,33.63842 M-212.806,27.906467 L-132.61377,30.57954 M-213.949,24.868366 L-134.38013,27.520662 M-214.99779,21.833406 L-136.10818,24.46306 M-216.04655,18.798449 L-137.6342,21.412193 M-145.03378,5.1683636 L-140.7451,15.192749 M-108.07117,17.048496 L-112.51889,8.981775 M-219.78708,6.673764 L-143.29895,9.223369 M-217.05592,15.764803 L-139.16022,18.361326 M-217.97916,12.734028 L-140.68622,15.310459 M-218.90239,9.703254 L-141.9969,12.266769 M-148.72,-5.087131 L-145.03378,5.1683636 M-112.51889,8.981775 L-116.4796,0.6605224 M-220.58817,3.647061 L-144.601,6.1799664 M-221.38927,0.6203579 L-145.7624,3.141253 M-222.15683,-2.405228 L-146.8538,0.10487323 M-119.980354,-7.9993453 L-37.158596,-5.23862 M-121.0059,-11.03353 L-39.550125,-8.318337 M-222.83873,-5.4279575 L-147.94519,-2.9315064 M-223.52063,-8.450687 L-148.9786,-5.965954 M-123.02598,-17.100866 L-44.333187,-14.477773 M-224.17744,-11.472582 L-149.87013,-8.995671 M-224.74266,-14.491422 L-150.76166,-12.025389 M-154.25183,-26.143147 L-151.79489,-15.536665 M-225.30788,-17.510263 L-151.65318,-15.055106 M-225.85925,-20.52864 L-152.38393,-18.079464 M-15.404734,-143.71292 L-24.73954,-136.45178 M-94.54924,-165.42506 L-88.67281,-172.61603 M27.703793,-161.37247 L16.331062,-158.72375 L5.266799,-154.88559 L-5.3568926,-149.87234 L-15.404734,-143.71292 M-55.988186,-86.407745 L-58.27288,-74.47986 M-24.73954,-136.45178 L-33.223694,-128.15016 M-52.226833,-97.887825 L-55.988186,-86.407745 M-33.223694,-128.15016 L-40.720825,-118.88706 M-47.097786,-108.76039 L-52.226833,-97.887825 M-40.720825,-118.88706 L-47.097786,-108.76039 M-118.72402,-180.10771 L-124.96774,-171.27284 M-112.014885,-188.58937 L-118.72402,-180.10771 M-104.862236,-196.6952 L-112.014885,-188.58937 M-105.09186,-150.15338 L-100.028114,-157.93062 M-109.723854,-142.11519 L-105.09186,-150.15338 M-124.96774,-171.27284 L-130.72519,-162.10881 L-135.97664,-152.64095 M-155.91794,-91.0289 L-157.18753,-80.24558 M-135.97664,-152.64095 L-140.70355,-142.89589 M-154.04294,-101.71886 L-155.91794,-91.0289 M-140.70355,-142.89589 L-144.88873,-132.90154 M-151.57202,-112.28228 L-154.04294,-101.71886 M-144.88873,-132.90154 L-148.51634,-122.68693 M-58.050392,-50.0294 L-55.410755,-37.93668 M-28.878649,-43.832344 L-30.837032,-51.941395 M-128.69197,-44.289734 L-56.270573,-41.875687 M-128.97319,-47.299107 L-56.93022,-44.897675 M-128.6354,-43.684475 L-129.49506,-52.883667 M-55.410755,-37.93668 L-51.038418,-26.255524 M-21.733103,-28.938793 L-25.830278,-36.11026 M-126.75326,-32.22511 L-52.344486,-29.744816 M-125.33222,-25.523012 L-127.24704,-34.553925 M-127.352135,-35.24507 L-53.481594,-32.78272 M-16.654734,-22.482494 L-21.733103,-28.938793 M-125.47203,-26.182402 L-49.594955,-23.653166 M-126.11265,-29.203754 L-51.207375,-26.706913 M-226.30992,-23.543665 L-153.08426,-21.102808 M-226.7606,-26.558687 L-153.7846,-24.126154 M-156.08641,-36.86959 L-154.25183,-26.143147 M-227.21088,-29.573696 L-154.4236,-27.147453 M-227.54878,-32.58496 L-154.93964,-30.164654 M-227.2097,-29.563148 L-228.26959,-39.008434 M-127.24704,-34.553925 L-128.6354,-43.684475 M-25.830278,-36.11026 L-28.878649,-43.832344 M-127.81063,-38.260353 L-54.618702,-35.820625 M-128.26913,-41.27564 L-55.610928,-38.8537 M-227.8867,-35.596222 L-155.45569,-33.181854 M-228.22461,-38.607487 L-155.97173,-36.19906 M-157.29639,-47.67924 L-156.08641,-36.86959 M-228.466,-41.615532 L-156.34857,-39.21162 M-228.6926,-44.623085 L-156.68562,-42.222855 M-228.26959,-39.008434 L-228.9837,-48.48715 M-148.51634,-122.68693 L-151.57202,-112.28228 M-223.30302,-119.443436 L-150.1847,-117.00616 M-223.9518,-116.46506 L-151.0572,-114.03524 M-224.55489,-113.48516 L-151.85748,-111.06191 M-225.09302,-110.5031 L-152.55379,-108.08513 M-227.37291,-95.94002 L-226.02199,-105.35508 M-225.63113,-107.521034 L-153.2501,-105.10834 M-226.13924,-104.53797 L-153.94641,-102.131546 M-226.56764,-101.55225 L-154.49356,-99.14979 M-226.99605,-98.566536 L-155.0167,-96.16722 M-228.38307,-86.4833 L-227.37291,-95.94002 M-227.41133,-95.580376 L-155.53983,-93.18466 M-227.73065,-92.59102 L-156.01547,-90.200516 M-228.04997,-89.60167 L-156.36731,-87.21224 M-228.3693,-86.61231 L-156.71913,-84.22397 M-157.18753,-80.24558 L-157.84404,-69.40292 M-229.05054,-76.99721 L-228.38307,-86.4833 M-228.58458,-83.619484 L-157.07097,-81.2357 M-228.79517,-80.6265 L-157.30875,-78.24362 M-229.00577,-77.63352 L-157.49004,-75.249664 M-229.13078,-74.637695 L-157.67131,-72.25571 M-58.986004,-62.285805 L-58.050392,-50.0294 M-30.837032,-51.941395 L-31.688192,-60.278034 M-129.618,-56.3206 L-58.349293,-53.944977 M-129.72545,-59.32418 L-58.578888,-56.95263 M-129.49506,-52.883667 L-129.82549,-62.12074 M-58.27288,-74.47986 L-58.986004,-62.285805 M-129.82549,-62.12074 L-129.62793,-71.365265 M-31.436253,-68.689804 L-30.104088,-77.03313 M-31.688192,-60.278034 L-31.436253,-68.689804 M-129.39694,-74.31323 L-58.420982,-71.947365 M-129.62888,-71.32096 L-58.596085,-68.9532 M-129.25441,-50.30848 L-57.58987,-47.919662 M-129.51056,-53.31702 L-58.119698,-50.937325 M-228.91917,-47.63064 L-157.02269,-45.23409 M-229.06693,-50.635563 L-157.32684,-48.24423 M-157.88162,-58.535675 L-157.29639,-47.67924 M-228.9837,-48.48715 L-229.3517,-57.9866 M-229.18329,-53.639442 L-157.48886,-51.24963 M-229.29965,-56.643322 L-157.65088,-54.255028 M-229.35555,-59.645184 L-157.81288,-57.26043 M-157.84404,-69.40292 L-157.88162,-58.535675 M-229.23271,-71.64109 L-157.84453,-69.26148 M-229.33464,-68.644485 L-157.8549,-66.26183 M-229.36252,-62.645416 L-157.87566,-60.262524 M-229.36948,-65.64565 L-157.86528,-63.262177 M-129.69293,-68.3231 L-58.771187,-65.95904 M-129.757,-65.32523 L-58.946293,-62.964878 M-129.82106,-62.32737 L-58.808483,-59.96028 M-300,37 L-238.76172,39.041275 M-239.41481,37.393524 L-235.52742,47.20154 M-300,40 L-237.55676,42.08144 M-300,46 L-235.10422,48.163193 M-300,43 L-236.35179,45.121605 M-300,34 L-239.90698,36.0031 M-300,31 L-240.98158,32.96728 M-300,28 L-242.05618,29.93146 M-242.93488,27.449114 L-239.41481,37.393524 M-300,25 L-243.10776,26.896408 M-300,22 L-244.05603,23.8648 M-300,19 L-245.00429,20.83319 M-206.47163,43.26942 L-210.23096,34.54893 L-213.6638,25.693705 M-246.0837,17.3823 L-242.93488,27.449114 M-213.6638,25.693705 L-216.7661,16.71622 M-300,82 L-216.40646,84.78645 M-300,79 L-218.18562,81.72714 M-300,76 L-219.96477,78.66784 M-221.70891,75.668755 L-216.40244,84.79338 M-231.2772,56.859257 L-226.66919,66.352875 M-300,64 L-226.6196,66.446014 M-300,61 L-228.10414,63.39653 M-300,58 L-229.58423,60.34719 M-216.40244,84.79338 L-210.75641,93.713425 M-300,97 L-206.35406,100.12153 M-300,85 L-214.46703,87.8511 M-300,94 L-208.46336,97.05122 M-300,88 L-212.52722,90.91576 M-300,91 L-210.57265,93.98091 M-300,73 L-221.7409,75.608635 M-300,70 L-223.36714,72.55443 M-300,67 L-224.99336,69.50022 M-226.66919,66.352875 L-221.70891,75.668755 M-300,55 L-231.06432,57.297855 M-300,52 L-232.4244,54.25252 M-300,49 L-233.7643,51.207855 M-235.52742,47.20154 L-231.2772,56.859257 M-248.85785,7.2071543 L-246.0837,17.3823 M-300,16 L-245.95255,17.801582 M-300,13 L-246.79497,14.773501 M-300,10 L-247.62038,11.745987 M-216.7661,16.71622 L-219.53424,7.629044 M-251.25446,-3.0622027 L-248.85785,7.2071543 M-300,7 L-248.4458,8.718473 M-300,4 L-249.21123,5.6929593 M-219.53424,7.629044 L-221.96507,-1.5551866 L-224.05597,-10.823782 L-225.80475,-20.164017 L-227.2097,-29.563148 M-253.27118,-13.411615 L-251.25446,-3.0622027 M-300,-11 L-252.49266,-9.416422 M-300,-8 L-251.90425,-6.3968086 M-300,1 L-249.91684,2.6694386 M-300,-2 L-250.62245,-0.3540818 M-300,-5 L-251.31584,-3.3771946 M-254.90619,-23.826918 L-253.27118,-13.411615 M-300,-23 L-254.53848,-21.484617 M-300,-14 L-253.08107,-12.436036 M-300,-17 L-253.59164,-15.453055 M-300,-20 L-254.06506,-18.468836 M-256.1582,-34.293945 L-254.90619,-23.826918 M-300,-35 L-256.06747,-33.535583 M-300,-26 L-254.98665,-24.499556 M-300,-29 L-255.34692,-27.511564 M-300,-32 L-255.7072,-30.523573 M-257.02643,-44.79856 L-256.1582,-34.293945 M-300,-38 L-256.34424,-36.544807 M-300,-41 L-256.59286,-39.553097 M-300,-44 L-256.84152,-42.561382 M-257.51062,-55.326668 L-257.02643,-44.79856 M-300,-47 L-257.06183,-45.56873 M-300,-50 L-257.2,-48.573334 M-300,-53 L-257.3382,-51.57794 M-257.61102,-65.86424 L-257.51062,-55.326668 M-229.3517,-57.9866 L-229.37376,-67.49415 M-300,-56 L-257.47638,-54.582546 M-300,-59 L-257.53214,-57.584404 M-300,-62 L-257.56073,-60.585358 M-300,-65 L-257.58932,-63.58631 M-257.32843,-76.397316 L-257.61102,-65.86424 M-229.37376,-67.49415 L-229.05054,-76.99721 M-300,-68 L-257.59167,-66.58639 M-300,-71 L-257.51126,-69.58371 M-300,-74 L-257.43082,-72.581024 M-300,-77 L-257.3504,-75.57835 M-256.6641,-86.91204 L-257.32843,-76.397316 M-300,-80 L-257.19098,-78.57304 M-300,-83 L-257.00183,-81.56673 M-300,-86 L-256.81268,-84.560425 M-300,-89 L-256.60022,-87.55334 M-255.61975,-97.39468 L-256.6641,-86.91204 M-300,-92 L-256.3023,-90.54341 M-300,-95 L-256.00443,-93.53348 M-300,-98 L-255.70654,-96.52355 M-300,-101 L-255.33138,-99.51105 M-254.19763,-107.831604 L-255.61975,-97.39468 M-252.40048,-118.20936 L-254.19763,-107.831604 M-300,-104 L-254.92445,-102.49748 M-300,-107 L-254.51753,-105.48392 M-300,-110 L-254.08716,-108.469574 M-300,-113 L-253.57062,-111.452354 M-300,-116 L-253.05408,-114.435135 M-300,-119 L-252.53754,-117.417915 M-300,-122 L-251.93982,-120.397995 M-300,-125 L-251.31279,-123.37709 M-250.23145,-128.51463 L-252.40048,-118.20936 M-247.69418,-138.73431 L-250.23145,-128.51463 M-300,-128 L-250.68575,-126.35619 M-300,-131 L-250.02795,-129.33426 M-300,-134 L-249.28925,-132.30965 M-300,-137 L-248.55055,-135.28502 M-226.02199,-105.35508 L-224.33272,-114.71634 M-219.95078,-133.22952 L-217.26495,-142.35793 M-222.3079,-124.01177 L-219.95078,-133.22952 M-224.33272,-114.71634 L-222.3079,-124.01177 M-244.7928,-148.85547 L-247.69418,-138.73431 M-300,-140 L-247.81184,-138.26039 M-300,-143 L-246.97801,-141.2326 M-300,-146 L-246.12616,-144.20421 M-300,-149 L-245.27429,-147.17581 M-229.64284,-188.10368 L-233.95123,-178.5016 M-300,-185 L-232.05171,-182.73506 M-300,-188 L-230.72546,-185.69084 M-300,-191 L-229.37607,-188.64587 M-241.5318,-158.86536 L-244.7928,-148.85547 M-300,-152 L-244.37245,-150.14575 M-300,-155 L-243.40561,-153.11353 M-300,-158 L-242.43878,-156.0813 M-237.91615,-168.7515 L-241.5318,-158.86536 M-300,-161 L-241.46469,-159.04883 M-300,-164 L-240.38072,-162.0127 M-300,-167 L-239.29675,-164.97656 M-233.95123,-178.5016 L-237.91615,-168.7515 M-300,-182 L-233.37796,-179.77927 M-300,-170 L-238.21278,-167.94043 M-300,-173 L-237.04189,-170.9014 M-300,-176 L-235.83824,-173.86127 M-300,-179 L-234.6346,-176.82115 M-300,-194 L-227.92386,-191.59746 M-300,-197 L-226.47165,-194.54906 M-224.99715,-197.54596 L-229.64284,-188.10368 M-300,-200 L-225.01944,-197.50064" fill="none" stroke="black" vector-effect="non-scaling-stroke"/>
</g>
</svg>