<svg height="218mm" viewBox="0 0 300 218" width="300mm" xmlns="http://www.w3.org/2000/svg" xmlns:inkscape="http://www.inkscape.org/namespaces/inkscape">
<g inkscape:groupmode="layer" inkscape:label="0">
<path d="M151.20296,109 L152.59698,111.26591 L151.20296,109 M150,110.95534 L147.40302,106.73409 L150,110.95534 L150,106.67634 L150,110.95534 L152.59698,106.73409 L150,106.67634 L147.40302,106.73409 M150,106.73409 L150,106.73409 M148.79704,109 L147.40302,111.26591 L150,111.32366 L152.59698,111.26591 L150,111.32366 L147.40302,111.26591 L152.59698,111.26591 M150,110.95534 L152.59698,106.73409 M148.79704,109 L147.40302,111.26591 M140.77618,111.567024 L135.64616,112.03613 L137.63147,107.60667 L140.77618,111.567024 L137.6419,111.88519 L135.64616,112.03613 L137.63147,107.60667 L140.77618,111.567024 L140.77618,111.567024 M140.77618,111.567024 L137.6419,111.88519 L135.64616,112.03613 M137.6419,111.88519 L137.6419,111.88519 M129.18251,112.93205 L129.18251,112.93205 L125.567505,109.27885 L124.24276,113.85871 L129.18251,112.93205 L125.567505,109.27885 L124.24276,113.85871 L124.24276,113.85871 L124.24276,113.85871 M118.101425,115.32739 L114.10514,112.02003 L113.47358,116.68879 L114.10514,112.02003 L118.101425,115.32739 L113.47358,116.68879 M107.80579,118.69405 L103.52663,115.76272 L103.6038,120.456665 L107.80579,118.69405 L103.52663,115.76272 L103.56582,120.03436 L103.52663,115.76272 L103.6038,120.456665 L103.56582,120.03436 M98.549126,122.94914 L94.87644,125.069565 L94.139595,124.68247 L94.092445,120.41475 L94.139595,124.68247 M94.87644,125.069565 L94.092445,120.41475 L98.549126,122.94914 L94.092445,120.41475 L94.87644,125.069565 M90.55935,127.98788 L90.55935,127.98788 L86.03489,125.86157 L86.08884,130.12471 L87.50642,130.41391 L86.03489,125.86157 L90.55935,127.98788 L87.50642,130.41391 L86.03489,125.86157 L86.08884,130.12471 M84.033195,133.6862 L81.675186,136.3581 L79.611786,136.22707 L79.55237,131.96909 L81.675186,136.3581 L79.55237,131.96909 L84.033195,133.6862 L79.55237,131.96909 L79.611786,136.22707 M79.13136,139.9038 L74.804504,138.58688 L77.526344,142.75575 L74.86792,142.83928 L74.804504,138.58688 L77.526344,142.75575 L79.13136,139.9038 L74.804504,138.58688 L74.86792,142.83928 M75.974556,146.48755 L71.908195,145.55202 L75.974556,146.48755 L75.16204,149.44937 L71.908195,145.55202 L71.97406,149.79854 L75.16204,149.44937 L71.908195,145.55202 L71.97406,149.79854 M74.03173,148.09552 L74.03173,148.09552 M87.02909,153.34737 L91.78309,154.06984 L90.17807,156.9218 L88.11807,157.68817 L87.02909,153.34737 L88.11807,157.68817 M89.11359,159.4817 L84.603645,159.18018 L85.734566,163.42012 L85.734566,163.42012 L88.30107,162.44353 L89.11359,159.4817 L84.603645,159.18018 L88.30107,162.44353 L84.603645,159.18018 L85.734566,163.42012 L85.734566,163.42012 M90.17807,156.9218 L87.02909,153.34737 L90.17807,156.9218 M91.78309,154.06984 L87.02909,153.34737 M92.025314,152.24208 L91.0051,147.80544 L95.886086,148.9657 L93.528076,151.63759 L92.025314,152.24208 L91.0051,147.80544 L95.886086,148.9657 M97.360085,147.21591 L96.43375,142.69083 L101.32155,144.29497 L98.268616,146.721 L96.43375,142.69083 L101.32155,144.29497 L101.32155,144.29497 M103.99103,142.73346 L107.955635,140.17267 L103.99103,142.73346 L103.18137,138.1295 L107.955635,140.17267 L103.18137,138.1295 L104.28295,142.29309 L103.99103,142.73346 L103.18137,138.1295 L104.28295,142.29309 L107.955635,140.17267 M111.42299,138.4629 L115.62499,136.70029 L111.75487,138.90509 L111.42299,138.4629 L111.08184,134.23375 L111.08184,134.23375 M111.08184,134.23375 L115.62499,136.70029 L111.75487,138.90509 L111.42299,138.4629 L111.08184,134.23375 L115.62499,136.70029 M119.512924,135.32474 L119.9406,131.09952 L119.9406,131.09952 L119.512924,135.32474 L120.46043,135.82506 L124.14078,133.96333 L119.9406,131.09952 L124.14078,133.96333 L120.46043,135.82506 L120.46043,135.82506 L119.512924,135.32474 L124.14078,133.96333 M128.35355,132.95587 L133.2933,132.0292 L129.89334,133.56921 L128.35355,132.95587 L129.5395,128.80397 L128.35355,132.95587 L129.89334,133.56921 L133.2933,132.0292 L129.5395,128.80397 L133.2933,132.0292 M129.82727,132.67941 L129.82727,132.67941 M137.72719,131.41463 L139.64223,127.40363 L139.64223,127.40363 L142.85721,130.94553 L139.82135,132.19308 L137.72719,131.41463 L142.85721,130.94553 L139.82135,132.19308 L137.72719,131.41463 L139.64223,127.40363 L142.85721,130.94553 L142.85721,130.94553 M147.40302,130.73897 L148.79704,128.69597 L147.40302,130.73897 L150,131.73059 L152.59698,130.73897 L150.01123,130.73897 M150,130.75822 L152.59698,126.30618 L147.40302,126.30618 L152.59698,126.30618 L150,127.18482 L147.40302,126.30618 L150,130.75822 L150,127.18482 L150,130.75822 L152.59698,126.30618 M151.20296,128.69597 L152.59698,130.73897 L150,131.73059 L147.40302,130.73897 L149.98877,130.73897 M150,130.75822 L147.40302,126.30618 L147.40302,126.30618 M151.20296,128.69597 L152.59698,130.73897 M160.78961,125.93392 L165.91962,125.46481 L163.83873,130.12941 L160.78961,125.93392 L163.99744,126.548805 L165.91962,125.46481 L163.83873,130.12941 L160.78961,125.93392 L165.91962,125.46481 M163.99744,126.548805 L163.83873,130.12941 L163.99744,126.548805 M173.91052,124.3572 L177.33669,128.25845 L177.6502,124.656395 L173.91052,124.3572 L178.85027,123.43054 L177.6502,124.656395 L177.33669,128.25845 L173.91052,124.3572 L178.85027,123.43054 L177.33669,128.25845 L178.85027,123.43054 L177.6502,124.656395 M173.91052,124.3572 L173.91052,124.3572 M186.44267,121.614845 L191.07053,120.25345 L190.62215,121.55421 L191.07053,120.25345 L190.16154,125.191444 L190.62215,121.55421 L186.44267,121.614845 L190.16154,125.191444 L191.07053,120.25345 L186.44267,121.614845 L186.44267,121.614845 L190.16154,125.191444 L190.62215,121.55421 M198.07748,117.77438 L202.59383,117.31862 L202.27948,116.01177 L198.07748,117.77438 L201.99748,121.00388 L202.59383,117.31862 L201.99748,121.00388 L198.07748,117.77438 L202.27948,116.01177 L202.59383,117.31862 M208.52847,112.930374 L212.20116,110.809944 L213.27048,112.053925 L212.55307,115.79888 L208.52847,112.930374 L213.27048,112.053925 L212.55307,115.79888 L208.52847,112.930374 L212.20116,110.809944 L213.27048,112.053925 M212.30153,112.23301 L212.30153,112.23301 M217.5383,107.202095 L220.59123,104.77606 L220.59123,104.77606 M220.59123,104.77606 L217.5383,107.202095 L222.38919,105.88976 L220.59123,104.77606 L222.38919,105.88976 L221.56839,109.70461 L217.5383,107.202095 L221.56839,109.70461 L222.38919,105.88976 M224.8851,100.73059 L228.82146,102.87113 L228.82146,102.87113 L229.72545,98.977905 L228.82146,102.87113 L224.8851,100.73059 L227.2431,98.0587 L229.72545,98.977905 L224.8851,100.73059 L227.2431,98.0587 L229.72545,98.977905 M230.38799,93.675224 L234.13368,95.4667 L234.13368,95.4667 L235.0986,91.488556 L234.13368,95.4667 L230.38799,93.675224 L235.0986,91.488556 L231.99301,90.82326 L231.99301,90.82326 L230.38799,93.675224 L231.99301,90.82326 L235.0986,91.488556 M237.37425,87.673645 L238.37634,83.606125 L237.37425,87.673645 L233.91145,86.20971 L234.72397,83.247894 L238.37634,83.606125 L233.91145,86.20971 L237.37425,87.673645 M233.91145,86.20971 L234.72397,83.247894 L238.37634,83.606125 M225.1955,79.41312 L225.1955,79.41312 L220.86864,78.09621 L225.1955,79.41312 L225.13208,75.16072 L220.86864,78.09621 L222.47366,75.24425 L220.86864,78.09621 M223.26048,76.44937 L223.26048,76.44937 M222.47366,75.24425 L225.13208,75.16072 L225.1955,79.41312 M225.13208,75.16072 L222.47366,75.24425 M224.02545,71.51244 L228.0918,72.44798 L228.02594,68.20146 L224.02545,71.51244 L224.83797,68.55064 L228.02594,68.20146 L224.83797,68.55064 L224.83797,68.55064 L224.02545,71.51244 L228.0918,72.44798 L228.02594,68.20146 M225.96826,69.90448 L225.96826,69.90448 M220.38821,81.77294 L220.44763,86.03092 L215.96681,84.3138 L215.96681,84.3138 L220.38821,81.77294 L218.32481,81.64191 L220.38821,81.77294 L220.44763,86.03092 L215.96681,84.3138 L218.32481,81.64191 L215.96681,84.3138 M213.91116,87.8753 L212.49359,87.5861 L209.44066,90.01212 L213.96512,92.13843 L213.91116,87.8753 L209.44066,90.01212 L213.96512,92.13843 L213.91116,87.8753 L212.49359,87.5861 L209.44066,90.01212 M205.86041,93.31753 L205.90756,97.58525 L205.86041,93.31753 L205.12355,92.930435 L201.45087,95.05086 L205.90756,97.58525 L201.45087,95.05086 L205.86041,93.31753 L205.12355,92.930435 L205.12355,92.930435 M205.12355,92.930435 L201.45087,95.05086 M205.23047,93.565155 L205.23047,93.565155 M205.90756,97.58525 L205.90756,97.58525 M196.43417,97.96564 L196.47337,102.23728 L192.1942,99.30595 L196.43417,97.96564 L196.39621,97.543335 L196.43417,97.96564 L196.47337,102.23728 L192.1942,99.30595 L196.39621,97.543335 L192.1942,99.30595 M186.52643,101.31121 L185.89487,105.97997 L181.89857,102.67261 L185.89487,105.97997 L185.8646,101.70517 L185.89487,105.97997 L186.52643,101.31121 L185.8646,101.70517 L185.8646,101.70517 L181.89857,102.67261 L181.89857,102.67261 L186.52643,101.31121 L181.89857,102.67261 M175.75725,104.14129 L170.81749,105.06795 L174.4325,108.72115 L175.75725,104.14129 L170.81749,105.06795 L174.4325,108.72115 L175.75725,104.14129 L174.4119,104.44404 L174.4325,108.72115 L174.4119,104.44404 L174.4119,104.44404 L170.81749,105.06795 M164.35384,105.96387 L164.35384,105.96387 L164.35384,105.96387 L162.36853,110.39333 L159.22382,106.432976 L159.22382,106.432976 L162.36853,110.39333 L162.3581,106.11481 L162.36853,110.39333 L164.35384,105.96387 L162.3581,106.11481 L159.22382,106.432976 M160.35777,90.59637 L157.14279,87.054474 L160.17865,85.80691 L160.17865,85.80691 L160.35777,90.59637 L162.27281,86.585365 L160.17865,85.80691 L160.35777,90.59637 L157.14279,87.054474 M160.2148,86.77356 L160.2148,86.77356 M162.27281,86.585365 L162.27281,86.585365 L160.35777,90.59637 M152.59698,91.69382 L147.40302,91.69382 L148.79704,89.30402 M148.79704,89.30402 L147.40302,91.69382 M150,91.067 L147.40302,87.261024 L150,91.067 L150,86.26941 L152.59698,87.261024 L150,91.067 L150,86.26941 L147.40302,87.261024 L147.40302,87.261024 M150,87.261024 L150,87.261024 M151.20296,89.30402 L152.59698,91.69382 L151.20296,89.30402 M150,91.067 L152.59698,87.261024 M166.7067,85.97079 L166.7067,85.97079 L170.4605,89.19603 L170.10666,84.43079 L166.7067,85.97079 L170.4605,89.19603 L170.10666,84.43079 L171.64645,85.04413 L170.4605,89.19603 L171.64645,85.04413 M175.85922,84.03666 L179.53958,82.17494 L180.0594,86.90048 L180.48708,82.67526 L179.53958,82.17494 L180.0594,86.90048 L180.48708,82.67526 M184.37502,81.299706 L188.91817,83.76625 L188.57701,79.537094 L188.91817,83.76625 L184.37502,81.299706 L188.24513,79.09491 L188.91817,83.76625 L188.24513,79.09491 L188.57701,79.537094 M192.04437,77.82733 L196.00897,75.26653 L196.81862,79.87051 L192.04437,77.82733 L192.04437,77.82733 L196.81862,79.87051 L196.00897,75.26653 M198.67845,73.705025 L203.56625,75.30917 L202.63991,70.78408 L198.67845,73.705025 L198.67845,73.705025 L201.73138,71.279 L202.63991,70.78408 L203.56625,75.30917 L198.67845,73.705025 L201.73138,71.279 L201.73138,71.279 L202.63991,70.78408 M201.79103,71.409996 L201.79103,71.409996 M204.1139,69.0343 L206.47192,66.36241 L207.97469,65.75793 L208.9949,70.194565 L204.1139,69.0343 L208.9949,70.194565 L208.9949,70.194565 L207.97469,65.75793 L204.1139,69.0343 L206.47192,66.36241 L207.97469,65.75793 M208.21692,63.93016 L209.82193,61.078197 L211.88193,60.31183 L212.9709,64.652626 L208.21692,63.93016 L212.9709,64.652626 L211.88193,60.31183 L209.82193,61.078197 L208.21692,63.93016 L208.21692,63.93016 L211.88193,60.31183 M210.88641,58.51829 L210.88641,58.51829 L214.26543,54.579887 L211.69893,55.556477 L210.88641,58.51829 L215.39636,58.819817 L214.26543,54.579887 L215.39636,58.819817 L210.88641,58.51829 L211.69893,55.556477 L214.26543,54.579887 M212.68265,56.4247 L212.68265,56.4247 M210.41908,61.756035 L210.41908,61.756035 M197.99419,51.83033 L195.92725,47.59084 L194.59077,48.94424 L193.04941,51.683098 L194.59077,48.94424 L195.92725,47.59084 L193.05536,51.69669 M193.02737,51.6328 L193.02737,51.6328 L189.84445,55.55988 L194.96382,56.054195 L189.84445,55.55988 M189.06804,55.36309 L190.8263,59.952366 L190.8263,59.952366 L189.06804,55.36309 L185.72206,58.993507 L190.8263,59.952366 L185.72206,58.993507 M184.14673,58.689854 L185.68349,63.428852 L180.72006,62.012535 L184.14673,58.689854 L185.68349,63.428852 L180.72006,62.012535 M179.16364,62.780014 L179.66203,66.39805 L174.96164,64.542625 L178.3846,61.53118 L179.66203,66.39805 L174.96164,64.542625 M173.21643,65.16008 L172.91022,68.78685 L168.58858,66.52148 L171.92354,63.817104 L172.91022,68.78685 L173.21643,65.16008 L171.92354,63.817104 L172.91022,68.78685 L168.58858,66.52148 L168.58858,66.52148 M166.69754,66.97371 L165.59425,70.53644 L164.92267,65.49134 L165.59425,70.53644 L161.7578,67.90037 L165.59425,70.53644 L166.69754,66.97371 L164.92267,65.49134 L161.7578,67.90037 M159.76752,68.17624 L157.89432,71.60372 L159.76752,68.17624 L157.55434,66.51266 L157.55434,66.51266 L157.89432,71.60372 L154.6375,68.64535 L157.55434,66.51266 L157.89432,71.60372 L154.6375,68.64535 M152.59698,68.73807 L150,66.85592 L150,71.962425 L152.59698,68.73807 L150,71.962425 L147.40302,68.73807 L150,71.962425 M150,71.962425 L150,66.85592 L147.40302,68.73807 M148.79704,70.46886 L147.40302,72.87809 L148.79704,70.46886 M150,68.73807 L150,68.73807 M150,66.85592 L150,66.85592 M150,66.85592 L152.59698,68.73807 M151.20296,70.46886 L152.59698,72.87809 L147.40302,72.87809 M151.20296,70.46886 L152.59698,72.87809 M157.55434,66.51266 L157.55434,66.51266 M152.59698,55.641064 L147.40302,55.641064 L147.40302,55.641064 L147.40302,55.641064 L148.79704,53.317688 M148.79704,53.317688 L147.40302,55.641064 M150,54.47657 L150,54.47657 L152.59698,51.974743 L150,49.28432 L150,54.47657 L147.40302,51.974743 L150,54.47657 M150,54.47657 L150,49.28432 L147.40302,51.974743 M150,51.312763 L150,51.312763 M150,49.28432 L152.22064,51.58486 M152.22064,51.58486 L154.59987,49.07531 L152.22064,51.58486 M152.25182,52.30725 L155.08586,54.245476 L154.59987,49.07531 L156.94743,51.541058 L155.08586,54.245476 L154.59987,49.07531 M154.84969,51.732883 L154.84969,51.732883 L154.84969,51.732883 M156.60724,51.183735 L159.08649,48.453426 L160.04648,53.557884 L156.70001,51.900494 M160.04648,53.557884 L159.08649,48.453426 L161.12683,50.71979 L160.04648,53.557884 L160.98325,51.096996 L164.75974,52.43073 L165.03223,49.531166 L164.75974,52.43073 L163.34935,47.433975 L160.83115,50.39136 M160.98325,51.096996 L164.75974,52.43073 L163.34935,47.433975 L165.03223,49.531166 M164.99602,49.91654 L169.10954,50.89176 L168.5675,48.004444 L167.28351,46.042065 L169.10954,50.89176 L164.99602,49.91654 M164.78836,49.227253 L167.28351,46.042065 L169.10954,50.89176 L168.5675,48.004444 M168.38142,47.720066 L170.7921,44.31197 L172.98882,48.978878 L168.63954,48.38819 L172.98882,48.978878 L172.98882,48.978878 L170.7921,44.31197 M171.53386,45.887817 L173.78871,42.286285 L176.30203,46.739178 L176.30203,46.739178 L171.84578,46.550503 L176.30203,46.739178 L173.78871,42.286285 M174.39142,43.35412 L176.19957,40.014896 L178.9676,44.227814 L174.99341,44.42066 L178.9676,44.227814 L176.19957,40.014896 M176.58151,40.5962 L177.96532,37.553726 L180.91989,41.50662 L177.49757,41.990437 L180.91989,41.50662 L177.96532,37.553726 M178.05022,37.667316 L179.04245,34.963383 L182.11082,38.642597 L179.28802,39.323376 L182.11082,38.642597 L179.04245,34.963383 L178.07584,36.849865 L177.75725,38.011185 L178.07584,36.849865 L179.04245,34.963383 M177.32468,39.588036 L177.32468,39.588036 L177.32468,39.588036 M177.9076,39.6563 L177.9076,39.6563 L177.9076,39.6563 M176.51588,42.12922 L176.51588,42.12922 L176.51588,42.12922 M175.91406,42.063652 L175.91406,42.063652 M174.13242,43.832462 L174.13242,43.832462 M174.19066,44.094498 L174.19066,44.094498 M173.83936,44.373657 L173.83936,44.373657 M173.78207,44.47944 L173.78207,44.47944 M171.8241,46.549583 L171.8241,46.549583 M171.18684,46.442074 L171.18684,46.442074 M171.13773,46.520523 L171.13773,46.520523 M168.09674,48.201912 L168.09674,48.201912 M167.97289,48.29765 L167.97289,48.29765 M167.28351,46.042065 L167.28351,46.042065 M160.62823,36.24709 L160.1033,35.56205 M160.1033,35.56205 L161.70535,35.232285 L161.09068,34.55724 M161.09068,34.55724 L162.49425,34.13269 L158.78116,30.639158 L158.78116,30.639158 L158.50998,31.723045 L158.22672,31.41197 L158.22672,31.41197 L158.22672,31.41197 L157.83563,32.602726 M157.83563,32.602726 L157.46971,32.12519 L156.94423,33.422054 M156.52876,32.76126 L156.52876,32.76126 L155.85489,34.165936 L155.42706,33.304512 L155.93044,34.008457 L156.52876,32.76126 L156.52876,32.76126 L159.28943,37.152115 L158.84938,36.45222 M158.84938,36.45222 L160.62823,36.24709 L157.46971,32.12519 M157.83563,32.602726 L158.22672,31.41197 L161.70535,35.232285 M161.09068,34.55724 L162.49425,34.13269 M161.78424,33.464664 L162.9755,32.975388 L159.11938,29.825785 L159.11938,29.825785 L159.11938,29.825785 L158.95268,30.80054 M158.95268,30.80054 L159.11938,29.825785 L162.9755,32.975388 L161.78424,33.464664 M161.31392,33.657837 L161.31392,33.657837 M159.98592,34.20328 L159.98592,34.20328 M158.49454,35.893196 L158.49454,35.893196 M157.6461,35.175755 L157.6461,35.175755 M157.5566,37.197803 L157.72186,37.925083 L155.42706,33.304512 L154.59048,34.822666 M154.59048,34.822666 L154.19173,33.741577 L153.17638,35.385258 M153.49448,34.8703 L152.85318,34.061684 L154.05963,39.002422 L151.9486,38.404175 M151.9486,38.404175 L152.05511,39.280266 L150.9129,38.786617 M150.9129,38.786617 L150,39.373646 L150,38.392075 L150,39.373646 L147.40302,37.703693 L150,39.373646 M148.79704,38.6001 L147.40302,40.736076 L147.40302,40.736076 L147.40302,40.736076 L148.79704,38.6001 M148.80582,37.87596 L151.44437,34.256958 L151.63849,35.853516 M151.63849,35.853516 L152.85318,34.061684 M154.19173,33.741577 L154.19173,33.741577 L153.49448,34.8703 M154.7712,34.49472 L154.19173,33.741577 M154.19173,33.741577 L155.96417,38.546955 L156.07948,37.817406 L155.96417,38.546955 L155.68556,37.79158 M155.68556,37.79158 L157.72186,37.925083 L157.5566,37.197803 L159.28943,37.152115 L157.3632,37.202904 M157.3632,37.202904 L157.72186,37.925083 M155.96417,38.546955 L153.86322,38.198093 L154.05963,39.002422 L154.45268,38.29597 M153.72202,37.61983 L153.93582,37.406857 L153.5513,36.920715 M152.59698,37.703693 L151.72548,36.569057 M152.59698,37.703693 L151.91663,38.14119 M152.71623,38.621716 L152.05511,39.280266 L151.44437,34.256958 L150.71645,35.25536 M150.71645,35.25536 L150,34.32259 M150,34.32259 L150,36.23803 L150,34.32259 L147.40302,37.703693 M148.80582,37.87596 L152.05511,39.280266 L152.05511,39.280266 M151.48647,39.0345 L152.59698,40.736076 L147.40302,40.736076 M151.48647,39.0345 L152.59698,40.736076 M152.13171,35.125946 L151.44437,34.256958 M151.44437,34.256958 L152.13171,35.125946 M151.44437,34.256958 L151.44437,34.256958 M152.59698,28.81455 L151.3264,26.922962 M151.20296,26.95933 L152.59698,28.81455 L147.40302,28.81455 L148.54076,27.300411 M148.54076,27.300411 L147.40302,28.81455 M147.40302,28.81455 L148.43156,27.283295 M148.18132,27.244064 L148.93456,27.362143 L149.38875,27.133654 M149.38875,27.133654 L148.93456,27.362143 L148.22574,22.705236 L148.54752,24.81931 M148.54752,24.81931 L150,22.624617 L152.59698,26.54864 L150,27.31373 L148.87682,26.982834 M148.82657,26.652626 L149.11034,26.392517 L148.70581,25.85925 M150,25.183918 L150,25.183918 M149.11992,23.95442 L148.22574,22.705236 L147.03247,24.695366 M147.03247,24.695366 L146.49516,22.94511 L145.5223,24.775728 M145.7074,24.427427 L144.96663,23.485487 M144.85089,23.338331 L146.90796,27.742317 L147.01866,27.462172 L147.89534,27.506187 L146.49516,22.94511 L147.38142,24.113394 M146.49516,22.94511 L145.7074,24.427427 L144.85089,23.338331 L144.85089,23.338331 L144.13907,24.888788 M144.13907,24.888788 L143.33342,23.875217 L142.72647,25.456417 M142.71507,25.486116 L142.71507,25.486116 M141.98009,24.54255 L141.52797,26.01708 L141.98009,24.54255 L145.18404,28.46545 L144.21812,28.666895 M144.48994,28.934649 L144.48994,28.934649 L140.82423,25.323895 L140.51085,26.697968 M139.89432,26.200014 L139.70433,27.477715 M139.70433,27.477715 L139.21324,27.149334 L143.52254,30.030827 L142.81506,30.376776 L143.27306,30.630814 L143.27306,30.630814 L138.79776,28.148481 L138.8559,33.324417 L143.27306,30.630814 L138.8559,33.324417 M139.17642,32.15601 L139.17642,32.15601 M139.13425,31.311764 L139.13425,31.311764 M139.50012,31.170593 L139.50012,31.170593 M139.9248,30.41597 L139.9248,30.41597 L139.9248,30.41597 M140.46292,29.4598 L140.46292,29.4598 M138.80977,29.21724 L133.94547,29.662046 L136.56602,25.96881 L138.8056,28.846209 M138.8056,28.846209 L136.56602,25.96881 L135.86765,25.59043 L136.56602,25.96881 L133.94547,29.662046 L135.86765,25.59043 M139.21324,27.149334 L139.13171,28.333714 M138.79776,28.148481 L138.79776,28.148481 M139.89432,26.200014 L143.93153,29.460758 L143.13159,29.769411 M143.13159,29.769411 L143.93153,29.460758 L143.60295,29.195374 M143.60295,29.195374 L144.48994,28.934649 M145.18404,28.46545 L145.18404,28.46545 L144.96286,28.19464 L145.9967,28.064718 L143.33342,23.875217 L144.07143,25.036142 L144.85089,23.338331 M143.33342,23.875217 L144.13907,24.888788 M141.98009,24.54255 L141.98009,24.54255 M140.82423,25.323895 L141.52797,26.01708 M144.96286,28.19464 L145.9967,28.064718 L145.92941,27.7826 L145.9967,28.064718 L145.82022,27.787094 M145.82022,27.787094 L146.90796,27.742317 L146.7713,27.449753 M146.7713,27.449753 L147.89534,27.506187 L147.79636,27.18372 M147.79636,27.18372 L148.93456,27.362143 M148.18132,27.244064 L147.89534,27.506187 L147.89534,27.506187 M147.01866,27.462172 L146.90796,27.742317 M150,27.31373 L150,22.624617 L150,27.31373 L152.59698,26.54864 L150,22.624617 M147.40302,20.397514 L147.40302,20.397514 L148.71025,18.997105 M148.71025,18.997105 L147.40302,20.397514 L152.59698,20.397514 L151.28975,18.997105 M151.28975,18.997105 L152.59698,20.397514 L151.74321,18.997105 M152.59698,18.997105 L147.6365,18.997105 M147.66483,18.979643 L147.40302,18.997105 L147.41083,18.984196 M147.41083,18.984196 L145.86057,19.011986 L143.18973,19.382355 M143.18973,19.382355 L145.86057,19.011986 L145.08466,14.925009 L147.86711,18.976017 L142.9677,19.424036 L138.5795,20.247229 L143.18974,19.38238 M143.18974,19.38238 L140.29034,15.589547 L141.82304,19.571623 L140.29034,15.589547 L142.93962,19.055172 M142.93962,19.055172 L145.08466,14.925009 L145.86057,19.011986 L147.86711,18.976017 M147.86063,18.966583 L150,18.823896 M150,18.823896 L150,14.701664 L152.59698,18.997105 L150,14.701664 M150,14.701664 L150,18.823896 L152.59698,18.997105 M152.59698,15.852832 L150.69598,15.852832 M150.40959,15.3791275 L152.59698,15.3791275 L150,14.27519 L147.40302,15.3791275 L149.59041,15.3791275 M149.30402,15.852832 L147.40302,15.852832 L147.40302,15.852832 L147.67842,15.3791275 M147.40302,15.3791275 L150,14.27519 L150,10.9 L150,14.27519 M150,14.701664 L147.62706,18.626537 M147.62706,18.626537 L147.02696,17.752834 M148.25679,18.997105 L147.40302,20.397514 M145.63348,19.180267 L142.9677,19.424036 M143.05197,19.401457 L143.05197,19.401457 M143.18974,19.38238 L143.18974,19.38238 L141.82304,19.571623 L138.6102,20.234701 M138.68008,20.206186 L135.7351,16.678913 L135.7351,16.678913 L134.19742,21.145838 M134.44914,21.427153 L134.44652,21.741613 L131.53113,18.166285 L130.4259,22.490374 M130.92374,22.956444 L134.44652,21.741613 L130.92374,22.956444 M131.28912,23.298532 L127.78192,20.015036 L131.28912,23.298532 L131.28912,23.298532 L127.9975,24.68526 L131.28912,23.298532 M128.59247,25.12145 L124.57979,22.179646 L124.57979,22.179646 L124.28866,25.929804 M124.21252,26.910618 L124.21252,26.910618 M124.25197,27.319754 L124.25197,27.319754 M123.64114,28.011887 L123.64114,28.011887 L123.64114,28.011887 M124.08585,28.57771 L124.65149,29.29739 M124.65149,29.29739 L124.08585,28.57771 M123.64885,28.841782 L126.42293,27.16548 L126.42293,27.16548 L122.003586,24.606815 L122.04374,28.112413 M121.92458,28.058268 L122.038536,27.658165 M120.116745,27.236778 L120.4469,30.520754 M121.040634,31.685032 L121.040634,31.685032 M120.883224,31.714561 L120.883224,31.714561 M120.59138,31.957932 L120.59138,31.957932 M120.68228,32.370487 L120.68228,32.370487 L120.68228,32.370487 M121.05937,32.098892 L121.05937,32.098892 L121.05937,32.098892 M122.33653,31.179028 L124.83394,29.380293 L120.116745,27.236778 L124.83394,29.380293 L124.83394,29.380293 L122.33653,31.179028 M122.827065,31.34991 L125.82297,30.7879 L124.75905,29.434233 L125.82297,30.7879 M123.86462,31.711351 L118.96574,30.004776 L119.93235,35.104153 L123.86462,31.711351 L118.96574,30.004776 M121.674965,28.934694 L121.674965,28.934694 M123.64885,28.841782 L126.42293,27.16548 L122.003586,24.606815 M123.85761,23.025537 L124.52382,22.90056 M123.85761,23.025537 L124.578186,22.200289 L123.85761,23.025537 L125.202965,18.405287 L125.9519,19.06489 L125.202965,18.405287 M125.9499,19.072668 L130.57774,17.711271 L130.57774,17.711271 L129.59084,17.104095 L125.9499,19.072668 L127.242775,14.054369 L130.57774,17.711271 L129.59084,17.104095 L127.242775,14.054369 L129.59084,17.104095 L125.9499,19.072668 M125.958015,19.070278 L126.72294,19.743961 L127.65142,20.797989 L126.72294,19.743961 L124.5898,22.186987 L126.72294,19.743961 L125.958015,19.070278 M127.78192,20.015036 L127.11175,24.035892 M127.39061,22.362774 L125.35137,22.74532 M124.57979,22.179646 L124.57979,22.179646 L128.59247,25.12145 L125.552086,26.66129 L128.59247,25.12145 M134.05223,21.567583 L134.05223,21.567583 M134.44888,21.458855 L137.98688,20.489029 L138.68008,20.206186 L137.98688,20.489029 L135.7351,16.678913 L137.98688,20.489029 L134.44888,21.458855 M134.44914,21.427153 L131.53113,18.166285 L131.53113,18.166285 L131.53113,18.166285 L134.44652,21.741613 L134.44914,21.427153 M135.49231,21.172832 L140.5812,20.707487 L139.92245,19.9953 M139.92245,19.9953 L140.5812,20.707487 L140.01018,19.978844 M138.87514,18.863035 L138.21638,18.150858 L137.44693,16.708157 L138.96777,18.648752 M138.87514,18.863035 L138.21638,18.150858 L137.56195,18.866966 L138.21638,18.150858 L137.44693,16.708157 L136.85886,18.024853 M137.48068,16.539694 L140.38176,14.303451 L137.48068,16.539694 L137.59526,16.283623 M137.67474,16.268713 L136.10812,15.545509 L132.735,17.195374 L137.67474,16.268713 L134.50987,12.316468 L136.10812,15.545509 L137.67474,16.268713 L137.67474,16.268713 M137.62804,16.21038 L139.57484,11.85948 L140.38176,14.303451 L139.57484,11.85948 L139.57484,11.85948 L140.96545,13.788435 M140.63008,14.500322 L140.38176,14.303451 L140.63008,14.500322 M140.29034,15.589547 L138.42603,19.901888 M137.94714,20.421797 L137.94714,20.421797 L137.94714,20.421797 M137.48068,16.539694 L139.97832,16.311302 M139.94522,15.954004 L140.17805,15.849286 L139.94522,15.954004 L139.94522,15.954004 L140.1405,15.936147 M139.94522,15.954004 L142.1584,11.25631 L142.1584,11.25631 L144.91472,15.252208 M144.84448,15.387448 L142.96748,14.594737 L140.40936,15.745251 M140.40936,15.745251 L142.96748,14.594737 L142.1584,11.25631 L142.96748,14.594737 L144.84448,15.387448 M144.77985,15.5119095 L140.5282,15.900694 M140.78564,16.237476 L142.61069,16.070587 L142.2032,15.747526 L142.61069,16.070587 L142.367,15.732548 M145.08466,14.925009 L142.93962,19.055172 M143.18974,19.38238 L141.82304,19.571623 M142.73712,19.445053 L142.73712,19.445053 M147.40302,15.852832 L148.02232,15.3791275 L147.40302,15.852832 M147.40302,15.3791275 L150,10.9 L152.59698,15.3791275 L150,10.9 M151.97768,15.3791275 L152.59698,15.852832 L151.97768,15.3791275 M152.32158,15.3791275 L152.59698,15.852832 L152.32158,15.3791275 M151.20296,26.95933 L152.59698,28.81455 M150,26.82616 L150,26.82616 L150,26.82616 M158.78116,30.639158 L158.78116,30.639158 M138.1593,41.156097 L135.50279,37.415623 L134.906,38.1181 L135.50279,37.415623 L133.02928,41.625202 L138.1593,41.156097 L135.50279,37.415623 L133.02928,41.625202 L134.906,38.1181 M135.02483,38.229057 L135.02483,38.229057 L135.02483,38.229057 M124.013176,42.87492 L119.073425,43.801582 L121.362564,39.375595 L124.013176,42.87492 L121.362564,39.375595 L119.073425,43.801582 L120.183685,40.158756 L121.362564,39.375595 L120.183685,40.158756 L120.183685,40.158756 L120.183685,40.158756 M119.93235,35.104153 L123.86462,31.711351 M119.93235,35.104153 L119.93235,35.104153 M113.16578,33.560158 L108.53793,34.921555 L108.98631,30.633165 L111.0131,30.762346 L108.53793,34.921555 L111.0131,30.762346 L113.16578,33.560158 L111.0131,30.762346 L108.98631,30.633165 M110.471146,31.673035 L110.471146,31.673035 L110.471146,31.673035 M109.944756,28.446762 L109.944756,28.446762 L105.336426,26.702003 L106.16134,31.808088 L109.944756,28.446762 L106.16134,31.808088 L106.16134,31.808088 L106.16134,31.808088 M107.24521,32.209522 L102.326294,30.897667 L107.24521,32.209522 L103.71297,35.853745 L107.24521,32.209522 M105.63746,28.565336 L102.87121,29.725695 L105.35843,26.409182 L102.87121,29.725695 L102.83323,24.985895 L103.0158,25.044956 L102.83323,24.985895 L102.83323,24.985895 L102.83323,24.985895 M102.876785,22.65512 L106.52412,24.26351 L103.1687,27.673422 L106.52412,24.26351 L106.841385,25.552998 L103.1687,27.673422 L102.876785,22.65512 L106.52412,24.26351 L106.841385,25.552998 M105.856705,26.121502 L106.54158,27.158287 L105.856705,26.121502 M105.336426,26.702003 L109.944756,28.446762 M109.73938,27.986748 L109.44633,22.829865 L109.44633,22.829865 L113.6306,24.974146 L113.6306,24.974146 L109.44633,22.829865 L109.44633,22.829865 M110.52123,23.380714 L110.82864,18.73403 L113.860504,20.64591 L110.76313,23.504675 L113.860504,20.64591 L114.4493,21.58853 L113.860504,20.64591 L110.82864,18.73403 M114.55479,19.376593 L118.21198,21.877178 L114.30876,24.535612 L118.21198,21.877178 L117.981445,22.415188 L114.30876,24.535612 L114.55479,19.376593 L118.21198,21.877178 L117.981445,22.415188 L117.981445,22.415188 M117.73844,22.1997 L117.73844,22.1997 L117.73844,22.1997 M116.52013,23.25888 L117.53559,24.537424 L117.53559,24.537424 L112.907745,25.89882 L114.32657,24.162195 L112.907745,25.89882 L112.96528,25.48924 M112.973,25.43429 L112.973,25.43429 M113.07745,24.69068 L113.37938,22.541348 M114.42478,22.102835 L110.907036,23.57842 M113.6306,24.974146 L109.73938,27.986748 L113.6306,24.974146 M114.30876,24.535612 L114.30876,24.535612 M116.52013,23.25888 L117.53559,24.537424 M119.75699,21.539663 L120.536026,16.42722 L123.57609,19.232119 L123.95899,19.777052 L123.95899,19.777052 L123.57609,19.232119 L120.536026,16.42722 M119.74503,15.579404 L122.08676,17.735453 L122.88375,18.593336 M122.88375,18.593336 L122.08676,17.735453 L122.01771,17.794287 L122.08676,17.735453 L119.74503,15.579404 L118.79753,20.537758 L120.07558,19.44891 L118.79753,20.537758 L119.96185,20.195244 M119.75699,21.539663 L123.57609,19.232119 L119.75699,21.539663 L123.95899,19.777052 M123.425385,19.176361 L123.425385,19.176361 L123.425385,19.176361 M122.01427,17.797218 L122.01427,17.797218 L122.01427,17.797218 M128.66219,15.610794 L129.4064,13.268924 L131.00034,15.603805 L132.7544,17.142033 L131.00034,15.603805 L129.64557,16.689117 L131.00034,15.603805 L129.4064,13.268924 L129.4064,13.268924 L129.4064,13.268924 L132.75807,17.131943 M132.80109,17.182974 L132.80635,17.1876 L130.49551,17.621096 M132.735,17.195374 L134.50987,12.316468 L136.10812,15.545509 L132.735,17.195374 L132.735,17.195374 M132.80109,17.182974 L132.80635,17.1876 L132.80217,17.182772 M107.0165,27.98687 L107.0165,27.98687 M105.18657,26.638342 L105.18657,26.638342 L105.18657,26.638342 M105.91881,24.87865 L105.91881,24.87865 L105.91881,24.87865 M100.258255,28.499174 L96.08525,27.24613 L96.99378,32.209885 L96.99378,32.209885 L100.258255,28.499174 L100.046715,29.783857 L100.258255,28.499174 L96.08525,27.24613 M96.651054,30.33739 L93.258286,29.707335 L93.258286,29.707335 L93.77081,32.979656 M93.97609,34.29031 L93.97609,34.29031 M93.99514,34.41193 L93.99514,34.41193 M94.482056,34.576305 L95.21719,33.248608 L90.621284,32.39401 L90.621284,32.39401 L90.621284,32.39401 L95.21719,33.248608 L92.12405,37.2482 L92.12405,37.2482 L94.482056,34.576305 L95.21719,33.248608 L92.12405,37.2482 L92.12405,37.2482 L90.621284,32.39401 M89.05985,35.542477 L85.08051,35.23543 L86.49809,39.842133 L87.19671,39.286976 M87.04065,38.931503 L86.49809,39.842133 L87.04065,38.931503 M87.383675,38.355766 L87.383675,38.355766 M87.56383,38.05341 L89.05985,35.542477 L89.551025,37.416103 L89.551025,37.416103 L89.05985,35.542477 L87.56383,38.05341 M87.98719,38.658813 L87.98719,38.658813 M88.63306,38.145576 L89.551025,37.416103 M89.05985,35.542477 L85.08051,35.23543 M86.619415,37.972 L91.52507,38.394863 L88.679405,42.664307 L86.619415,37.972 L91.52507,38.394863 L88.679405,42.664307 M88.34941,41.91263 L87.478325,43.822334 L88.34941,41.91263 M89.89566,40.83952 L90.86168,42.336205 L88.2964,43.81727 M89.27279,43.811226 L84.178185,43.84276 L89.27279,43.811226 L86.74469,48.32484 L86.74469,48.32484 L84.178185,43.84276 M82.92268,43.2107 L80.564674,45.882595 L78.501274,41.434063 L78.501274,41.434063 L82.883896,41.361153 L80.564674,45.882595 L82.883896,41.361153 L82.92268,43.2107 L82.883896,41.361153 L78.501274,41.434063 L78.501274,41.434063 M80.524635,45.79626 L76.91307,46.4486 L80.524635,45.79626 M80.52483,45.796223 L80.52483,45.796223 M80.524734,45.796482 L78.71103,50.549923 L81.76396,48.123898 L80.568504,45.878258 L81.76396,48.123898 M80.524734,45.796482 L78.71103,50.549923 L78.05329,49.049557 M77.946014,49.53261 L76.34099,52.38458 L78.360565,47.66599 L73.68256,48.1506 L78.360565,47.66599 L77.946014,49.53261 L78.360565,47.66599 L76.34099,52.38458 L73.68256,48.1506 M76.91307,46.4486 L77.48645,47.756542 M75.60123,54.30174 L73.93103,59.187984 L70.74305,55.21966 L75.60123,54.30174 L73.93103,59.187984 M75.026215,58.81228 L71.93987,60.395565 L71.93987,60.395565 L75.026215,58.81228 L73.97292,63.86528 L77.025856,61.439255 L77.025856,61.439255 L75.026215,58.81228 L77.025856,61.439255 M74.583115,60.93798 L74.583115,60.93798 L74.583115,60.93798 M75.026215,58.81228 L73.97292,63.86528 L71.93987,60.395565 L71.93987,60.395565 M71.98844,57.333908 L71.98844,57.333908 L72.113106,56.92508 L71.98844,57.333908 L69.5061,53.427074 L73.4839,52.42984 L74.30208,54.547207 L73.4839,52.42984 L69.5061,53.427074 L69.5061,53.427074 L69.5061,53.427074 M70.74305,55.21966 L75.60123,54.30174 M74.743546,56.226173 L74.743546,56.226173 M72.748726,54.840702 L73.4839,52.42984 L72.748726,54.840702 M72.91461,54.296707 L72.91461,54.296707 L72.91461,54.296707 M72.22563,57.065144 L71.98844,57.333908 L71.98844,57.333908 M68.32705,59.617706 L67.18675,64.64154 L68.32705,59.617706 L64.08116,60.988613 L67.18675,64.64154 L68.79177,61.789574 L68.79177,61.789574 L68.32705,59.617706 L64.08116,60.988613 M67.86967,61.632786 L67.86967,61.632786 L67.86967,61.632786 M68.79177,61.789574 L68.32705,59.617706 M67.428024,65.97092 L69.12816,68.42978 L67.428024,65.97092 L66.77015,71.10167 L69.12816,68.42978 M67.428024,65.97092 L65.182,67.211815 L67.428024,65.97092 L66.77015,71.10167 L65.235405,69.28053 M65.23671,69.33106 L65.18125,67.18283 L65.23671,69.33106 L64.424194,72.29288 L60.771824,68.94702 L65.18125,67.18283 L64.424194,72.29288 L65.18125,67.18283 L60.771824,68.94702 M61.86303,73.72767 L61.61677,78.8995 L58.234818,75.92495 L61.86303,73.72767 L63.221794,76.04754 L63.221794,76.04754 L61.86303,73.72767 L58.234818,75.92495 M61.86303,73.72767 L61.61677,78.8995 L63.221794,76.04754 M64.980934,81.39257 L65.13788,86.58415 L67.49589,83.91226 L64.980934,81.39257 L62.309048,84.06921 L64.980934,81.39257 L67.49589,83.91226 M65.05933,83.985985 L65.05933,83.985985 L65.05933,83.985985 M64.980934,81.39257 L65.13788,86.58415 L62.309048,84.06921 M59.452194,84.10496 L58.468258,81.89153 L54.7003,84.42489 L58.468258,81.89153 L59.452194,84.10496 L58.63968,87.06677 L58.468258,81.89153 L58.63968,87.06677 L58.63968,87.06677 L54.7003,84.42489 M58.63968,87.06677 L58.63968,87.06677 M59.25102,89.379196 L59.874493,94.535324 L56.399055,92.30682 L56.399055,92.30682 L59.25102,89.379196 L61.47951,91.68336 L61.47951,91.68336 L59.874493,94.535324 L59.25102,89.379196 L56.399055,92.30682 L56.399055,92.30682 M59.25102,89.379196 L61.47951,91.68336 M66.249596,98.0208 L69.520966,100.432816 L67.162964,103.104706 L67.162964,103.104706 L66.249596,98.0208 L69.520966,100.432816 L69.520966,100.432816 M67.162964,103.104706 L64.42171,101.37911 L66.249596,98.0208 L67.162964,103.104706 M64.42171,101.37911 L66.249596,98.0208 M72.29654,93.95985 L73.95622,90.759995 L77.38252,93.47635 L77.38252,93.47635 L74.32959,95.902374 L72.29654,93.95985 L73.95622,90.759995 L74.32959,95.902374 L73.95622,90.759995 L77.38252,93.47635 M83.359474,89.43598 L83.5353,84.28463 L87.03216,87.31556 L83.359474,89.43598 L83.359474,89.43598 L82.08469,87.343155 L82.08469,87.343155 L83.5353,84.28463 L83.359474,89.43598 M83.43116,87.33564 L83.43116,87.33564 M82.08469,87.343155 L83.5353,84.28463 L87.03216,87.31556 M82.08469,87.343155 L82.08469,87.343155 M75.543785,76.78023 L72.49085,79.20625 L70.37828,76.466774 L70.37828,76.466774 L72.804306,74.02178 L72.49085,79.20625 L72.804306,74.02178 L70.37828,76.466774 L70.37828,76.466774 M72.648155,76.604515 L72.648155,76.604515 L72.648155,76.604515 M72.804306,74.02178 L75.543785,76.78023 L75.543785,76.78023 L72.804306,74.02178 M80.408066,69.68674 L82.52849,67.448326 L81.75236,72.58329 L85.42504,70.46287 L82.52849,67.448326 L81.75236,72.58329 L80.408066,69.68674 L82.52849,67.448326 L85.42504,70.46287 M82.149445,69.95613 L82.149445,69.95613 L82.149445,69.95613 M92.151436,63.896038 L93.91405,61.834064 L92.69435,66.87834 L92.69435,66.87834 L92.69435,66.87834 L96.896355,65.11573 L93.91405,61.834064 L92.69435,66.87834 L92.151436,63.896038 L93.91405,61.834064 L96.896355,65.11573 M93.3415,64.20195 L93.3415,64.20195 L93.3415,64.20195 M86.72042,55.248096 L84.470505,52.42803 L83.04774,57.36852 L86.72042,55.248096 L84.470505,52.42803 L81.77295,53.7485 L83.04774,57.36852 L84.470505,52.42803 L81.77295,53.7485 M83.904205,54.39449 L83.904205,54.39449 L83.904205,54.39449 M83.04774,57.36852 L83.04774,57.36852 M86.74469,48.32484 L89.27279,43.811226 M90.86168,42.336205 L89.89566,40.83952 M89.79453,40.68284 L89.79453,40.68284 L89.79453,40.68284 M90.28443,39.81234 L90.28443,39.81234 M87.5404,40.06983 L86.11968,40.22502 L86.11968,40.22502 L87.5404,40.06983 M86.11968,40.22502 L87.02941,43.82511 M86.11968,40.22502 L86.11968,40.22502 M93.285995,48.071373 L93.77114,51.771362 L95.52836,46.97536 L97.97314,50.00875 L93.77114,51.771362 L95.52836,46.97536 L97.97314,50.00875 M95.52836,46.97536 L93.285995,48.071373 L95.52836,46.97536 M97.21358,39.20406 L99.52334,34.827435 L97.21358,39.20406 L101.30182,37.489166 M101.14406,37.06637 L99.52334,34.827435 L96.89924,34.90958 L99.52334,34.827435 L101.14406,37.06637 M100.49005,35.31354 L105.59842,36.169773 L105.59842,36.169773 L102.30515,40.178215 L105.59842,36.169773 L100.49005,35.31354 L102.30515,40.178215 L102.30515,40.178215 L102.30515,40.178215 M103.66276,35.90554 L103.66276,35.90554 M103.645935,35.84251 L102.326294,30.897667 M100.046715,29.783857 L96.99378,32.209885 L100.258255,28.499174 M99.459175,29.40748 L99.459175,29.40748 L99.459175,29.40748 M96.651054,30.33739 L93.258286,29.707335 L93.258286,29.707335 M96.671524,30.449232 L94.82952,33.17652 M94.82952,33.17652 L96.671524,30.449232 M97.45316,31.84483 L97.66782,32.291504 L97.45316,31.84483 M97.66782,32.291504 L94.84463,33.921474 M96.89924,34.90958 L97.21358,39.20406 M98.89077,36.02604 L98.89077,36.02604 L98.89077,36.02604 M106.19553,43.50397 L107.927475,42.588543 L110.506935,45.850227 L110.506935,45.850227 L105.87908,47.211624 L106.19553,43.50397 L107.927475,42.588543 L105.87908,47.211624 L107.927475,42.588543 L110.506935,45.850227 M107.26419,44.08553 L107.26419,44.08553 L107.26419,44.08553 M105.87908,47.211624 L105.87908,47.211624 M106.680626,57.31724 L105.04739,62.231888 L109.67525,60.87049 L106.680626,57.31724 L105.04739,62.231888 L105.31923,59.237263 L106.680626,57.31724 L105.31923,59.237263 M106.680626,57.31724 L109.67525,60.87049 M118.507324,58.75833 L123.447075,57.831673 L120.51387,54.00907 L123.447075,57.831673 M119.58721,55.82513 L119.58721,55.82513 L120.51387,54.00907 L119.58721,55.82513 L119.58721,55.82513 L118.507324,58.75833 L120.51387,54.00907 L118.507324,58.75833 M120.95386,71.04592 L119.209656,75.93114 L124.14941,75.00448 L120.95386,71.04592 L119.209656,75.93114 M120.319916,73.8155 L120.319916,73.8155 M120.95386,71.04592 L124.14941,75.00448 L124.14941,75.00448 M133.09825,73.764084 L135.2959,69.057976 L138.22827,73.294975 L135.2959,69.057976 L133.09825,73.764084 L138.22827,73.294975 M134.97498,71.78417 L134.97498,71.78417 M132.7427,56.54321 L137.87273,56.074104 L135.07317,51.991016 L135.07317,51.991016 L132.7427,56.54321 L135.07317,51.991016 L137.87273,56.074104 M151.20296,53.317688 L152.59698,55.641064 L151.20296,53.317688 M178.3846,61.53118 L179.16364,62.780014 L179.66203,66.39805 L178.3846,61.53118 M178.75714,62.950523 L178.75714,62.950523 M189.06804,55.36309 L189.06804,55.36309 L189.06804,55.36309 M193.09929,51.796978 L197.99419,51.83033 L193.09929,51.796978 M193.02737,51.6328 L193.02737,51.6328 L194.96382,56.054195 L193.02737,51.6328 M194.83546,49.15173 L194.83546,49.15173 M195.0686,47.79515 L195.78642,47.733448 L195.0686,47.79515 L195.88112,44.833336 L195.0686,47.79515 L197.69621,43.336735 L195.88112,44.833336 L197.69621,43.336735 L199.84277,47.38477 L195.98831,47.716095 L199.84277,47.38477 L197.69621,43.336735 M195.92725,47.59084 L197.99419,51.83033 M175.85922,84.03666 L180.0594,86.90048 L175.85922,84.03666 M139.21039,92.06608 L136.16127,87.87059 L134.08038,92.53519 L134.08038,92.53519 L134.08038,92.53519 L136.16127,87.87059 L139.21039,92.06608 L134.08038,92.53519 M136.00256,91.451195 L136.00256,91.451195 M126.089485,93.6428 L122.66331,89.74154 L122.66331,89.74154 L121.149734,94.56946 L126.089485,93.6428 L126.089485,93.6428 L122.66331,89.74154 L121.149734,94.56946 M122.34979,93.343605 L122.34979,93.343605 M113.55733,96.385155 L109.83846,92.808556 L108.929474,97.74655 L109.83846,92.808556 L113.55733,96.385155 L108.929474,97.74655 M109.37785,96.44579 L109.37785,96.44579 M101.922516,100.22562 L98.002525,96.99612 L101.922516,100.22562 L97.72051,101.98823 L97.40617,100.68138 L98.002525,96.99612 L97.72051,101.98823 L98.002525,96.99612 L97.40617,100.68138 M91.47153,105.069626 L87.44694,102.20112 L87.79884,107.190056 L91.47153,105.069626 L87.44694,102.20112 L86.72953,105.946075 L86.72953,105.946075 L87.44694,102.20112 L87.79884,107.190056 L86.72953,105.946075 L86.72953,105.946075 M82.4617,110.797905 L79.40877,113.22394 L78.43162,108.29539 L79.40877,113.22394 M79.40877,113.22394 L77.61081,112.11024 L78.43162,108.29539 L82.4617,110.797905 L78.43162,108.29539 L77.61081,112.11024 M75.1149,117.26941 L71.17854,115.12887 L70.27455,119.022095 L70.27455,119.022095 L71.17854,115.12887 L75.1149,117.26941 L72.75689,119.9413 L71.17854,115.12887 L72.75689,119.9413 L70.27455,119.022095 L70.27455,119.022095 M65.86632,122.5333 L64.901405,126.511444 L64.901405,126.511444 L64.901405,126.511444 L68.00699,127.17674 L69.612015,124.324776 L65.86632,122.5333 L68.00699,127.17674 L65.86632,122.5333 L64.901405,126.511444 M67.2069,125.44123 L67.2069,125.44123 M68.00699,127.17674 L68.00699,127.17674 M69.612015,124.324776 L65.86632,122.5333 M59.075115,118.99407 L59.887627,116.03226 L57.161957,114.168625 L59.075115,118.99407 L55.135735,117.87938 L57.161957,114.168625 L55.135735,117.87938 L55.135735,117.87938 M58.16614,116.701416 L58.16614,116.701416 M59.887627,116.03226 L57.161957,114.168625 L59.075115,118.99407 M62.036057,110.86564 L58.654102,109.418274 L60.605175,105.888245 L58.654102,109.418274 L58.654102,109.418274 M61.39782,108.64549 L61.39782,108.64549 M62.036057,110.86564 L60.605175,105.888245 L63.641075,108.01367 L62.036057,110.86564 L60.605175,105.888245 L63.641075,108.01367 M56.83029,102.86397 L52.793827,100.97681 L55.755642,97.785 L57.642807,99.90215 L56.83029,102.86397 L55.755642,97.785 L57.642807,99.90215 M57.642807,99.90215 L56.83029,102.86397 L55.755642,97.785 L52.793827,100.97681 M56.268074,100.20683 L56.268074,100.20683 L56.268074,100.20683 M62.62574,130.32635 L65.27603,134.7521 L61.62366,134.39388 L62.62574,130.32635 L65.27603,134.7521 L66.08855,131.79028 L62.62574,130.32635 L61.62366,134.39388 M62.62574,130.32635 L66.08855,131.79028 M91.0051,147.80544 L93.528076,151.63759 L91.0051,147.80544 M97.360085,147.21591 L96.43375,142.69083 L98.268616,146.721 L97.360085,147.21591 M98.20897,146.59 L98.20897,146.59 M109.173706,158.04764 L111.225006,161.43253 L110.93195,162.63692 L109.173706,158.04764 L114.27794,159.0065 L110.93195,162.63692 L109.173706,158.04764 L114.27794,159.0065 L114.27794,159.0065 L111.225006,161.43253 L109.173706,158.04764 M110.15554,162.44012 L106.97262,166.3672 L106.95059,166.31691 L106.97262,166.3672 L110.15554,162.44012 L110.15554,162.44012 L105.03618,161.9458 L106.90071,166.20302 L105.03618,161.9458 L107.79753,165.11201 L106.97262,166.3672 M106.94464,166.30331 L106.94464,166.30331 L106.94464,166.30331 M107.014244,166.2038 L102.00581,166.16968 L105.409225,169.05576 L107.014244,166.2038 L102.00581,166.16968 L104.011696,170.2839 L102.00581,166.16968 L105.409225,169.05576 L104.213585,170.26656 M104.9314,170.20485 L104.11888,173.16666 L100.15722,170.61523 L102.30378,174.66327 L104.11888,173.16666 L100.15722,170.61523 L104.9314,170.20485 L100.15722,170.61523 L102.30378,174.66327 M105.16454,168.84827 L105.16454,168.84827 M107.79753,165.11201 L107.79753,165.11201 L110.15554,162.44012 L105.03618,161.9458 L107.79753,165.11201 M110.93195,162.63692 L114.27794,159.0065 M115.607254,158.1079 L114.31651,154.57115 L119.27994,155.98747 L115.85328,159.31015 L119.27994,155.98747 L115.607254,158.1079 L115.85328,159.31015 L114.31651,154.57115 L119.27994,155.98747 M120.836365,155.21999 L125.03836,153.45738 L121.6154,156.46883 L120.836365,155.21999 L120.33796,151.60194 L125.03836,153.45738 L120.33796,151.60194 L120.836365,155.21999 L121.6154,156.46883 L125.03836,153.45738 M126.78358,152.83992 L127.08979,149.21315 L131.41142,151.47852 L131.41142,151.47852 L128.07646,154.18289 L126.78358,152.83992 L128.07646,154.18289 L131.41142,151.47852 L127.08979,149.21315 L126.78358,152.83992 L131.41142,151.47852 M133.30246,151.02629 L135.07733,152.50867 L138.2422,150.09962 L134.40575,147.46356 L133.30246,151.02629 L135.07733,152.50867 L138.2422,150.09962 L133.30246,151.02629 L134.40575,147.46356 L138.2422,150.09962 L138.2422,150.09962 M140.23248,149.82376 L145.3625,149.35466 L142.10568,146.39629 L140.23248,149.82376 L142.44566,151.48734 L145.3625,149.35466 L142.10568,146.39629 L140.23248,149.82376 L142.44566,151.48734 L145.3625,149.35466 M147.40302,149.26193 L149.79851,149.26193 M150,149.61015 L150,146.89854 L147.40302,145.1219 L150,149.61015 L147.40302,145.1219 L150,146.89854 L152.59698,145.1219 L150,149.61015 L150,146.89854 L152.59698,145.1219 L150,149.61015 M150.20149,149.26193 L152.59698,149.26193 L151.20296,147.53114 M151.20296,147.53114 L152.59698,149.26193 L150,151.14409 L147.40302,149.26193 L148.79704,147.53114 M148.79704,147.53114 L147.40302,149.26193 L150,151.14409 L152.59698,149.26193 M152.59698,145.1219 L147.40302,145.1219 L152.59698,145.1219 M161.77173,144.70502 L166.90175,144.23592 L165.02502,146.21584 L164.7041,148.94203 L166.90175,144.23592 L161.77173,144.70502 L161.77173,144.70502 L164.7041,148.94203 L165.02502,146.21584 L166.90175,144.23592 L164.7041,148.94203 L161.77173,144.70502 L165.02502,146.21584 M175.85059,142.99553 L179.04614,146.95409 L180.79034,142.06886 L179.68008,144.1845 L179.04614,146.95409 L180.79034,142.06886 L175.85059,142.99553 L179.68008,144.1845 L180.79034,142.06886 L175.85059,142.99553 L175.85059,142.99553 L179.04614,146.95409 L179.68008,144.1845 M189.29292,140.0355 L192.67296,143.69528 L189.29292,140.0355 L193.60432,140.85457 L193.92078,138.6741 L193.92078,138.6741 L189.29292,140.0355 L193.92078,138.6741 L193.60432,140.85457 L192.67296,143.69528 L193.60432,140.85457 M201.76773,135.89784 L205.24904,139.24585 L206.45486,136.30803 L201.76773,135.89784 L201.76773,135.89784 L205.96973,134.13524 L205.96973,134.13524 L201.76773,135.89784 L205.24904,139.24585 L206.45486,136.30803 L205.96973,134.13524 L206.45486,136.30803 M212.96783,130.68445 L216.64052,128.56401 L217.91531,130.65685 L216.4647,133.71536 L217.91531,130.65685 L216.64052,128.56401 L212.96783,130.68445 L212.96783,130.68445 L216.4647,133.71536 L212.96783,130.68445 L217.91531,130.65685 M216.56883,130.66435 L216.56883,130.66435 M222.61748,124.52365 L226.04378,127.240005 L227.70346,124.04015 L222.61748,124.52365 L226.04378,127.240005 L227.70346,124.04015 L225.67041,122.097626 L222.61748,124.52365 L225.67041,122.097626 L227.70346,124.04015 M225.82442,124.21879 L225.82442,124.21879 M226.04378,127.240005 L226.04378,127.240005 M232.50412,134.08774 L234.86212,131.41585 L237.69095,133.9308 L235.01906,136.60744 L232.50412,134.08774 L235.01906,136.60744 L235.01906,136.60744 L237.69095,133.9308 L232.50412,134.08774 L234.86212,131.41585 L237.69095,133.9308 L232.50412,134.08774 M234.94066,134.014 L234.94066,134.014 M240.5478,133.89505 L245.2997,133.5751 L241.36032,130.93323 L245.2997,133.5751 L241.53174,136.10846 L240.5478,133.89505 L245.2997,133.5751 L241.53174,136.10846 L240.5478,133.89505 L241.36032,130.93323 L240.5478,133.89505 M241.4564,133.83388 L241.4564,133.83388 M240.74898,128.6208 L243.60095,125.69318 L238.5205,126.31664 L240.74898,128.6208 L238.5205,126.31664 L243.60095,125.69318 L240.1255,123.464676 L238.5205,126.31664 L240.1255,123.464676 L243.60095,125.69318 L240.74898,128.6208 M244.24435,120.215 L247.20618,117.02319 L243.16971,115.13603 L247.20618,117.02319 L242.3572,118.09785 L243.16971,115.13603 L242.3572,118.09785 L244.24435,120.215 L242.3572,118.09785 L247.20618,117.02319 L244.24435,120.215 M235.5783,116.62089 L233.75041,119.9792 L230.47903,117.567184 L232.83704,114.895294 L232.83704,114.895294 L235.5783,116.62089 L232.83704,114.895294 L230.47903,117.567184 L233.75041,119.9792 L235.5783,116.62089 L230.47903,117.567184 M236.35892,109.98633 L239.39482,112.111755 L236.35892,109.98633 L237.96394,107.13436 L241.3459,108.581726 L239.39482,112.111755 L241.3459,108.581726 L236.35892,109.98633 L236.35892,109.98633 M236.35892,109.98633 L237.96394,107.13436 L241.3459,108.581726 M238.60219,109.35451 L238.60219,109.35451 M242.83804,103.831375 L244.86427,100.12062 L240.92488,99.00593 L240.11237,101.96774 L240.11237,101.96774 L244.86427,100.12062 L242.83804,103.831375 L240.11237,101.96774 L242.83804,103.831375 M241.83386,101.298584 L241.83386,101.298584 M240.11237,101.96774 L240.92488,99.00593 L244.86427,100.12062 M238.38322,139.1005 L236.77821,141.95247 L241.76518,142.07504 L238.38322,139.1005 L236.77821,141.95247 L238.13698,144.27234 L241.76518,142.07504 L238.38322,139.1005 M236.77821,141.95247 L238.13698,144.27234 L241.76518,142.07504 L236.77821,141.95247 M235.5758,145.70712 L239.22818,149.05298 L235.5758,145.70712 L234.76329,148.66893 L234.76459,148.71947 L234.76329,148.66893 L239.22818,149.05298 L234.76329,148.66893 L235.5758,145.70712 M233.22984,146.89833 L235.9711,150.15111 L230.87184,149.57022 L232.57198,152.02908 L235.9711,150.15111 L230.87184,149.57022 L233.22984,146.89833 L233.22984,146.89833 L230.87184,149.57022 L232.57198,152.02908 L235.9711,150.15111 L233.22984,146.89833 M235.13231,148.70068 L235.13231,148.70068 M234.81801,150.78818 L234.81876,150.81717 L234.81801,150.78818 M234.81876,150.81717 L239.22818,149.05298 L234.81876,150.81717 M232.81325,153.35846 L231.20824,156.21042 L235.91884,157.01138 L232.81325,153.35846 L235.91884,157.01138 L231.67296,158.3823 L231.20824,156.21042 L231.67296,158.3823 L235.91884,157.01138 L231.20824,156.21042 L232.81325,153.35846 L232.81325,153.35846 M228.06012,157.60443 L222.97414,156.56075 L226.02707,154.13472 L228.06012,157.60443 L228.06012,157.60443 L224.97379,159.18771 L222.97414,156.56075 L226.02707,154.13472 L228.06012,157.60443 L224.97379,159.18771 L222.97414,156.56075 L228.06012,157.60443 M226.06897,158.81201 L225.25645,161.77383 L224.39877,163.69826 L226.06897,158.81201 L225.25645,161.77383 L224.39877,163.69826 L225.69792,163.45279 L224.39877,163.69826 L226.06897,158.81201 L227.77437,160.93486 L226.06897,158.81201 M225.41689,157.06201 L225.41689,157.06201 M228.01157,160.66609 L225.65355,163.33798 L226.5161,165.57016 L225.65355,163.33798 L230.4939,164.57292 L228.01157,160.66609 L225.65355,163.33798 L230.4939,164.57292 L226.5161,165.57016 L230.4939,164.57292 L228.01157,160.66609 M226.711,162.13979 L225.25645,161.77383 L226.711,162.13979 M227.25128,163.1593 L227.25128,163.1593 M223.65901,165.61542 L223.65901,165.61542 L222.05399,168.46739 L223.65901,165.61542 L226.31743,169.8494 L222.51355,170.24345 M222.51355,170.24345 L226.31743,169.8494 L223.65901,165.61542 M221.28897,167.45007 L223.08693,171.5514 L218.23604,169.8761 L221.28897,167.45007 L223.08693,171.5514 L219.47516,172.20378 L223.08693,171.5514 L218.23604,169.8761 L219.47516,172.20378 L218.23604,169.8761 L221.28897,167.45007 M222.05399,168.46739 L221.9467,168.95044 L222.05399,168.46739 L226.31743,169.8494 L222.05399,168.46739 M222.39153,168.5768 L222.39153,168.5768 M221.63943,170.33401 L221.63943,170.33401 M219.43149,172.12175 L217.07732,174.78929 L221.49873,176.56593 L217.1161,176.63884 L221.49873,176.56593 L217.07732,174.78929 L217.1161,176.63884 L217.07732,174.78929 L219.43149,172.12175 M219.47537,172.20374 L221.49873,176.56593 L219.47537,172.20374 M215.82182,174.15724 L213.25531,169.67516 L210.7272,174.18878 L211.7036,174.18272 L210.7272,174.18878 L213.25531,169.67516 L212.4428,172.63698 L215.82182,174.15724 L213.25531,169.67516 L212.4428,172.63698 L210.7272,174.18878 L212.4428,172.63698 L215.82182,174.15724 L212.97058,174.1749 M212.97058,174.1749 L215.82182,174.15724 M212.811,173.54337 L213.88033,177.77498 L210.72353,178.1198 L213.88033,177.77498 L209.13832,175.6638 L210.72353,178.1198 L209.13832,175.6638 L212.811,173.54337 L209.13832,175.6638 L213.88033,177.77498 L212.811,173.54337 M212.52168,174.17767 L212.52168,174.17767 L212.52168,174.17767 M211.38712,176.66498 L211.38712,176.66498 M210.20546,177.31717 L209.71558,178.18767 L212.0128,179.34119 L209.71558,178.18767 L208.47493,179.60513 L210.10434,177.16048 L208.47493,179.60513 L208.47493,179.60513 L211.36694,179.85443 L208.47493,179.60513 L209.71558,178.18767 L210.20546,177.31717 M212.45961,177.93016 L212.8033,178.71303 L212.45961,177.93016 M213.5019,178.15787 L210.44897,180.5839 L210.94014,182.45752 L210.94014,182.45752 L214.91948,182.76457 L213.5019,178.15787 L210.44897,180.5839 L214.91948,182.76457 L210.94014,182.45752 L210.44897,180.5839 L214.91948,182.76457 L213.5019,178.15787 M211.69449,181.19144 L211.69449,181.19144 M207.87596,180.7518 L207.87596,180.7518 L209.37872,185.60599 L206.22919,185.02034 L209.37872,185.60599 L206.02391,183.70969 L209.37872,185.60599 L207.87596,180.7518 L205.51794,183.42369 L205.90785,183.64409 L205.51794,183.42369 L205.15536,184.07852 L205.51794,183.42369 L207.87596,180.7518 M206.00487,183.58807 L206.00487,183.58807 L206.74171,188.29266 L202.33218,185.7085 L203.26364,187.64677 L206.74171,188.29266 L202.33218,185.7085 L206.00487,183.58807 L202.33218,185.7085 L203.26364,187.64677 L206.74171,188.29266 L206.00487,183.58807 M205.95068,183.66829 L205.95068,183.66829 L205.95068,183.66829 M203.10077,183.09042 L202.78642,178.79594 L198.58443,180.55855 L203.10077,183.09042 L200.47667,183.17256 L198.58443,180.55855 L200.47667,183.17256 L203.10077,183.09042 L202.78642,178.79594 L198.58443,180.55855 L203.10077,183.09042 M201.10922,181.97395 L201.10922,181.97395 M199.50995,182.68646 L196.88234,180.7836 L194.40158,181.83023 L196.88234,180.7836 L197.69485,177.8218 L194.40158,181.83023 L196.28703,182.14626 L194.40158,181.83023 L197.69485,177.8218 L198.69818,180.51083 L197.69485,177.8218 L196.88234,180.7836 L199.50995,182.68646 L196.35406,182.15749 L199.50995,182.68646 L198.85594,180.93364 L199.50995,182.68646 M196.33725,182.09445 L197.6737,187.10234 L194.73222,184.94643 L196.33725,182.09445 L192.75479,185.79048 L194.73222,184.94643 L192.75479,185.79048 L197.6737,187.10234 L194.73222,184.94643 L196.33725,182.09445 L192.75479,185.79048 L197.6737,187.10234 L196.33725,182.09445 M193.83865,186.19191 L191.48065,188.8638 L190.05524,189.55324 L193.45842,190.84172 L190.05524,189.55324 L193.83865,186.19191 L191.48065,188.8638 L192.9835,190.01314 L191.48065,188.8638 L190.05524,189.55324 L193.83865,186.19191 L194.36255,189.43466 L193.83865,186.19191 M191.01369,187.36684 L186.83421,184.43983 L191.46207,183.07845 L186.83421,184.43983 L188.9869,187.23766 L191.01369,187.36684 L191.46207,183.07845 L191.01369,187.36684 L186.83421,184.43983 L188.9869,187.23766 L191.01369,187.36684 L191.01369,187.36684 M188.9869,187.23766 L188.9869,187.23766 M190.26062,190.01326 L187.03473,192.51076 L190.26062,190.01326 L190.55368,195.17014 L189.47876,194.6193 L190.55368,195.17014 L189.49925,194.30957 L190.55368,195.17014 L190.26062,190.01326 L187.20769,192.43929 L187.02701,192.5657 L187.20769,192.43929 L189.45198,194.27098 L187.20769,192.43929 L190.26062,190.01326 M192.92679,190.03691 L197.1288,188.2743 L197.16676,193.0141 L194.2756,192.0788 L192.92679,190.03691 L197.16676,193.0141 L194.2756,192.0788 L192.92679,190.03691 L197.16676,193.0141 L197.1288,188.2743 L192.92679,190.03691 M194.66357,191.29799 L194.66357,191.29799 M194.81343,191.36166 L194.81343,191.36166 M194.1433,191.8785 L193.15862,192.447 L193.47588,193.7365 L193.15862,192.447 L194.1433,191.8785 M193.15862,192.447 L197.12321,195.34488 L196.98419,192.95505 L197.12321,195.34488 L193.47588,193.7365 L197.12321,195.34488 L193.15862,192.447 M194.08119,193.12135 L194.08119,193.12135 M189.50323,194.24948 L189.17136,199.26598 L185.96182,196.5675 L189.17136,199.26598 L189.50323,194.24948 L186.62062,195.45865 L189.50323,194.24948 L189.50323,194.24948 M189.23688,194.49533 L189.23688,194.49533 L189.23688,194.49533 M189.09297,194.42159 L186.92255,193.30933 M186.92255,193.30933 L189.09297,194.42159 M187.09225,192.10118 L186.43042,196.81264 L182.4644,193.46257 L184.19736,195.64449 L186.43042,196.81264 L182.4644,193.46257 L187.09225,192.10118 L182.4644,193.46257 L184.19736,195.64449 L186.43042,196.81264 L187.09225,192.10118 M183.47987,194.74112 L182.01855,195.58481 L181.78802,196.12282 L185.4452,198.62341 L181.78802,196.12282 L182.01855,195.58481 L185.4452,198.62341 L185.55069,196.41147 L185.4452,198.62341 L182.01855,195.58481 L183.47987,194.74112 M185.49593,196.32379 L186.1395,197.3541 L185.49593,196.32379 M186.1395,197.3541 L189.17136,199.26598 L186.1395,197.3541 L186.1395,197.3541 M181.20247,197.46225 L176.57462,198.82364 L177.91324,200.26454 L180.25497,202.4206 L181.20247,197.46225 L176.57462,198.82364 L177.91324,200.26454 L180.25497,202.4206 L176.57462,198.82364 L180.25497,202.4206 L181.20247,197.46225 M180.03815,197.80475 L180.24301,196.46034 L176.04102,198.22295 L180.24301,196.46034 L180.03815,197.80475 M177.98573,200.20277 L177.98573,200.20277 M177.11626,199.40666 L176.42392,198.76788 L176.04102,198.22295 L176.63628,198.8055 L176.04102,198.22295 L176.42392,198.76788 L177.11626,199.40666 M176.53145,198.70291 L176.53145,198.70291 M174.79704,199.59471 L176.14238,194.97446 L171.20264,195.90112 L174.79704,199.59471 L173.27707,198.25604 L173.27707,198.25604 L171.20264,195.90112 L174.79704,199.59471 L176.14238,194.97446 L176.14238,194.97446 L171.20264,195.90112 L173.27707,198.25604 L174.79704,199.59471 M174.0481,198.9351 L172.75723,203.94563 L171.33781,202.3892 L172.75723,203.94563 L174.0481,198.9351 M174.04199,198.92972 L169.42226,200.28873 L169.42226,200.28873 L169.50449,200.3789 L169.42226,200.28873 L174.04199,198.92972 M172.21808,197.98497 L169.64209,195.2436 L172.21808,197.98497 L169.5741,195.50963 L172.21808,197.98497 L172.34859,197.20201 L172.21808,197.98497 M172.13339,199.88574 L170.5936,204.73108 L167.19365,200.81241 L172.13339,199.88574 L167.19365,200.81241 L170.5936,204.73108 L172.13339,199.88574 M168.46887,199.83371 L165.80258,196.85416 L168.46887,199.83371 L168.46887,199.83371 M168.46887,199.83371 L169.75285,194.81024 L165.76845,196.48157 L169.75285,194.81024 L168.46887,199.83371 M167.24193,200.86806 L165.49013,205.68353 L162.37196,201.78961 L165.49013,205.68353 L167.24193,200.86806 M167.19783,200.81723 L162.40474,201.71637 L167.19783,200.81723 M168.99966,202.3962 L168.99966,202.3962 M164.2649,201.32109 L165.94777,196.43242 L164.53824,196.84706 L165.94777,196.43242 L164.50769,196.82716 M164.50769,196.82716 L165.94777,196.43242 L164.2649,201.32109 L163.14114,199.97514 L164.2649,201.32109 M163.89188,202.4545 L163.89188,202.4545 M162.51932,201.46031 L160.42516,206.14052 L157.38931,201.92941 L162.51932,201.46031 L160.42516,206.14052 L160.42516,206.14052 L157.38931,201.92941 L162.51932,201.46031 M162.55307,201.29184 L164.5488,196.82341 L159.4188,197.29251 L162.55307,201.29184 L164.5488,196.82341 L159.4188,197.29251 L162.55307,201.29184 M161.03223,199.35124 L160.02168,201.6887 M159.70966,202.41045 L159.70966,202.41045 M159.21436,201.76253 L157.06038,198.94482 L159.21436,201.76253 M157.633,202.26746 L154.92477,202.5151 L157.8416,206.74368 L159.03455,204.21156 L157.8416,206.74368 L154.92477,202.5151 L157.633,202.26746 M155.22015,202.48808 L157.26291,198.55487 L157.26291,198.55487 L152.3635,199.0029 M152.3635,199.0029 L151.74321,199.0029 L152.59698,199.0029 L150.69598,202.14717 M150,201.86223 L147.40302,197.6025 L152.59698,197.6025 L147.40302,197.6025 L150,201.86223 L152.59698,197.6025 L150,201.86223 M149.30402,202.14717 L147.40302,199.0029 L148.25679,199.0029 L147.40302,199.0029 L149.30402,202.14717 M147.67842,202.62088 L147.40302,202.62088 L147.67842,202.62088 M147.40302,202.62088 L147.40302,202.62088 L150,207.1 L147.40302,202.62088 M147.40302,202.14717 L150,206.61423 L150,206.61423 L152.59698,202.14717 L147.40302,202.14717 L150,206.61423 L152.59698,202.14717 L147.40302,202.14717 M152.32158,202.62088 L152.59698,202.62088 L150,207.1 L152.59698,202.62088 L152.59698,202.62088 M152.59698,202.62088 L152.32158,202.62088 M154.92477,202.5151 L154.92477,202.5151 M155.08528,202.74779 L154.91534,203.075 L152.37294,199.37346 M152.3635,199.0029 L157.0323,198.57596 M157.0323,198.57596 L159.98982,198.02115 L157.0323,198.57596 M157.06038,198.94482 L155.22015,202.48808 M155.08528,202.74779 L154.91534,203.075 M153.50484,195.05489 L152.61858,193.88661 L151.77426,195.29477 L150.88008,194.04558 L150,195.37538 L152.59698,191.45135 L151.07497,191.45135 M151.08932,191.43 L154.26572,191.13953 L151.77426,195.29477 L150.88008,194.04558 M150,193.05173 L150,193.05173 L152.59698,189.18546 L147.40302,189.18546 L147.40302,189.18546 L150,193.05173 L152.59698,189.18546 L147.40302,189.18546 L150,193.05173 M148.92503,191.45135 L147.40302,191.45135 L150,195.37538 L150,195.37538 M150,195.37538 L147.40302,191.45135 L148.6736,191.07704 L147.40302,191.45135 L148.92503,191.45135 M151.06544,190.63786 L151.06544,190.63786 M151.56844,190.7167 L151.81868,190.75594 L152.10466,190.49382 L152.98134,190.53783 L153.09204,190.25769 L157.24957,190.08653 L155.31686,190.65509 M155.31686,190.65509 L152.10466,190.49382 L152.10466,190.49382 L151.81868,190.75594 M151.56844,190.7167 L153.78548,191.06425 M153.78548,191.06425 L154.17328,190.9915 M154.17328,190.9915 L154.17328,190.9915 M154.17328,190.9915 L157.24957,190.08653 L155.14911,194.66167 L155.58319,193.71614 M155.86093,193.1112 L156.66658,194.12479 L158.49123,189.37129 L154.0033,189.93529 L154.07059,190.2174 L153.09204,190.25769 L152.98134,190.53783 M152.54579,191.2968 L155.8294,190.68082 L153.50484,195.05489 L154.2926,193.57257 L155.14911,194.66167 L154.2926,193.57257 M153.50484,195.05489 L152.61858,193.88661 M152.42863,191.30753 L152.18451,191.32985 M152.18451,191.32985 L151.3264,191.07704 M152.54579,191.2968 L152.54579,191.2968 M154.07059,190.2174 L154.0033,189.93529 L154.0033,189.93529 M154.81596,189.53455 L155.03714,189.80536 M155.0596,189.80254 L154.81596,189.53455 L159.52379,188.55272 L158.01991,193.45744 L157.27353,192.54358 L156.66658,194.12479 M158.01991,193.45744 L157.28493,192.51389 M157.27353,192.54358 L158.01991,193.45744 L158.47203,191.98293 L159.17577,192.6761 L159.48915,191.30203 M159.48915,191.30203 L160.10568,191.79999 M160.10568,191.79999 L159.56416,190.97314 L160.10568,191.79999 L160.86575,186.68823 L159.90903,187.77231 L160.86575,186.68823 L156.06847,188.53925 L156.6426,188.73245 M156.6426,188.73245 L156.06847,188.53925 L156.86841,188.23059 M156.86841,188.23059 L156.47746,187.96918 L161.1421,185.68823 L160.92744,188.8068 M160.92453,188.80705 L163.43398,192.03119 L164.13235,192.40958 L166.05453,188.33795 L160.92453,188.80705 L163.43398,192.03119 L164.13235,192.40958 L166.05453,188.33795 L166.05453,188.33795 L160.92453,188.80705 L164.13235,192.40958 L160.92453,188.80705 M160.92719,188.81049 L160.78676,190.85066 L160.29567,190.52228 L160.10568,191.79999 L159.48915,191.30203 M158.52956,191.7953 L159.17577,192.6761 L160.32185,187.65097 L159.06726,188.64793 L160.32185,187.65097 L155.51006,189.06535 L155.78188,189.3331 M155.78188,189.3331 L155.51006,189.06535 L155.92403,189.30347 L155.51006,189.06535 M156.06847,188.53925 L156.39705,188.80463 M156.47746,187.96918 L157.19759,188.10358 L156.47746,187.96918 M156.72694,187.36919 L161.1441,184.67558 L160.82358,185.844 M161.1421,185.68823 L160.49988,186.8294 M160.33159,187.63739 L160.33159,187.63739 M159.52379,188.55272 L157.9988,189.43318 M157.9988,189.43318 L157.9988,189.43318 M158.49123,189.37129 L156.73569,190.10768 M156.73569,190.10768 L158.49123,189.37129 M157.08243,189.96223 L157.08243,189.96223 M155.69801,190.54297 L155.69801,190.54297 M155.69801,190.54297 L155.69801,190.54297 M155.0596,189.80254 L154.81596,189.53455 M156.72694,187.36919 L157.18494,187.62323 M157.18494,187.62323 L156.72694,187.36919 L157.57536,187.43231 L156.72694,187.36919 L161.1441,184.67558 L161.19023,188.78276 L161.1441,184.67558 M161.1421,185.68823 L161.1421,185.68823 M160.90718,189.10118 L160.90718,189.10118 L161.20224,189.85152 L160.86829,189.66629 M161.20224,189.85152 L161.1944,189.1538 L161.20224,189.85152 M160.36327,190.06767 L160.78676,190.85066 L160.29567,190.52228 M160.36327,190.06767 L160.78676,190.85066 L160.78775,190.8363 M159.17577,192.6761 L158.47203,191.98293 M158.52956,191.7953 L159.17577,192.6761 M165.55348,196.25839 L165.55112,196.54115 L165.55348,196.25839 L169.75285,194.81024 L165.55348,196.25839 M168.71088,194.70146 L169.07626,195.04356 M169.07626,195.04356 L168.71088,194.70146 L169.32951,194.95622 L168.71088,194.70146 L173.07155,192.86436 L172.60939,195.63722 L173.07155,192.86436 L168.71088,194.70146 M169.62459,194.85446 L173.07155,192.86436 L169.62459,194.85446 M171.40753,192.87856 L175.82216,190.6427 L172.97546,192.90485 L175.82216,190.6427 L175.47618,195.09944 L175.82216,190.6427 L171.40753,192.87856 L172.0025,193.31474 L171.40753,192.87856 L172.63194,193.04956 L171.40753,192.87856 M172.99792,193.30612 L174.84055,195.21867 L172.99792,193.30612 M172.88826,193.96411 L174.64862,195.25468 L172.88826,193.96411 M174.4479,191.33871 L173.57707,190.83452 L175.37712,190.8681 L173.57707,190.83452 L174.4479,191.33871 M173.57707,190.83452 L175.91414,189.42229 L173.57707,190.83452 M175.74803,190.68025 L176.35886,189.98811 L175.74803,190.68025 M175.78748,191.08939 L177.99641,193.39319 L175.71133,192.07019 L177.99641,193.39319 L177.96147,190.34184 L177.99641,193.39319 L175.78748,191.08939 M176.53716,190.21497 L177.91672,190.49893 L174.17703,187.2121 L177.91672,190.49893 L179.11678,186.28543 L174.17703,187.2121 L176.53716,190.21497 L177.91672,190.49893 L179.11678,186.28543 L179.11678,186.28543 L174.17703,187.2121 L176.53716,190.21497 M178.07542,189.94173 L179.88326,190.76323 L179.3638,185.59631 L178.95937,186.31497 L179.3638,185.59631 L178.15704,186.46547 M178.15704,186.46547 L179.3638,185.59631 L179.88326,190.76323 L178.07542,189.94173 M178.32504,189.0653 L179.88326,190.76323 L178.32504,189.0653 M179.5531,187.47925 L181.03427,187.99522 L180.06764,182.89584 L179.31772,185.62952 M179.25513,185.85767 L179.25513,185.85767 M179.40862,186.04207 L181.03427,187.99522 L179.5531,187.47925 M181.03427,187.99522 L180.06764,182.89584 L176.13539,186.28865 L177.17293,186.65009 L176.13539,186.28865 L180.06764,182.89584 M178.94063,185.90111 L176.13539,186.28865 L178.94063,185.90111 M175.34851,188.7026 L175.16606,188.6197 L175.24095,188.56577 L175.16606,188.6197 L175.27756,188.61234 L175.16606,188.6197 L175.34851,188.7026 M175.4102,195.81302 L175.4102,195.81302 L175.4102,195.81302 M180.25497,202.4206 L180.25497,202.4206 M199.74174,189.50082 L203.91475,190.75388 L203.34895,187.66261 L203.91475,190.75388 L199.74174,189.50082 L199.9533,188.21614 L203.91475,190.75388 L199.9533,188.21614 L202.54683,186.15517 L199.9533,188.21614 L199.74174,189.50082 M203.32848,187.55077 L203.32848,187.55077 L203.32848,187.55077 M203.93738,186.64922 L203.93738,186.64922 M203.00623,185.79012 L203.00623,185.79012 M193.80446,174.49603 L192.07253,175.41145 L192.07253,175.41145 L193.80446,174.49603 L194.12093,170.78838 L194.12093,170.78838 L189.49307,172.14978 L193.80446,174.49603 L194.12093,170.78838 L189.49307,172.14978 L193.80446,174.49603 M192.07253,175.41145 L189.49307,172.14978 L192.07253,175.41145 M180.92657,174.19843 L179.81631,177.84125 L175.98683,175.12508 L179.81631,177.84125 L180.92657,174.19843 L175.98683,175.12508 L178.63744,178.6244 L179.81631,177.84125 L178.63744,178.6244 L178.63744,178.6244 L175.98683,175.12508 L180.92657,174.19843 M179.25017,177.4397 L179.25017,177.4397 M166.97072,176.3748 L165.094,179.8819 L161.8407,176.8439 L164.49721,180.58438 L165.094,179.8819 L166.97072,176.3748 L161.8407,176.8439 L164.49721,180.58438 L165.094,179.8819 L161.8407,176.8439 L166.97072,176.3748 M164.92683,166.00899 L165.39595,164.25635 L167.2573,161.45679 L162.12727,161.92589 L165.39595,164.25635 L164.92683,166.00899 L167.2573,161.45679 L165.39595,164.25635 L162.12727,161.92589 L164.92683,166.00899 L167.2573,161.45679 L162.12727,161.92589 L164.92683,166.00899 M152.59698,166.02525 L150.39719,166.02525 L152.59698,166.02525 L150,168.71568 L147.77936,166.41515 M147.77936,166.41515 L145.40013,168.92468 L143.39276,166.81627 L145.40013,168.92468 L148.18257,165.98984 L144.91414,163.75452 L144.91414,163.75452 L147.74818,165.69275 M147.74818,165.69275 L148.79704,164.68231 M148.79704,164.68231 L147.74818,165.69275 M147.43483,166.05821 L147.43483,166.05821 M147.77936,166.41515 L150,168.71568 L152.59698,166.02525 L151.20296,164.68231 M151.20296,164.68231 L152.59698,166.02525 M150,166.68724 L150,164.95592 L147.40302,162.35893 L152.59698,162.35893 L150,166.68724 L147.40302,162.35893 L152.59698,162.35893 L150,164.95592 L147.40302,162.35893 L150,166.68724 L150,164.95592 L152.59698,162.35893 M152.59698,162.35893 L150,166.68724 M149.60281,166.02525 L148.14899,166.02525 L149.60281,166.02525 M148.18257,165.98984 L143.7774,166.39265 L148.18257,165.98984 M150,168.71568 L150,168.71568 M143.81293,166.35355 L139.95352,164.44211 L143.29999,166.0995 M143.29999,166.0995 L144.91414,163.75452 L143.29999,166.0995 M143.81293,166.35355 L139.55788,167.15176 L143.81293,166.35355 L140.91351,169.54657 L139.16885,167.60864 L140.91351,169.54657 L143.39276,166.81627 M139.59561,167.10744 L135.59404,168.2846 M135.6345,168.23294 L130.89046,167.10823 L131.36046,169.61182 L130.89046,167.10823 L135.6345,168.23294 L132.71649,171.95793 L131.61858,170.27994 L132.71649,171.95793 L135.6345,168.23294 L131.98308,169.7646 M132.02711,169.70235 L128.81316,171.55792 M128.86227,171.47948 L126.21129,175.71371 L125.86759,174.16754 L126.21129,175.71371 L125.608574,174.64587 L126.21129,175.71371 L128.86227,171.47948 L123.69797,171.26082 L125.00659,173.57935 L123.69797,171.26082 L125.528725,173.554 L123.69797,171.26082 L128.86227,171.47948 L126.160645,173.62634 M126.21792,173.52057 L123.80042,177.9851 L123.851295,176.45224 M124.08593,175.93634 L126.21792,173.52057 L121.0324,173.77219 L123.484116,175.87079 L121.0324,173.77219 L122.50243,176.00957 L121.0324,173.77219 L126.21792,173.52057 L126.21792,173.52057 L123.80042,177.9851 L123.41849,177.40381 L123.80042,177.9851 M122.73668,178.18832 L117.88917,179.3574 L122.73668,178.18832 L121.92417,181.15013 L120.95755,183.03662 L117.88917,179.3574 L121.92417,181.15013 L117.88917,179.3574 L120.95755,183.03662 M121.68827,181.04533 L121.68827,181.04533 M122.24275,179.98882 L124.15916,175.77534 L119.08011,176.49338 L120.71197,178.67662 L119.08011,176.49338 L122.092415,178.3437 L119.08011,176.49338 L124.15916,175.77534 L122.24275,179.98882 M122.47886,178.89091 L122.47886,178.89091 M122.67533,178.41197 L124.15916,175.77534 M129.2079,173.68803 L128.46614,172.11218 L129.2079,173.68803 L128.4781,172.09308 L129.2079,173.68803 L132.02711,169.70235 L132.02711,169.70235 L127.011185,169.02112 L128.15422,171.4495 L127.011185,169.02112 L128.1759,171.45041 L127.011185,169.02112 L132.02711,169.70235 L129.2079,173.68803 M131.90326,169.7981 L131.90326,169.7981 M135.21164,168.77275 L136.65065,170.56602 L139.59561,167.10744 L139.59561,167.10744 L135.24026,165.56927 L135.00398,168.08347 L135.24026,165.56927 L139.01675,166.903 M139.01675,166.903 L139.95352,164.44211 L139.01675,166.903 M135.21164,168.77275 L136.65065,170.56602 L136.65317,170.56306 M142.27814,180.07492 L146.9503,180.38123 L145.51216,180.98448 L146.9503,180.38123 L144.57294,184.69548 L144.06956,183.99155 L144.57294,184.69548 L145.2288,183.50528 M145.2288,183.50528 L145.80827,184.25842 L145.80827,184.25842 L148.33566,180.16704 L144.03583,179.45305 L143.92052,180.18259 L144.03583,179.45305 L144.03583,179.45305 M145.54732,179.70403 L145.94037,178.99757 L145.54732,179.70403 M145.94037,178.99757 L149.12314,179.89955 M149.2981,180.16762 L148.2091,180.3719 M148.2752,180.18481 L148.33566,180.16704 L146.82315,180.61197 M147.25836,180.48395 L147.25836,180.48395 M147.28377,179.37828 L147.94489,178.71973 L148.51353,178.9655 M147.94489,178.71973 L147.94489,178.71973 M147.28377,179.37828 L145.94037,178.99757 M145.64005,180.71791 L143.47124,185.23874 L143.05577,184.57794 M143.05635,184.57652 L143.05635,184.57652 L143.47124,185.23874 L144.06956,183.99155 M143.05635,184.57652 L143.47124,185.23874 M142.53029,185.8748 L144.43715,181.1688 L143.24097,182.11934 M143.24097,182.11934 L143.24097,182.11934 M143.31604,182.05968 L143.31604,182.05968 L143.31604,182.05968 M143.37122,181.72276 L142.33601,182.89577 M142.50531,182.70393 L142.50531,182.70393 M142.4685,182.36618 L141.6143,183.88402 L141.31302,185.64581 M141.5636,185.98293 L141.77328,186.58803 L143.37122,181.72276 L138.29465,182.76772 L139.25029,183.33963 L138.29465,182.76772 L138.90932,183.44276 M138.90932,183.44276 L138.29465,182.76772 M137.50575,183.86731 L138.68608,184.34216 L137.50575,183.86731 L138.21576,184.53534 L137.0245,185.02461 L141.75127,183.0832 L140.88062,188.17421 L140.93875,186.04503 L140.93875,186.04503 L141.75127,183.0832 M141.6143,183.88402 L142.4685,182.36618 L141.21884,187.36084 L141.04732,187.19946 L141.21884,187.36084 L141.1208,186.76971 L141.21884,187.36084 M140.89647,188.08151 L140.88062,188.17421 L137.0245,185.02461 L140.93875,186.04503 L137.0245,185.02461 L140.88062,188.17421 M141.77328,186.58803 L141.5636,185.98293 M141.49002,186.27695 L141.77328,186.58803 L142.16437,185.39728 L142.53029,185.8748 L142.21411,185.2458 L142.53029,185.8748 M142.53029,185.8748 L142.16437,185.39728 M142.21411,185.2458 L142.21411,185.2458 M142.4685,182.36618 L137.50575,183.86731 M138.68608,184.34216 L138.68608,184.34216 M139.8967,182.43796 L139.37177,181.75291 L140.0792,182.40039 L139.37177,181.75291 L139.8967,182.43796 M139.37177,181.75291 L144.43715,181.1688 M144.30829,181.4868 L145.64005,180.71791 L140.71057,180.84789 L141.15062,181.54778 L140.71057,180.84789 L141.15237,181.54758 M141.15237,181.54758 L140.71057,180.84789 L142.4434,180.8022 M142.4434,180.8022 L142.27814,180.07492 L142.4434,180.8022 M144.30829,181.4868 L145.64005,180.71791 M145.51216,180.98448 L145.51216,180.98448 M146.50552,183.1297 L147.14682,183.93831 L149.4967,180.47194 M150,180.56775 L152.59698,177.26393 L150,180.56775 L150,181.2431 L152.59698,177.26393 L150,181.2431 L147.40302,177.26393 L150,180.56775 L147.40302,177.26393 L150,181.2431 M150,181.2431 L150,180.56775 M150.70091,180.16914 L151.19418,180.12404 L150.8324,179.96768 M150.70091,180.16914 L151.19418,180.12404 L148.55563,183.74304 L147.86829,182.87405 M148.58298,183.70552 L148.55563,183.74304 M149.28355,182.74464 L150,183.67741 L152.59698,180.29631 L151.06859,180.29631 L152.59698,180.29631 L151.20296,179.3999 M151.20296,179.3999 L152.59698,180.29631 L150,183.67741 M147.15,183.93364 L147.14682,183.93831 M145.80827,184.25842 L145.2288,183.50528 M147.40302,177.26393 L152.59698,177.26393 L147.40302,177.26393 M142.32181,149.6327 L142.32181,149.6327 M134.84157,150.73756 L134.84157,150.73756 M127.7532,152.55469 L127.7532,152.55469 M115.607254,158.1079 L115.85328,159.31015 L114.31651,154.57115 L115.607254,158.1079 M176.55293,160.16832 L179.48613,163.99092 L176.55293,160.16832 L181.49268,159.24167 L180.4128,162.17487 L176.55293,160.16832 L180.4128,162.17487 L181.49268,159.24167 L176.55293,160.16832 M180.4128,162.17487 L179.48613,163.99092 L180.4128,162.17487 M190.32475,157.1295 L194.68077,158.76274 L193.31938,160.68275 L190.32475,157.1295 L194.68077,158.76274 L193.31938,160.68275 L190.32475,157.1295 L194.9526,155.76811 L194.68077,158.76274 L194.9526,155.76811 L190.32475,157.1295 M194.03758,158.52158 L194.03758,158.52158 M193.31938,160.68275 L193.31938,160.68275 M202.02686,167.99126 L206.22887,166.22864 L206.714,169.92863 L204.47165,171.02464 L202.02686,167.99126 L206.714,169.92863 L206.22887,166.22864 L202.02686,167.99126 L206.714,169.92863 L204.47165,171.02464 L202.02686,167.99126 M204.47165,171.02464 L204.47165,171.02464 M206.22887,166.22864 L206.22887,166.22864 M213.27957,162.7519 L216.95226,160.63148 L218.22705,164.2515 L215.5295,165.57198 L218.22705,164.2515 L216.95226,160.63148 L213.27957,162.7519 L215.5295,165.57198 L213.27957,162.7519 L218.22705,164.2515 L213.27957,162.7519 M216.0958,163.60551 L216.0958,163.60551 M206.08595,156.16594 L207.84857,154.10396 L207.30565,151.12166 L207.30565,151.12166 L207.84857,154.10396 L203.10365,152.88426 L207.30565,151.12166 L203.10365,152.88426 L206.08595,156.16594 L207.84857,154.10396 L203.10365,152.88426 L206.08595,156.16594 M214.57495,147.53714 L219.59193,148.31326 L218.24763,145.4167 L219.59193,148.31326 L217.47151,150.55168 L214.57495,147.53714 L219.59193,148.31326 L217.47151,150.55168 L214.57495,147.53714 L218.24763,145.4167 L214.57495,147.53714 M217.47151,150.55168 L217.47151,150.55168 M224.4562,141.21977 L227.1957,143.97823 L229.62172,141.53322 L224.4562,141.21977 L229.62172,141.53322 L227.50914,138.79375 L224.4562,141.21977 L227.1957,143.97823 L229.62172,141.53322 L227.50914,138.79375 L224.4562,141.21977 M227.35185,141.39548 L227.35185,141.39548 M110.70708,77.9645 L107.327034,74.304726 L106.39568,77.14543 L106.07922,79.3259 L110.70708,77.9645 L107.327034,74.304726 L106.07922,79.3259 L107.327034,74.304726 L106.39568,77.14543 M98.23227,82.10215 L94.03027,83.86476 L93.54513,81.69196 L93.54513,81.69196 L93.54513,81.69196 L94.75096,78.75415 L94.03027,83.86476 L94.75096,78.75415 L98.23227,82.10215 L94.75096,78.75415 L93.54513,81.69196 M94.32703,81.76039 L94.32703,81.76039" fill="none" stroke="black" vector-effect="non-scaling-stroke"/>
</g>
</svg>